<svg width="876" height="637" xmlns="http://www.w3.org/2000/svg"><defs><radialGradient cx="12.458%" cy="28.484%" fx="12.458%" fy="28.484%" r="100%" gradientTransform="matrix(0 .3421 -1 0 .41 .242)" id="c"><stop stop-color="#F2D69F" offset="0%"/><stop stop-color="#3D2D0C" offset="100%"/></radialGradient><radialGradient cx="50%" cy="28.656%" fx="50%" fy="28.656%" r="100%" gradientTransform="matrix(0 .13835 -1 0 .787 .217)" id="d"><stop stop-color="#D6B87D" stop-opacity=".822" offset="0%"/><stop stop-color="#4D370B" offset="100%"/></radialGradient><radialGradient cx="50%" cy="0%" fx="50%" fy="0%" r="100%" gradientTransform="matrix(0 1 -.3366 0 .5 -.5)" id="e"><stop stop-color="#F2D69F" offset="0%"/><stop stop-color="#957431" offset="100%"/></radialGradient><radialGradient cx="50%" cy="0%" fx="50%" fy="0%" r="100%" gradientTransform="matrix(0 1 -.6881 0 .5 -.5)" id="g"><stop stop-color="#F2D69F" offset="0%"/><stop stop-color="#725721" offset="100%"/></radialGradient><radialGradient cx="50%" cy="0%" fx="50%" fy="0%" r="100%" gradientTransform="matrix(0 .73328 -1 0 .5 -.367)" id="i"><stop stop-color="#FFF" offset="0%"/><stop stop-color="#EFEAEA" offset="100%"/></radialGradient><radialGradient cx="25.194%" cy="23.173%" fx="25.194%" fy="23.173%" r="105.323%" gradientTransform="matrix(.04552 .56967 -.99896 .02596 .472 .082)" id="j"><stop stop-color="#FFF" offset="0%"/><stop stop-color="#ECECEC" offset="100%"/></radialGradient><linearGradient x1="50%" y1="0%" x2="50%" y2="100%" id="a"><stop stop-color="#FFBFC9" offset="0%"/><stop stop-color="#EDAF71" offset="100%"/></linearGradient><linearGradient x1="38.955%" y1="-4.535%" x2="50%" y2="100%" id="b"><stop stop-color="#341919" offset="0%"/><stop stop-color="#877171" offset="100%"/></linearGradient><linearGradient x1="50%" y1="0%" x2="50%" y2="100%" id="f"><stop stop-color="#CBA150" offset="0%"/><stop stop-color="#C5BA8A" offset="100%"/></linearGradient><linearGradient x1="50%" y1="0%" x2="50%" y2="100%" id="h"><stop stop-color="#E8C47F" offset="0%"/><stop stop-color="#523702" offset="100%"/></linearGradient></defs><g fill="none" fill-rule="evenodd"><path fill="url(#a)" d="M0 0h876v634H0z"/><path d="M486.28 80.25l2.646-4.74c5.016-8.982 16.432-20.198 25.504-25.052l-2.195 1.174c1.95-1.043 5.313-1.888 7.526-1.888h12.967c1.1 0 2.78.408 3.767.92l.034.017c9.124 4.73 19.46 16.374 23.077 25.99l3.304 8.78-21.011 1.345c-10.26.657-26.729-.513-36.8-2.616l-18.82-3.93z" fill="#341919"/><path fill="#501B1B" d="M473.442 303.47l-34.973-1.51 7.89 5.532 20.813 2.54z"/><path d="M530.961 87.582c0-2.214 1.746-4.395 3.904-4.877 0 0 9.468-2.06 14.2-3.402 4.734-1.343 9.948-3.853 9.948-3.853 2.516-1.13 5.272.083 6.148 2.687l-.246-.733c.353 1.048-.145 2.333-1.113 2.87l-3.38 1.874c-3.186 1.767-8.698 3.555-12.321 3.996l-17.14 2.086v-.648z" fill="#FFF3C5"/><path d="M292.031 214.435l-.432 9.702.432 4.794s11.854 5.337 18.03 5.02c6.175-.318 17.558-14.865 17.558-14.865l-21.094-5.441s-4.708 1.159-6.648 1.172c-1.941.013-7.846-.382-7.846-.382z" fill="#050302"/><path d="M510.182 85.278c1.298-1.894-.906-4.533-4.94-5.9l-4.24-1.439c-4.026-1.365-10.35-4.058-14.119-6.01l-1.288-.668c-1.472-.762-3.475-.319-4.484 1.006l.293-.385c-1.004 1.318-.834 3.295.39 4.427l-.572-.528c3.123 2.888 9.044 5.85 13.222 6.615l15.738 2.882z" fill="#AE9949"/><path d="M510.865 84.638s1.616-2.38 3.17-3.191c1.554-.813 3.358-1.141 3.358-1.141 1.878-.474 4.878-.33 6.701.345 0 0 2.164.72 2.878 1.217.715.498 3.711 5.193 3.711 5.193s-7.297-.379-10.932-.695c-3.635-.316-8.886-1.728-8.886-1.728z" stroke="#D6C378" fill="#EDDA93"/><path fill="#421F1F" d="M533.813 59.202V72.62l12.899-11.809zm-25.33 15.811l24.008.582 2.287.602c3.146.826 8.102.397 11.053-.952l.395-.18 8.34-3.812 2.752 3.607-26.609 8.188-.861-.48c-2.845-1.588-7.772-3.211-11.005-3.626l-2.574-.33-7.786-3.599z"/><path d="M567.062 89.082c-14.752 2.193-38.714 2.611-53.538.932l-17.204-1.948c-18.108-2.05-46.64-8.837-63.752-15.112 0 0-4.201-1.65-5.735-2.017-1.534-.367-14.356-2.187-14.356-2.187-8.745-1.268-22.605.023-30.98 2.892l-9.75 3.34-11.526 6.315c-7.749 4.246-17.305 14.055-21.328 21.934 0 0-2.792 5.309-3.934 7.932-1.142 2.624-3.089 8.242-3.089 8.242-2.8 7.795-4.626 20.807-4.078 29.074l1.144 17.256c1.351 20.391 13.852 48.936 27.924 63.76l3.871 4.078c6.084 6.41 17.893 13.605 26.378 16.073l35.04 10.19 2.821-5.73c3.904-7.932 6.344-21.479 5.45-30.276l-1.906-18.72c-1.454-14.285 4.952-34.707 14.292-45.597l11.022-12.85c4.315-5.032 13.015-10.418 19.457-12.037l10.773-2.707c18.745-4.71 48.661-3.153 66.815 3.477l-1.15-.42c6.741 2.462 16.197 8.694 20.947 14.067 0 0 23.473 22.833 27.334 47.431 3.86 24.6-2.1 90.641-2.1 90.641l1.404-.108c7.163-.552 18.273-3.398 24.766-6.46 0 0 18.318-7.709 31.741-18.047 13.424-10.338 33.521-40.19 33.521-40.19 1.57-2.273 3.859-6.107 5.114-8.568l-2.271 4.453c7.89-15.465 14.835-43.666 15.509-62.98l.096-2.74c.616-17.663-9.964-41.052-23.64-52.248l4.062 3.325c-9.827-8.046-28.036-15.682-40.665-17.056l-20.348-2.214c-8.237-.897-21.556-.636-29.745.581l-28.386 4.22z" fill="#231212"/><path d="M329.897 168.71l-1.491-3.708c-3.295-8.195-5.049-21.95-3.92-30.702l.386-2.998c1.13-8.761 5.15-22.329 8.973-30.292l-1.25 2.602c2.631-5.477 8.307-13.339 12.676-17.556l7.745-7.476c3.577-3.453 10.236-7.713 14.86-9.509l5.937-2.307c6.692-2.6 17.93-4.731 25.117-4.76h-.374c11.046-.044 28.605 2.382 39.233 5.425l26.945 7.714 24.245 5.667 24.156 4.586c7.055 1.34 18.584 2.151 25.753 1.813l-11.54.544c21.519-1.014 56.205-4.596 76.375-7.824 8.878-1.017 24.129-1.396 34.055-.848l-6.605-.365c7.716.427 19.972 2.585 27.37 4.82l-2.238-.676c4.76 1.437 12.232 4.407 16.666 6.622l6.173 3.083c3.454 1.725 7.655 5.92 9.39 9.387l9.3 18.571c1.98 3.955 1.881 4.018-.266.143 0 0-1.072-2.193-4.148-7.083-3.076-4.89-6.243-7.88-6.243-7.88-1.887-2.007-5.396-4.678-7.837-5.967l-9.087-4.792c-3.42-1.804-9.14-4.334-12.78-5.652l6.588 2.385c-16.581-6.001-53.578-6.844-59.917-5.761l-60.916 6.692-26.572-.75-44.65-7.15-46.37-12.15c-27.877-8.954-64.883 2.849-77.398 19.408-15.666 16.372-23.394 53.005-18.341 76.744z" fill="url(#b)"/><path d="M601.568 202.521c23.337 4.034 57.03-11.011 75.251-33.6l3.916-4.854 21.37 10.63c0 6.904-2.682 21.73-2.682 21.73s.636-2.717 0 0c-1.707 7.292-2.579 8.857-2.579 8.857-8.897 27.623-37.79 59.156-64.543 70.437l-11.137 4.695c-7.12 3.002-19.161 5.436-24.177 5.436l4.581-83.33z" fill="#311717"/><path d="M479.657 247.101l-.41 19.84-4.036 6.509 12.732 26.083 13.198 2.181s30.099-3.31 37.804-13.69c7.704-10.38 10.267-54.04 10.267-54.04l-27.715 34.501 12.068-23.012-22.742 16.522 20.382-19.876c-11.256 4.316-35.485 6.442-51.548 4.982z" fill="#D7ACA0"/><path d="M479.203 247.311l.6 18.843-4.42 6.845 7.932 16.754 53.447-48.402-7.195 1.772c-12.976 3.197-34.307 5.144-47.653 4.35l-2.711-.162z" fill="#B98476"/><path d="M335.913 190.47c26.162 1.835 74.159-.572 94.032-3.462 0 0 1.594 37.241 0 52.207-1.593 14.966 65.79 68.746 65.79 68.746l-112.417-54.374c-7.46-3.608-17.713-11.776-22.822-18.295 0 0-5.453-6.36-11.253-15.524-5.8-9.164-13.33-29.298-13.33-29.298z" fill="#311717"/><path d="M463.572 138.198c-.999.477-1.938 1.74-2.101 2.844l-4.938 33.456-.253 2.92c-.381 4.403-.673 11.565-.651 15.964l-.006-1.244c.03 6.075 1.763 15.622 3.87 21.32l8.751 23.67c1.15 3.112 4.481 6.858 7.432 8.363l1.114.567c1.47.75 4.007 1.392 5.672 1.434l6.472.16c6.623.165 17.314-.448 23.874-1.368l11.812-1.657c2.738-.384 5.831-2.755 6.91-5.3l2.524-5.954c2.373-5.598 4.45-15.055 4.64-21.134l1.18-37.74s-1.266-21.694-3.42-33.038c-2.153-11.344-5.025-11.44-5.025-11.44-18.61-4.485-50.72 0-69.666 9.04l1.809-.863z" fill="#D7ACA0"/><path d="M45.711 166.85c.533-3.269 3.52-6.752 6.46-8.28 0 0 1.783 1.059 7.507-7.315 5.724-8.373 7.554-19.474 8.064-25.151.558-6.2.595-23.63-2.538-36.25-3.133-12.618-10.102-22.662-10.102-22.662v-6.241c0-2.758.632-7.136 1.416-9.79l.187-.633c1.093-3.705 5.118-6.708 8.975-6.708h14.604c2.21 0 5.38 1.141 7.085 2.55l28.34 23.433-14.038 1.775-15.86-14.555c-1.629-1.495-3.182-.933-3.47 1.265l-.727 5.536c-.36 2.738-.255 7.155.22 9.872 0 0 7.161 38.379 6.177 58.875-.984 20.497-8.396 32.071-8.396 32.071-1.986 3.943-3.597 10.717-3.597 15.14v9.253c0 1.108.72 2.526 1.628 3.18l30.504 21.987c.9.648 2.465.848 3.5.445l4.353-1.693c2.576-1.003 4.665-4.054 4.665-6.807V194.8l1.462.316c1.618.35 2.912 1.98 2.892 3.642l-.172 13.792c-.034 2.762-1.957 6.181-4.303 7.641l-8.765 5.455c-2.343 1.458-6.188 1.537-8.592.174l-51.16-29.002c-1.923-1.09-4.457-3.481-5.658-5.334l2.177 3.36c-3.266-5.042-5.12-13.997-4.144-19.982l1.306-8.011z" fill="#5B4318"/><path d="M120.795 194.65s1.073 11.433-.92 14.994c-1.993 3.561-8.698 5.429-8.698 5.429-1.049.348-2.64.125-3.55-.497l-28.111-19.195c-2.737-1.869-4.75-6.055-4.473-9.364 0 0 .363-5.77 1.272-11.426.91-5.656 3.265-10.971 3.265-10.971l6.861-22.065s1.703-20.504.895-30.03c-.808-9.528-5.689-40.964-5.689-40.964-.251-1.633-.316-4.291-.146-5.937l1.067-10.302 13.837 12.802c2.836 2.623 8.242 4.302 12.07 3.75l7.892-1.137 5.554 11.753 60.841 42.832 73.285 67.166 2.718 6.297c1.092 2.53 3.81 5.882 6.058 7.478l.49.347 4.261-.726 1.243 12.338 2.888 3.375-.934-.783c-29.208-24.483-61.637-14.697-69.306 11.272l-33.189 9.522-4.686-2.649s5.283-1.156 9.218-3.725c3.935-2.57 3.06-3.562 4.194-5.125 3.313-4.57 1.952-12.335 1.952-12.335l-6.346-24.056c-1.408-5.337-6.06-12.426-10.412-15.853l-53.378-42.03c-1.302-1.026-3.14-.775-4.1.58 0 0-3.307 4.419-5.179 8.242-1.872 3.824-5.457 14.607-5.457 14.607s-2.062 7.696-2.117 11.389c-.055 3.692 1.4 11.436 1.4 11.436.192 1.078.966 2.594 1.739 3.378 0 0 6.534 6.98 11.356 9.212 4.822 2.232 12.335.972 12.335.972z" fill="#433B3B"/><path d="M108.73 133.538l.318-.624c3.003-5.906 9.563-7.25 14.648-3.006l52.76 44.03 9.839 8.813-1.693 2.74c-.583.942-.638 2.498-.127 3.469l-.592-1.126c2.573 4.89 4.959 13.327 5.329 18.84l1.203 17.947-5.35 7.965-14.155 8.389-5.524-3.521s4.503-.533 8.344-2.747c3.84-2.214 5.62-5.095 6.844-7.375 2.71-5.055-.78-16.744-.78-16.744l-9.043-29.182-62.02-47.868z" fill="#171717"/><path d="M185.766 192.048l3.415-1.614c2.992-1.414 8.098-2.4 11.4-2.2l30.59 1.843c1.1.066 2.748.604 3.674 1.197l.012.008c1.398.895 3.875 1.669 5.537 1.728l16.099.571 2.6 6.825-18.673-2.593-5.931-1.625c-3.334-.913-8.834-1.793-12.3-1.967l-21.3-1.067c-3.459-.174-8.454 1.423-11.179 3.583l-1.775 1.408-2.17-6.097z" fill="#202020"/><path fill="#292424" d="M154.03 104.853l90.046 81.436 3.115-2.607-65.402-60.135z"/><path d="M190.865 199.123l2.504 22.213 13.447-10.187c5.001-3.788 14.136-6.578 20.397-6.231l15.722.87c3.863.215 9.745 1.897 13.132 3.756l14.41 7.908-.959-12.421-3.762.162s-26.922-4.957-40.658-6.07c-13.736-1.113-34.233 0-34.233 0z" fill="#201C1C"/><path d="M74.115 43.815l-6.139 23.426s5.597 18.63 7.242 28.97c1.645 10.341 3.29 27.507 3.29 27.507 1.685 15.965-8.85 34.189-18.425 38.439l-2.03 23.87H69.45l2.576-17.14L82.4 158.446s6.355-19.379 6.211-34.789c-.144-15.41-7.053-55.278-7.053-55.278l.99-11.431c.096-1.103.844-1.396 1.668-.658l17.36 15.529 14.628-1.932L86.875 45.9c-1.285-1.052-3.67-1.927-5.331-1.956l-7.429-.128z" fill="#AF883B"/><path d="M170.647 240.826l7.524 4.435s9.62-7.054 15.971-7.997c6.352-.942 24 2.064 24 2.064s10.534 4.222 16.274 5.933c5.74 1.711 2.176.65 2.176.65 5.814 1.754 15.423 3.707 21.471 4.364l35.114 3.81 6.218-10.753c1.662-2.873 2.18-7.755 1.158-10.906l.28.864c-1.021-3.15-4.05-7.229-6.787-9.126l-.305-.212c-3.18-2.205-8.879-4.32-12.704-4.826 0 0-8.425-.49-13.688-3.586s-11.038-5.882-11.038-5.882c-5.423-2.736-14.747-4.688-20.811-4.36l-16.569.895s-9.652 2.963-13.689 5.39c-4.036 2.43-13.295 10.844-13.295 10.844l-7.398 10.025-13.902 8.374z" fill="#4A3205"/><path d="M195.771 219.51l.9 7.88s12.392-10.316 19.75-12.484c7.357-2.169 19.683.86 19.683.86l30.857 7.97-1.491-4.996c-.632-2.118-2.747-4.631-4.732-5.6 0 0-4.632-2.383-9.267-4.15-4.636-1.766-11.428-3.338-11.428-3.338s-16.652-1.32-25.551 1.465c-8.9 2.786-18.72 12.392-18.72 12.392z" fill-opacity=".454" fill="#CFA95F"/><path d="M453.65 199.978l-.87-2.114c-1.052-2.555-4.001-3.861-6.596-2.913l.267-.098c-1.034.378-1.835 1.585-1.791 2.683l.605 14.984c.134 3.31 1.533 8.34 3.136 11.257l.04.073c2.877 5.234 9.988 8.684 15.874 7.707l1.975-.328s-5.642-13.7-7.825-20.68-4.815-10.57-4.815-10.57z" fill="#AF796A"/><path d="M235.452 172.784l2.178-14.904c.437-2.993 3.122-6.213 5.982-7.187l2.792-.95-2.005 3.308c-1.568 2.587-2.915 7.14-3.009 10.166l-.462 14.878-5.476-5.311z" fill="#4B4B4B"/><path d="M246.48 149.686s12.055 5.757 17.078 9.314c5.023 3.557 19.899 16.167 19.899 16.167 2.535 2.134 5.373 6.432 6.014 8.535l3.213.154c4.418.213 11.216 1.98 12.821 2.777 0 0-5.93.372-8.137 1.436-2.207 1.064-5.287 5.036-5.287 5.036l-7.632-5.802.27-1.632c.181-1.088-.384-2.527-1.248-3.203l-28.561-22.366c-2.178-1.705-6.108-2.513-8.768-1.808l.234-.062c-1.598.424-2.834 2.118-2.76 3.773l.847 19.108-4.326-3.7.509-18.349c.046-1.651.981-3.988 2.094-5.224l3.74-4.154z" fill="#878787"/><path d="M268.004 162.804l2.95-.604c2.161-.442 5.472.064 7.4 1.141 0 0 4.865 2.66 7.206 4.21 2.34 1.548 9.996 7.535 9.996 7.535 3.3.219 10.346 2.663 15.744 5.464l.098.05 24.476 27.232c1.48 1.645 2.953 4.741 3.297 6.937l.419 2.682-1.61-.692c-4.569-1.964-10.417-6.967-13.092-11.15 0 0-3.3-5.448-5.378-7.825-2.079-2.377-14.048-10.871-14.048-10.871l-16.297-3.052-4.677-7.357-16.484-13.7z" fill="#9E6524"/><path d="M268.123 163.001l17.548 11.064c1.406.886 3.378 2.652 4.41 3.952l1.887 2.376 6.105 1.09v3.207l-8.577-.991s-3.414-5.437-5.555-7.799c-2.142-2.36-15.818-12.899-15.818-12.899z" fill-opacity=".316" fill="#EBE9E9"/><path d="M315.166 184.639l-2.586 4.125s5.443 4.961 7.322 7.536c1.88 2.576 7.193 11.924 7.193 11.924s3.492 4.559 5.41 5.993c1.918 1.435 6.971 3.27 6.971 3.27l-.924-3.137c-.937-3.18-3.5-7.75-5.726-10.208l-17.66-19.503z" fill="#705037"/><path d="M295.897 188.788l3.043-.219c4.412-.317 10.483 2.007 13.543 5.17l5.394 5.578c1.918 1.983 3.238 5.815 2.948 8.571l-.428 4.067c-.232 2.198-1.467 5.424-2.777 7.21 0 0-2 2.828-3.204 4.117-1.205 1.288-6.55 5.909-6.55 5.909-.83.72-2.4 1.398-3.495 1.511l-4.096.424v9.61c1.465-.935 3.983-2.891 5.627-4.373l.501-.451c.823-.742 2.386-1.343 3.496-1.343h3.065c.554 0 1.438.12 1.974.27l1.611.447c.537.148 1.339.522 1.742.799l3.824-2.377c.941-.584 2.1-1.862 2.586-2.852l1.846-3.75c1.22-2.478 2.431-6.711 2.707-9.463l.617-6.147-10.868-14.707-11.867-9.65c-.426-.347-1.21-.623-1.772-.612 0 0-3.278 0-5.089.444-1.81.443-4.378 1.817-4.378 1.817z" fill="#180D04"/><path d="M244.973 160.444s10.368 5.037 15.417 8.134c5.049 3.097 16.56 11.655 16.56 11.655 1.777 1.31 3.218 4.166 3.218 6.093l4.422 1.157.324-1.619c.11-.543.025-1.394-.191-1.905l-.427-1.012L260.33 163.2c-3.409-2.809-9.413-5.085-9.413-5.085l-2.947-.258-2.29.506c-1.073.238-1.412 1.14-.748 2.025l.04.055z" fill="#3E3E3E"/><path d="M318.173 236.038l-.292 1.15c-.272 1.07.365 1.714 1.44 1.432 1.069-.28 2.658-1.045 3.53-1.697l.928-.69c2.21-1.65 5.002-5 6.226-7.464l.134-.269 1.113-2.703c.63-1.528 1.245-4.109 1.375-5.764l.447-5.71-3.341-2.92-.822 6.822c-.393 3.888-2.717 9.915-5.197 13.47l-.516.74-5.025 3.603z" fill="#AEABAB"/><path d="M117.946 66.493l6.637-1.076v12.876l53.963 43.156-53.035-36.377c-2.277-1.562-4.984-4.897-6.042-7.435l-3.196-7.672 1.673-3.472z" fill="#2F2F2F"/><path d="M123.918 65.57l11.942 6.711 2.991 17.982-13.363-10.513c-.868-.682-1.57-2.125-1.57-3.23V65.57z" fill="#474747"/><path fill="#B19050" d="M128.796 67.86l-.733 8.205 6.782 3.164.2-7.277z"/><path d="M339.538 217.336s3.216 12.79 7.027 16.924c3.81 4.135 18.285 10.538 18.285 10.538l87.066 21.085-13.78 36.37h-41.014c-5.525 0-14.228 1.512-19.425 3.371l-7.318 2.618-43.04-8.246c-3.798-.728-9.09-3.532-10.268-4.709l-8.881-8.23c-2.022-1.874-4.725-5.37-6.025-7.788l-.51-.949c-.522-.97-1.06-2.643-1.204-3.73l-.604-4.61 2.72-1.584c2.385-1.388 4.647-4.724 5.055-7.467l1.799-12.092 8.368-10.902c.787.325 2.179.097 3.098-.502l3.435-2.241c3.267-3.016 6.63-9.425 7.513-14.325l1.162-6.45 6.54 2.919z" fill="#623A21"/><path d="M309.962 249.845s8.11-.477 11.384-2.056c3.273-1.579 10.862-8.672 10.862-8.672s8.028 5.01 12.325 6.396c4.297 1.387 75.724 22.011 75.724 22.011l-3.718 23.12 21.662 3.565-1.186 6.583-42.53 1.313-6.781.844-17.046 5.795-37.373-7.622-14.734-4.117-13.02-12.175-5.558-15.297 7.111-5.69 2.878-13.998z" fill="#443A2C"/><path d="M537.248 167.743c-8.119 1.578-15.385 4.436-15.921 1.68-.536-2.757 5.862-10.085 13.98-11.663 8.119-1.578 15.134-.622 15.67 2.134.536 2.757-5.61 6.271-13.73 7.85z" fill-opacity=".826" fill="#5A3131"/><g transform="scale(-1 1) rotate(11 -1094.446 -2785.262)"><path d="M34.727 9.596c-.83-2.045-2.971-4.717-4.791-5.97l-.95-.655C25.826.792 20.243-.226 16.52.695L.166 4.742l3.053 2.509c2.966 2.437 8.337 5.323 12.003 6.448l-1.388-.426c3.663 1.124 9.651 1.306 13.387.405l8.344-2.014-.838-2.068z" fill="#000"/><path d="M32.103 11.046c1.63-.296 1.95-1.439.71-2.541 0 0-1.779-1.656-3.29-2.759a28.733 28.733 0 00-2.743-1.782c-2.375-1.442-6.38-1.762-8.966-.702 0 0-1.97.798-3.005 1.247-1.033.448-1.485.9-1.485.9-2.262 1.601-2.1 3.934.384 5.195 0 0 .938.54 2.022.954 1.085.414.93.331.93.331 2.64.883 6.968 1.073 9.681.424 0 0 1.86-.45 3.183-.755 1.323-.306 2.58-.512 2.58-.512z" fill="#D8D8D8"/><path d="M22.838 14.42c3.314 0 6-2.249 6-6.057 0-3.808-2.686-5.943-6-5.943s-6 2.135-6 5.943 2.686 6.057 6 6.057z" fill="#420909"/><circle fill-opacity=".687" fill="#E6E6E6" cx="27" cy="5" r="1"/><path d="M23.13 12.453a3.5 3.5 0 100-7 3.5 3.5 0 000 7z" fill="#110C0C"/></g><path d="M360.808 258.61l45.528 13.459-3.362 16.76-45.942-12.424c-3.51-6.508-.964-14.984 3.776-17.796z" fill="#2F2F2F"/><path d="M69.475 61.283l-1.562 5.829s7.444 28.919 9.23 43.627c1.786 14.707.721 38.322.721 38.322l4.527.568s5.841-23.123 5.407-35.766c-.433-12.644-8.271-47.743-8.271-47.743l-10.052-4.837z" fill="#8B6927"/><path d="M91.427 107.817s5.695.757 8.092 1.673c2.397.916 4.856 3.277 4.856 3.277s2.002-4.356 3.507-5.952c1.504-1.596 7.214-5.422 7.214-5.422l-4.23-2.33-3.508 3.089-1.982-3.418-2.243.725v2.826l-3.614.19v4.34l-6.278-.873-1.814 1.875zm31.702-2.772s1.048 7.557.548 11.088c-.5 3.532-3.03 6.433-3.03 6.433l7.591 7.847-.72-7.16 2.396.15v-3.24l-1.657-1.616 2.704-.302-3.11-8.724-1.158-3.588-3.564-.888z" fill="#A27F42"/><path fill="#C9A76D" d="M118.032 95.926l-.744 8.137h4.2l3.463-4.473z"/><path d="M99.512 113.144l5.165.655 1.16 3.145c1.315 3.568 5.464 6.46 9.275 6.46h5.385l.799 3.529-10.077-.647c-1.657-.106-4.078-1.01-5.357-2.049 0 0-1.712-1.08-3.16-3.234-1.447-2.154-3.19-7.859-3.19-7.859z" fill="#A27F42"/><path d="M115.724 104.972l-.625 2.83-2.122.273c-2.735.35-4.978 2.871-5.01 5.627l.023-2.03c-.032 2.757.872 7.024 1.424 8.23l-1.483-3.237c.82 1.787 3.213 4.67 5.158 6.282l6.158-.188.365-.565c1.502-2.32 2.314-6.408 1.817-9.113l-.066-.363-1.996-2.393 1.777-4.607-5.42-.746z" fill="#C9A76D"/><path fill="#B48A40" d="M115.203 111.28h2.69v2.142h-2.353zM116 116h2.69v2.142h-2.352zm-4-2h2.69v2.142h-2.352z"/><path d="M365.924 269.078c.228-1.075 1.275-1.683 2.332-1.36l36.781 11.245-.714 3.377-36.836-10.996c-1.062-.317-1.735-1.455-1.51-2.521l-.053.255z" fill="#DD46AE"/><path d="M513.85 153.817l9.535 1.264s2.907-1.463 4.565-1.891c1.658-.428 7.828-1.308 7.828-1.308l.159-3.643s-9.102 1.349-13.563 2.475c-4.46 1.127-8.525 3.103-8.525 3.103zM459.981 159l4.33-3.41c2.054-1.616 5.82-2.662 8.42-2.333l21.94 2.768 1.613-4.331-23.54-2.126c-2.604-.235-6.463.76-8.633 2.233l-3.228 2.19-.902 5.009z" fill="#2C2C2C"/><path d="M500.092 302.434s10.882-12.576 15.577-18.417c4.696-5.841 15.965-20.809 15.965-20.809l9.47 4.088-34.686 38.028-6.326-2.89z" fill="#FFF"/><path d="M506.245 304.667s9.774.634 14.668.376c4.895-.259 15.092-1.318 15.092-1.318l-.859-16.872 1.393-6.457 3.936-12.855-34.23 37.126z" fill="#BEBEBE"/><path d="M456.516 303.468l-5.632-41.922a5 5 0 014.29-5.615l3.845-.516c2.193-.294 5.047.889 6.367 2.667 0 0 4.241 5.434 6.75 10.076 2.507 4.641 17.599 33.175 17.599 33.175l-13.006.19-1.706 2.473-18.507-.528z" fill="#B1B1B1"/><path d="M452.087 264.308l4.525-2.889c2.794-1.783 6.16-.775 7.519 2.25l16.51 36.767 6.825-.349L469.248 263c-1.95-3.97-7.088-7.53-10.311-7.716 0 0 1.804-.01 0 0s-6.059 1.415-6.059 1.415-2.052 1.868-2.162 2.936c-.111 1.067 1.371 4.673 1.371 4.673z" fill="#EEE"/><path d="M478.79 300.592c-1.654.12-3.443 1.486-4 3.052l-2.23 6.282 2.689 1.904 7.53-3.14c3.044-1.27 7.96-1.25 10.999.053l6.466 2.772 5.357-6.715-2.157-1.498c-2.708-1.88-7.57-3.404-10.866-3.404h1.675c-3.293 0-8.627.194-11.916.434l-3.548.26z" fill="#8E2B2B"/><path d="M472.458 304l-7.3 8.208-24.258 10.504 13.257 34.272 39.154-31.76 7.132-14.288s-4.759-1.776-7.132-2.534c-2.373-.759-.23-.075-.23-.075-1.504-.662-4.067-1.26-5.726-1.335l3.003.137c-2.717-.124-11.433 1.273-11.433 1.273l6.514-1.497c-3.598.827-9.845 4.168-9.845 4.168l-2.806-1.42 2.806-5.653h-3.136z" fill="#AA3D3D"/><path fill="#9B7F3E" d="M455.285 318.326l16.539 1.032.19 6.573-18.723 14.21-2.535-3.578.318-11.984z"/><path d="M453.14 340.143l.788 3.5 17.738-13.47c.883-.67 1.697-2.099 1.82-3.195l.417-3.771c.183-1.647-.948-3.407-2.113-3.794v4.802c0 1.107-.72 2.542-1.606 3.204l-17.044 12.724z" fill="#CFB066"/><path d="M536.745 303.337s-8.964 2.997-13.238 4.736c-4.274 1.74-.203.083-.203.083-32.168 13.454-74.351 47.581-94.137 76.285 0 0-12.6 17.78-17.594 26.191-4.994 8.412-5.573 17.625-5.573 17.625l33.814-30.289c25.97-23.263 74.061-33.9 107.416-23.76l25.062 7.62L561.93 302l-25.184 1.337z" fill="#554B4B"/><path d="M532.498 129.85s5.678 27.746 6.68 42.274c1.004 14.527-1.529 45.273-1.529 45.273s-5.723 19.326-10.195 26.533c-4.472 7.206-16.346 17.173-16.346 17.173 4.52-.591 11.585-4.622 15.79-9.014l4.212-4.4c.766-.8.987-.658.49.328 0 0-3.303 6.501-5.28 10.732-1.978 4.232-4.93 9.385-4.93 9.385s8.677-5.058 12.197-9.385c3.52-4.326 8.586-14.596 8.586-14.596.745-1.465 1.263-1.303 1.157.34l-.713 11.136c-.283 4.41-1.668 11.37-3.094 15.548l-3.527 10.334-.559 3.708c-.658 4.368-.612 11.446.104 15.811l.837 5.102 2.914 13.721c1.378 6.487 5.257 16.36 8.661 22.05l.088.148.45-39.163 4.915 40.28c.668 5.477 5.508 11.17 8.749 12.115l-2.914-6.765c-1.965-4.562-2.345-12.104-.849-16.848l-.347 1.102c2.158-6.843 7.436-17.018 11.692-22.602l1.848.642a1.995 1.995 0 011.223 2.552l-3.07 8.701.236-.09c6.706-2.564 15.538-9.36 19.735-15.194l.693-.963c1.936-2.69 3.904-7.532 4.394-10.8l3.933-26.266c2.863-19.119 3.466-50.195 1.347-69.398l-.66-5.99c-.727-6.585-4.43-16.298-8.356-21.64 0 0-12.984-19.147-25.872-29.589s-32.69-12.286-32.69-12.286z" fill="#F3F3F3"/><path d="M538.747 168.334l5.612 6.98 7.435-12.296-7.42 68.82 14.872-68.449 10.119 6.313 4.927-5.61 7.402 70.725 5.331-59.014 8.26 10.993-10.115-21.07c-7.496-15.614-27.357-30.988-44.347-34.333l-8.283-1.631 6.207 38.572z" fill="#D8D8D8"/><path d="M559.648 197.878s2.36 25.121 1.6 37.512c-.759 12.391-6.197 37.512-6.197 37.512" stroke-opacity=".288" stroke="#979797"/><path d="M461.94 139.126l-2.284 1.294c-15.157 8.592-28.942 29.602-30.79 46.927l-.067.624.974 37.937c.212 8.28-2.084 21.24-5.126 28.942l-1.726 4.372c-.407 1.029-.853 2.76-.996 3.852l-1.288 9.867c-.287 2.195-.088 2.237.446.09l1.378-5.542c.667-2.681 1.106-2.609.982.142l-.316 7.024c-.15 3.315-1.715 8.257-3.51 11.06l-1.06 1.655c-2.088 3.259-1.557 3.686 1.175.966l4.101-4.083c1.177-1.172 2.758-3.3 3.544-4.776l2.903-5.453-.005 10.939c-.001 2.212-1.256 5.28-2.808 6.859l-4.366 4.44c-1.55 1.577-1.236 2 .705.943l4.019-2.187c2.423-1.32 5.093-4.516 5.963-7.134l1.225-3.687 7.373 16.096c2.071 4.522 7.766 8.582 12.074 9.005l-4.035-6.794c-1.691-2.846-2.873-7.842-2.641-11.143l.173-2.461c.27-3.857 2.777-9.13 4.15-10.42l-3.66 3.436c2.022-1.897 3.707-6.565 3.764-10.436l.124-8.4c.016-1.102.03-2.898.03-3.991v-.058a2.877 2.877 0 013-2.898l3.888.128c2.203.072 5.078 1.553 6.42 3.307l4.44 5.798 8.037-8.354 2.222-9.612s-7.001-2.934-8.741-5.095c-1.74-2.16-6.026-11.322-6.026-11.322l-4.207.739s-8.118-1.853-10.696-4.877c-2.578-3.025-3.693-8.684-3.693-8.684-.706-2.663-1.377-7.062-1.497-9.813l-.344-7.852c-.12-2.757 1.998-5.29 3.902-5.546 0 0 1.996 1.098 3.038 2.478 1.041 1.38 7.102 14.433 7.102 14.433l-1.641-7.21c-1.717-7.54-2.218-19.853-1.118-27.502l-1.99 13.85c1.582-11.014 4.885-33.924 7.375-51.162l.103-.711z" fill="#CDCDCD"/><path d="M566.909 245.38s.802 22.594 0 33.735c-.802 11.141-4.1 23.189-4.1 23.189" stroke-opacity=".288" stroke="#979797"/><path d="M446.34 307.429l-8.17-5.749-27.33 9.495c-8.872 3.083-14.65 13.055-12.93 22.3 0 0 5.131 26.285 6.722 40.526 1.59 14.241 2.414 52.621 2.414 52.621s.878-6.438 4.723-14.1c3.845-7.662 12.995-21.02 18.053-28.584 9.171-13.714 24.681-26.345 24.681-26.345l-14.323-37.322 1.317-6.08 4.843-6.762z" fill="#393232"/><path d="M421.07 301.743l-23.763 14.236c-4.265 2.555-7.402 8.646-7.007 13.597l8.951 112.346 8.432-14.697s-1.554-29.144-2.935-43.72-6.114-53.867-6.114-53.867c-.524-4.384 1.852-10.17 5.306-12.925l-1.013.808c3.885-3.098 10.83-6.976 15.494-8.654l19.8-7.124H421.07z" fill="url(#c)"/><path d="M216.575 238.683l-.266 24.86 11.315.468 5.46 5.172s6.47 1.678 9.153.912c2.685-.766 1.415-3.454 1.415-3.454l4.77.203 13.074 7.325c6.06 2.212 5.266 10.916 1.733 15.193l20.784-5.517 15.345-13.21 7.325-6.33c-7.232-.162-13.095-10.494-13.095-10.494s-30.796-2.766-46.211-5.794c-15.415-3.028-30.802-9.334-30.802-9.334z" fill="#372828"/><path d="M243.526 268.276l-.098-1.916 4.969.049 14.962 7.427 2.528 3.017.74 4.132-2.341 8.328-4.71-.978.47-.506c4.312-4.65 3.132-10.56-2.633-13.198l-13.887-6.355z" fill="#D3A856"/><path d="M216.8 263.41c2.316 3.496-.218 12.414-.218 12.414l22.239 25.002-1.818 10.879 7.756.737 1.373-11.035 1.978-1.058 7.905 1.53 3.721-13.823 3.754-4.546-1.09-4.845-3.182-3.617-15.651-6.444-4.328 1.137h-.927c-2.766 0-6.54-1.627-8.431-3.634l-2.132-2.264-10.949-.433z" fill="#F3CABE"/><path d="M217.149 275.993l-5.198.889-1.084 9.27-3.244.35-9.77 37.103 3.621 2.074-18.164 58.19s22.996-9.957 34.224-12.413c11.229-2.455 29.59-3.415 29.59-3.415s-.038-18.778 1.546-30.346c1.585-11.568 7.568-36.198 7.568-36.198l-7.568-1.802-2.772 1.553-2.02 10.779-6.865-.187 2.206-11.322-22.07-24.525z" fill="#3A3535"/><path fill="#4C4646" d="M211.54 285.642l11.473 12.435-2.374 22.528-4.734 1.014-10.553 44.171-16.81.409 13.32-40.53-3.515-2.632 9.744-36.325z"/><path fill="#F3CABE" d="M219.725 360.994l4.293-22.655 8.148-5.586 1.18-5.641 6.618.81-.212 7.125 2.49 8.379-4.203 20.757z"/><path d="M184.833 383.065l-7.088 4.175s-7.153 35.872-10.797 53.324c-3.644 17.452-6.166 27.92-6.166 27.92l-4.05 8.997 9.949 11.173c2.207 2.478 6.684 4.487 9.995 4.487h-6c4.387 0 11.149-1.616 15.093-3.605l15.062-7.594s7.785 2.91 11.942 3.89c4.157.981 14.135 2.26 14.135 2.26l18.056 1.382 15.68-2.261s-15.219-16.961-21.337-28.238c-6.12-11.278-7.592-25.08-7.592-25.08s12.043-8.272 18.18-11.375c6.136-3.103 23.512-9.351 23.512-9.351l-14.678-15.062 6.006-5.192s-7.21-8.17-10.639-13.16c-3.43-4.99-6.994-12.493-6.994-12.493s-22.774 2.182-34.329 5.114c-11.555 2.933-27.94 10.689-27.94 10.689z" fill="#EFEAEA"/><path fill="#D8D8D8" d="M182.48 384.76l4.276 2.735 14.865-6.773-23.028 25.115-2.938 15.039 5.522 18.798-3.571 4.818 4.817 34.94 44.119-41.065-22.412 31.844 44.299 4.803 10.442 11.618-10.828 1.997-13.732-.352-15.481-1.057-10.428-2.074-7.83-3.13-9.459 5.156-12.106 5.052-8.229-.234-14.221-15.288 4.657-8.934 9.987-35.467 6.989-45.985z"/><path d="M192.163 455.592l28.634-25.44 30.666-19.332 4.101 1.204s-21.368 12.779-31.7 20.787-30.937 27.761-30.937 27.761l-.764-4.98z" fill="#C5C5C5"/><path fill="#8B6767" d="M239.278 391.894l-11.977 18.541 2.445 1.937 16.507-7.01 6.403-10.433-2.935-3.868z"/><path fill="#C0A552" d="M249.016 391.47l-9.924 11.75 5.483-.155 7.377-8.282"/><path d="M591.228 299.839l87.97 27.533c2.638.825 5.09 3.714 5.48 6.45l.21 1.492c1.786 12.574-7.015 23.791-12.544 24.343l-20.076-2.744-20.043-18.517c-2.84-2.624-8.069-5.873-11.672-7.255l-41.709-15.988s5.499-3.977 7.244-6.568c1.744-2.591 5.14-8.746 5.14-8.746z" fill="#383030"/><path d="M260.292 486.803l6.542.39 16.107-10.599c1.847-1.215 5.107-2.495 7.284-2.86l10.206-1.712 11.04-7.236c6.464-4.238 17.923-6.82 25.585-5.768l2.443.335 3.776-2.067c3.389-1.855 6.888-6.407 7.811-10.154l.7-2.838 6.223-27.423-.587-18.452-3.42-25.22 23.009-31.077 1.574-7.125c1.192-5.392 5.486-12.76 9.589-16.458l19.056-17.168-12.161.477-8.266 1.131-16.822 6.007-1.462.53c-4.151 1.5-9.888 5.402-12.805 8.707l-3.965 4.492-24.983 40.174-9.91 9.813c-3.535 3.5-10.42 6.714-15.359 7.267 0 0-7.11.37-15.212 2.7s-21.693 9.561-21.693 9.561l-5.95 5.715 14.357 15.177s-15.921 5.743-24.034 9.624c-8.112 3.88-16.904 10.765-16.904 10.765-1.237 21.27 28.23 53.292 28.23 53.292z" fill="#2C2C2C"/><path fill="#5F5D5D" d="M345.058 343.14l20.905-15.477 5.655-11.208 22.757-12.442 3.921-.149-20.555 15.036-4.445 6.86-27.147 20.055z"/><path d="M285.38 402.088c-2.514 1.132-5.754 3.939-7.232 6.264l-10.719 16.86c.432 10.942 12.237 19.144 22.883 18.524l2.804-2.01c11.507-8.247 32.153-16.853 44.955-19.027l-.792-24.544-12.258-4.462c-3.114-1.134-8.278-1.532-11.52-.864 0 0-7.369 1.335-13.516 3.328-6.147 1.992-14.604 5.931-14.604 5.931z" fill="#424242"/><path fill="#393535" d="M341.153 356.599l-2.446 18.003 16.616-8.335 21.492-30.655h-5.099z"/><path d="M358.05 414.982l7.28-13.445s1.025-23.421 2.939-32.522c1.913-9.101 8.151-26.446 8.151-26.446l-22.68 30.739 4.31 41.674z" fill="#575757"/><path d="M351.117 444.575l7.538 9.014.333 9.954 3.3 11.765-4.546.851-1.321 3.036 3.369 10.421-1.907 13.611 4.126 9.497-3.167 18.503-4.177 4.133 1.544 9.255 29.255 15.27 22.641-15.314-15.762-190.014-10.77-29.917-11.547 35.859c-1.883 3.261-3.594 10.368-3.823 15.901l-.552 13.296-.862 12.19-7.047 12.777-6.625 29.912z" fill="#201D1D"/><path d="M580.42 314.907l-8.154 6.501 5.686 64.97s-60.844-14.084-96.54-4.107c-35.698 9.977-69.561 52.705-69.561 52.705s-1.51 32.846-.428 46.888c1.083 14.041 8.347 53.836 8.347 53.836l21.566-8.822c25.05-10.247 66.689-13.445 93.002-7.143l5.796 1.388 53.208-35.278-.543-9.853v-27.429l-2.44-9.402c-1.803-6.948-3.134-18.401-2.862-25.567 0 0-.184-4.265 1.038-12.927 1.22-8.662 4.807-18.396 4.807-18.396l9.337-22.097 9.805-15.271c2.985-4.65 9.857-7.94 15.357-7.346l5.692.613s-8.986-6.726-13.05-8.561c-4.063-1.835-40.063-14.702-40.063-14.702z" fill="#463F3F"/><path d="M590.53 451.997l-25.47 13.323-10.878 7.054c-2.32 1.504-5.533 4.52-7.182 6.744l-3.77 5.082c-2.634 3.552-5.325 9.97-6.009 14.324l-.3 1.916c-.685 4.36-.808 11.44-.339 15.29l.37 4.194 3.87.835v-14.873c0-4.418 1.946-11.01 4.341-14.715l1.78-2.753c2.999-4.637 9.473-10.307 14.479-12.672l28.73-13.575.379-10.174z" fill="#171515"/><path d="M500.445 432.207l20.969 8.154s-2.41 21.095-1.458 31.138c.952 10.042 8.002 35.069 8.002 35.069l-25.23-5.927s-3.437-25.16-3.87-37.66c-.433-12.5 1.587-30.774 1.587-30.774z" fill="#4D4646"/><path fill="#D8D8D8" d="M529.326 265.63l-28.51 35.7 1.903 1.402 27.391-34.509z"/><path fill="#ACABAB" d="M529.728 281.402l-18.204 20.395 3.7.452 15.07-18.988z"/><path d="M493.063 301.096l-2.522-.404c-3.086-.493-8.105-.57-11.205-.17l-1.347.174c-1.096.141-2.302 1.087-2.7 2.129l-2.652 6.96 2.966 1.803 5.032-2.198c2.862-1.25 7.724-2.159 9.88-2.07l2.548-6.224z" fill="#722121"/><path d="M475.008 303.648l-1.627-.202-8.252 8.86-24.52 10.431 9 22.683 1.76-7.997c-.294-.504-.508-1.814-.478-2.92l.215-7.974c.03-1.108.556-2.753 1.17-3.665l2.485-3.698c.31-.461 1.012-.807 1.554-.772l11.664.743 7.673-7.534-2.957-1.848 2.313-6.107z" fill="#4F1D1D"/><path fill="#832F2F" d="M451.24 337.332l2.035 2.796.665 3.395 16.796-10.954-5.192 9.116L489 326.363l-34.838 30.67-4.514-11.9z"/><path d="M498.816 313.415l7.742 3.744-13.339 8.233s-1.466 1.086-1.424 1.011l7.021-12.988z" fill="#CFCFCF"/><path d="M467.26 310.026l-21.01-2.583-2.445 2.583c-1.745 1.69-3.483 5.273-3.742 7.045l-.03.099c-.49 1.587-.219 4.04.605 5.48l.105.183s7.973-3.595 12.308-5.29c4.335-1.695 12.237-5.188 12.237-5.188l1.972-2.329z" fill="#BABABA"/><path d="M504.948 304.605l-6.17 8.88 7.186 4.097 29.815-14.006-9.934.878c-2.204.195-5.783.332-7.997.305l-12.9-.154z" fill="#501B1B"/><path d="M505.179 305.09l-4.92 6.778.211.138c2.177 1.415 6.045 2.527 8.637 2.484l1.674-.028.045-1.582c.032-1.106-.575-2.644-1.353-3.433l-4.294-4.357z" fill="#E6C36F"/><path d="M569.107 309.306l-5.765 10.385 13.831 58.308 17.835-36.53-.873 12.394 26.536-17.658c4.6-3.06 4.117-7.044-1.095-8.903l-50.469-17.996z" fill="#2C2222"/><path d="M465.803 304.216l-1.913 1.226c-1.368.877-1.298 2.17.162 2.89l2.798 1.382 5.943-5.874-6.99.376z" fill="#E6C36F"/><path d="M399.48 334.893l24.088-12.015c4.444-2.217 9.866-.419 12.109 4.013l16.436 32.48s-16.065 17.394-23.096 27.482c-7.032 10.088-21.355 35.178-21.355 35.178l-8.183-87.138z" fill="#4D4444"/><path d="M464.266 351.73l3.894.613 29.18-18.672 13.953 17.345-29.45 22.218-12.047 6.274c-7.84 4.084-19.64 12.055-26.351 17.804l-38.588 33.048 59.41-78.63z" fill="#463E3E"/><path d="M516.467 340.995l5.572-.157 2.503-1.799s2.314 2.66 4.033 3.61c1.719.95 5.375 1.586 5.375 1.586s-.687 2.556-1.347 3.596c-.661 1.04-2.263 2.086-2.263 2.086s-2.641.797-3.953.704c-1.312-.093-4.518-1.306-4.518-1.306s-2.613-2.102-3.468-3.42c-.855-1.316-1.934-4.9-1.934-4.9z" fill="#463C3C"/><path d="M358.334 272.389l4.037.088-.235-1.841c-.139-1.091.196-2.751.749-3.708l.138-.239c.276-.479.933-.98 1.463-1.118l-.232.06c3-.783 7.856-.766 10.857.04l6.705 1.8-.01-2.29-17.335-3.803c-1.428-.523-4.061.762-4.061.762l-2.273 2.073c-.734 1.238-.883 3.973-.332 6.117l.53 2.059z" fill="#434242"/><path d="M310.457 249.405l-1.94 12.695c.75 4.666 5.527 14.875 5.527 14.875l10.929 9.141 1.063-2.844 1.414 2.02c1.27 1.813 3.821 4.22 5.703 5.38l5.566 3.43 9.228 3.235 5.183-15.208c.712-2.092 1.415-5.57 1.57-7.786l.379-5.441c.192-2.753 1.716-6.764 3.4-8.955l-.671.873c1.347-1.752 2.126-4.946 1.746-7.109l-.778-4.426-10.33-2.794-8.451-3.359-7.583-4.186-5.635 5.179-4.721 3.032-5.944 2.076-5.062-.299-.593.47z" fill="#B3A252"/><path d="M322.98 257.19l-.177-4.148 6.884-4.723 3.763-3.97 1.354 6.454 11.038 7.191 4.747-.792c-.93 1.622-1.91 4.712-2.187 6.91l-.975 7.712-1.617 3.191-.658-6.715c-.109-1.105-.596-2.799-1.087-3.78l-.132-.263c-1.236-2.47-3.963-5.892-6.094-7.647l-2.644-2.177-2.433-1.197c-.989-.486-2.557-.417-3.505.156l-6.277 3.797z" fill="#E5D794"/><path d="M316.313 255.133l-.664 9.43c-.133 1.893.48 4.784 1.375 6.462l5.13 9.632.343-6.84-1.775-3.798c-.803-1.718-1.385-4.654-1.302-6.536l.385-8.755-3.492.405z" fill="#968849"/><ellipse fill-opacity=".385" fill="#E0CF7E" transform="rotate(-43 331.743 266.67)" cx="331.743" cy="266.669" rx="9.5" ry="11"/><path fill="#4C3A20" d="M357.957 283.045l-2.707 10.74 30.058 9.26 11.394-1.6 16.346-.098 3.667.314 19.737-.925 1.267-6.585-20.371-2.891-7.111 4.067z"/><path d="M380.734 304.223l-32.874-7.412 6.811-20.65 47.596 12.682 4.305-16.57-47.37-14.8c.439-1.764-.186-6.161-.827-8.1l14.907 5.089-1.47 3.012 29.082 9.71 11.07 1.79 6.217 4.12-1.92 17.984-5.808 4.096-52.078-12.128-2.498 9.622 28.739 10.78-3.882.775z" fill="#755A32"/><path d="M345.762 235.063l11.046 13.974s16.395 5.13 24.638 7.567c8.243 2.438 39.208 11.067 39.208 11.067l2.617-8.83-48.134-11.84c-4.293-1.056-11.031-3.424-15.027-5.279l-14.348-6.66z" fill="#282828"/><path fill="#3B2D1A" d="M347.783 297.071l-.323 6.354 22.392 4.985 10.573-4.08z"/><path d="M313.673 283.692c-1.088-.193-2.634.25-3.46.999l-1.438 1.303c-3.364 3.048-9.707 6.178-14.169 6.993l-2.474.452 1.503 3.153c1.08 1.707 4.2 3.16 6.963 3.151 0 0-.955.125 1.03-.06 1.984-.187 7.679-1.288 7.679-1.288l8.191-3.415c2.042-.851 3.677-3.328 3.653-5.532l-.015-1.44c-.018-1.654-1.36-3.23-2.982-3.519l-4.48-.797z" fill="#2C2C2C"/><path d="M302.773 294.991c-1.526.35-1.61.1-.194-.557l9.687-4.487.293 1.797s-3.948 1.639-5.896 2.241c-1.949.603-3.89 1.006-3.89 1.006z" fill="#767676"/><path fill="#2A1F0B" d="M264.87 214.88l2.112 8.45 11.837 7.582 9.516 2.2-7.52-7.32z"/><path d="M238.19 217.683s7.164 5.132 9.163 8.161c1.998 3.03 6.537 15.636 6.537 15.636l2.625-1.971c-2.353-3.186-4.047-9.344-3.784-13.756l-.066 1.102c.131-2.202-1.45-4.582-3.532-5.316l-10.942-3.856z" fill="#2E230C"/><path d="M207.992 219.156l1.824 6.456 7.276-4.21c1.432-.828 3.926-1.44 5.598-1.365l4.029.18c2.76.124 6.73 1.634 8.871 3.376l7.291 5.934 4.675-.987-.613-1.58c-.801-2.061-2.919-4.755-4.736-6.02l-4.233-2.945c-1.815-1.263-5.024-2.708-7.172-3.228l-6.092-1.475h-.115c-4.415 0-10.957 2.018-14.607 4.504l-1.996 1.36z" fill-opacity=".402" fill="#926F2D"/><path d="M232.21 226.01l1.797 4.018-1.85 4.46-1.726 2.348h-1.177c-.552 0-1.168.411-1.381.93l-.317.77.321.868c.384 1.035 1.593 1.897 2.701 1.926l.709.019c.548.014 1.396-.186 1.88-.441l2.768-1.46c.49-.258 1.072-.869 1.302-1.37l1.373-2.99.22-1.68c.216-1.642-.357-4.086-1.28-5.46l-1.855-2.762c-1.25-.93-3.043-.08-3.484.824z" fill-opacity=".493" fill="#A1792C"/><path d="M254.912 228.128l16.599 8.612 11.483.99-.392 3.904 5.828 3.866-6.365 1.94 12.84 1.565 3.453-5.262-8.983-10.244-10.461-2.474-11.08-7.297-21.254-5.132s3.526 2.698 4.91 4.282c1.384 1.583 3.422 5.25 3.422 5.25z" fill="#885A37"/><path d="M216.772 238.782l-.334 24.645 11.027.525 5.677 5.015 1.479-23.792s-6.607-2.081-9.785-3.22c-3.178-1.137-8.064-3.173-8.064-3.173z" fill="#1D1D1D"/><path d="M241.721 250.96c-.373-.413-.51-.33-.308.178l3.994 10.058c.545 1.373.935 1.283.873-.186l-.224-5.253-4.335-4.797z" fill="#403232"/><path fill="#605050" d="M272.01 259.255l8.954 17.5 13.97-10.04-5.446-7.46-4.219 2.506-2.819-2.789z"/><path fill="#403333" d="M267.942 278.155l13.063-.82 16.008-11.806 7.992-1.252-21.149 19.302-18.09 4.692z"/><path fill="#4E3F3F" d="M248.774 265.086l-1.268-14.711 24.193 8.84 8.814 18.12-11.901.19z"/><path fill="#1B1B1B" d="M235.129 245.581l15.17 3.411 42.876 5.039-7.927 7.055-2.53-2.091H271.56"/><path d="M261.48 276.87c.784 1.559 1.564 4.364 1.741 6.266l-.07-.746c.052.545-.19 1.345-.527 1.774l-3.132 3.978 5.017.897 1.45-4.55c.583-1.828.627-4.793.093-6.64l-.283-.978h-4.29z" fill="#9D7830"/><path d="M225.242 281.608l3.842-5.6c1.251-1.824 4.06-3.262 6.256-3.212l3.426.077c2.759.062 7.144.745 9.791 1.525l5.822 1.716c4.13 2.233 5.522 8.553 3.1 14.138l-4.532 10.455 3.304.796 3.467-13.37 2.066-2.831c.652-.894 1.055-2.505.898-3.606l.14.984c-.311-2.182-1.826-5.229-3.375-6.797l-1.512-1.53-14.399-6.09-4.103 1.691-2.048-.103c-2.21-.112-5.272-1.46-6.838-3.014l-3.152-3.124-10.81-.522c1.384 3.735.347 12.236.347 12.236l8.31 6.181z" fill="#CFA99D"/><path fill="#AF8579" d="M238.08 328.236l-.074 6.52 2.57 9.601-4.48 17.612-6.986-.995v1.643l9.086 1.691 4.264-20.99-2.672-8.545.162-6.537z"/><path d="M304.284 398.181l18.243 26.91-26.72 5.102c-2.71.517-6.602 2.408-8.684 4.216l.589-.51c-3.756 3.261-9.62 3.014-13.083-.537l-2.006-2.057c-1.925-1.973-2.285-5.473-.814-7.802l7.652-12.121c2.656-4.207 8.691-8.7 13.47-10.033l11.353-3.168z" fill="#505050"/><path d="M273.953 452.484s11.091-3.285 16.593-5.48c5.502-2.193 61.06-25.49 61.06-25.49l.6 2.992-46.403 20.352-29.476 11.423-2.374-3.797z" fill="#4A4747"/><path fill="#373324" d="M267.29 419.155l-29.625 15.953 5.378 5.817 23.503-13.285zm7.358-20.255l46.543-16.518 8.195 6.273-54.16 15.644z"/><path fill="#2E2121" d="M391.156 389.146l-32.575 60.531 2.953 16.276h6.034l27.485-49.436z"/><path fill="#261B1B" d="M358.588 539.37l24.193 16.23 21.854-14.35-35.64-18.938z"/><path fill="#292727" d="M377.051 478.501l-15.658-3.082-3.65 1.182-.897 2.267 3.05 9.789-1.805 14.607 3.394 6.578 44.735 21.574v-6.742l-6.35-6.07-2.327-8.588.608-8.677z"/><path d="M393.71 519.957l-5.188-1.082c-2.703-.564-6.466-2.603-8.406-4.578 0 0-2.591-2.539-3.5-3.77-.907-1.231-2.307-4.57-2.307-4.57-.44-1.004-.948-2.702-1.132-3.787l-.265-1.558c-.185-1.087.5-1.653 1.53-1.264l5.165 1.952 7.684 3.679c1.492.714 3.693.38 4.914-.747l3.132-2.888c.812-.75 1.716-2.224 2.014-3.272l6.614-23.292 2.271-23.986-4.05-8.781-6.366 8.996-.756 26.48-3.834-.405c-4.94-.52-12.521.925-16.927 3.224l-.454.236-2.242 1.84c-2.139 1.753-4.602 5.297-5.498 7.9l-.152.444c-.72 2.089-1 5.548-.627 7.728l1.113 6.503c.186 1.086.754 2.752 1.275 3.734l.613 1.154c1.295 2.439 4.073 5.853 6.19 7.614l-.215-.179c1.7 1.415 4.734 3.231 6.787 4.062l2.467.998c2.048.829 5.496 1.35 7.694 1.167l3.403-.285-.946-3.267z" fill="#674F20"/><path d="M392.599 481.998s-7.375 1.529-9.904 2.755c-2.529 1.227-5.542 4.735-5.542 4.735l9.078 7.058 6.368-14.548z" fill="#161515"/><path fill="#97783B" d="M400.575 445.87l3.283 7.012-9.776 45.393 2.75.721 8.224-25.475 1.782-22.697-4.737-8.683zm-22.411 33.766l10.48 2.53 5.203-4.338s-5.287-.853-7.61-.648c-2.323.206-8.073 2.456-8.073 2.456zm-7 11.633l7.347-.556 9.354 8.05-.81 1.156-8.842-6.855-5.894.12-1.155-1.915z"/><path d="M407.016 301.33l-23.53 20.336c-2.089 1.806-2.959 5.355-1.942 7.925l11.1 28.074-2.322-26.55c-.193-2.206.424-5.599 1.385-7.594l.422-.876c1.197-2.487 4.099-5.618 6.502-7.004l1.93-1.114 21.054-13.197h-14.599z" fill="#161616"/><path fill="url(#d)" d="M395.298 334.418l3.372.146-.207 3.552h-3.417l.722 4.057 3.566-.314.914 5.223h-3.594v1.654l3.397 1.026 1.033 4.483-3.252.086-.171 3.844 3.62-.171.682 4.074-3.105.343.229 3.337h2.597l.797 4.15-3.594.737-.172 3.885 3.798-.257 1.153 2.865-3.358 1.507v3.393l2.958.28 1.01 3.637-2.91.33.113 4.877h3.687v3.856h-3.014v3.625h3.63l-.616 5.303-2.846-.827.193 4.306 3.087-.273.364 2.836-3 .394v4.194h3.182l.242 3.943-3.03.364v4.268h2.75v3.678h-3.265l-9.24-92.138z"/><path d="M399.743 445.478l-.204-4.076 6.43-11.89 22.85-20.745c4.086-3.71 11.67-5.369 14.633-4.433l-38.72 42.431-4.989-1.287z" fill="#2C2B2B"/><path d="M541.875 519.659l50.243-33.124-.215-10.22v-15.298s-31.68 10.911-43.575 24.594c-11.896 13.682-6.453 34.048-6.453 34.048z" fill-opacity=".853" fill="#201D1D"/><path d="M498.658 384.614l39.132 48.123c12.09 14.867 18.933 42.175 15.289 60.971l-3.94 20.325 18.908-13.122-.816-32.155c-.253-9.942-4.604-24.92-9.715-33.448l-32.69-54.547-26.168 3.853z" fill="#574E4E"/><path d="M427.586 419.975s56.945-19.282 83.042-21.068c26.097-1.786 39.29 12.697 39.29 12.697l18.02-31.206s-52.983-5.757-76.626 0c-6.295 1.532-21.926 2.744-29.485 7.088-7.56 4.344-34.241 32.489-34.241 32.489z" fill="#201D1D"/><path d="M409.244 428.892l3.014 3.418 3.773-6.26 4.312-.259v-3.514l4.26-2.303 1.384-3.416 5.76-.767 1.028-5.233 5.227.005 1.277-5.348 5.226.54.737-3.85 5.65-.804 1.267-3.831 6.561.718 1.042-4.496 6.5.764 1.666-5.434 5.801 2.246 1.025-2.404 7.655.27v-2.9l2.822-.2 4.323.825.625-3.185 1.417-.343.472 1.546 5.68-.239.357-2.971h1.735l.238 1.824 5.595-.636.398-2.376h2.464l.79 2.018 4.885.12.08-3.136 1.819-.12.313 2.45 6.11-.009-.12-2.485h1.938l.596 2.137 5.68-.597v-2.101l1.902-.12.115 2.605h5.754l.114-2.336 2.202.701.239 2.858 6.882-.358-.318-2.623 2.295.556v2.808l4.964.119.795-2.256 2.46.594-.503 3.633 5.575 1.07 1.125-1.621 2.194.315-.944 5.198 11.843-.315s-13.295-7.932-32.22-10.679c-9.845-1.429-21.14-3.562-33.418-2.816-12.279.747-25.532 3.83-33.585 5.723-31.977 7.516-68.853 47.28-68.853 47.28z" fill="url(#e)"/><path d="M415.349 444.326l77.817-11.498-1.47-19.11-32.202 2.507c-8.429.656-20.277 5.86-26.46 11.622l-17.685 16.48zm2.365 13.855h33.3s11.793 19.417 20.287 29.441c8.495 10.025 20.579 18.787 20.579 18.787s-42.371-9.766-56.096-18.787c-13.724-9.02-18.07-29.44-18.07-29.44z" fill="#393131"/><path d="M416.468 487.392l28.048 12.855-1.381 3.713-9.472.193-.193 3.682 34.31 7.322v3.898s-14.683 2.644-21.442 4.788-25.86 10.218-25.86 10.218-4.088-24.378-5.206-37.397c-1.118-13.02 1.196-9.272 1.196-9.272z" fill-opacity=".853" fill="#201D1D"/><path d="M416.838 444.088l37.035-5.617 3.214-21.832s-14.887 4.01-21.977 8.845c-7.09 4.835-18.272 18.604-18.272 18.604zm-.978 19.91l26.43 6.155-13.264 1.077 6.403 11.763-21.12-10.608-.533-9.07z" fill-opacity=".544" fill="#291F1F"/><path d="M596.364 337.67l-16.13 31.034c-2.602 5.004-4.514 13.634-4.273 19.267l1.278 29.873c.242 5.637 3.042 13.965 6.254 18.6l6.463 9.328 6.408-108.103z" fill="#201D1D"/><path d="M623.425 332.041s-15.943 8.484-23.812 16.373c-7.869 7.888-10.367 17.89-10.367 17.89s-4.112 18.742-4.762 26.777c-.651 8.035 0 32.046 0 32.046s8.261-44.258 15.13-60.675c6.867-16.416 23.81-32.411 23.81-32.411z" fill="#352F2F"/><path d="M508.431 436.147s-2.077 19.904-1.574 29.436c.503 9.532 4.94 34.383 4.94 34.383l8.653 2.148s-5.838-17.121-6.836-27.044c-.998-9.923.381-37.13.381-37.13l-5.564-1.793z" fill="url(#f)"/><path d="M500.532 432.098l-5.966 2.953s-.548 20.971 0 31.107 3.753 38.353 3.753 38.353l28.975 6.525.839-4.63-25.042-6.058s-3.06-28.228-3.625-43.268c-.564-15.04 1.066-24.982 1.066-24.982z" fill="#3A3636"/><path d="M500.773 432.364s-1.074 23.058-.706 34.616c.368 11.557 2.877 33.56 2.877 33.56l24.038 5.526v-1.51l-21.935-5.222-2.012-66.271-2.262-.699z" fill="#554E4E"/><path d="M564.11 319.298l5.013 58.409-26.244-6.262c-31.74-7.574-77.112 4.006-101.344 25.866l-35.175 31.734v8.43s.475-6.185 2.018-7.691c1.543-1.507 26.742-24.003 26.742-24.003 24.326-21.756 70.002-34.325 102.034-28.058 0 0 19.795 3.838 22.166 4.38 2.37.541 18.784 6.875 18.784 6.875l-5.826-67.57-8.168-2.11z" fill="url(#g)"/><path d="M516.841 401.792l29.64 42.63 8.55 24.075 1.717-1.078s-6.277-20.529-13.87-35.13c-7.592-14.6-21.245-32.396-21.245-32.396l-4.792 1.9z" fill="#5C5454"/><path d="M633.283 337.957l-5.353-.577c-5.496-.592-12.322 2.734-15.235 7.413l-9.46 15.192c-5.838 9.376-11.011 25.915-11.556 36.955l-.925 18.728c-.762 15.44-.617 40.477.323 55.904l.91 14.94c3.516 3.435 6.265 12.041 6.141 19.223l-.595 34.468 30.493-20.362 12.538 62.837 21.406-64.59c2.955-8.917 4.36-23.687 3.193-33.014 0 0-2.553-17.85-2.479-26.41.075-8.56 4.995-66.515 4.995-66.515.37-4.403-1.018-11.132-3.128-15.02 0 0-6.176-11.842-9.939-16.757-3.762-4.915-21.33-22.415-21.33-22.415z" fill="#F7F7F7"/><path d="M595.375 381.933l16.482 8.895-11.18 6.707 13.266 131.344-16.017 10.95-.973-45.535-4.929-7.898s-.915-11.375-1.637-24.744c-.723-13.368-.222-24.482 0-33.749.285-11.879.305-27.077 1.637-36.439 1.332-9.362 3.35-9.531 3.35-9.531z" fill="#CBCBCB"/><path d="M614.686 527.978l16.956-8.832-17.998-112.706 17.795-9.826s-2.82-7.091-5.42-8.496c-2.602-1.405-13.815-1.893-13.815-1.893l6.037-45.747s-11.559 12.783-15.338 19.726c-3.78 6.942-8.985 22.497-8.985 22.497l16.705 7.936-10.766 7.162 14.83 130.18z" fill="#EBE5E5"/><path fill="#E0E0E0" d="M635.484 541.04l4.363.825 17.435-38.41 3.573 6.188-20.01 55.114z"/><path d="M578.01 568.193s3.971-9.611 7.278-14.271c3.307-4.66 12.674-13.843 12.674-13.843l32.301-20.846 9.955 63.393 25.795-80.092s11.213 12.912 15.685 20.715c4.472 7.803 13.765 30.673 13.765 30.673l-13.765 22.305-9.17 27.707c-.867 5.162-4.674 13.175-8.505 17.897l-6.976 8.6 1.227-10.867c.496-4.393-2.037-10-5.675-12.501 0 0-2.418-1.78-7.667-5.07s-5.395-3.2-5.395-3.2c-3.396-1.847-8.889-1.832-12.244.098 0 0-10.212 5.272-16.419 11.528-6.207 6.256-8.796 19.39-8.796 19.39l-4.741-1.963c-4.08-1.69-7.794-6.62-8.295-11.006l-.848-7.408s-8.22-15.894-10.184-23.85c-1.965-7.957 0-17.39 0-17.39z" fill="#EFEAEA"/><path d="M404.218 445.862l2.204 5.003-1.497 22.557-2.306 7.325 11.61 66.966 3.12-12.056-6.29-38.076c-.661-4.008-1.182-10.554-1.163-14.628l.217-45.635-5.895 8.544z" fill="#4B3A18"/><path d="M410 437.424l1.846-2.424s.111 39.652 1.61 57.916c1.497 18.265 6.653 42.829 6.653 42.829h-2.864l-6.532-36.882c-.495-2.794-.888-7.357-.88-10.187l.167-51.252z" fill="#84672E"/><path d="M416.861 535.83l34.476-13.393c7.673-2.981 20.575-5.617 28.807-5.863 0 0 27.938-1.046 36.349-.318 8.41.728 23.92 4.852 23.92 4.852l.557 9.306s-14.067-7.918-22.51-9.306c-8.443-1.387-27.2-.46-27.2-.46-8.235.255-21.116 2.927-28.774 5.97l-48.348 19.209 2.723-9.998z" fill="url(#h)"/><path d="M413.99 545.72l.689 4.174 56.514-21.515c8.037-3.06 21.49-4.894 30.054-4.043 0 0 14.968 1.218 21.856 2.82 6.889 1.603 18.069 8.576 18.069 8.576l-.274-5.694s-12.416-6.747-21.646-8.748c-9.23-2.002-19.722-2.427-19.722-2.427-8.567-.64-22.042 1.27-30.1 4.278 0 0-13.53 4.996-20.534 7.798-7.004 2.802-34.906 14.782-34.906 14.782z" fill="#4B3A18"/><path d="M343.261 582.885s14.94-3.699 22.194-6.467c7.255-2.769 23.395-11.643 23.395-11.643l15.512 40.88-9.491 5.393c-11.525 6.549-31.326 14.289-44.238 17.29l-20.999 4.88s.979-23.461 4.166-35.235c3.188-11.773 9.461-15.098 9.461-15.098z" fill="#382211"/><path d="M463.103 525.565l-10.816 36.225 37.82 22.151 27.325-31.73-21.112-33.273s-12.038-.127-17.824 1.028c-5.786 1.154-15.393 5.6-15.393 5.6z" fill="#3D3D3D"/><path d="M463.4 525.561l-9.702 33.209 35.96 20.277 25.735-29.715-19.526-30.301s-11.205.082-16.752 1.198c-5.547 1.116-15.716 5.332-15.716 5.332z" fill="#909090"/><path d="M465.46 526.017l-7.595 32.156 31.87 17.294 22.948-28.06-17.443-28.01s-11.12-.122-16.708 1.12c-5.587 1.242-13.071 5.5-13.071 5.5z" fill="#AEAEAE"/><path d="M480.655 545.89l1.543 7.835 10.562-.372.294-8.63 1.358-.838c7.072-4.36 7.22-11.67.34-16.322l-1.633-1.104c-6.884-4.654-16.953-3.397-22.48 2.797l-1.38 1.545c-5.532 6.199-3.388 12.42 4.782 13.896l6.614 1.194z" fill="#D8D8D8"/><path d="M356.33 544.252l-1.161 11.507-14.185 27.873c8.476-.68 23.227-5.207 32.935-10.104l8.974-4.526-.2-6.247 3.253-2.976-29.615-15.527z" fill="#090606"/><path fill="#090606" d="M402.68 480.757l5.283 63.82-25.833 17.21.743 6.852 32.174-19.12zM338.839 584.22c-3.651-3.847-11.87-5.843-18.342-4.462-4.856 1.036-9.66 5.816-10.728 10.667l-2.04 9.267 1.062 3.14-15.13 31.209 8.149.273 17.331-7.254c2.549-1.066 5.091-4.118 5.679-6.816l5.918-27.16c.823-3.778 4.486-7.758 8.1-8.865z"/><path d="M343.985 583.135c-9.33-1.018-18.169 7.532-19.741 19.097l-1.876 13.797c-.595 4.376-4.254 9.577-8.169 11.614l-12.474 6.492h25.087c1.652 0 3.969-.907 5.194-2.045l.758-.704c3.234-3.003 5.714-9.023 5.541-13.4l-2.767-11.306-.037-2.926c-.148-11.671 8.484-20.619 8.484-20.619z" fill="#49371A"/><path d="M341.081 585.881l-.932-.03c-1.66-.056-3.415 1.183-3.916 2.753l-3.508 10.98c-.782 2.449-1.154 6.51-.834 9.05l2.427 19.246s2.071-3.01 2.827-4.894c.755-1.884 1.192-5.128 1.192-5.128l-2.78-10.065c-.684-2.476-.483-6.432.442-8.814l5.082-13.098z" fill="#8A7544"/><path fill="#4C301B" d="M366.489 577.607l-16.78 25.748 24.932 9.702 27.422-10.075-1.208-5.676-23.485 8.607-18.115-4.838 12.67-20.201 19.413-9.193-2.425-5.75z"/><path fill="#392415" d="M391.638 571.99l-19.653 8.353-12.229 20.376 17.803 6.017 23.903-8.87z"/><path fill="#8F741E" d="M378.648 586.208l-8.7 9.732 12.47.765 7.592-8.788z"/><path fill="#25160A" d="M361.35 578.16l-18.392 30.438 28.369 8.531 31.374-12.606-.502-1.468-26.908 10.194-25.643-9.826 17.112-26.204 4.633-2.436z"/><path fill="#27180C" d="M338.554 625.13l31.268-6.548-10.71-2.985-20.182 2.924z"/><path d="M388.312 565.031l15.92 40.72 4.565-2.602s-3.968-13.652-6.324-20.164c-2.357-6.512-7.64-22.68-7.64-22.68l-6.52 4.726z" fill="#141414"/><path d="M394.492 560.948l67.562-28.563-6.962 31.373 22.333 12.394s-18.129 3.472-28.562 7.552c-10.432 4.08-40.424 19.426-40.424 19.426l-13.947-42.182z" fill="#392415"/><path d="M499.154 524.087h4.23c11.388 0 28.194 5.28 36.836 11.306 0 0-4.44 13.051-4.777 20.096-.338 7.045 2.58 25.703 2.58 25.703l-5.377-4.932c-8.39-7.695-23.11-9.2-32.9-3.348l-.771.46 18.19-21.31-18.01-27.975z" fill="#7E583C"/><path d="M394.753 560.368l2.51 8.01 62.848-29.807 1.8-7.102s-28.053 9.168-40.688 14.442c-12.635 5.275-26.47 14.457-26.47 14.457zm11.957 34.976l58.285-26.016 11.856 6.714s-19.914 3.688-30.117 7.624c-10.203 3.937-37.152 18.33-37.152 18.33l-2.872-6.652z" fill="#4C301B"/><path fill="#160E08" d="M458.224 534.484l-8.92 30.543 23.906 12.378 3.553-1.306-20.714-13.252 7.469-37.492z"/><path fill="#27180D" d="M409.466 592.532l45.977-24.416 5.471 3.017z"/><path fill="#2A1A0F" d="M398.112 569.253l50.035-24.53-49.103 30.093z"/><path fill="#3B281A" d="M399.801 575.154l35.684-23.344-3.378 29.053-25.489 13.902z"/><path d="M506.225 534.681l6.93-.527c4.957-.378 12.572 1.135 17.004 3.376l8.64 4.369 2.265-6.444-10.374-6.26c-4.257-2.568-11.732-4.758-16.695-4.89l-15.056-.4 7.286 10.776zm7.933 21.329l22.847 10.967.982 14.124-8.734-6.576c-5.537-4.169-15.385-5.881-22-3.825l-7.546 2.347 14.451-17.037z" fill="#956D50"/><path d="M533.668 530.765l-9.069 30.1 11.311 5.826s-.664-9.792 0-14.476c.665-4.684 5.285-16.67 5.285-16.67l-7.527-4.78z" fill="#674730"/><path d="M585.546 602.93l-2.133-16.575c-1.833-14.241 6.106-32.617 17.728-41.038l22.024-15.96 13.18 53.301 3.045-1.292-8.644-63.158s-23.216 14.066-33.731 23.294c-10.516 9.229-14.85 17.038-14.85 17.038-3.1 4.564-5.288 12.736-4.843 18.226 0 0 .432 7.853 1.348 11.243.915 3.391 6.876 14.921 6.876 14.921z" fill="url(#i)"/><path d="M640.754 582.076l4.526-3.264c4.48-3.229 9.397-10.133 10.984-15.418l12.203-40.633c.954-3.176 2.914-3.338 4.375-.365l14.418 29.325-17.066 40.221 4.12 5.664s4.542-15.657 8.277-22.185c3.735-6.528 11.614-18.185 11.614-18.185 1.23-1.839 1.5-4.974.604-6.983 0 0-7.263-16.593-11.553-24.047-4.29-7.454-16.76-24.316-16.76-24.316l-25.742 80.186z" fill="url(#j)"/><path d="M611.92 604.339c-8.986 5.5-13.25 17.958-9.529 27.812l.685 1.815 46.916-.34c7.728-.056 10.809-5.502 6.887-12.154l-9.691-16.44a18.622 18.622 0 00-25.86-6.451l-9.409 5.758z" fill="#E6BAAD"/><path d="M637.887 596.928l-4.534 36.967h25.452v-7.578l-.403-9.706c-.291-7.026-5.91-14.596-12.543-16.907l-7.972-2.776z" fill="#ECC2B6"/><path d="M399.679 607.752l103.195 28.61-7.793-58.815-4.633 5.508-13.663-7.099-9.592 1.732c-16.414 2.964-41.034 12.76-55.008 21.891l-12.506 8.173z" fill="#2D1C0F"/><path d="M476.746 576.645s-27.426 6.672-38.81 12.567c-11.386 5.894-22.14 18.99-22.14 18.99l79.925 17.631-3.935-42.645-15.04-6.543z" fill="#1F140B"/><path d="M457.723 581.624l34.38 11.057-.123-9.143-15.415-6.905s-7.564 1.175-11.205 2.14c-3.64.964-7.637 2.851-7.637 2.851z" fill="#140E09"/><path d="M494.907 577.144l7.72 58.663s16.757 1.545 28.217-3.5c11.46-5.046 28.692 1.757 28.692 1.757l-22.048-54.22-2.372-2.646c-11.916-13.29-30.442-12.639-40.209-.054z" fill="#6D4A30"/><path fill="#956D50" d="M495.095 578.546l5.737 57.62h8.036l-8.036-62.697z"/><path d="M504.984 605.815l38.588-9.904 16.084 37.88-5.692.378c-10.903.724-28.603 1.311-39.532 1.311h-6.934l-2.514-29.665z" fill="#47301E"/><path d="M244.24 178.02l.145 2.999s13.64 18.672 17.881 22.723c4.242 4.05 9.024 2.973 9.024 2.973l-19.479-23.525.415-6.91-7.986 1.74z" fill="#1C1C1C"/><path d="M254.44 173.18c-1.311 1.011-2.454 3.166-2.553 4.83l-.317 5.322c-.033.551.254 1.318.633 1.706l4.444 4.547.108.601c.586 3.265 2.751 7.995 4.836 10.563l.463.57c1.043 1.285 3.195 2.675 4.79 3.099l.124.033c.533.142 1.397.156 1.938.03l.605-.14-.835-25.03c-.055-1.657-1.2-3.762-2.567-4.711l.257.178c-4.07-2.823-10.552-2.658-14.3.233l2.375-1.831z" fill="#F3CABE"/><path d="M259.219 172.579l-.538-.074c-3.83-.525-6.934 2.19-6.934 6.053v3.832c0 1.108.628 2.638 1.408 3.422l3.552 3.57.217 1.032c.34 1.621 1.268 4.118 2.07 5.568l2.136 3.867c.534.966 1.672 2.292 2.56 2.974l1.09.84c1.382.27 3.849.51 4.17.515l-1.669-.025c.922.014 1.67-.871 1.67-1.486l-2.416-.451c-.543-.101-1.33-.482-1.74-.837l-.953-.82c-.84-.724-1.798-2.155-2.145-3.21l-.395-1.205c-1.033-3.149-1.902-8.395-1.942-11.7l-.141-11.865z" fill="#CFA99D"/><path d="M268.992 181.983l.9 28.107c.087 2.757 1.087 7.029 1.528 7.996 2.437 2.473 7.378 5.844 10.915 7.473l-1.811-.834c1 .46 1.82-.053 1.834-1.161 0 0 .074-9.925.555-16.564.482-6.64.682-13.064.682-13.064.061-1.652-.656-4.105-1.596-5.467l.73 1.06c-2.29-3.324-7.368-6.531-11.367-7.168l-2.37-.378z" fill="#F3CABE"/><path d="M268.798 181.791l.724 25.993c.067 2.38.445 6.215.842 8.546l-.047-.279c.277 1.63 1.706 3.567 3.178 4.323l2.87 1.474-.766-10.216c-.178-2.372-.142-6.21.082-8.591l1.73-18.404-.235-.138c-2.057-1.205-5.644-2.398-8.013-2.666l-.365-.042z" fill="#BC978B"/><path d="M280.528 186.628l3.163 5.077-.97 32.321c-.034 1.101.765 2.332 1.794 2.753l.148.06c3.561 1.459 6.77-.465 7.167-4.284l2.305-22.18c.171-1.652-.335-4.176-1.125-5.628l.452.83c-1.838-3.375-6.315-6.993-10-8.082l-2.934-.867z" fill="#F3CABE"/><path d="M281.285 187.093l1.157 3.338c.53 1.528.894 4.085.815 5.698 0 0-.507 10.084-.721 16.632-.215 6.547-.223 10.518-.223 10.518-.015 1.62 1.24 3.246 2.82 3.64l1.16.287-.75-12.4c-.096-1.611-.048-4.216.112-5.84l1.486-15.14-.067-.24c-.432-1.554-1.844-3.594-3.139-4.546l-2.65-1.947z" fill="#C79C8E"/><path d="M293.866 200.904h10.66c5.52 0 10.878 4.395 11.962 9.796l.892 4.443c.435 2.164-.518 5.144-2.123 6.652l-5.953 5.592c-1.607 1.51-4.684 2.939-6.88 3.192l-.635.074a1.188 1.188 0 01-1.252-.858l-.016-.061c-.412-1.604-.06-4.06.783-5.48l.778-1.31c1.973-3.324 4.186-8.212 4.186-8.212l-13.614.517s.472-6.727.808-10.088c.337-3.362.404-4.257.404-4.257z" fill="#C49D91"/><path d="M312.9 207.2c-3.212-.83-5.863 1.177-5.923 4.5l.093-5.174c-.084 4.709-2.071 11.832-4.434 15.905l-1.578 2.72-.425 2.336.191 2.663 2.203.302 2.542-.612 5.678-4.084 4.221-4.467 2.227-4.491-.599-2.932-1.294-5.915-2.903-.751z" fill="#F3CABE"/><path d="M293.156 253.656l5.96-11.227c.517-.976 1.598-2.383 2.412-3.129 0 0 3.761-3.583 5.602-4.532 1.84-.95 7.29-1.78 7.29-1.78 1.622-.28 3.33.78 3.675 2.387 0 0 .695 1.035-.13 3.01-.824 1.977-8.498 10.147-8.498 10.147s-.983 7.522-1.533 11.27c-.55 3.748-.804 4.66-.804 4.66-5.115.295-11.425-4.671-13.974-10.806z" fill="#BC9284"/><path d="M312.785 235.89s-5.674 1.991-7.823 4.484c-2.149 2.492-9.675 15.154-9.675 15.154s2.569 3.5 4.086 4.599c1.517 1.098 7.301 3.643 7.301 3.643l2.724-16.32 3.387-11.56z" fill="#D7ACA0"/><path d="M301.997 229.203c1.497 1.496 4.835.583 7.457-2.038 2.622-2.622 2.412-4.775.916-6.271-1.497-1.496-3.713-1.77-6.335.852s-3.534 5.96-2.038 7.457zm-35.053-26.988c1.37-.168 2.154-2.97 1.75-6.26-.404-3.289-1.913-3.871-3.283-3.703-1.37.168-2.084 1.024-1.68 4.313.404 3.289 1.842 5.818 3.213 5.65zm12.556 20.281c1.773-.03 3.16-3.011 3.096-6.656-.064-3.646-1.438-4.6-3.212-4.57-1.774.031-3.276 1.036-3.212 4.682.063 3.645 1.553 6.575 3.327 6.544zm9.023 3.847c1.376.12 2.725-2.459 3.014-5.76.289-3.3-.745-4.187-2.12-4.307-1.376-.12-2.572.57-2.861 3.871-.29 3.302.592 6.075 1.967 6.196zm28.18 10.457c-.907-1.391-2.599-1.587-3.79-.427l-3.768 3.67c-1.58 1.539-1.98 4.338-.881 6.272l1.31 2.305 6.341-7.81c1.043-1.285 1.153-3.452.245-4.843l.543.832z" fill="#7A4F4F"/><path fill="#311717" d="M480.357 247.401l-2.307 9.812-7.701 7.173 4.358 9.968 4.918-7.725z"/><path d="M470.975 170.635c8.27 0 15.949 1.42 15.949-1.39 0-2.807-7.679-8.78-15.95-8.78-8.27 0-14.974 2.277-14.974 5.085 0 2.809 6.704 5.085 14.975 5.085z" fill-opacity=".826" fill="#5A3131"/><path d="M456.2 189.396l-.443 15.69 9.957 25.254 4.252 9.677 4.238 4.507 5.605 2.973s5.076 1.26 7.624 1.227c2.549-.034 15.447-1.532 15.447-1.532s-18.314-18.34-26.718-28.746c-8.404-10.405-19.963-29.05-19.963-29.05z" fill-opacity=".989" fill="#C19082"/><path d="M462.015 139.344l-1.558 9.818 25.856-7.424c5.441-1.562 14.43-2.988 20.105-3.185l27.089-.941-1.475-7.292s-8.03-1.394-12.125-1.567c-4.094-.172-14.8-.061-14.8-.061-5.662.034-14.707 1.205-20.176 2.625 0 0-8.26 2.07-12.082 3.303-3.822 1.233-10.834 4.724-10.834 4.724z" fill="#BC9B92"/><circle fill="#3C2A2A" cx="455.5" cy="226.5" r="2.5"/><g transform="translate(454.98 163.076)"><path d="M34.727 9.596c-.83-2.045-2.971-4.717-4.791-5.97l-.95-.655C25.826.792 20.243-.226 16.52.695L.166 4.742l3.053 2.509c2.966 2.437 8.337 5.323 12.003 6.448l-1.388-.426c3.663 1.124 9.651 1.306 13.387.405l8.344-2.014-.838-2.068z" fill="#000"/><path d="M32.103 11.046c1.63-.296 1.95-1.439.71-2.541 0 0-1.779-1.656-3.29-2.759a28.733 28.733 0 00-2.743-1.782c-2.375-1.442-6.38-1.762-8.966-.702 0 0-1.97.798-3.005 1.247-1.033.448-1.485.9-1.485.9-2.262 1.601-2.1 3.934.384 5.195 0 0 .938.54 2.022.954 1.085.414.93.331.93.331 2.64.883 6.968 1.073 9.681.424 0 0 1.86-.45 3.183-.755 1.323-.306 2.58-.512 2.58-.512z" fill="#D8D8D8"/><path d="M23 14c3.314 0 6-2.248 6-6.057C29 4.135 26.314 2 23 2s-6 2.135-6 5.943C17 11.752 19.686 14 23 14z" fill="#420909"/><circle fill-opacity=".687" fill="#E6E6E6" cx="27" cy="5" r="1"/><circle fill-opacity=".144" fill="#F39E9E" cx="20" cy="12" r="1"/><circle fill="#110C0C" cx="23.5" cy="8.5" r="3.5"/></g><path d="M492.795 185.911l.638-1.306c3.064-6.266 8.887-6.788 13.006-1.167l5.81 7.929 10.105-3.99c6.166-2.436 6.022-5.97-.32-7.893l-5.504-1.669.413-1.424c1.944-6.698-1.985-10.84-8.774-9.25l-9.188 2.15-9.614-3.165 3.428 19.785z" fill-opacity=".529" fill="#CE9F92"/><path d="M483.705 216.068s3.002-5.468 5.369-7.663c2.367-2.195 2.683-1.88 2.683-1.88 2.5-1.171 6.574-1.242 9.129-.147l.098.043 1.083-.458c2.038-.861 5.224-.626 7.102.517l-1.3-.792c3.338 2.032 8.93 5.006 12.465 6.632l2.32 1.067-14.977 5.12c-3.696 1.263-9.742 1.453-13.522.42l-10.45-2.86z" fill="#973131"/><path d="M485.385 216.087l7.778-3.171c1.901-.776 5.079-1.098 7.094-.722l1.565.293h0c1.903-.712 5.09-1.04 7.12-.733l12.253 1.856-16.98 4.973c-1.978.579-5.213.67-7.214.204l-11.616-2.7z" stroke="#7A2B2B" fill="#AF6060"/><ellipse fill-opacity=".636" fill="#C79C90" transform="rotate(27 495.5 193)" cx="495.5" cy="193" rx="1.5" ry="3"/><ellipse fill-opacity=".583" fill="#C79C90" transform="rotate(-27 505.367 193)" cx="505.367" cy="193" rx="1.5" ry="3"/><g fill="#333"><text transform="rotate(-3 9300.936 14.983)" font-family="GiddyupStd, Giddyup Std" font-size="50"><tspan x="3.095" y="59.044">Mai Nguyen</tspan></text><text transform="rotate(-3 9356.578 253.468)" font-family="SFProText-Regular, SF Pro Text" font-size="24"><tspan x="52.571" y="102.927">03/21/2019</tspan></text></g><path d="M400.447 607.624s-20.715 10.655-32.273 14.814c-11.558 4.159-41.828 11.491-41.828 11.491l176.971 2.4-102.87-28.705z" fill="#252525"/></g></svg>