<svg width="420" height="351" xmlns="http://www.w3.org/2000/svg"><defs><radialGradient cx="50%" cy="32.824%" fx="50%" fy="32.824%" r="67.176%" gradientTransform="matrix(0 1 -.35917 0 .618 -.172)" id="a"><stop stop-color="#FFEFAF" stop-opacity=".726" offset="0%"/><stop stop-color="#78C13B" offset="100%"/></radialGradient><radialGradient cx="50%" cy="32.824%" fx="50%" fy="32.824%" r="67.176%" gradientTransform="matrix(0 1 -.37919 0 .624 -.172)" id="b"><stop stop-color="#FFEFAF" stop-opacity=".726" offset="0%"/><stop stop-color="#78C13B" offset="100%"/></radialGradient><radialGradient cx="50%" cy="32.824%" fx="50%" fy="32.824%" r="67.176%" gradientTransform="matrix(0 1 -.29534 0 .597 -.172)" id="c"><stop stop-color="#FFEFAF" stop-opacity=".726" offset="0%"/><stop stop-color="#78C13B" offset="100%"/></radialGradient><radialGradient cx="50%" cy="32.824%" fx="50%" fy="32.824%" r="67.176%" gradientTransform="matrix(0 1 -.22062 0 .572 -.172)" id="d"><stop stop-color="#FFEFAF" stop-opacity=".726" offset="0%"/><stop stop-color="#78C13B" offset="100%"/></radialGradient><radialGradient cx="50%" cy="32.824%" fx="50%" fy="32.824%" r="67.176%" gradientTransform="matrix(0 1 -.18446 0 .56 -.172)" id="e"><stop stop-color="#FFEFAF" stop-opacity=".726" offset="0%"/><stop stop-color="#78C13B" offset="100%"/></radialGradient><radialGradient cx="50%" cy="32.824%" fx="50%" fy="32.824%" r="67.176%" gradientTransform="matrix(0 1 -.1777 0 .558 -.172)" id="f"><stop stop-color="#FFEFAF" stop-opacity=".726" offset="0%"/><stop stop-color="#78C13B" offset="100%"/></radialGradient><radialGradient cx="50%" cy="32.824%" fx="50%" fy="32.824%" r="67.176%" gradientTransform="matrix(0 1 -.1441 0 .547 -.172)" id="g"><stop stop-color="#FFEFAF" stop-opacity=".726" offset="0%"/><stop stop-color="#78C13B" offset="100%"/></radialGradient><radialGradient cx="50%" cy="32.824%" fx="50%" fy="32.824%" r="67.176%" gradientTransform="matrix(0 1 -.30095 0 .599 -.172)" id="h"><stop stop-color="#FFEFAF" stop-opacity=".726" offset="0%"/><stop stop-color="#78C13B" offset="100%"/></radialGradient></defs><g fill="none" fill-rule="evenodd"><path fill="#F5F5F5" d="M0 350.479h385.845L420 312.629H76.5z"/><g transform="translate(74)"><path d="M122 200c44.183 0 80-33.579 80-75s-35.817-75-80-75-77.284 20.119-77.284 61.54c0 11.356 13.154 43.902 17.676 55.017C66.915 177.673 89.93 200 122 200z" fill="#FFE0B2"/><path d="M127.898 116.003l.087 5.015 36.337-.634s-8.08-4.014-13.037-4.79c-4.958-.775-23.387.409-23.387.409zm-31.726-.635l.35 5.004-36.254 2.535s7.7-4.703 12.57-5.908c4.872-1.205 23.334-1.631 23.334-1.631z" fill="#553422"/><path d="M173.827 6.835C165.442 4.03 151.5 1.193 142.7.5l2.59.204c-2.755-.217-7.23-.264-9.976-.105l-7.047.407C121.094 1.42 109.782 3.66 103 6.01l6.76-2.342c-5.739 1.988-15.26 4.351-21.253 5.276L99.37 7.268c-10.365 1.6-26.452 13.356-31.689 20.485l-.309.323C58.6 37.261 46.836 53.885 43.991 59.497l-5.266 7.784c-4.02 5.943-9.633 16.09-12.533 22.652l2.367-5.357c-2.23 5.049-4.593 13.583-4.762 14.943v10.484c.399 6.139 4.093 15.303 8.247 20.466l5.144 6.392-3.025-6.642c-2.289-5.026-4.467-13.568-4.865-19.07l-.196-2.703L30.83 89.71l-.636 6.376c-.603 6.044-1.092 15.868-1.092 21.47v-8.005c0 4.422.913 11.478 2.033 15.737l.312 1.184s.93 3.083 1.683 4.472c.754 1.388 2.69 3.587 2.69 3.587 3.59 3.603 12.314 6.524 14.044 6.524l14.436 4.79c-4.454-4.961-8.064-19.724-8.064-30.686v-4.274c0-6.623 1.838-17.031 4.114-23.27l1.36-3.73 5.971-13.792 2.488 14.619 1.726 9.006c1.263 4.352 6.57 12.448 8.708 14.728l4.96 4.448c-4.327-7.386-8.809-21.37-9.329-25.645l5.02 11.799c2.38 5.594 8.64 12.495 13.972 15.406l-7.137-3.897a824.51 824.51 0 0019.476 10.231l-.725-.366c5.917 2.988 15.987 4.4 22.499 3.154l1.135-.217-1.34-.623c-5.014-2.328-12.424-7.197-16.54-10.865l-.11-.098c-2.062-1.838-4.403-5.47-5.224-8.097l-4.605-14.73 4.666 7.09c2.43 3.694 7.065 9.085 10.35 12.041l5.355 4.817 2.21 1.9c4.602 3.958 13.255 7.432 19.32 7.76l2.807.153-6.416-3.147c-4.956-2.43-11.318-8.227-14.198-12.93l-10.316-16.843 11.536 14.04c2.802 3.412 8.15 8.006 11.95 10.265l3.266 1.942c3.324 1.976 9.096 4.205 12.867 4.975l2.272.463c2.71.553 7.023.3 8.996-.354l-4.465-7.21c-2.326-3.757-5.206-10.236-6.438-14.495l-1.242-4.293s7.062 14.059 11.345 20.039c4.283 5.98 10.782 10.856 10.782 10.856l1.442 13.7c.751 7.135.323 18.646-.957 25.71l-1.168 6.445c-.294 1.627-1.182 4.131-1.973 5.576l1.44-2.63c-2.7 4.93-8.542 12.218-8.766 12.45 0 0 1.095-1.174 0 0-1.094 1.175-2.561 3.103-2.561 3.103l-4.36 4.482 8.98-1.327c3.28-.484 7.438-3.118 9.28-5.868l8.594-12.84s-6.505 10.496-5.548 7.272c.957-3.225 0 0 0 0 1.856-6.414 1.87-5.52.033 1.989l-.571 2.334 5.532-12.568c-4.11 10.626-14.059 25.911-18.105 29.99l-7.01 11.439-10.71 3.044c-4.438 3.42-14.076 16.051-14.076 16.051l2.087-3.407c-1.153 1.882-1.71 5.15-1.241 7.316l.305 1.411 2.065-6.783c.16-.524.403-.511.543.02l.477 1.818c.563 2.14 2.39 5.015 4.09 6.427l3.705 3.078-1.92-5.66c-1.242-3.662.34-8.405 3.522-10.586l1.4-.96 5.508-2.825 5.888-4.501 4.093 2.72c4.417 1.862 13.572 1.72 19.379 0l6.905 1.618a76.74 76.74 0 003.922.789l-1.98-.335c4.247.718 9.27-2.882 11.224-8.058l1.636-4.33 8.099-5.636 2.23-10.387 2.896 5.178c2.159 3.86 5.363 10.267 7.15 14.295l-.404-.91c.896 2.02 2.847 4.96 4.356 6.567l6.136 6.532 12.22 6.13-9.826-14.803c-2.138-3.22-5.823-8.293-8.22-11.317l-5.187-6.544 2.623 3.23c2.088 2.57 5.087 7.011 6.689 9.903l1.981 3.577c2.41 4.348 7.947 9.716 12.357 11.984l7.719 3.97 7.314 3.582c-2.448-6.442-7.992-19.393-12.384-28.925l-.68-1.477c-3.005-6.524-6.335-17.56-7.438-24.66l-2.526-16.25 7.578 13.07 10.772 22.933c2.583 5.5 6.258 14.63 8.206 20.385l.688 2.033c1.415 4.183.442 10.465-2.172 14.03l-10.227 13.948-3.832 5.164 10.955-1.761-.103.095c-5.69 5.24-15.36 13.193-19.993 16.587l2.42-1.774c-1.336.98-2.754 3.065-3.172 4.677l-.314 1.213c-.97 3.74-1.755 9.898-1.755 13.77v4.333c1.058 3.602 5.168 8.037 7.423 9.087v-7.365c0-4.416 2.308-10.733 5.153-14.11l-5.153 6.115c4.172-4.95 6.562-8.963 6.562-8.963 5.518 0 13.578-9.657 14.724-12.74l5.565-13.463c1.689-4.086 2.859-10.977 2.613-15.383l-1.572-28.205c-.185-3.314-.818-8.645-1.413-11.9l1.06 5.803c-2.185-11.957-7.933-30.661-10.985-37.579l2.175-7.996c.87-3.194-.533-7.466-3.113-9.527l.417.333c-2.16-1.724-2.105-1.799.124-.164l6.68 4.897-5.035-6.294a66.988 66.988 0 00-2.602-3.025l1.354 1.463c-2.448-2.645-7.108-9.448-10.41-15.197l-.441-.768-.615-2.738.618-5.03c.473-3.84 1.271-10.063 1.783-13.892l-.927 6.939c1.479-11.068-5.287-31.399-6.562-33.217l6.317 9.008c-3.489-4.975-8.458-13.444-11.097-18.913l-2.763-5.724c-5.76-11.933-19.152-27.87-29.924-35.607l-4.112-2.953C198.06 12.597 175.539 7.067 175.119 7.268l-1.292-.433z" fill="#3A1503"/><path d="M58.636 144.784l-7.15 10.585-7.323 8.71-13.25 12.335c-9.121 4.864-24.856 10.525-29.987 11.582l2.174.123c5.516.31 14.132-1.124 19.254-3.207l6.278-2.552-3.577 4.21c-6.078 7.157-14.165 19.882-18.062 28.42l1.961-4.297c-1.145 2.509-2.532 6.73-3.1 9.44l-.392 1.872c-.792 3.782-1.073 9.967-.63 13.795l.195 1.684c.698 6.03.861 10.047.861 10.047l4.426 8.662c1.26 2.464 4.111 5.733 6.394 7.318l1.88 1.306c-4.703-9.756-7.966-14.837-7.966-14.837l-.55-2.828c.303 1.562-1.707-26.671-1.707-26.671l.915 11.956c-.506-6.603-.299-6.612.46-.033l.704 6.106c.696 6.034 4.344 14.755 8.156 19.489l-.237-.294c2.773 3.444 7.6 8.727 9.15 10.223l-3.597-3.474c1.986 1.919 5.49 4.65 7.84 6.107l17.104 10.615-.825 7.425c-.183 1.647-.923 4.18-1.658 5.668l-.406.822c-1.225 2.48-3.942 5.909-6.076 7.664l-4.766 3.919c6.429-2.326 15.32-9.284 18.387-13.512l3.374-5.926 5.342 5.841c.748.819 1.232 2.37 1.08 3.462l-1.035 7.465 9.617-6.63 2.3 2.938c1.705 2.177 5.157 4.801 7.703 5.858l6.457 2.681-5.936-9.771-3.623-8.625-1.31-8.607 13.481 12.634 5.396-24.264 1.31-7.429c.864-4.892.597-12.765-.595-17.586l-.616-2.49-.074-.932c-.393-4.956 2.042-11.91 5.449-15.541l.783-.835c4.796-2.635 14.944-4.905 15.852-4.924l10.676-4.871 3.99-4.471v-12.36l-4.663.484c-5.494.571-14.32.071-19.715-1.117l9.768 2.15c-8.122-1.787-23.953-7.764-29.643-10.55-5.311-2.853-15.481-10.69-20.256-15.188l2.09 9.387 1.614 4.736-9.504-9.114-12.615 17.156c-3.236 8.51-7.195 23.356-7.94 27.792-1.243 7.608 3.084 22.637 3.084 22.637l-.512-.85c.283.47.817 1.19 1.18 1.592l6.039 6.717 7.314 2.236-13.56-1.9 3.797 3.093c4.28 3.486 10.358 9.952 13.57 14.434l4.193 5.848c2.25 3.139 4.204 8.817 4.364 12.673l.222 5.365" fill="#321202"/><path d="M141.785 29.068l15.237 35.088 11.43 38.766 6.195 20.003 14.355 10.634 13.94 2.827-7.656-9.325-5.065-35.153 1.021 30.088-10.521-37.768c-1.631-5.853-5.934-14.51-9.624-19.352L158.959 48.95l18.323 35.23 6.796 27.765-13-30.874c-2.786-6.617-8.06-16.959-11.783-23.103l-17.51-28.9zM143 2l15.716 8.127c10.887 9.737 29.394 31.074 39.02 44.438l-8.181-11.359c4.518 6.273 10.899 17.005 14.254 23.975l9.28 19.275 9.33 10.054-12.249-10.328c-6.755-5.696-15.705-16.577-19.986-24.296l.129.232c-5.09-9.176-14.289-23.435-20.554-31.856l-4.907-6.597L143 2zm-41.072 27.52v21.746l5.285 24.244 6.601 16.829 11.152 19.772 5.095 5.163 11.576 4.372-25.739-34.44s-7.41-18.791-9.717-28.315c-2.306-9.523-4.253-29.37-4.253-29.37zm91.2-15.92l10.164 8.065c2.167 1.72 5.223 4.933 6.834 7.19l-2.626-3.678c7.692 10.77 17.53 29.598 20.57 38.116l3.825 20.619 4.187 14.565 4.963 8.933-6.799-9.47c-2.255-3.142-4.772-8.746-5.623-12.518l-3-13.302-1.788-5.193c-3.238-9.397-10.357-23.708-15.898-31.962l-3.239-4.823-11.57-16.543z" fill="#250E02"/><path d="M204 22l14.736 13.659 8.278 10.945c5.664 7.49 13.023 20.663 16.424 29.393l2.73 7.008-7.908-5.532c-3.427-9.965-11.614-25.768-18.303-35.32l-5.69-8.125L204 22zM80.971 93.418l3.284 4.252c5.738 7.432 16.812 17.54 19.958 19.54l-2.539-1.614c1.402.892 3.836 1.996 5.422 2.461l14 4.112-9.495-8.012c-3.376-2.849-8.354-7.95-11.118-11.39l2.417 3.01c-4.148-5.166-8.735-14.584-10.245-21.036l-2.178-9.3c-1.26-5.381-2.057-14.217-1.782-19.733l.404-8.11 2.083 20.53 8.006 25.115 4.82 6.885c3.801 5.432 11.136 13.118 16.388 17.172l7.97 6.152-9.832.639c-1.651.107-4.174-.42-5.648-1.185l-6.123-3.174-9.428-4.186c-2.52-1.118-5.936-3.788-7.633-5.965l-2.606-3.344-6.125-12.82zM198.85 81.755l1.12 9.307 12.91 9.7 9.78 2.03z" fill="#250E02"/><path d="M195.178 91.339l12.981 9.096 11.082 3.49 15.16 2.833c2.425 1.425 3.076 5.415 1.445 8.934l-.133.285-1.52 1.614c-3.411 3.62-10.153 5.95-15.079 5.201l-8.058-1.226 6.4-1.214c5.427-1.03 12.874-5.144 15.476-7.944-4.576 1.807-13.61 4-20.183 4.9l8.103-1.109c-8.642 1.182-21.643-1.6-24.146-3.161l-1.562-9.944c3.868 5.144 12.629 7.786 19.546 5.908l2.008-.546h11.319l-20.485-3.708-7.58-3.59c-2.992-1.418-5.18-5.247-4.888-8.54l.114-1.28zm46.021 29.457l-7.347 8.808-5.442 1.757c-4.057 1.31-10.697 1.51-14.827.45l-3.689-.948-5.037-1.33 3.093 2.216c3.465 2.482 9.726 4.493 13.99 4.493h2.396l5.73-.567c4.245-.421 8.605-4.087 9.743-8.207l1.303-4.722.087-1.95z" fill="#250E02"/><path fill="#250E02" d="M246.724 113.233l-.35 10.907-3.709 6.7-8.676 9.78 12.376-4.252 5.651-6.28 3.359-9.85-.21-5.729-4.128 2.441z"/><path d="M237 69l6.944 13.002 5.784 15.967-.185 7.655-1.736 3.168c-2.28 4.161-4.186 11.392-4.257 16.132v.024l10.638-9.016-.315-23.47-4.194 21.8.451-26.213L237 69z" fill="#250E02"/><path d="M243 69l.554 14.776c.074 1.995.555 5.168 1.077 7.101l1.435 5.313c.52 1.928.942 5.113.942 7.11v5.34c1.778-.452 3.118-2.44 2.995-4.424l-1.09-17.492c-.123-1.99-.827-5.102-1.572-6.95L243 69zM53.5 52.13L42.297 79.555 39.83 97.73v17.826l5.186 17.675-7.132-9.098-5.601-22.342.51 17.75 5.166 14.425 9.227 3.911-2.89-22.692.34-34.587zm-1.167 145.141l-4.5 12.754 3.132 24.032 10.577 18.295-2.115-9.11c-2.957-12.733-4.793-30.124-4.793-30.124l8.426 33.239 18.595 20.615 10.611 15.886 2.919-11.661-4.458-20.656-7.478-18.599-7.01-10.578-3.465-15.024 3.727-24.61-6.897-6.785 3.18 13.27-11.923-7.285-8.528 16.341z" fill="#250E02"/><path fill="#250E02" d="M84.996 188.367l-1.619 16.655v13.382l6.554 15.813-3.465-26.15.263-5.792 10.176 31.942 6.351-7.811 6.893-3.854 7.154-20.78zm86.062-4.324l-18.087 8.042.462 13.34-.462 7.608 4.64 5.203 13.818-9.015 10.267-13.106 7.391-20.253s-1.448-2.326-2.419-2.326c-.97 0-2.287 2.326-2.287 2.326l-.497-.296-12.995 15.315-9.032 3.488 9.2-10.326z"/><path d="M170.318 222.461l7.765 9.264 2.8 13.946-7.175 11.616-9.623 13.561-3.413 13.345-1.367 26.788 16.857-12.902 12.55 7.619 26.594 13.961c-4.971-5.014-11.823-17.107-12.588-19.283l.847-.259c6.34-1.935 16.333-5.805 22.322-8.644l-10.843 5.14c6.41-3.038 18.192-13.404 18.506-13.781 3.544 5.51.156 16.373-7.576 24.272l-1.676 1.713 18.877-10.664.252-13.432 3.422-11.692 8.564-6.124 12.141-10.917h-10.499l8.63-5.151 6.202-14.689s.695-4.867.566-7.303-1.354-7.58-1.354-7.58l-5.424-18.332-24.488-43.113 3.303 25.135 8.138 28.6 7.611 15.29 4.08 7.23-17.585-10.05-21.188-28.83 9.726 16.23 13.716 18.954-17.401-13.56-12.687-24.302-8.738 14.054-11.976 10.489-17.926 3.324-9.942.077z" fill="#2A0F01"/><path d="M130.899 213.546l-4.522 1.968-9.134 2.336c-4.903 1.43-14.89 7.624-14.89 7.624l-4.114 5.073s-1.586 3.974-1.99 5.83c-.402 1.857-.15 4.03-.15 4.03l.15 2.758-1.437 11.66-4.036 41.027-.929 16.854H168.8c3.414-7.051 5.429-33.497 5.249-38.468l3.506-13.025 1.805-12.18 3.14-9.403c-1.063-5.996-8.052-14.55-12.458-17.207l-7.854-3.162-2.53-1.411-2.767-1.618-8.745 5.16-4.06-4.453-6.155 4.006-7.032-7.4z" fill="#171A1E"/><path fill="#1A0A01" d="M181.578 223.754l-.9 11.088-4.966 36.03-11.434 21.723 17.166-26.956 4.578-22.695 1.47-21.06z"/><path d="M200.532 218.225v14.03l-2.615 27.19 10.689-11.515 3.339-5.788c2.58-4.473 3.734-12.172 2.575-17.209l-3.86-16.783-10.128 10.075zm17.988-19.076l4.894 20.57 2.86 20.272-3.517 18.771-9.554 18.7 18.118-26.21 5.557-28.191-5.303-4.977z" fill-opacity=".77" fill="#1A0A01"/><path d="M53.269 141.801l-.3 10.447 1.553 8.07c1.06 5.505 3.704 14.156 5.902 19.308l1.145 2.683 11.71 7.415-1.548-9.42a956.773 956.773 0 00-3.548-19.998l.652 3.419c-1.05-5.512-2.685-14.46-3.648-19.98l-1.798-10.295-8.665-22.055-.848 9.507 1.735 8.66s1.423 5.706 2.704 8.354c1.28 2.647 4.236 5.988 4.236 5.988l-9.282-2.103z" fill="#361505"/><path d="M57.983 177.14l-11.114 26.23s-4.94 12.909-5.976 19.534c-1.035 6.624-.773 9.518-.773 9.518l4.559 17.288-1.118 7.098h1.118l14.227 10.753 5.569 8.85.939 1.096 6.58 19.598s.859-3.058.792-4.306c-.066-1.248-2.346-21.47-2.346-21.47l-.78-17.848-6.674-7.72-8.582-38.743-1.812 13.92 8.028 28.772-8.028-15.473-3.281-25.339L61.95 181.08l-3.967-3.94z" fill="#3D1704"/><path d="M133.154 199.114l-.75 16.298 11.5 3.93 9.494-8.717-.548-16.987s-7.048 2.564-10.6 3.551c-3.552.987-9.096 1.925-9.096 1.925z" fill="#E8CA9F"/><path fill="#A8A8A8" d="M139.067 217.597l3.662 1.09 3.526-1.207-.142 5.291-4.34 3.812-3.584-6.068z"/><path fill="#D5D5D5" d="M139.158 222.178l-14.608 27.844.19 7.497 5.267-9.09zm6.467-.714l11.564 38.067 1.777-9.273z"/><path stroke="#4A4949" fill="#A4A4A4" d="M124.639 258.379l6.566 2.182 9.737-34.957-1.688-2.41zm18.763-32.877l9.708 36.13 4.555-.376-11.71-38.616z"/><path fill="#818080" d="M131.605 247.182l-6.149 18.966 9.06.264 1.648 1.918 6.127-22.507-.673-19.913-9.07 19.625zm11.865-1.034l.586 21.445 3.923-1.703 8.19 1.426-4.28-19.623-7.816-22.805-2.087.613z"/><path d="M140.832 225.595l-9.106 34.678s.376.163.417.022c.041-.142 9.437-33.93 9.437-33.93l-.748-.77zm3.651-.695l7.277 35.106s-.384.144-.417 0c-.034-.143-7.648-34.377-7.648-34.377l.788-.73z" fill="#4B4B4B"/><circle fill="#363636" cx="85.185" cy="141" r="10"/><circle fill="#363636" cx="145" cy="142" r="10"/><g fill="#767676"><path d="M130.218 209.947l-4.793 7.353 11.858 7.05 4.78-6.665z"/><path d="M153.592 209.998l4.664 7.436-11.98 6.842-4.663-6.748z"/></g><path d="M123.857 184.05a4.787 4.787 0 01-6.714 0L109 176h23l-8.143 8.05z" fill-opacity=".946" fill="#FFF"/><path stroke="#636363" d="M141.896 217.363l4.449 6.716 11.801-6.785-4.533-7.17zm-12.186-7.202l12.04 7.173-4.474 6.852-12.033-6.485z"/><path d="M79.586 133.016l-2.12-.537c-.542-.138-1.326-.534-1.759-.893L75 131m3.42 4.664l-2.16-.371a7.343 7.343 0 01-1.56-.492L73 134" stroke="#2A2A2A"/><ellipse fill="#FFF" cx="90" cy="139.5" rx="5" ry="5.5"/><path d="M149.46 134.212l2.12-.537c.543-.138 1.326-.534 1.76-.893l.707-.586m-1.523 4.172l2.16-.371a7.343 7.343 0 001.56-.492l1.7-.801" stroke="#2A2A2A"/><ellipse fill="#FFF" cx="149" cy="139.5" rx="5" ry="5.5"/></g><path d="M216.546 335.41l28.128-22.757h-28.128v22.757z" fill="#A0A0A0"/><g transform="rotate(-15 1322.016 -722.596)"><ellipse cx="14.707" cy="9.704" rx="14.707" ry="9.704" transform="translate(3)" stroke="#C2C2C2" stroke-opacity=".573" stroke-width=".6" fill="#FFF"/><path d="M14.496 4.639C12.98 1.263 9.61.632 7.003 3.25c0 0-1.948 1.79-2.73 2.985-.782 1.194-.43.72-.43.72-1.53 2.935-.528 6.774 2.274 8.576 0 0 1.838 1.244 2.721 1.663.883.42 6.697 2.116 6.697 2.116 3.538 1.056 5.177-.825 3.662-4.2L14.496 4.64z" fill-opacity=".046" fill="#949494"/><ellipse fill="#8C8C8C" cx="8.961" cy="10.746" rx="1.961" ry="1"/></g><path d="M246.02 221.867c5.175.575 9.657 6.609 10.01 13.455l3.658 70.957-18.135 3.129c-2.18.376-3.975-1.103-4.008-3.315l-1.086-72.868c-.102-6.87 5.343-11.826 9.562-11.358zm-65.16-.247c-5.413.41-10.282 6.296-10.876 13.149l-6.128 70.764 21.958 4.58 3.822-76.777c.342-6.863-4.94-12.006-8.775-11.716z" fill="#3A3A3A"/><path d="M175.157 318.37c5.244-.183 4.313-4.308 9.163-9.825 4.85-5.518-4.582-9.346-9.826-9.163a9.5 9.5 0 00.663 18.989z" fill="#F4D7AB"/><path d="M257.322 315.652c-3.158 4.19-6.003 1.062-13.305 1.87-7.3.808-5.027-9.114-1.87-13.304a9.5 9.5 0 0115.175 11.434z" fill="#FFE0B2"/><path fill="#D8D8D8" d="M88 251h128.604v84.644H88z"/><path d="M153.746 282.308v-.63c0-.504.532-1.84.743-2.208l.797-1.296c.326-.297 1.42-1.009 1.42-1.009l1.832-.56v.862c0 .548-.198 1.389-.446 1.883l-.491.978-1.061 1.077-.928.581s-.692.263-1.039.322c-.346.06-.827 0-.827 0zm1.233.862l1.84-.666 2.305-.137.632.085c1.092.148 2.6.91 3.375 1.71l.276.285s-.78.793-1.147 1.236a14.59 14.59 0 00-.806 1.123s-.357.843-.438 1.28c-.081.435-.075 1.47-.075 1.47s-.005.656.075.966c.08.31.517 1.335.517 1.335s.441.688.727.988c.286.3.76.574.76.574l1.167.84s-.617 1.45-.978 2.156c-.362.706-1.07 1.847-1.07 1.847s-.747.995-1.198 1.428c-.45.433-.975.66-.975.66-.343.222-1.982.356-1.982.356l1.361.045c-.752-.025-3.041-.656-3.673-.886 0 0-.379-.15-.567-.175-.188-.024-.816 0-.816 0l-2.264.75s-.528.272-.79.311c-.263.04-.849-.064-.849-.064s-.576-.089-.826-.247c-.25-.157-.69-.575-.69-.575s-.595-.575-.965-1.023c-.37-.447-1.131-1.424-1.131-1.424s-.703-1.334-.937-1.876c-.233-.543-.84-2.582-.84-2.582-.179-.917-.324-4.013-.324-4.013s.124-1.65.325-2.44c.2-.789.68-1.516.68-1.516s.692-.918 1.096-1.318c.404-.4.895-.653.895-.653.765-.413 2.55-.516 2.55-.516 1.638.12 3.563.496 3.563.496l.408.17h.789z" fill-opacity=".649" fill="#8A8A8A"/><g transform="translate(271 282)"><path d="M1.162 6.111l14.148.472A46.53 46.53 0 0018 6.579l12.921-.468.028.02a1.27 1.27 0 01.274 1.838l-.468.597-12.532.221c-.742.014-1.945.007-2.69-.014L2 8.388.524 7.93C.176 7.425.381 6.668.986 6.237l.176-.126z" fill="#E7E6E6"/><path d="M5.546 46.484l-1.086 1.05c-.796.77-.62 1.767.38 2.224l.648.296c1.38.63 3.723 1.235 5.243 1.353l3.234.252 6.644-.179 2.973-.502c1.495-.253 3.823-.992 5.19-1.646l-1.775.85c1.371-.657 1.726-2.144.777-3.343l-.53-.669s-2.072 1.267-2.64 1.557c-.569.29-1.677.262-1.677.262s-1.2-.07-2.318 0-3.649 1.223-3.649 1.223l-3.327-1.223s-1.658 2.136-2.388 2.077c-.73-.059-2.437-.374-2.437-.374s-1.545-.892-2.203-1.187c-.657-.294-1.059-2.021-1.059-2.021z" fill-opacity=".819" fill="#2C2C2C"/><path d="M1.52 8.245L4.37 46.18c.082 1.1.986 2.337 2 2.753l.98.403c1.022.42 2.752.747 3.859.732l9.395-.13c1.11-.016 2.846-.33 3.882-.705l1.063-.383c1.035-.374 1.953-1.561 2.052-2.672l3.376-37.687L1.52 8.245z" fill="#6C3326"/><path d="M1.718 6.171l-.12-.267c-.297-.657.049-1.19.76-1.19h7.49c.716 0 1.875-.036 2.604-.081l2.783-.174c.722-.045 1.537.453 1.905 1.059 0 0-.098.304.64.502s3.344.064 3.902 0c.922-.105 2.212-1.245 2.212-1.245.56-.44 1.599-.774 2.316-.746l2.662.104c.718.028 1.404.634 1.53 1.34l.15.844-7.199.195s-4.356.117-6.522.117h-1.944c-.714 0-1.866-.022-2.586-.05L1.718 6.172z" fill="#C38F47"/><path fill="#F0E0BC" d="M4.194 5.11l1.71-3.374 5.01 3.646zm18.242.493l2.631-4.044 2.631 2.417z"/><path fill="#47A511" d="M7.683 3.07L11.027.492l.353.871.081.63.378.247.438.973.366 1.007-.504 2.127z"/><path d="M24.884 5.299l-8.48-3.214.593 1.264-1.326.857 1.514 2.015s2.471.138 3.628 0c1.157-.139 4.071-.922 4.071-.922z" fill="#299207"/><path fill="#CCB47F" d="M12.71 2.656l-.319 2.983 3.465-1.041 1.093-1.165z"/><path fill="#AE9C72" d="M20.465 3.688l2.657-1.817 1.133 1.017-1.133 1.792z"/><path d="M22.937 8.418l-.302 34.596-.252 6.782c1.543.077 4.063-1.308 4.492-1.796.604-.751 1.243-3.283 1.427-5.634l2.651-33.948h-8.016z" fill="#59291E"/><g stroke="#000"><path stroke-width=".2" fill="#FFF" d="M6.194 22.365l.493.507.469-.865.792-1.381.615.036.525 1.07v1.283L8.1 24.048l.07 1.669-.25 1.404-.963-.349.462-1.646-.525-1.803-.635.505zm2.91-2.462h.752l.06 2.453.553-.73.478.877v2.244l-.516.286-.14-2.375-.266.369v1.613l-.633 1.066zm2.02 1.742l.276 3.117.444-.06-.013-3.518zm-.309-1.881l1.037-.312.076 1.101-.933.064zm1.341-.259l.617.075.007 4.79h-.372zm1.258 1.036l1.207-.026-.973 2.685 1.004.154-.057.81-1.625-.078.803-2.65-.579-.245zm7.796.421l.11.876.613-1.175-.398-1.369-.447-.397c-.506-.452-1.041-.29-1.197.371l-.158.672-.238 1.665.028 1.681s-.023.761.071 1.067c.095.305.463.657.463.657l.418.42c.475.475 1.047.353 1.282-.281l.15-.407-.573-1.438-.035.484c-.05.675-.331.73-.63.12l-.25-.51.085-2.135.156-.778c.132-.658.337-.663.461.003l.088.474z"/><path d="M22.083 20.548l-.513 1.11s-.171.797-.117 1.163c.055.367.49 1.351.49 1.351l.043.014a.952.952 0 001.227-.642l.215-.723-.135-1.361a1.042 1.042 0 00-1.09-.92l-.12.008z" stroke-width=".2" fill="#FFF"/><path d="M24.569 21.585l.6-1.148-.076-.117c-.295-.464-.973-.8-1.372-.764h0l-.35 2.074-.214 2.34v1.165l.469-.02.296-1.977.346-.042-.014-.67-.236-.09-.119-.985.196-.51.437.099.037.645z" stroke-width=".2" fill="#FFF"/><path d="M25.42 21.528l.338.236v.402l.517-.686-.01-.022c-.235-.474-.853-.757-1.05-.71h0l-.487 1.767-.284-.017-.047.497.183.18-.227 2.525.54.012.117-1.945h.447l.172-.9-.476-.085.268-1.254z" stroke-width=".2" fill="#FFF"/><path stroke-width=".2" fill="#FFF" d="M26.525 24.543l.603-.415.025-1.177-.638-.673-.607.294-.239.98.074 1.105.33.997.826-.217.341.901.792.69.287-.43-.54-.409-.263-.613.667.054.482-.444V23.87l-.556-.637-.501.156-.588 1.213-.348.402-.11-.348z"/><path stroke-width=".1" fill="#6C3326" d="M22.26 21.529l-.333 1.12.463.712.547-1.514z"/><path stroke-width=".1" fill="#59291E" d="M26.044 23.724l.353-.761.362.724zm1.644.626l.346-.446.243.892-.688-.288z"/></g><path fill="#FFCB3B" d="M16.564 20.538l-.646.393-.243.33.07.561-.231-.163-.323.2-.31.733.174.896.635 1.715-.02 1 .651.654 1.082.132.706-.097.484-.605.092-1.003-.259-.575.047-2.688.159-.905-.863-.464-.996-.12z"/><path fill="#FFDAA5" d="M15.86 21.874l.502.437.68.216.869-.218.489-.252.188-.83-.44-.402-.573-.279-1.053-.017-.597.38-.177.304z"/><path fill="#7D500D" d="M16.606 21.233l-.373.23-.088.239.15.26.346.08.596.044.664-.12.38-.283-.297-.42-.74-.035z"/><path fill="#6C3326" d="M15.752 22.577l-.224-.274-.225.186v.556l.548 1.48.007-1.56z"/><ellipse fill-opacity=".483" fill="#FFF4B1" cx="16.615" cy="24.732" rx="1" ry="1.902"/><path stroke="#000" stroke-width=".1" fill="#6C3326" d="M7.554 22.612l.517-.875.412.786z"/></g><g transform="translate(301 308)"><ellipse stroke-opacity=".404" stroke="#7D7D7D" stroke-width=".5" fill="#FFF" cx="33" cy="24.5" rx="33" ry="10.769"/><g transform="rotate(-9 53.562 -43.686)"><path d="M.418 15.965s-.424-1.67.699-2.67c1.122-1 7.408-5.33 7.408-5.33 1.358-.943 2.281-3.036 2.062-4.675l.232 1.732c-.147-1.097.53-2.395 1.52-2.905l.27-.139c.986-.508 2.675-.988 3.778-1.074l3.617-.28c3.304-.257 8.408.686 11.408 2.11l-.737-.35c1.999.949 3.843 3.49 4.02 4.89 1.847 0 5.902.82 8.151 1.54.809.628 1.916 1.106 2.724 1.734.808.627 1.937 1.885 1.937 1.885.854 1.48-.088 4.197-.826 4.882L43.48 19.25l-6.381 7.816c-1.582.56-4.98.264-7.58-.657L8.735 19.04a371.821 371.821 0 01-8.317-3.074z" fill="#CAA152"/><path d="M.474 14.017L.06 17.458s5.43 2.66 8.21 3.69c2.781 1.03 27.16 9.415 27.16 9.415l.765-3.28s-2.972-.26-5.521-1.148c-2.55-.888-23.349-8.415-23.349-8.415-3.115-1.127-6.85-3.703-6.85-3.703z" fill="#552904"/><path d="M35.229 30.57l3.553-.552-1.957-2.954s-.617.168-.954.199c-.337.03-1.255 0-1.255 0l.613 3.306z" fill="#7A461A"/><path d="M36.702 27.124l6.69-8.018.574-.296c1.962-1.01 3.525-3.62 3.495-5.61.704-.187-.578-1.58-2.875-3.12l-1.97-1.32c2.686.954 5.067 2.602 5.067 2.602l.477.68c.318.452.613 1.266.658 1.818l.103 1.262v.006c-.008 1.102-.524 2.73-1.153 3.638l-.417.6-2.385.368.261 1.515c.095.546-.12 1.325-.477 1.739l-6.11 7.067-1.938-2.931z" fill="#683204"/><path d="M3.695 11.817l1.928.59L11.54 10.3h0c.256-.77 2.024-2.276 3.949-3.361l-1.424.803c.966-.545 2.638-.983 3.752-.98l3.103.011 8.555-3.376-6.587-.248-1.565.016c-2.562.026-6.67.475-9.173 1.001l3.231-.68c-2.161.455-5.436 1.771-7.315 2.94l3.402-2.116c-2.025 1.26-4.943 3.906-6.53 5.926l-1.243 1.582z" stroke-opacity=".801" stroke="#5E9134" stroke-width=".3" fill="url(#a)"/><path stroke-opacity=".801" stroke="#5E9134" stroke-width=".3" fill="url(#b)" d="M8.864 11.52l-1.652 3.33 1.42.339 6.553-2.812.218-1.395 2.007-1.289 2.725-.634 5.424-.234 10.188-2.639L27.85 4.37l-6.518 2.558-5.233.243-2.805 1.29-1.003 1.247-.031.565z"/><path stroke-opacity=".801" stroke="#5E9134" stroke-width=".3" fill="url(#c)" d="M10.668 14.663l-.972 1.15 1.331.581 7.834-1.828 1.207-1.889 1.88-1.277 2.868-.687 2.258-.127 2.877 1.057 12.298-2.326-5.405-1.575-2.802-.962-8.01 2.253-4.65.064-3.01.475-2.6 1.332-.471 1.776z"/><path stroke-opacity=".801" stroke="#5E9134" stroke-width=".3" fill="url(#d)" d="M10.705 16.922l1.678.92 6.438-1.075 4.493-3.101 4.8-.778 2.17-.361 5.548 1.872 10.498-2.377-5.9-2.04-10.61 1.92-4.214-1.132-4.843 1.425-2.01 2.974z"/><path stroke-opacity=".801" stroke="#5E9134" stroke-width=".3" fill="url(#e)" d="M12.534 18.332l1.852 1.029 7.624-.027.932-1.866 2.06-1.364 6.844-.863 4.472 1.785 11.962-1.118-6.05-2.666-7.1 1.201-5.485-1.676-6.23 1.02-4.371 3.087z"/><path stroke-opacity=".801" stroke="#5E9134" stroke-width=".3" fill="url(#f)" d="M16.762 19.604l-1.875.208 1.031 1.795 7.991-.712 1.782-1.815 6.484-.822 3.33 1.48 14-1.2-4.383-1.924-9.36.81-4.595-1.969-6.707.964-1.988 1.467.02 1.781z"/><path stroke-opacity=".801" stroke="#5E9134" stroke-width=".3" fill="url(#g)" d="M18.148 21.896l.598.865 6.855-.879 1.3-.766 6.366-.084 3.364.936 10.301-1-6.497-1.398-5.135.545-3.59-1.502-5.756.699L23.8 21.39z"/><path stroke-opacity=".801" stroke="#5E9134" stroke-width=".3" fill="url(#h)" d="M23.305 22.722l15.162 3.073-5.448-4.563h-5.982z"/><path fill="#552D10" d="M2.363 13.978h1v1h-1zm6.309 0h1v1h-1zm5.407 4.254h1v1h-1zm-7.21-2.431h1v1h-1zm-.901-3.039h1v1h-1zm-1.802 3.039h1v1h-1zm34.248 6.685h1v1h-1zm-7.211 2.43h1v1h-1zm2.704 1.216h1v1h-1zm-8.111-1.823h1v1h-1zm-15.585-6.077h1v1h-1zm8.375-1.824h1v1h-1zm6.309 0h1v1h-1zm5.407 4.254h1v1h-1zm-7.21-2.43h1v1h-1zm-.901-3.039h1v1h-1zm-1.803 3.039h1v1h-1zm6.309 2.43h1v1h-1zm3.605-9.419h1v1h-1zm6.309 0h1v1h-1zm5.408 4.254h1v1h-1zm-7.21-2.431h1v1h-1zm-.902-3.039h1v1h-1zm-1.802 3.039h1v1h-1zm6.309 2.431h1v1h-1zM9.573 7.9h1v1h-1zm6.309 0h1v1h-1zm5.408 4.254h1v1h-1zm-7.211-2.43h1v1h-1zm-.901-3.039h1v1h-1zm-1.802 3.039h1v1h-1zm6.308 2.43h1v1h-1zm2.704-9.723h1v1h-1zm6.309 0h1v1h-1zm5.408 4.254h1v1h-1zm-7.21-2.431h1v1h-1zm-.902-3.039h1v1h-1zm-1.802 3.039h1v1h-1zM28.5 6.685h1v1h-1zm-5.408 3.039h1v1h-1z"/><ellipse stroke="#FFF" fill="#F4DE7A" transform="rotate(19 13.926 9.33)" cx="13.926" cy="9.331" rx="3.373" ry="3.076"/><ellipse stroke="#FFF" fill="#F4DE7A" transform="rotate(19 19.319 10.941)" cx="19.319" cy="10.941" rx="3.373" ry="3.076"/><ellipse stroke="#FFF" fill="#F4DE7A" transform="rotate(19 25.063 12.157)" cx="25.063" cy="12.157" rx="3.373" ry="3.076"/><ellipse stroke="#FFF" fill="#F4DE7A" transform="rotate(19 30.753 13.372)" cx="30.753" cy="13.372" rx="3.373" ry="3.076"/><ellipse stroke="#FFF" fill="#FFF" transform="rotate(19 36.329 15.196)" cx="36.329" cy="15.196" rx="3.373" ry="3.076"/></g></g><path fill-opacity=".156" fill="#C9C9C9" d="M88.683 251.796l-.424 83.023 45.173.53z"/><text font-family="Helvetica-Bold, Helvetica" font-size="2" font-weight="bold" fill="#FFF"><tspan x="279.332" y="313">one cup at a time</tspan></text><path fill="#6A6969" d="M216.637 316h15.749l-15.75 11.985z"/><path d="M216.638 317.937l12.853.106m-12.779 2.948l9.032.086m-9.091 2.876l5.12.082m4.751-7.977l-9.812 7.472" stroke="#979797" stroke-width=".5"/><path d="M219 173.753l4.273-4.544c5.131-5.457 11.764-15.42 14.818-22.262l.87-1.947 7.167 2.278v4.11l-2.491 15.234-14.984 11.853-9.653-4.722z" fill-opacity=".474" fill="#FFE9C8"/><path fill="#2E8040" d="M276 311l2.837 1.154-2.52 2.15-.062-1.11 1.224-.746-1.479-.294z"/><path fill="#296D38" d="M298.837 311L296 312.154l2.52 2.15.062-1.11-1.225-.746 1.48-.294z"/></g></svg>