<svg width="1509" height="944" xmlns="http://www.w3.org/2000/svg" xmlns:xlink="http://www.w3.org/1999/xlink"><defs><filter x="-13.6%" y="-49.6%" width="127.1%" height="229.7%" filterUnits="objectBoundingBox" id="g"><feMorphology radius="1.5" operator="dilate" in="SourceAlpha" result="shadowSpreadOuter1"/><feOffset dy="2" in="shadowSpreadOuter1" result="shadowOffsetOuter1"/><feMorphology radius="1.5" in="SourceAlpha" result="shadowInner"/><feOffset dy="2" in="shadowInner" result="shadowInner"/><feComposite in="shadowOffsetOuter1" in2="shadowInner" operator="out" result="shadowOffsetOuter1"/><feGaussianBlur stdDeviation="2" in="shadowOffsetOuter1" result="shadowBlurOuter1"/><feColorMatrix values="0 0 0 0 0 0 0 0 0 0 0 0 0 0 0 0 0 0 0.5 0" in="shadowBlurOuter1"/></filter><filter x="-217.2%" y="-3.6%" width="534.3%" height="109.4%" filterUnits="objectBoundingBox" id="i"><feMorphology radius="1.5" operator="dilate" in="SourceAlpha" result="shadowSpreadOuter1"/><feOffset dy="2" in="shadowSpreadOuter1" result="shadowOffsetOuter1"/><feMorphology radius="1.5" in="SourceAlpha" result="shadowInner"/><feOffset dy="2" in="shadowInner" result="shadowInner"/><feComposite in="shadowOffsetOuter1" in2="shadowInner" operator="out" result="shadowOffsetOuter1"/><feGaussianBlur stdDeviation="2" in="shadowOffsetOuter1" result="shadowBlurOuter1"/><feColorMatrix values="0 0 0 0 0 0 0 0 0 0 0 0 0 0 0 0 0 0 0.13428442 0" in="shadowBlurOuter1"/></filter><filter x="-3.8%" y="-2.6%" width="107.7%" height="106.7%" filterUnits="objectBoundingBox" id="k"><feOffset dy="2" in="SourceAlpha" result="shadowOffsetOuter1"/><feGaussianBlur stdDeviation="2.5" in="shadowOffsetOuter1" result="shadowBlurOuter1"/><feComposite in="shadowBlurOuter1" in2="SourceAlpha" operator="out" result="shadowBlurOuter1"/><feColorMatrix values="0 0 0 0 0.588235294 0 0 0 0 0.278431373 0 0 0 0 0.105882353 0 0 0 0.5 0" in="shadowBlurOuter1"/></filter><filter x="-5.1%" y="-2.8%" width="110.2%" height="110.3%" filterUnits="objectBoundingBox" id="b"><feMorphology radius=".5" operator="dilate" in="SourceAlpha" result="shadowSpreadOuter1"/><feOffset dy="6" in="shadowSpreadOuter1" result="shadowOffsetOuter1"/><feGaussianBlur stdDeviation="2" in="shadowOffsetOuter1" result="shadowBlurOuter1"/><feComposite in="shadowBlurOuter1" in2="SourceAlpha" operator="out" result="shadowBlurOuter1"/><feColorMatrix values="0 0 0 0 0 0 0 0 0 0 0 0 0 0 0 0 0 0 0.252519248 0" in="shadowBlurOuter1"/></filter><filter x="-12.8%" y="-5.7%" width="125.6%" height="114.2%" filterUnits="objectBoundingBox" id="d"><feMorphology radius="1" operator="dilate" in="SourceAlpha" result="shadowSpreadOuter1"/><feOffset dy="2" in="shadowSpreadOuter1" result="shadowOffsetOuter1"/><feGaussianBlur stdDeviation="2" in="shadowOffsetOuter1" result="shadowBlurOuter1"/><feComposite in="shadowBlurOuter1" in2="SourceAlpha" operator="out" result="shadowBlurOuter1"/><feColorMatrix values="0 0 0 0 0 0 0 0 0 0 0 0 0 0 0 0 0 0 0.329257246 0" in="shadowBlurOuter1"/></filter><path d="M1168.034 432.65c-4.56 3.12-6.435 9.747-4.192 14.791l7.35 16.528s12.614 20.67 19.26 30.71c6.648 10.04 18.224 28.005 18.224 28.005 4.195 6.493 12.018 16.195 17.475 21.672l14.938 14.993-20.916-71.785-31.584-68.985-20.555 14.07z" id="e"/><path d="M1411.82 936.207l10.152-5.742c3.148-1.78 8.583-3.773 12.142-4.45l6.583-1.255c3.557-.677 9.184-.193 12.567 1.082l14.859 5.602 6.359 5.198" id="h"/><path d="M1167.543 432.94c-4.097 2.824-5.739 8.773-3.665 13.296l8.503 18.546 43.226 68.275 60.224 60.799 13.642-11.638 14.414-1.404 45.44-53.412s-58.116-47.88-80.434-75.867c-22.319-27.988-35.111-64.262-35.111-64.262l-66.24 45.667z" id="c"/><path d="M1060.081 720.583l3.914 181.393" id="j"/><path id="l" d="M773.618 750.888l82.12 113.096 46.106 44.968 68.795-26.281 24.679-173.894-11.967-52.772-31.271 14.983 5.72 103.596-3.67 86.849-46.263 18.204-32.026-31.764z"/><linearGradient x1="50%" y1="0%" x2="50%" y2="100%" id="a"><stop stop-color="#FDCC6B" offset="0%"/><stop stop-color="#F3E496" offset="100%"/></linearGradient><linearGradient x1="50%" y1="0%" x2="50%" y2="100%" id="f"><stop stop-color="#EDB25E" stop-opacity=".109" offset="0%"/><stop stop-color="#FFF8E4" offset="100%"/></linearGradient><linearGradient x1="50%" y1="0%" x2="50%" y2="100%" id="m"><stop stop-color="#FFF" stop-opacity=".61" offset="0%"/><stop stop-color="#CFC7C7" offset="100%"/></linearGradient><linearGradient x1="50%" y1="0%" x2="50%" y2="100%" id="n"><stop stop-color="#E5D9C1" stop-opacity=".263" offset="0%"/><stop stop-color="#7B5E47" offset="100%"/></linearGradient></defs><g fill="none" fill-rule="evenodd"><path fill="url(#a)" d="M0 0h1508.592v930.087H0z"/><path d="M255.979 486.01h100.518c4.975 0 12.026 2.665 15.754 5.96l-.95-.839c9.105 8.044 18.697 24.16 21.428 36.01l1.067 4.633c2.108 9.147 1.869 23.913-.54 33l-.812 3.06c-1.699 6.407-7.163 15.083-12.209 19.38l.596-.508c-6.308 5.373-18.108 10.41-26.344 11.25l-60.605 6.182H263.37l-7.391-118.128z" fill="#B7B6B6"/><path d="M245.879 486.217l72.07-2.022c5.524-.155 12.741 3.263 16.114 7.627l17.89 23.147c3.375 4.367 6.112 12.378 6.112 17.913v20.225c0 6.07-2.627 15.154-5.868 20.29l-5.903 9.354c-2.654 4.205-8.82 7.999-13.767 8.471l-76.667 7.328-9.981-112.333z" fill="#A1A1A1"/><path d="M258.087 605.95c11.659 0 21.617-7.193 30.12-14.32 4.954-4.15 10.02-14.159 12.52-26.5 2.501-12.34 0-18.774 0-25.868 0-14.557-7.573-24.695-15.83-34.31C276.638 495.34 267.21 486 253.26 486c-27.614 0-50 23.846-50 53.262 0 14.116 1.49 32.64 11.061 45.388 9.571 12.748 29.403 21.3 43.765 21.3z" fill="#A3A3A3"/><ellipse stroke-opacity=".356" stroke="#BFBEBE" stroke-width="4" fill="#191919" cx="237" cy="545.5" rx="34" ry="38.5"/><path d="M787.964 317.264l10.545-8.437 13.93-.65 19.315 1.805 5.136-9.02 15.822 2.002 9.644-17.512 15.51.677 28.417-22.33 9.393 8.348 13.876-2.708 4.06 8.741 13.957 24.279h6.178l22.754 65.181 2.677 25.452c1.386 13.179-.498 34.184-4.204 46.902l-6.53 22.413c-2.935 10.075-11.463 24.12-19.053 31.377l7.871-7.525c-18.762 17.937-54.592 36.65-63.807 38.515l22.537-4.56c-12.447 2.519-31.884.234-43.413-5.103l-20.542-9.508-9.044-6.052c-7.806-5.222-17.724-16.168-22.155-24.452l-7.542-14.101-14.209-45.198v-14.156l-7.451-17.978c-2.114-5.098-3.814-13.717-3.8-19.222l.128-47.18z" fill="#F6D0A7"/><path d="M1009.29 550.08l22.907 7.706c9.835-10.478 31.504-16.75 34.302-16.296l-9.88-1.603a679.309 679.309 0 0019.809 2.853l-4.42-.557c7.673.966 19.439 4.657 26.299 8.254l-12.405-6.504c8.862 4.646 20.958 18.122 20.958 18.122s1.966 2.976 0 0c-1.965-2.975 0 0 0 0 3.675 4.31 11.678 21.229 16.762 34.812l27.174 21.39-39.545-60.594c-3.621-5.548-10.995-13.06-16.48-16.786l-6.131-4.164c-5.025-3.413-14.007-6.518-20.068-6.936l-1.805-.124c-8.819-.609-22.915.673-31.478 2.86l.412-.106c-8.027 2.05-18.89 8.831-24.26 15.144l-2.151 2.528z" fill="#C2A337"/><path d="M1101.036 647.68c23.85-13.22 30.001-47.724 13.737-77.064-16.263-29.34-46.904-37.875-70.755-24.654-23.851 13.22-31.88 43.19-15.616 72.53 16.264 29.341 48.783 42.409 72.634 29.188z" fill="#DFD29D"/><path d="M1081.042 378.808l-3.544 9.848-3.444 23.597 33.406 68.969 49.618 86.28 95.112 113.816s19.636-19.542 28.407-30.447c8.77-10.904 25.2-34.535 25.2-34.535l-86.674-79.225-62.83-103.618-62.982-31.3-2.34-11.361c-1.227-5.952-7.08-11.563-9.929-12.024z" fill="#D3BFA6"/><path fill-opacity=".458" fill="#F9ECA3" d="M1253.398 676.934l50.263-62.344-96.066-85.341-31.583 27.542z"/><path d="M787.612 317.807l-12.243-11.25c-2.442-2.243-4.068-6.729-3.631-10.02l3.72-28.019.94-14.512c.214-3.305 1.697-8.33 3.31-11.221l10.357-18.562 9.594-10.093c3.422-3.6 10.01-7.826 14.706-9.436l27.985-9.594c4.184-1.434 11.137-2.207 15.53-1.725l27.004 2.962 43.73 2.704 35.384 36.034 27.128 16.41 14.858 28.393-.901 26.136 5.995 47.428-15.028 2.337 2.628 56.073 5.943 44.132v27.805l-13.495.925H978.12l3.53-63.954-4.383-31.663c-2.725-19.692-10.742-50.688-17.908-69.238l-2.504-6.482-9.444-10.883-10.162-18.712c-3.952-7.278-13.796-12.213-21.997-11.02l-.708.103c-3.72-4.846-36.096 13.891-36.096 13.891-7.217-1.57-25.019 15.738-25.019 15.738l-1.568-.184c-7.678-.9-17.574 3.441-21.16 8.395l-9.654-.071c-11.594-.086-29.101 4.62-33.435 7.173z" fill="#8E3A10"/><path d="M928.149 198.969l33.116-.538c10.493-.17 25.939 4.595 34.519 10.658l-.136-.097c6.312 4.46 15.02 13.205 19.462 19.548l2.586 3.694c16.155 23.071 18.532 55.35 18.532 55.35-4.992-5.195-17.116-13.28-27.079-18.057l-12.933-6.203-28.446-26.156 18.745 19.486 18.794 22.835s-2.931 14.924-2.792 22.401c.139 7.477 3.47 14.057 3.47 14.057l3.914 37.838c3.24 6.946 5.866 23.77 5.866 34.022v-14.996c0 8.282-2.875 21.064-6.423 28.55L998.616 424s-.818 9.161 0 13.652c.817 4.49 6.657 22.903 6.657 22.903h21.916l.732-9.527c2.285-29.755-4.007-76.667-9.393-91.74l10.768 30.132c-5.947-16.641-8.24-44.244-5.124-61.629l4.743-26.469c.974-5.435-1.748-12.63-6.062-16.072 0 0-36.266-28.635-57.819-48.082-21.553-19.447-36.885-38.2-36.885-38.2z" fill-opacity=".929" fill="#612304"/><path d="M878.137 356.961l7.63 4.803 28.32-20.382c2.238-1.61 6.2-3.555 8.844-4.342l-.53.158c2.119-.63 5.603-.916 7.813-.634l13.45 1.716-12.62-9.213c-.894-.653-2.515-1.274-3.611-1.385l-4.7-.48c-1.1-.111-2.731.318-3.636.954l-40.96 28.805zm-79.749 32.324l2.224-7.506c.156-.527.731-.967 1.284-.984l16.456-.482 21.175-1.923c.55-.05 1.129-.51 1.3-1.046l2.992-9.403-7.843 2.59c-1.05.347-2.804.602-3.895.57l-23.113-.673c-1.1-.032-2.815.287-3.832.714l-4.893 2.054c-1.015.426-2.038 1.635-2.29 2.718l-1.09 4.702c-.5 2.152-.095 5.486.912 7.465l.613 1.204z" fill="#845237"/><path d="M849.29 379.196l3.762 4.536c2.822 3.402 5.583 9.71 6.168 14.097l1.67 12.516-1.79 14.143-1.17 8.045h0c0 3.391 3.63 10.688 5.876 13.504h0l11.698-1.319" stroke-opacity=".741" stroke="#D2A974" stroke-width="3"/><path d="M1095.311 382.41c-3.278 4.444-2.137 10.399 2.558 13.308l51.421 31.859c5.164 3.2 13.38 2.973 18.357-.511l60.216-42.15c5.88-4.116 16.237-5.822 23.127-3.81l52.984 15.462c3.186.93 6.02-1 6.329-4.29l.69-7.366c.259-2.752-1.726-5.394-4.444-5.904l-64.816-12.164c-2.712-.509-6.802.296-9.114 1.785l-67.486 43.464c-1.393.897-3.672.926-5.085.067l-51.3-31.183c-4.72-2.87-11.209-1.587-14.482 2.85l1.045-1.417z" fill="#F4F4F4"/><path d="M1068.096 376.786c4.16-1.487 10.105-.209 13.282 2.859l-1.753-1.692c2.383 2.3 4.155 6.857 3.96 10.163l-.57 9.655c-.489 8.273 1.486 21.26 4.41 29.011l16.57 43.9c2.143 5.682 6.316 14.57 9.317 19.852l34.851 61.327c3.002 5.282 8.6 13.333 12.504 17.983l94.012 111.971-21.063 20.351-39.546-34.127c-8.78-7.577-21.467-21.281-28.347-30.622l-19.794-26.875c-19.98-27.126-48.431-73.529-63.543-103.631l-5.396-10.75c-4.212-8.39-9.671-22.53-12.19-31.57l-10.617-38.09c-1.632-5.855-1.906-15.402-.61-21.342l3.143-14.4c1.295-5.933 6.981-12.4 12.696-14.443l-1.316.47z" fill="#EFEFEF"/><path d="M1167.147 433.84c-3.161 2.234-4.776 7.038-3.554 10.702 0 0 2.484 8.665 7.111 17.594 4.627 8.93 22.157 36.418 22.157 36.418l90.844 105.52c5.047 5.863 13.002 5.675 17.76-.407l53.15-67.944s50.735 14.894 73.402 16.443c22.668 1.55 45.553 2.773 45.553 2.773l1.128-1.912c2.247-3.809 2.273-9.992.051-13.822l-1.179-2.032-37.126-56.08h-12.087l-85.286-59.574-28.517-28.224-76.767-6.547-66.64 47.092z" stroke-opacity=".383" stroke="#FF710F" fill-opacity=".688" fill="#FF9B48"/><path fill="#634130" d="M1313.83 603.278l50.054 26.887 144.708 6.538-21.608-57.324-15.168 6.517-92.092-6.517-31.391-19.308z"/><path fill="#241103" d="M1162.54 634.892l93.794 163.665 40.639-28.285 20.26-39.696 25.848-37.726 29.872-17.03-36.037-9.276-57.515-15.22-46.577 51.742z"/><path d="M1278.946 651.628l88.218 24.431c6.389 1.77 11.084-2.144 10.484-8.755l-2.497-27.543-65.25-32.698-30.955 44.565z" fill="#260F08"/><path d="M1322.048 938.342l17.328-25.516c3.41-5.022 10.229-11.889 15.223-15.334l62.537-43.14 76.188 29.772 3.293 54.218h-174.57z" fill="#EEDBAE"/><path d="M966.441 602.217l7.733 39.495s2.872 6.005 5.524 9.652a6559.76 6559.76 0 0011.446 15.61l17.251 23.884 49.9 21.219c2.54 1.08 6.57.9 9.005-.405l38.86-20.814 31.203-35.345-31.203 16.545-13.606 2.43c-14.681 2.622-37.088-1.234-50.044-8.61l-5.188-2.954s-9.338-3.549-12.584-6.53c-3.246-2.98-12.493-11.987-12.493-11.987s-4.496-9.63-7.115-14.724c-2.618-5.093-7.409-18.714-7.409-18.714l-3.827-13.976s-15.645-6.537-19.72-5.037c-4.075 1.5-7.733 10.26-7.733 10.26z" fill="#633616"/><path d="M963.05 590.808l17.833-8.609h59.12l5.417-21.918-21.507-7.963c-5.693-2.108-15.23-3.625-21.297-3.39l-28.986 1.125-10.58 40.755zm138.597 33.732l12.189-29.357 8.96.89c3.845.38 9.17 2.915 11.885 5.651l19.123 19.267 7.982 12.739-17.7 38.61-15.742 16.338 2.392-23.334-29.09-40.803z" fill="#C7A66E"/><path d="M792.844 909.455l1.908 27.494 23.055 1.31-2.572-6.756c-2.358-6.194-3.609-16.556-2.796-23.126l.68-5.495 35.058-2.65 1.459 20.056 2.932 9.38c1.483 4.744 6.709 8.816 11.68 9.094l11.404.638a14.565 14.565 0 0015.442-14.161l.807-25.984-25.63-17.377-74.266 7.954.84 19.623z" fill="#2B2020"/><path d="M896.16 913.599l2.081 24.124 82.522 1.042 5.324-64.95s-37.848 19.862-54.178 26.422c-16.33 6.56-35.749 13.362-35.749 13.362z" fill="#6B3C10"/><path fill="#9A5D27" d="M1009.884 689.823l-31.53 247.815h174.585l-37-256.317-54.175 31.63z"/><path fill="#655D5D" d="M733.38 534.855l-57.117 6.57-32.403 12.117-39.993 33.833-13.428 48.207-5.624 38.234L598.243 684l-2.627 25.83 4.925 16.018 27.248 37.837 32.039-32.623 16.435-16.734 10.8-37.094v-54.411l17.29-28.42 8.54-46.526z"/><path fill="#2F2F2F" d="M673.315 709.216h17.81l20.246-63.346-4.889-20.328 1.329-39.586-16.686 34.003-11.828 25.91 6.204 39.262z"/><path fill="#888585" d="M606.295 594.403l77.85 95.18 2.55-58.638 20.286-41.889-44.343-46.667-7.094 4.043-11.291 6.434-36.854 30.566z"/><path fill="#353535" d="M604.278 742.934l-2.517 27.222-14.356 7.29 60.362 54.269 29.507 57.359 31.285-14.41v-42.95L671.08 713.333l-42.445 47.839-23.534-28.54z"/><path fill-opacity=".873" fill="#886442" d="M602.312 774.657l59.188 9.15-6.405 53.27-67.909-59.417z"/><path fill="#785F4C" d="M584.123 765.31h-15.628l-18.61 9.329 2.066 10.781-8.94 51.752-2.468 2.314-17.257 46.39v16.378l-13.555 36.55h246.738l-9.384-14.791-4.43-16.256-31.531-34.485-32.878 12.603-27.343-52.94-57.75-52.359z"/><path d="M386.103 589.4l-19.427 42.95c-8.193 18.114-18.423 48.512-22.85 67.9L333.1 747.217l-5.803 35.623-2.884 24.378 35.698 12.223s25.818 6.614 38.76 5.784c12.941-.831 65.145-9.483 65.145-9.483 16.893-2.725 43.106-10.951 58.53-18.365l30.242-14.537-38.994-112.362c-4.165-12.001-5.102-31.734-2.094-44.075l.486-1.992-103.461-36.837-22.622 1.826z" fill="#5B4D4D"/><path d="M320.189 805.034s26.236 12.775 42.13 15.861c15.894 3.086 36.637 3.143 36.637 3.143 12.692.415 33.16-.797 45.715-2.707l38.506-5.858c12.972-1.973 31.775-6.789 31.775-6.789l38.333-20.545-3.538 11.684-29.656 15.583-29.79 7.794-37.127 7.297s-15.136 4.62-22.89 5.11c-7.755.49-18.826-2.47-18.826-2.47l-37.787-1.576s-15.937-4.894-22.926-8.36c-6.988-3.467-30.556-18.167-30.556-18.167z" fill="#A9A19B"/><path d="M320.446 808.52c.97-2.205 0-3.993 0-3.993l35.897 13.196c11.924 4.384 31.717 6.08 44.222 3.787l76.88-14.097c8.693-1.594 22.068-6.244 29.865-10.38l42.724-22.67s2.832 6.36 3.26 9.343c.427 2.981-1.202 5.016-1.202 5.016s-16.769 10.246-25.654 14.487a2038.65 2038.65 0 00-13.033 6.263s-7.19 1.463-11.775 2.812c-4.586 1.349-19.21 3.727-19.21 3.727l-50.838 7.453s-23.612 2.346-35.26 2.196c-11.647-.15-28.728-2.196-28.728-2.196l-47.148-14.943z" fill="#3B3B3B"/><path d="M321.045 804.59l-.482 20.866c-.191 8.286 5.015 19.043 11.645 24.021 0 0 10.361 7.851 13.771 10.188 3.41 2.336.17.115.17.115 11.316 6.896 31.222 11.904 44.457 11.186l58.52-3.176c8.271-.449 21.562-2.1 29.701-3.691l46.138-9.021c15.72-3.073 28.463-18.55 28.463-34.575v-32.667c-7.482 13.422-28.463 27.335-46.861 31.074l-57.451 11.678c-11.37 2.31-29.918 3.058-41.432 1.67l-36.491-4.401c-7.68-.927-19.292-4.886-25.936-8.844l-24.212-14.424z" fill="#5D5252"/><path d="M344.706 857.287l22.931 52.106 12.496 29.593h139.843l15.895-59.627 9.452-41.02-64.404 20.757c-9.46 3.05-25.172 6.104-35.084 6.821l-57.366 4.153c-12.123.878-30.181-3.834-40.318-10.514l-3.445-2.269z" fill="#514444"/><path fill="#242222" d="M380.502 608.419l5-19.797 44.65-4.099 127.595-20.865 39.34 23.018-27.498 28.607-49.06 22.499-14.031-12.954-127.94-5.753z"/><path d="M577.45 496.407l80.872-6.201 17.421 13.278c7.904 6.024 14.311 18.96 14.311 28.91v2.223l-26.773 8.267-35.11 21.576-20.211 3.539-22.222-30.632-4.78-9.383" fill="#3F3F3F"/><path d="M378.83 499.296l7.129-2.61c5.19-1.9 12.436-.157 16.197 3.907l3.277 3.542c4.877 5.27 9.82 15.284 11.037 22.347l.144.835c1.86 10.792 1.876 18.02 1.876 18.02h0l-3.618 19.913c-1.382 7.608-8.614 15.192-16.149 16.94l-17.006 3.944s5.758-7.568 7.876-11.502c2.117-3.933 0 0 0 0 4.361-9.827 6.596-26.58 4.992-37.417l-.58-3.915c-1.604-10.838-9.335-25.744-11.566-27.867h0l-3.61-6.137z" stroke-opacity=".721" stroke="#4A4747" stroke-width="3" fill="#A7A5A5"/><path d="M400.339 497.706l22.045 2.786c5.476.692 12.747 4.722 16.188 9.041 0 0 5.407 6.311 7.175 10.066 1.768 3.755 1.776 8.719 1.776 8.719.311 3.844.4 10.09.166 13.957 0 0-.506 12.387-1.942 18.188-1.435 5.801-1.582 3.903-1.582 3.903-2.526 2.894-6.302 7.846-8.444 11.074l.449-.676c-2.138 3.222-6.995 6.062-10.852 6.343l-34.588 2.522 23.243-25.593c3.343-3.68 5.187-10.59 4.113-15.455l-2.107-9.55c-.475-2.155-1.038-5.675-1.26-7.888l-.362-3.618c-.99-9.896-9.046-21.419-14.018-23.819z" fill="#929292"/><path d="M409.595 499.328l83.096-1.507 3-.37 4.96-.307c15.431-.955 34.936 8.68 43.562 21.514l.99 1.472 5.09 17.872-115.115 39.682 10.908-18.516.257-3.825 1.33-19.777-.27-4.477c-.398-6.62-4.18-16.098-8.442-21.162l.08.095c-2.134-2.536-6.367-5.581-9.446-6.8l-6.938-2.745-13.062-1.149z" fill="#444"/><path d="M662.78 485.372l48.084-23.552 7.591-16.407c2.087-4.509-.171-8.92-5.057-9.856l-13.399-2.565s-3.266 2.738-4.803 4.256c-1.536 1.519-9.15 9.312-9.15 9.312-3.474 3.55-8.87 9.53-12.046 13.345l-4.92 5.911c-4.239 5.095-6.967 14.542-6.3 19.556z" fill="#F69443"/><path d="M666.49 497.262l11 6.838c7.036 4.373 19.207 9.695 27.21 11.894l20.342 5.59a14.919 14.919 0 0018.38-10.514l.077-.286c3.164-11.725-.035-29.217-7.146-39.07l-1.243-1.722c-2.264-3.138-7.23-5.96-11.064-6.3l-4.774-.426c-3.846-.342-9.664.976-12.994 2.944l-13.212 7.81c-7.135 4.216-17.344 12.691-22.8 18.926l-3.777 4.316z" fill="#AFAFAF"/><path fill="#4A4949" d="M495.206 504.116l-29.65 12.776-3.334 23.443 49.684-21.109z"/><path fill="#666363" d="M597.45 542.178l51.493-27.773 11.354 6.877-.8 11.598-51.837 24.442z"/><path d="M595.22 591.746l12.219-28.445-28.197-42.41h-11.31l-6.804 3.711-24.68 10.799-91.92 38.08c-5.107 2.116-13.703 4.349-19.177 5.006 0 0-13.559 1.484-23.685 3.29-5.464.976-6.465 1.037-12.778 3.432-6.313 2.395-1.548 5.525-1.548 5.525l-2.242 5.115c-1.775 4.046-4.943 10.456-7.087 14.332l-1.946 3.518" fill="#2D2C2C"/><path d="M937.005 275.179l16.013 21.703 16.28-12.417 6.788-17.62c.994-2.581.492-6.49-1.118-8.724l-6.637-9.208-23.437 10.305-7.89 15.96z" fill="#585454"/><path d="M969.964 251.394l-18.547 8.957-7.708 13.179 11.164 16.298 14.764-6.919 6.967-17.932c.6-1.543.303-3.889-.658-5.23l-5.982-8.353z" fill-opacity=".775" fill="#C4B78C"/><path d="M969.95 264.583h-13.276l-4.527 9.285v7.139l11.879-1.35c1.097-.124 2.215-1.087 2.501-2.166l3.424-12.908z" fill="#DBB14D"/><use fill="#000" filter="url(#b)" xlink:href="#c"/><use stroke="#F69443" fill="#F69443" xlink:href="#c"/><use fill="#000" filter="url(#d)" xlink:href="#e"/><use fill-opacity=".573" fill="#795829" xlink:href="#e"/><path fill-opacity=".458" fill="#F1E7BD" d="M1296.031 472.348l47.985 56.244 12.154-12.923-60.139-46.223z"/><path fill="#61351B" d="M1288 610.328l15.86 6.467 55.693-66.289-4.691-15.26z"/><path fill="#241309" d="M1355.166 535.707l59.634 15.122 58.823 4.196-2.056 15.888-85.952-5.76-26.807-14.278z"/><path fill-opacity=".171" fill="#8B8467" d="M1358.352 538.615l.848 11.823 27.483 15.82 36.688 2.283-.328-17.03-31.956-6.558z"/><path d="M1309.869 393.726l39.886-9.638c6.443-1.557 15.252 1.173 19.686 6.11l17.577 19.568-33.935 28.06-43.214-44.1z" fill="#7B6C6C"/><path d="M1387.073 409.834l33.774 13.156c6.177 2.406 10.79 9.721 10.304 16.325l-3.239 43.979-75.419-46.495 34.58-26.965z" fill="#4F4848"/><ellipse fill="#C1BDBD" transform="rotate(33 1392.268 407.582)" cx="1392.268" cy="407.582" rx="44.757" ry="5.014"/><path fill-opacity=".338" fill="#D8D8D8" d="M1343.087 418.47l33.077-13.837 26.23 19.851-38.653 16.32z"/><path d="M1421.234 433.872l-9.724 39.23 19.778 8.465s-1.943-15.632-2.058-22.299c-.115-6.667-.596-14.471-.596-14.471s-2.192-4.76-3.55-6.765c-1.357-2.004-3.85-4.16-3.85-4.16z" fill-opacity=".433" fill="#302F2F"/><path fill-opacity=".377" fill="#A09F9F" d="M1163.662 427.547l15.68-19.256 35.07-24 8.516 6.57-54.865 36.422z"/><path d="M1093.922 391.978v-7.773l-3.197 7.812c-1.676 4.093-.153 9.53 3.415 12.153l12.52 9.206 52.5 25.15 36.847-25.15 34.411-24.588c1.801-1.287 5.053-2.164 7.247-1.961l39 3.61 11.862 1.541-42.545-11.51c-4.261-1.153-10.708-.109-14.388 2.325l-38.143 25.227-23.71 16.926c-5.844 4.17-15.598 4.586-21.78.931l-48.244-28.525-5.795-5.374z" fill="#232323"/><path fill="#261A08" d="M1349.955 560.908l29.587 18.829 92.547 6.783 15.3-6.783-16-9.438-83.81-5.687-29.045-14.047z"/><path fill-opacity=".676" fill="#4C3023" d="M1435.814 629.967v-21.748l6.938-9.457 1.201 9.173 6.356-3.569 4.739 5.94 17.862 5.604 14.644 6.254 7.872 12.91-59.873-2.07z"/><path d="M1380.252 579.91c2.101-.675 4.403.467 5.14 2.547l7.785 21.955 9.197.494 4.53-19.188c.507-2.148 2.691-3.644 4.877-3.341l-2.007-.278c2.186.302 3.542 2.282 3.023 4.438l-4.956 20.627c-.517 2.149-2.73 3.79-4.93 3.668l-8.72-.485c-2.756-.153-5.757-2.38-6.704-4.98l-7.694-21.11a3.816 3.816 0 012.435-4.981l-1.976.633z" fill="#E3B364"/><path fill-opacity=".413" fill="#7F5641" d="M1314.176 603.596l48.78 26.93 16.933-50.256-29.841-19.37z"/><path fill="#321909" d="M1314.484 603.211l48.871 26.675 144.888 6.441.048 10.993-137.045-7.294-8.857-1.009-51.646-30.59z"/><path fill-opacity=".581" fill="#381A02" d="M1248.35 708.37l34.548-38.236 69.942 17.618-58.394 82.848z"/><path d="M1254.443 702.63l27.792-33.3 66.94 19.143s-14.06 27.042-22.775 40.45c-8.714 13.41-20.24 25.735-20.24 25.735l-51.717-52.029z" fill-opacity=".433" fill="#663B22"/><path stroke-opacity=".847" stroke="#5D5543" stroke-width="4" fill="#CAB09C" d="M1259.595 797.368l27.722 47.39 70.234 50.245 70.655-70.666 61.828-73.262-111.877-86.578-28.654 22.823-27.009 43.256-23.698 38.08z"/><path d="M1067.089 379.601l-2.483 16.393c-1.572 10.376-.389 26.932 2.644 36.984l9 29.832c3.508 11.63 10.953 29.775 16.62 40.512l25.417 48.163 9.99-5.649s17.166 38.408 31.668 56.39c14.502 17.982 84.421 87.562 84.421 87.562l-11.131 13.203s-44.297-38.522-63.973-60.292c-19.676-21.77-32.525-43.289-32.525-43.289l-43.39-66.072c-2.73-4.159-6.533-11.226-8.497-15.796l-6.672-15.528c-4.798-11.166-11.444-29.685-14.835-41.334l-8.67-29.78c-1.39-4.772-2.29-12.667-1.945-17.631 0 0 .074-4.672 1.269-11.389 1.194-6.716 3.915-14.907 3.915-14.907.662-2.104 2.832-4.54 4.85-5.44l4.327-1.932z" fill-opacity=".549" fill="#898585"/><path fill-opacity=".129" fill="#DDC8AC" d="M1118.022 471.087l11.853 9.93 29.066-10.024-16.344-7.35z"/><path fill-opacity=".435" fill="#E7D2B8" d="M1139.732 508.11l20.38 17.52 16.199 8.137 11.734-4.545-14.647-8.113z"/><path fill="#E5D1B9" d="M1186.774 548.026l-.214 6.068 12.564-1.377v-7.257z"/><path fill-opacity=".419" fill="#F2E0C9" d="M1238.37 612.61l-5.785 6.565-.31 7.414 9.37 10.771 7.617 6.458 9.045-.216 5.15-9.572-.323-13.225-11.892-7.536z"/><path d="M1378.294 666.057s-17.217 11.925-24.074 17.789c-6.857 5.863-22.348 32.481-22.348 32.481l96.31 127.714 63.765-89.765-113.653-88.219z" fill-opacity=".907" fill="#CEB997"/><path fill-opacity=".105" fill="#000" d="M1331.444 717.996l-64.135 70.187 111.655 80.656 46.704-28.373z"/><path fill="#653C1B" d="M1493.746 750.314L1361.634 892.68l35.548-24.018 28.155-10.724 68.409 26.054z"/><path fill="url(#f)" d="M1335.496 713.344l84.71 107.373 20.8-31.996 45.979-43.602-102.978-75.598z"/><use fill="#000" filter="url(#g)" xlink:href="#h"/><use stroke-opacity=".51" stroke="#747474" stroke-width="3" xlink:href="#h"/><path fill="#6F4119" d="M1148.98 939.42h102.622l24.24-86.868-62.402-97.101-60.979-101.519-14.691 16.516-8.626-7.183-15.85 18.14z"/><path d="M1398.267 938.045c1.157-1.421 3.978-3.78 6.305-5.272l50.007-32.055v-5.175c0-12.148-8.664-26.664-19.362-32.428l-9.91-5.34-27.847 10.789-42.954 29.47s-6.69 5.354-9.323 8.211c-2.634 2.858-13.228 16.261-13.228 16.261l-9.662 15.54h75.974z" fill-opacity=".533" fill="#CBC5C5"/><path fill-opacity=".253" fill="#211307" d="M1152.148 668.626l41.606 109.935 24.05-16.968z"/><path fill="#321F0F" d="M1150.83 656.772l120.31 192.147v17.323l23.386-11.195-27.11-42.063-76.583-131.092-29.157-48.76-9.341 20.359z"/><path fill-opacity=".253" fill="#211307" d="M1151.56 917.772l9.516-4.352 1.476-29.153 17.585-26.24-40.878-48.907z"/><path d="M644.665 491.346l18.24-3.556v-2.477l45.026-24.964 13.168 2.725s10.312.6 15.512 1.9c5.2 1.3 13.702 5.788 13.702 5.788l16.499 26.9-16.5-15.2-7.279 3.636-6.422-14.586s-7.975-6.349-12.308-7.505c-4.333-1.156-13.021 0-13.021 0l-44.128 32.416s10.813 15.9 17.795 21.913c6.983 6.013 27.085 16.734 27.085 16.734s-1.2-13.729-9.542-20.733c-8.343-7.005-36.487-17.914-36.487-17.914l-7.307-5.864-14.033.787z" fill="#3F281B"/><path fill-opacity=".517" fill="#211307" d="M1195.95 845.573l18.208 87.127 42.82-3.503z"/><path fill-opacity=".257" fill="#966432" d="M1196.846 846.782v-23.109l66.385 45.813-7.501 55.53z"/><path fill="#734721" d="M995.41 844.833l10.39 1.544-2.337 20.709 12.327 13.377-9.727 34.577 23.89 6.571v6.942l-45.788 2.102zm129.907-78.822l-19.455 25.146 22.348 58.565 9.538-1.514z"/><use fill="#000" filter="url(#i)" xlink:href="#j"/><use stroke-opacity=".354" stroke="#503019" stroke-width="3" xlink:href="#j"/><path d="M1030.565 485.417c-2.742-.339-2.923-1.522-.4-2.643l27.642-12.293c2.521-1.121 5.598-.049 6.878 2.408l39.476 75.715-22.494-15.39-24.268-3.713-20.414-39.954c-1.005-1.966-3.596-3.78-5.793-4.052l-.627-.078z" fill="#737373"/><path fill="#656565" d="M1005.169 461.293l56.193-10.058 11.96 37.287-69.544-4.214z"/><path d="M1060.02 529.217v-.975l3.899-53.895c.279-3.857-2.36-5.7-5.873-4.124l-27.217 12.203-1.569 2.659 5.905.424 22.227 43.708" fill="#BCBCBC"/><ellipse fill="#D8D8D8" transform="rotate(-25 1045.148 477.019)" cx="1045.148" cy="477.019" rx="18.5" ry="1.5"/><path fill-opacity=".122" fill="#000" d="M1063.847 471.055l-3.737 58.432 21.354 3.359 22.416 15.05z"/><path fill="#987E51" d="M1103.88 623.572l10.276-2.283 9.198-24.705-9.198-1.49-12.623 29.234z"/><path d="M1113.755 619.934l11.272 11.76 11.192-28.11s-2.562-3.393-4.057-4.4c-1.495-1.009-9.213-2.365-9.213-2.365l-9.194 23.115z" fill-opacity=".537" fill="#EECC8F"/><path fill="#987E51" d="M1101.691 624.017l29.601 41.938 6.41 4.233 11.178-8.007-24.14-31.394-10.584-10.296z"/><path fill="#655334" d="M1114.41 620.16l-13.229 3.958 9.835 14.026 13.977-7.005z"/><path fill-opacity=".881" fill="#5E4124" d="M1114.058 595.044l-7.216-.47-10.852 30.452 29 37.85 2.344-2.823-25.715-35.52z"/><path fill-opacity=".54" fill="#EECC8F" d="M1029.14 551.733l-8.576 31.622h19.08l5.801-23.077z"/><path fill="#987E51" d="M962.809 590.307l17.266-8.565h40.872l-.664 16.251-38.615-1.469-14.559 8.771z"/><path fill="#655334" d="M1020.752 582.072l-.413 14.275 21.799.704-1.766-14.98z"/><path fill="#987E51" d="M1039.577 582.48l5.902-22.588 4.412 9.503-7.813 28.027z"/><path d="M1020.449 596.85h-7.72l4.746 16.895c1.642 5.846 5.708 14.686 9.08 19.746l2.274 3.41c3.06 4.592 9.402 10.571 14.179 13.364l13.078 7.645c4.77 2.789 13.088 5.426 18.595 5.892l4.333.366c6.6.558 16.663-1.58 22.457-4.765l13.568-7.459v-2.747l-5.875-6.925-15.288 7.726c-5.418 2.739-14.56 3.627-20.402 1.988l-8.134-2.283c-6.382-1.79-15.458-6.921-20.287-11.475l-6.008-5.665c-4.822-4.547-10.546-13.29-12.786-19.53l-5.81-16.184z" fill="#959268"/><path d="M994.388 598.66c-.299-1.064.352-1.884 1.452-1.83l18.793.922 2.177 11.33c1.666 8.677 7.462 21.33 12.94 28.254l-6.736-8.515c6.17 7.799 18.149 18.14 26.768 23.106l5.732 3.303c10.054 5.792 27.456 8.779 38.856 6.673l-13.811 2.551c10.32-1.906 25.42-8.653 33.721-15.066l.707-.546 11.073 13.736-3.755 2.223c-8.551 5.063-23.5 9.932-33.41 10.878l-2.318.22c-6.593.63-17.086-.373-23.453-2.244l-7.899-2.321c-8.477-2.491-21.315-8.474-28.672-13.36l.573.38c-6.9-4.582-15.888-14.095-20.07-21.24l7.024 11.998c-5.86-10.009-13.151-27.168-16.291-38.347l-3.4-12.105z" stroke-opacity=".28" stroke="#846D23" stroke-width="3" fill="#D2B03C"/><path d="M1024.168 695.914l22.044-27.809 25.832 5.497c8.645 1.84 22.375.847 30.654-2.214l23.582-8.717-13.233 21.527-51.27 28.574-37.61-16.858z" fill="#321B0B"/><path fill-opacity=".263" fill="#F69443" d="M1407.937 546.74l60.056 3.04-46.427-59.103-54.163 5.222z"/><path fill-opacity=".286" fill="#FFF7CC" d="M1040.567 614.175l31.282 4.606 20.553-63.216-26.308-9.462z"/><path fill-opacity=".728" fill="#837E7E" d="M919.802 535.254l12.25-1.653 62.245-49.49-16.757 1.348z"/><path fill="#5C5A5A" d="M918.04 535.684l2.303 11.842 15.147 11.019-4.282-24.857z"/><path d="M931.485 533.379l3.806 28.058 31.396 22.12 8.003-34.287-8.003-15.891 32.074-26.514s13.963-2.01 19.484 2.092c5.52 4.102 12.824 24.422 12.824 24.422l16.06-3.49-28.884-45.097-24.89-1.215-61.87 49.802z" fill="#D7C8B2"/><path fill-opacity=".654" fill="#B0B0B0" d="M1046.597 530.043h11.958l-22.97-43.957-17.446-1.414z"/><path d="M973.68 552.358l-7.451-19.765 33.391-25.929s5.951-.202 9.084 0 8.553 1.139 8.553 1.139l7.142 10.83 6.3 13.96-12.602 8.176-9.393 8.785-35.024 2.804z" fill="#EBBE6F"/><path d="M966.427 533.38l29.647-24.82c1.691-1.416 4.842-2.441 7.062-2.288l8.423.581 4.43.81c1.09.199 2.534 1.05 3.225 1.91 0 0 2.055 2.472 2.92 3.938.865 1.466 7.797 16.227 7.797 16.227a4.776 4.776 0 01-2.465 6.47l-5.043 2.147-9.598 7.68-2.39 3.141-3.457-3.142 19.288-14.253-10.82-20.677-13.28-1.49-35.739 23.767 8.678 16.747-8.678-16.747z" fill-opacity=".685" fill="#4A3122"/><path fill="#8B441C" d="M695.653 752.575l23.954 6.52 36.401 102.71 37.818 28.955-1.518 9.948-35.247-22.303-23.62-27.867-38.114-87.422z"/><path fill="#974618" d="M717.542 757.522l53.905-6.322 59.237 76.979 26.877 34.456-76.783 6.59 12.792 21.712-37.87-28.302z"/><path d="M761.726 492.54l12.968 25.032 26.832-6.496s1.605-29.114 0-40.808c-1.605-11.695-12.852-17.794-12.852-17.794l-11.252-5.734-28.566 21.105 12.87 24.696z" fill="#F69443"/><path d="M771.239 751.037l73.326-19.902 21.566 9.228 16.252-2.11 9.222-29.356 90.698-55.65 28.468 34.68-6.935 54.79-16.33 133.917s-39.493 18.224-59.795 26.477c-20.302 8.252-29.823 9.95-29.823 9.95l-46.449-54.736-80.2-107.288z" fill="#DF6A28"/><path fill="#CBCBCB" d="M760.2 491.167l7.556 21.49 1.566 25.374 3.983-1.444 2.813-20.073-6.796-19.425z"/><path d="M990.016 680.732c2.5 6.73 4.08 17.992 3.527 25.144l-3.332 43.14-20.703 139.624-7.23 46.82 17.244-.094 24.274-188.944 6.966-58.419-33.78-42.345 13.034 35.074z" fill-opacity=".661" fill="#170F08"/><use fill="#000" filter="url(#k)" xlink:href="#l"/><use fill-opacity=".309" fill="#A85525" xlink:href="#l"/><path fill="#221305" d="M793.833 892.922l-13.825-23.881 76.305-6.745 27.996 34.639-18.427-14.398z"/><path fill="#FF9F69" d="M695.778 752.683l50.503-9.467 101.583-26.91-2.986 14.9-46.527 13.906-34.927 7.57-43.555 6.68-19.098-5.273zm194.528-47.653l90.332-51.087v4.332L928.5 695.837l-39.632 21.168z"/><path d="M687.847 732.32l.963.203c7.57 1.592 19.879 1.744 27.474.344l59.08-10.896c12.497-2.305 32.455-7.228 44.591-10.999l28.7-8.918s37.784-14.671 57.446-23.062c19.66-8.391 69.58-31.151 69.58-31.151l2.53 7.023-89.142 51.69-69.872 17.721-80.274 20.495-42.169 8.46-8.907-20.91z" fill="#482413"/><path fill-opacity=".438" fill="#8C4625" d="M812.002 715.83l141.765-56.339 13.073-6.204v8.003l-75.73 42.084-78.465 22.516v-7.743z"/><path d="M706.86 651.43l11.79 5.811 17.192-1.361-1.908 19.192 43.517-7.786 27.984-33.828s29.441-7.749 45.29-12.308c15.85-4.56 83.22-30.689 83.22-30.689l32.627-12.43v25.594l10.999 44.746-82.71 34.955-74.83 29.154-75.601 18.077-32.491 5.499-27.711-2.918 5.348-32.702 17.284-49.006z" fill="#FF9D39"/><path d="M873.938 666.522h-7.056c-7.178 0-13.933 5.747-15.088 12.835l-1.581 9.708c-.786 11.368-2.514 31.04-3.859 43.943l.754-7.225c-.516 4.942 2.819 10.41 7.455 12.214l6.87 2.674.528.06c7.133.825 18.22-.917 22.126-2.693 0 0 4.195-15.167 5.602-22.956 1.406-7.79 3.07-22.627 3.07-22.627.45-3.832.573-10.058.275-13.913l.28 3.612c-.597-7.714-7.326-14.535-15.017-15.235l-4.359-.397z" fill="#CA6E11"/><path d="M892.225 677.435l-8.595-4c-3.506-1.63-9.255-1.805-12.86-.382l1.556-.614c-2.566 1.013-5.03 4.035-5.505 6.768l-3.1 17.801-4.1 35.018 6.004 9.01h-4.007l-12.269-5.126c-3.45-.973-5.716-5.306-5.064-9.67l2.55-17.058a2899.044 2899.044 0 015.265-33.584l-.496 3.022c.626-3.814 3.866-8.433 7.25-10.323l-.655.365c3.861-2.156 10.53-3.322 14.883-2.605l9.086 1.497s4.714 2.252 6.2 3.712c1.485 1.46 3.857 6.17 3.857 6.17z" fill="#F38D26"/><path d="M857.428 674.07c-1.103.048-2.165.968-2.373 2.055l-9.921 51.942c0 1.79 3.966 5.328 8.857 7.903l4.421 2.327-.067-.213c-1.723-5.533-2.196-14.627-1.058-20.302l8.833-44.052h-1.048l-7.644.34z" fill-opacity=".344" fill="#AD6720"/><path fill="#AF6D29" d="M717.951 734.009l13.027-29.707 42.175-8.353 10.635 25.818-5.946.733-7.698-20.79-38.365 7.789z"/><path fill="#DC7C18" d="M687.893 733.706l18.73 1.942 22.425-78.8-17.695-2.64z"/><path fill-opacity=".664" fill="#FFB161" d="M930.116 603.679l-82.857 29.228 6.985 34.925 42.285 13.536 79.386-33.432z"/><path d="M965.81 594.646l-7.977 5.46c-3.186 2.18-5.77 7.08-5.77 10.95v-2.28c0 4.97 1.342 12.793 2.997 17.477l-.92-2.605c1.289 3.647 4.44 8.935 7.034 11.803l21.587 23.881-16.952-64.686z" fill-opacity=".736" fill="#633616"/><path fill-opacity=".425" fill="#929292" d="M865.427 882.54l-.88 30.164-1.017 25.235h8.831V926.07l.737-37.919z"/><path fill="#000" d="M812.573 902.356l36.069-2.54.702 11.49-37.424 2.014z"/><path d="M812.187 913.234c-.502 4.335.479 13.916.728 14.887 0 0-.58-2.162 0 0 .58 2.163 4.575 10.264 4.575 10.264h44.921l-2.73-2.698c-3.931-3.886-8.049-11.416-9.198-16.826l-1.764-8.308-36.532 2.681z" fill="#3B1E03"/><path fill-opacity=".172" fill="#826527" d="M823.161 922.237h19.103l8.817 13.66-23.639-.691z"/><path fill="#161010" d="M889.474 902.77v27.742l-8.896 6.833 20.226.494-3.256-25.578z"/><path d="M820.858 519.008l2.976-.72 28.483-6.9s47.304 23.311 70.042 37.114c22.738 13.804 41.558 30.634 41.558 30.634l-74.399 33.795-83.99 20.898-6.517-18.222 14.188-78.301" stroke-opacity=".139" stroke="#1C1C1C" stroke-width="2" fill="#A3A2A2"/><path fill="#D4D4D4" d="M851.055 511.05l-37.957 6.161-9.867 13.691-71.208 13.758-4.394-6.451-10.823 9.05 6.475 11.947 89.765-17.48 8.407-20.762z"/><path fill="#5C5959" d="M716.68 547.268l-4.111 1.475-6.58 47.778v59.688l25.342 1.72-5.439-98.181z"/><path fill="#767676" d="M723.808 558.617l90.738-17.99-7.427 92.88-77.811 24.654z"/><path d="M857.98 515.617l-26.493 5.09-18.004 46.016-5.004 18.077s34.33 5.338 49.502 0c15.171-5.338 50.975-35.354 50.975-35.354l-50.975-33.83z" fill-opacity=".34" fill="url(#m)"/><path d="M808.689 603.237l11.6 13.538 132.13-43.645 9.97 7.02s-49.124 24.662-75.939 33.905c-26.814 9.242-68.908 10.899-68.908 10.899l-18.798-9.865 9.945-11.852z" fill-opacity=".217" fill="#646464"/><path fill="#4F4E4E" d="M741.888 630.933l45.191-7.61-14.742 26.425-36.119 6.638z"/><path fill="#413F3F" d="M735.954 656.076l-2.102 19.136 44.557-7.76-6.447-18.185z"/><path fill="#C6C6C6" d="M771.998 649.316l15.055-26.155 9.651 4.838 8.9 6.548-27.396 33.208z"/><path fill="#111" d="M795.409 939.316l-3.094-38.618-34.584-23.728-22.479-25.048-40.212-88.823-5.254 12.495-10.554-6.26-.73 22.817 8.153 11.045 9.607 28.184 23.27 22.91 12.791 6.55 5.659 33.425 7.278 9.718-1.747 19.76 14.218 15.573z"/><path fill="#C47627" d="M688.887 702.674l-14.366 3.12-2.631 4.633 7.644 58.637 10.207 6.468 6.178-12.585.36-11.668-7.974-17.723-3.702-.842z"/><path d="M683.08 764.046l6.97 1.056 4.545-17.504s1.402 2.376 1.901 3.74c.5 1.363 0 1.454 0 1.454l-.573 10.08-6.072 13.498-10.428-7.284-.47-4.336 4.126-.704z" fill="#915920"/><path fill="#F7A858" d="M678.393 704.962l10.84-.97-4.918 30.913z"/><path fill="#D9D9D9" d="M730.553 536.992l-43.6-2.188-26.478 8.1 46.171 46.776 5.661-39.364z"/><path fill="#F0F0F0" d="M660.859 543.007l27.071-8.154 43.28 2.33-63.06 12.734z"/><path fill="#7C7A7A" d="M660.537 542.91l7.267 6.54 39.34 40.905-3.528 3.154-37.693-42.218-6.532-5.78z"/><path fill-opacity=".333" fill="#DCDCDC" d="M704.188 592.54l-4.493-3.092-19.293 37.135v57.755l5.344 3.685 1.344-57.804z"/><path fill-opacity=".533" fill="#413424" d="M607.765 790.226l47.05 13.124-5.281 28.998z"/><path fill="#604C31" d="M674.589 705.94l10.082-20.48 20.936-46.628 1.312 17.576-17.488 47.952z"/><path fill-opacity=".132" fill="#E79725" d="M824.06 520.284l28.783-9.541 113.59 69.242-76.167 31.966-79.435 17.942 2.704-73.922z"/><path d="M726.39 537.126s-18.854-3.495-35.515-2.402c-16.66 1.093-12.882 4.033-18.051 5.327-17.4 4.354-33.963 18.98-33.963 18.98l-31.814 24.237s-25.585 81.401-22.846 85.267c2.74 3.865 33.905 0 33.905 0l41.323-42.264 53.446-67.804 8.495-13.276 5.02-8.065z" fill-opacity=".119" fill="#E79725"/><path fill-opacity=".053" fill="#E79725" d="M735.38 604.048l-2.932-42.493 77.147-14.617-5.543 62.137-68.672 13.134z"/><path d="M390.942 831.564s20.496 2.039 30.71 1.74c10.213-.298 33.026-3.6 33.026-3.6l.512 26.83c.094 4.966-3.844 9.277-8.811 9.628l-50.004 3.54c-3.304.234-5.943-2.257-5.896-5.58l.463-32.558z" fill-opacity=".766" fill="#716464"/><path d="M515.691 816.478l12.56 27.187h7.77c8.282 0 15.269-6.705 15.607-14.981l1.649-40.38s-10.921 13.227-16.867 17.684c-5.946 4.457-20.719 10.49-20.719 10.49z" fill-opacity=".707" fill="#716464"/><path fill-opacity=".424" fill="#000" d="M342.062 848.501l45.764 5.575 92.164-230.238-80.407-5.405z"/><path fill="#554646" d="M385.754 588.579l19.097-.95-6.05 33.713-25.165-1.692z"/><path d="M222.8 509.555s6.964-2.224 10.413-2.545c3.45-.32 6.938-.14 6.938-.14 5.514.077 13.26 3.195 17.27 6.988 0 0 4.94 4.456 7.043 7.095 2.102 2.64 7.638 16.376 7.638 16.376l25.96-13.74s-7.12-11.342-11.308-16.579c-4.189-5.236-9.796-11.32-9.796-11.32-6.26-6.99-18.808-11.208-28.005-9.372 0 0-9.445 1.688-14.171 3.182-4.727 1.494-13.365 8.549-13.365 8.549l1.383 11.506z" fill-opacity=".74" fill="#F5F1F1"/><path d="M236.364 594.964l24.661-11.377c6.02-2.777 11.229-10.389 11.635-16.998l1.89-30.695 23.094-11.089s2.478 8.277 3.152 16.815c.673 8.539-.72 10.683-.968 14.27-.65 9.374-3.153 12.078-3.237 14.654-.21 6.48 0 0 0 0 .581 2.42-4.552 10.786-11.485 18.653 0 0-1.916 2.285-3.113 3.433-1.197 1.148-10.9 8.64-10.9 8.64-2.614 2.029-7.394 3.266-10.665 2.765l-6.014-.92c-4.916-.753-12.14-3.765-16.132-6.728l-1.918-1.423z" fill-opacity=".388" fill="#636262"/><path d="M237.503 514.027l2.365-3.636 6.808 2.188c4.727 1.52 10.783 6.105 13.528 10.246l2.213 3.338 1.622 4.613c2.749 7.81 3.863 20.774 2.736 27.483l-5.385.44.143-1.835c.388-4.96-.073-12.936-1.03-17.813l-2.078-10.595-.538-.786c-3.123-4.554-9.872-9.776-15.056-11.657l-3.002-1.089-2.326-.897z" fill-opacity=".373" fill="#EEEAEA"/><path d="M288.2 508.41h58.43s8.041 8.986 9.47 13.775c1.43 4.79 2.04 7.262 2.04 7.262 1.43 5.338-1.87 9.915-7.385 10.221l-50.03 2.782-3.495-20.265-9.03-13.776z" fill-opacity=".683" fill="#A6A6A6"/><path fill="#747272" d="M301.074 541.51l-1.202 15.686-7.618 23.432 59.458-5.13 6.523-17.415-1.03-22.456z"/><path d="M291.833 580.498l59.94-5.427-8.086 25.076-36.873 4.806s-13.308-.282-19.283 0c-5.974.283-9.63 0-9.63 0h-13.804l27.736-24.455z" fill="#615F5F"/><path d="M320.323 484.423l10.674.77c4.405.318 10.381 3.218 13.362 6.494l14.172 15.575c7.058 7.758 13.423 22.53 14.216 32.994l-.602-7.947c.584 7.708.067 20.135-1.157 27.77l-.38 2.37c-1.223 7.63-6.71 18.188-12.25 23.575l-14.792 14.387 4.66-14.621a671.984 671.984 0 016.414-18.935l-.245.683c2.05-5.713 3.378-15.259 2.966-21.321l-.599-8.813c-.374-5.508-2.574-14.031-4.907-19.024l-1.689-3.614c-6.181-13.227-22.391-27.788-29.843-30.343z" fill="#888786"/><path d="M322.725 485.3l11.653 10.743 9.615 11.483c4.964 5.929 10.01 16.917 11.268 24.543l.674 4.082-1.928 21.344c-.894 9.9-4.849 25.31-8.769 34.276l-1.206 8.557 1.556-2.601c1.7-2.842 4.013-7.665 5.166-10.768l5.181-13.95 3.141-28.008c.8-7.137-.98-18.206-3.98-24.73l-.924-2.01s-4.032-8.07-6.98-11.921c-2.949-3.852-9.026-10.297-9.026-10.297l-15.441-10.744z" fill="#535353"/><path d="M344.279 600.018s8.073-17.371 10.662-27.008c2.59-9.637 3.762-26.665 3.762-26.665l14.424-2.168s-.342 9.271-1.067 13.891c-.724 4.62-2.764 10.547-2.764 10.547s-5.528 11.415-9.395 16.27c-3.868 4.855-15.622 15.133-15.622 15.133z" fill-opacity=".793" fill="#424242"/><path d="M357.71 507.73l14.908 29.284-.236 10.61-3.037 20.199 2.184-2.352c4.11-4.424 7.706-12.895 8.032-18.922l-.075 1.377c.326-6.026-.923-15.57-2.785-21.3l.117.358c-1.864-5.737-7.633-12.788-12.89-15.75l-6.219-3.504z" fill="#F0DA79"/><path d="M354.18 590.178c6.227-6.277 13.621-18.133 15.239-22.8l4.029-5.272c3.021-3.953 5.283-11.183 5.051-16.156l-.22-4.737c-.206-4.419-1.858-11.262-3.686-15.276l.189.414c-1.83-4.018-5.618-10.01-7.236-11.932l3.923 4.657c-2.167-2.572-10.32-8.782-11.426-9.496l-2.42-2.77c-2.906-3.326-7.097-8.763-7.097-8.763l8.355 6.11c1.782 1.302 4.55 3.57 6.177 5.06l.397.363 6.014 6.42c2.439 2.92 6.084 8.947 8.147 13.473l-.756-1.659c1.147 2.516 2.161 6.793 2.265 9.553l.36 9.59c.167 4.413-1.464 11.098-3.645 14.939l-4.933 8.684-.144.266c-2.881 5.348-8.62 13.24-12.819 17.627l-9.418 9.842-5.581 1.172 9.235-9.31z" fill="#343333"/><path d="M349.275 598.403l5.663-6.096c6.015-6.476 14.57-17.873 18.754-24.866l-7.862 13.14c4.342-7.257 13.604-23.277 16.211-27.88l-5.911 10.437c3.264-5.764 5.165-15.756 4.244-22.32l-.15-1.063c-.843-6.014-3.459-15.411-5.848-21.005l4.32 10.116c-3.385-7.928-12.685-19.035-17.153-22.225l-10.385-7.26-.821-.892c-4.866-5.28-14.22-11.713-17.429-12.991l9.382.656c2.752.192 6.687 1.801 8.785 3.592l9.975 8.512 6.534 6.243c4.393 4.198 10.639 11.733 13.942 16.816l-3.696-5.687c3.91 6.017 7.79 16.667 8.669 23.792l-.953-7.728c1.352 10.966-1.348 27.97-6.025 37.969l-.18.386c-3.742 7.342-14.458 20.8-21.331 27.513l-8.735.84z" fill="#565656"/><path d="M379.37 587.804s11.19-15.541 12.834-20.057c1.644-4.516 3.902-18.68 3.902-18.68l21.855-1.663s-.491 3.645-.611 5.318c-.12 1.673-.576 6.386-.576 6.386-.567 6.049-4.796 14.12-9.453 18.031l-5.707 4.796-22.244 5.87z" fill-opacity=".615" fill="#4D4646"/><path d="M372.34 509.491h7.412c7.681 0 15.834 5.927 18.154 13.253 0 0-.56-2.05 1.218 4.023 1.776 6.073.737 3.394.737 3.394.485 7.655.27 20.061-.483 27.715l-.224 2.275c-.702 7.148-6.858 11.337-13.76 9.354l-4.79-1.376s2.113-6.334 2.783-9.978c.67-3.645 2.389-14.644 2.389-14.644.776-4.909-.143-12.6-2.058-17.192l.79 1.893c-2.958-7.092-10.069-16.906-12.168-18.717z" fill-opacity=".488" fill="#D8D8D8"/><path d="M411.821 571.98l1.038-4.074c1.653-6.487 4.185-17.049 5.4-22.446l-2.408 10.7c1.33-5.91 1.835-16.096 1.13-22.754l.135 1.28c-.698-6.593-3.896-16.63-7.134-22.404l-4-7.133 12.936 9.611 6.073 8.48c2.897 4.043 5.246 11.356 5.246 16.322v4.327l-1.453 8.772s-2.898 4.383-5.417 6.862c-2.52 2.478-11.546 12.457-11.546 12.457z" fill="#5A5858"/><path d="M402.026 582.199s4.622-4.76 6.768-7.08c2.145-2.319 20.068-22.454 20.068-22.454l.995-14.283h18.248v9.253c0 8.282-3.303 20.846-7.374 28.057l-1.67 2.957s-2.504.712-6.483.993c-3.98.281-30.552 2.557-30.552 2.557z" fill-opacity=".483" fill="#414141"/><path d="M447.242 547.229l55.04 4.304-68.03 25.626s8.088-11.038 10.1-15.552c2.014-4.515 2.89-14.378 2.89-14.378z" fill-opacity=".685" fill="#1F1B1B"/><path d="M464.69 523.957l.685-6.99 24.818-10.637v2.244l-20.582 7.575c-2.07.762-3.748 3.174-3.748 4.847l-1.174 2.96zm-2.331 15.45l48.6-20.998 1.418 1.026-50.018 21.675z" fill="#181818"/><path fill="#3E3C3C" d="M607.86 558.616l55.412-21.857-3.946 8.6-31.177 19.056-20.29 3.521z"/><path d="M658.095 499.203l5.41 4.02c4.437 3.296 9.07 10.323 10.35 15.705l3.259 13.703 11.601-.782-1.166-8.559c-.671-4.924-4.21-11.613-7.912-14.945l-15.422-13.883-6.12 4.74z" stroke-opacity=".22" stroke="#ABA5A5" stroke-width="3" fill-opacity=".67" fill="#B0AEAE"/><path fill="#424141" d="M598.755 542.15l50.344-28.292 7.049 5.02-2.345-.439-4.704-2.149-49.89 27.607z"/><path d="M734.937 411.774l-1.108 17.622 30.664 8.766 25.785-4.94-1.77-13.027-13.547-5.606c-4.589-1.9-12.338-3.7-17.294-4 0 0-6.368-.47-9.547-.408-3.178.063-13.183 1.593-13.183 1.593z" fill="#999595"/><path d="M700.09 433.16l12.239 3.676c2.644.795 3.863 3.474 2.723 5.983l-5.604 12.332 15.858.919 22.848-22.91-12.425-3.821v-17.715l-6.383.897c-3.286.462-7.997 2.586-10.508 4.73l-14.575 12.45-4.173 3.459z" fill="#A59898"/><path d="M736.55 519.833l-2.743 25.197 22.499-4.716-6.758-37.689-6.09 4.845s-2.337 6.418-3.804 8.867c-1.467 2.45-3.103 3.496-3.103 3.496z" fill="#202020"/><path fill="#F6F3F3" d="M742.179 477.966l.362 30.512 6.92-5.54 6.006 38.009 6.353-1.86-.876-10.002-1.785-20.383z"/><path d="M739.667 476.594s12.337 21.52 15.961 32.467c3.624 10.947 2.945 31.28 2.945 31.28l11.698-2.533s-1.09-18.201-2.052-24.132c-.962-5.931-1.712-9.135-1.712-9.135-1.689-8.286-9.074-18.277-16.495-22.316l-10.345-5.63z" fill="#404040"/><path fill="#504D4D" d="M747.987 433.019l-20.969 22.248-1.26 4.523-15.93-.822v3.197l15.93 1.284 7.66 1.948 13.753 3.586-17.228-8.687.596-3.727 20.934-22.951z"/><path d="M780.556 311.774l-3.056 48.572 3.612 21.596 8.423 48.377 10.917 57.422-.278 42.983 18.022-31.107.83-32.119-19.652-59.926-.83-8.508-3.297-7.304c-4.316-9.563-7.685-25.828-7.527-36.317l.612-40.404-7.776-3.265z" fill="#57240A"/><path fill="#7A6D6D" d="M709.88 454.84v4.52l16.343.746-1.351-4.534z"/><path fill="#A59898" d="M730.752 455.128l20.624-21.41 14.432 2.42 24.48-3.326 4.943 24.749-17.59-10.444-27.08 19.98-20.744-10.03z"/><path fill="#928F8F" d="M724.63 455.611l23.042-22.604 1.812.245-21.637 21.874-1.58 5.204z"/><path d="M768.304 436.552l-6.033 18.952s1.174 2.198 1.43 2.06c.254-.137 13.468-9.82 13.468-9.82l16.6 7.76-2.691-21.97-22.774 3.018z" fill-opacity=".549" fill="#4C4A4A"/><path fill="#7A6D6D" d="M729.903 457.093v3.633l20.365 10.058 1.033-3.451z"/><path d="M667.78 482.643l18.095-21.255c3.58-4.205 10.336-5.322 15.075-2.505l4.08 2.425-37.25 21.335zm101.708 13.512c-2.741-7.227 1.151-14.5 5.654-15.54l-1.376-5.716c-1.552-6.444 2.573-11.667 9.198-11.667h13.227l4.57 26.51-1.087 21.837-23.425 2.398-6.76-17.822z" fill="#C97936"/><path stroke-opacity=".526" stroke="#595959" stroke-width="2" d="M735.509 412.278l-.181 16.768 31.542 7.183 24-3"/><path fill="#1A110A" d="M775.973 516.058l-3.263 20.496 27.874-4.85 2.086-21.21z"/><path d="M702.887 514.506l-16.63 1.022 3.467 19.364 44.62 10.234 2.327-25.626-1.432.236c-5.454.895-14.155.316-19.44-1.295l-12.912-3.935z" fill="#141313"/><path d="M674.564 491.37c3.001-2.436 8.445-3.558 12.16-2.505l4.292 1.216c1.203 2.032 2.537 6.339 2.979 9.618l.394 2.928-1.972 5.32-3.385 1.736-21.98-12.215 7.512-6.098z" fill="#535353"/><path d="M698.908 498.168l42.917-3.113-.492 10.477c-.232 4.968-3.947 10.936-8.299 13.331l-.86.473c-1.938 1.067-5.22 1.397-7.33.737l-34.571-10.815s2.083-2.213 2.92-3.826c.838-1.614.79-6.77.79-6.77l4.925-.494z" fill="#828282"/><path fill-opacity=".344" fill="#D8D8D8" d="M690.669 489.53l50.48-5.864.437 11.284-47.177 3.917z"/><path d="M694.398 503.804l46.274 11.018-2.92 4.408-9.15 3.27s-20.116-4.41-28.576-7.678-11.068-5.055-11.068-5.055l5.44-5.963z" fill-opacity=".816" fill="#615D5D"/><path fill="#554949" d="M686.175 516.009l3.312 18.504h7.146v-18.504z"/><path fill-opacity=".735" fill="#503E3E" d="M540.823 887.31l35.98-18.64 35.184 56.844-7.585 5.676-82.855-.637z"/><path fill-opacity=".323" fill="#2E2121" d="M599.795 879.004l36.2-41.843 34.276 59.659 42.155-12.302-83.542 38.552-26.51-35.98z"/><path fill="url(#n)" opacity=".383" d="M559.402 801.453l41.282.61 38.577 29.245-39.237 29.694-25.378-.05-33.036 3.605z"/><path fill="#252222" d="M663.68 784.538l26.74 32.14 8.273 16.487 9.932 7.715 2.248 33.636-32.234 10.96-26.204-49.374z"/><path fill-opacity=".595" fill="#422F2F" d="M541.253 886.65l2.388 2.474 32.953-16.128 18.297 36.177 5.714-1.383-22.82-38.716z"/><path d="M451.164 499.015l57.335-1.574s-1.451-3.566-3.594-4.799c-2.144-1.233-38.286-19.29-38.286-19.29l-15.455 25.663z" fill="#211D1D"/><path d="M1005.337 461.133v6.36s36.492-7.592 52.917-12.034c5.117-1.384 3.076-.69 3.764-1.261.688-.571-.548-2.617-.548-2.617l-56.133 9.552z" fill="#C8C6C6"/><path fill="#7B7B7B" d="M1005.154 467.157l-.828 10.553 12.66-2.98 47.942-11.286-2.883-9.405z"/><path fill="#3C3B3B" d="M937.56 275.553l6.507-2.66 10.522 16.95-1.38 7.359z"/><path fill="#211F1F" d="M954.713 289.97l14.971-7.066v1.492l-16.488 12.502z"/><path d="M980.224 406.933l-12.028 54.02c-1.2 5.388-4.727 13.436-7.873 17.968l-1.977 2.848c-4.726 6.808-14.289 15.822-21.368 20.139l-17.191 10.483-6.78 2.577c-7.225 2.747-19.115 3.31-26.572 1.255l-29.899-8.241-4.39 3.441 59.395 31.582 8.246 5.043-.296-11.031 60.733-51.409 3.19-67.066-3.19-11.61z" fill="#D2B08B"/><path d="M967 342l12.46 61.536c1.737 8.574 2.838 22.613 2.461 31.345l-2.067 47.848h18.82l-1.814-65.45v-42.91c0-8.748-6.205-19.275-13.86-23.512L967 342z" fill-opacity=".601" fill="#AE5532"/><path d="M995.814 355.52l5.395-2.31c5.21-2.23 10.388.453 11.568 6.007l3.06 14.398c1.178 5.548.212 14.214-2.165 19.368l-14.237 30.872-3.621-68.335z" fill="#F3CEA6"/><path d="M818.66 476.627l9.991 17.432-13.56 15.719-3.515.263 1.85-3.02c2.464-4.02 4.588-11.096 4.747-15.82l.488-14.574z" fill="#C97936"/><path d="M818.904 471.658l-.445 5.099 10.176 17.372.505-1.375c.76-2.076.377-5.251-.848-7.08l-9.388-14.016z" fill="#635E5E"/><path d="M952.794 386.9l-25.878 69.25 21.652 36.428s14.07-14.63 18.638-27.073c4.567-12.444 12.086-51.676 12.086-51.676L952.794 386.9z" fill-opacity=".469" fill="#F7C079"/><path fill="#F2C595" d="M957.214 314.144l-5.763 43.644 18.127.04z"/><path d="M963.878 356.89l-12.814 35.898L977.88 424s-3.663-48.39-7.196-60.793c-3.533-12.403-6.805-6.316-6.805-6.316z" fill-opacity=".351" fill="#F0E4D7"/><path fill="#CAA882" d="M824.914 310.181l-27.83 15.296.078 39.88-3.655 19.685-6.058-25.681 1.671-42.814 17.345-4.84z"/><path d="M392.604 494.913l18.31-25.416c2.905-4.033 9.285-7.302 14.259-7.302h10.889l-18.541 11.807-9.906 25.402-15.01-4.49z" fill="#3A2020"/><path fill="#261414" d="M450.82 457.874l-12.49 2.178-21.818 14.142-9.433 25.341h18.887l5.87-24.595 13.69-7.768z"/><path d="M452.19 457.879l54.102-9.322c1.275-1.4 7.236-2.508 13.304-2.474l-3.477-.02c5.523.032 13.647 2.638 18.165 5.835l32.731 23.162 4.26 4.918c2.89 3.336 5.608 9.607 6.07 13.998l3.01 28.596c.462 4.395-2.745 7.958-7.16 7.958h7.997-45.083c-5.517 0-12.256-3.867-15.048-8.63l-17.293-29.507-34.787-13.253s-8.944-2.055-11.681 0c-2.737 2.055-10.506 16.657-10.506 16.657l-20.45-2.48 8.543-19.414 11.25-7.943 6.053-8.081z" fill="#432525"/><path d="M430.1 477.99c.33-1.621 1.603-3.816 2.858-4.913l18.958-16.575c4.99-4.364 13.755-5.34 19.589-2.172l43.244 23.48c5.343 2.902 11.879 9.654 14.604 15.093l10.293 20.544c2.723 5.435 2.968 14.351 1.671 17.335-5.71.229-13.403-3.437-17.19-8.197l-5.415-6.807-12.992-21.603-31.182-14.383c-4.518-2.084-10.362-.382-13.053 3.8l-10.297 16.004h-25.474l4.386-21.606z" fill="#451F1F"/><path d="M471.522 454.725l25.903-3.494c6.569-.886 16.397 1.332 21.941 4.948l19.167 12.5c5.09 3.32 12.257 9.892 16.003 14.673l-6.785-8.661c5.47 6.983 11.408 23.286 13.26 36.413l-.986-6.988c1.621 11.483.867 27.113.867 27.113l1.866-5.704c-1.03 3.15-4.544 5.914-7.854 6.174l-1.802.142a9.796 9.796 0 01-10.586-9.194l-.487-7.888-7.085-17.03c-3.393-8.157-12.576-17.941-20.487-21.84l-42.935-21.164z" fill="#3B1919"/><path d="M500.763 451.202l13.836-1.731c4.934-.618 12.491.784 16.874 3.127l24.015 12.842 6.975 5.869c7.184 6.044 13.942 18.499 15.093 27.812l2.768 22.378c.61 4.935-2.828 9.854-7.656 10.982l2.842-.664c-7.53 1.758-13.396-3.086-13.104-10.812l.298-7.883-13.505-35.675-25.015-19.568-23.42-6.677z" fill="#331717"/><path d="M542.713 504.615c-1.33-5.355 1.751-11.344 6.883-13.376l2.185-.866 12.069.07c6.626.038 12.688 5.394 13.54 11.967l3.153 24.325c-3.171 2.818-12.125-.328-19.26-6.398-1.927 4.9-8.27 5.545-11.284 3.448 0 0-3.137-4.93-5.462-12.69-2.326-7.761-1.824-6.48-1.824-6.48z" fill-opacity=".413" fill="#1F0E0E"/><path d="M472.374 455.867l41.457 24.467c6.66 3.932 14.89 12.709 18.385 19.61l10.643 21.02c0-5.435-3.418-16.138-7.634-23.902l-2.652-4.884c-3.69-6.797-12.409-14.875-19.45-18.033l-40.75-18.278z" fill-opacity=".849" fill="#270E0E"/><path d="M498.846 451.506l20.965 6.536 16.784 9.611 19.999 20.61c2.311 2.382 4.222 6.996 4.268 10.31l.383 27.654 2.635-26.522c.382-3.842-1.44-9.248-4.08-12.086l-19.604-21.067-9.207-5.447c-4.277-2.53-11.691-5.394-16.552-6.394l-15.591-3.205z" fill="#1F0909"/><path fill-opacity=".689" fill="#3A1F1F" d="M529.233 499.34l11.915 20.595-10.344 5.875-10.152-20.634z"/><path fill="#60270B" d="M777.358 268.608l-2.733 19.489-2.909 14.022 5.8 6.983 13.161 3.49 10.086-4.633 30.716 2.276-13.006-10.523-23.734-5.998z"/><path fill="#8E3A10" d="M778.921 244.02l-.619 21.616 15.437 28.078 23.345 6.593 15.023 10.11 3.855-7.99-8.015-7.14-40.28-27.459z"/><path fill-opacity=".88" fill="#60270B" d="M784.74 234.118l-6.645 10.837 8.48 20.788 44.78 31.644-25.827-29.731z"/><path fill="#6E2E0E" d="M789.443 226.662l15.152 29.37 28.691 42.903 20.507 3.696-35.16-51.033-7.859-42.167z"/><path fill-opacity=".465" fill="#60270B" d="M803.222 259.58l10.754-21.253 5.12 14.04 33.87 48.86-17.944-3.442z"/><path fill="#8E3A10" d="M810.132 206.747l8.832 45.44 35.07 46.428 7.874-12.678-13.608-28.263-4.83-50.848z"/><path fill="#803B18" d="M846.077 204.922l3.731 51.34 12.512 27.823h17.43l26.506-30.925 21.127-48.922z"/><path d="M817.295 230.42l22.584 17.974 15.888-5.632c6.443-2.283 17.186-4.55 23.998-5.062l14.707-1.106c6.104 1.123 14.252 6.557 15.165 7.847l-23.399-1.293c-6.823-.377-17.535 1.268-23.945 3.682l-11.873 4.47c-5.68 2.139-14.243.929-19.108-2.69l-6.227-4.634c-5.48-4.077-8.114-12.618-7.79-13.556z" fill="#9F4619"/><path fill="#6A2A0A" d="M851.213 253.53l23.135-9.993 34.708 3.514-28.921 40.034-13.953 3.548z"/><path fill-opacity=".791" fill="#230F0F" d="M407.651 583.857l-19.37 82.248-36.87 150.855-27.045-9.527 13.034-74.946 20.479-76.01 29.297-68.919z"/><path fill="#93928A" d="M840.74 197.194l30.766-50.755 79.255 66.372-75.042-31.148-11.686 11.525z"/><path fill="#F49E67" d="M865.84 190.309l9.79-8.867 41.028 17.734-53.715-4.74z"/><path d="M904.332 182.066l19.808-10.8c10.048-5.48 27.471-9.922 38.917-9.922h-5.538c9.942 0 22.935 6.362 29.027 14.22l21.112 27.225-19.973-9.601c-8.467-4.07-22.59-5.064-31.531-2.226l-23.005 7.303-28.817-16.199z" fill="#8E3A10"/><path fill="#D8D8D8" d="M872.364 146.796l2.105 34.114 51.671 20.64 1.482-9.546z"/><path d="M886.26 278.824l22.744-35.623 15.328-38.09a8.96 8.96 0 0111.7-4.961l-6.004-2.446c5.117 2.085 7.87 8.021 6.142 13.284l-12.826 39.065-19.808 25.135-17.276 3.636z" fill="#A5562F"/><path fill-opacity=".644" fill="#41250D" d="M897.154 275.72l24.62-26.685 14.631-42.32 4.43 5.525-15.297 40.811-21.642 20.622z"/><path d="M908.718 271.602l18.821-20.117 10.602-35.675c2.833-9.531 13.181-17.259 23.13-17.259h-17.148c20.198 0 48.89 10.772 64.098 24.07l.1.087-50.068 9.715-26.668 39.266-22.867-.087z" fill-opacity=".797" fill="#8A3C14"/><path d="M930.397 270.406l10.389-15.31c2.483-3.66 8.028-6.035 12.396-5.303l9.817 1.646-18.294 7.971-7.519 15.715-3.767 3.491-5.665-4.035 2.643-4.175z" fill-opacity=".945" fill="#4D210B"/><path fill-opacity=".23" fill="#5C2C15" d="M979.388 267.658l17.058 35.843-22.705-3.273 19.432 55.691-28.003-15.517-8.615-38.463z"/><path d="M932.543 198.346l4.505-1.855 24.001-7.11s5.204-1.248 7.812-1.177c2.609.072 9.82 1.658 9.82 1.658s8.396 1.844 12.115 3.513c3.718 1.668 16.786 9.455 16.786 9.455l-7.835-1.318-15.292-6.703c-3.703-1.623-9.976-3.08-14.02-3.255l-1.829-.08c-4.04-.174-10.501.481-14.403 1.457l-21.66 5.415z" fill="#542812"/><path fill-opacity=".844" fill="#A04E25" d="M910.347 178.856l15.185-8.522 15.441-5.895-16.27 23.555z"/><path d="M858.928 399.962l-15.779 54.73-13.796-19.19c-4.514-6.279-2.823-14.633 3.786-18.666l18.354-11.2-11.737-27.324-38.979 2.226-.542 6.171c-.917 10.453 1.015 26.995 4.322 36.968l9.74 29.366 3.768 19.681 20.93 22.554c4.883 5.262 14.506 10.872 21.489 12.53l26.306 6.245 2.423-20.673-32.441-9.426c-10.077-2.928-11.68-10.7-3.572-17.368l21.117-17.364-18.006-6.387 2.617-42.873z" fill-opacity=".614" fill="#D5B48A"/><path fill-opacity=".638" fill="#F6DDBF" d="M878.655 379.785l.677 28.285 23.107 13.086-2 5.465-18.75-3.15-20.575 1.998.674-30.402-2.449-12.698z"/><path fill="#E8BB82" d="M898.585 427.17l-22.83-4.351-14.127 2.634-2.657 10.306 13.212 4.626 7.622-10.663z"/><g transform="translate(895 354)"><path d="M.79 31.967c3.526-3.381 8.666-10.993 11.472-16.986l.424-.903s2.556-.417 3.4-.684c.844-.267 3.1-1.083 3.1-1.083 4.163-1.48 11.124-2.547 15.111-2.399l8.314 4.166-3.188 6.22-7.081 6.248-11.605 5.42-8.051 2.146H4.654l-2.546-.784L.79 31.967z" fill="#DCDCDC"/><path d="M.398 30.827v-5.154c0-3.316 1.79-8.015 3.987-10.483l2.3-2.583c2.202-2.473 6.44-5.58 9.453-6.933l5.69-2.556C24.846 1.762 29.974.663 33.288.663c4.417 0 11.38 1.153 15.569 2.58l.925.316-8.004 4.708-10.126-.138-9.185.802a8.784 8.784 0 00-1.935.44l-5.307 2c-3.616 1.36-7.924 5.29-9.613 8.756l-5.214 10.7z" fill-opacity=".592" fill="#571B0E"/><path d="M4.125 33.955c-2.196.203-3.628-1.397-3.201-3.556l-.545 2.757c.964-4.88 4.244-11.991 7.326-15.884l.52-.657 4.354-2.566c4.282-2.524 11.772-4.33 16.746-4.036l1.444.086c3.859.23 9.48 2.312 11.974 4.209h0c-1.71 4.483-6.634 10.034-11.002 12.4l-2.53 1.37c-3.399 1.842-9.248 3.826-13.073 4.435l-.035.005c-2.728.434-7.167.992-9.924 1.247l-2.054.19h0z" stroke="#222"/><path d="M20.637 31.574c5.522 0 10-4.77 10-10.656 0-5.885-4.478-9.344-10-9.344-1.482 0-3.733.844-4.998 1.46-1.264.615-5.002 3.578-5.002 7.884 0 5.885 4.477 10.656 10 10.656z" fill="#694228"/><ellipse fill-opacity=".462" fill="#21150D" cx="19.5" cy="21.284" rx="6.5" ry="6.149"/><path d="M1.044 31.988c-.267-1.282.655-3.444.655-3.444h0l1.087-2.575c1.076-2.548 3.28-6.413 4.924-8.636l.087-.118c1.314-1.777 3.946-4.082 5.88-5.15l.942-.521h0c2.9-1.488 8.305-3.377 11.58-4.11h0c2.156-.314 6.536-.028 9.712.624h0l2.602.232c1.654.147 4.188-.366 5.646-1.14l5.802-3.076-5.032 4.776-9.018 2.25h0c-1.752-.516-6.872-1.633-6.872-1.633h0l-3.405.7-3.217.932-2.547.776h0c-2.174.702-6.643 2.854-6.723 2.901l2.788-1.63c-1.54.9-5.243 4.345-5.243 4.345l2.455-2.715c-1.356 1.5-1.89 2.715-1.89 2.715h-.565c.312 0-2.507 3.387-2.507 3.387l3.072-3.387c-1.697 1.87-4.727 7.157-4.727 7.157l1.655-3.77C7.27 22.96 3.96 28.544 3.96 28.544l2.569-3.896c-1.419 2.151-5.486 7.34-5.486 7.34h0z" stroke="#222" fill="#222"/><path fill="#222" d="M34.325 10l12.512-2.48-3.645 6.812z"/><path d="M18.28 28.522l.318-.152c1.72-.825 4.47-2.232 6.08-3.272 0 0-.557.55.254-.216s1.434-2.263 1.434-2.263l2.014.799s-1.102 2.414-2.014 3.27c-.912.856-3.422 1.834-3.422 1.834l-3.348 1.01-1.315-1.01z" fill-opacity=".298" fill="#D8D8D8"/><ellipse fill-opacity=".534" fill="#F7F7F7" cx="24.5" cy="13.716" rx="2.5" ry="2.365"/><path d="M2.43 33.586c5.673.014 15.782-1.424 22.574-3.21l2.111-.556 9.608-6.306 9.022-13.69-.374 2.178c-.56 3.266-2.29 8.272-3.868 11.19l2.596-4.801c-2.363 4.37-7.862 9.755-12.291 12.032l8.012-4.12c-5.043 2.594-14.644 6.144-21.426 7.926l-1.803.474c-3.743.984-9.695.636-13.299-.779l-.861-.338z" fill-opacity=".343" fill="#6D2811"/></g><g transform="scale(-1 1) rotate(29 -1141.94 -1432.633)"><path d="M.79 31.967c3.526-3.381 8.666-10.993 11.472-16.986l.424-.903s2.556-.417 3.4-.684c.844-.267 3.1-1.083 3.1-1.083 4.163-1.48 11.124-2.547 15.111-2.399l8.314 4.166-3.188 6.22-7.081 6.248-11.605 5.42-8.051 2.146H4.654l-2.546-.784L.79 31.967z" fill="#DCDCDC"/><path d="M.398 30.827v-5.154c0-3.316 1.79-8.015 3.987-10.483l2.3-2.583c2.202-2.473 6.44-5.58 9.453-6.933l5.69-2.556C24.846 1.762 29.974.663 33.288.663c4.417 0 11.38 1.153 15.569 2.58l.925.316-8.004 4.708-10.126-.138-9.185.802a8.784 8.784 0 00-1.935.44l-5.307 2c-3.616 1.36-7.924 5.29-9.613 8.756l-5.214 10.7z" fill-opacity=".592" fill="#571B0E"/><path d="M4.125 33.955c-2.196.203-3.628-1.397-3.201-3.556l-.545 2.757c.964-4.88 4.244-11.991 7.326-15.884l.52-.657 4.354-2.566c4.282-2.524 11.772-4.33 16.746-4.036l1.444.086c3.859.23 9.48 2.312 11.974 4.209h0c-1.71 4.483-6.634 10.034-11.002 12.4l-2.53 1.37c-3.399 1.842-9.248 3.826-13.073 4.435l-.035.005c-2.728.434-7.167.992-9.924 1.247l-2.054.19h0z" stroke="#222"/><path d="M20.58 31.339c5.523 0 10-4.771 10-10.656 0-5.885-4.477-9.344-10-9.344-1.48 0-3.732.843-4.997 1.46-1.264.615-5.002 3.577-5.002 7.884 0 5.885 4.477 10.656 10 10.656z" fill="#694228"/><ellipse fill-opacity=".462" fill="#21150D" cx="19.031" cy="21.401" rx="6.5" ry="6.149"/><path d="M1.044 31.988c-.267-1.282.655-3.444.655-3.444h0l1.087-2.575c1.076-2.548 3.28-6.413 4.924-8.636l.087-.118c1.314-1.777 3.946-4.082 5.88-5.15l.942-.521h0c2.9-1.488 8.305-3.377 11.58-4.11h0c2.156-.314 6.536-.028 9.712.624h0l2.602.232c1.654.147 4.188-.366 5.646-1.14l5.802-3.076-5.032 4.776-9.018 2.25h0c-1.752-.516-6.872-1.633-6.872-1.633h0l-3.405.7-3.217.932-2.547.776h0c-2.174.702-6.643 2.854-6.723 2.901l2.788-1.63c-1.54.9-5.243 4.345-5.243 4.345l2.455-2.715c-1.356 1.5-1.89 2.715-1.89 2.715h-.565c.312 0-2.507 3.387-2.507 3.387l3.072-3.387c-1.697 1.87-4.727 7.157-4.727 7.157l1.655-3.77C7.27 22.96 3.96 28.544 3.96 28.544l2.569-3.896c-1.419 2.151-5.486 7.34-5.486 7.34h0z" stroke="#222" fill="#222"/><path fill="#222" d="M34.325 10l12.512-2.48-3.645 6.812z"/><path d="M17.811 28.639l.317-.152c1.72-.825 4.47-2.232 6.08-3.272 0 0-.556.55.255-.216.81-.766 1.433-2.263 1.433-2.263l2.014.799s-1.102 2.414-2.014 3.27c-.912.856-3.422 1.834-3.422 1.834l-3.348 1.01-1.315-1.01z" fill-opacity=".298" fill="#D8D8D8"/><ellipse fill-opacity=".534" fill="#F7F7F7" cx="14.033" cy="18.492" rx="2.5" ry="2.365"/><path d="M2.43 33.586c5.673.014 15.782-1.424 22.574-3.21l2.111-.556 9.608-6.306 9.022-13.69-.374 2.178c-.56 3.266-2.29 8.272-3.868 11.19l2.596-4.801c-2.363 4.37-7.862 9.755-12.291 12.032l8.012-4.12c-5.043 2.594-14.644 6.144-21.426 7.926l-1.803.474c-3.743.984-9.695.636-13.299-.779l-.861-.338z" fill-opacity=".343" fill="#6D2811"/></g><path d="M857.152 474.406l7.904-4.217.817-1.908c1.74-4.06 6.736-7.352 11.154-7.352h4.749c3.79-3.52 11.271-5.593 16.704-4.631l4.527.8c5.936 0 14.656-3.171 17.118-5.17l-10.076 12.508-28.273 5.753-24.624 4.217z" fill="#E39E6F"/><path d="M857.157 474.37l2.91 1.179c7.044 2.855 18.814 4.038 26.283 2.643l4.106-.766c3.797-.71 9.537-2.921 12.839-4.952l-.536.33c6.475-3.983 14.039-12.916 16.893-19.952l.644-1.588-22.046 14.328-12.495 2.52-28.598 6.258z" fill-opacity=".861" fill="#E19C6D"/><path d="M882.816 469.053l10.1-2.91c4.774-1.377 11.986-4.746 16.108-7.526l11.283-7.61s-1.112 4.858-2.056 7.323c-.944 2.466-2.786 5.32-2.786 5.32s-2.536 4.722-4.562 6.69c-2.026 1.967 0 0 0 0-4.646 3.264-14.506 7.758-19.02 9.127l-9.067-10.414z" fill-opacity=".247" fill="#FEC8A7"/><path d="M856.163 508.32l32.29 7.777c3.22.776 8.508 1.156 11.803.85l2.394-.223c6.6-.613 16.452-4.045 22.008-7.666l17.616-11.484c8.795-5.733 19.328-18.17 23.535-27.798l-1.797 4.112c2.653-6.072 5.812-16.281 7.052-22.78l8.17-42.838 3.223 8.117-6.508 37.367-2.668 8.89c-3.493 11.64-14.179 27.019-23.872 34.354l-16.677 12.62c-6.163 4.664-17.28 9.765-24.841 11.396l5.032-1.085c-9.72 2.096-25.4 1.765-35.024-.74l-.205-.054c-9.624-2.505-21.531-10.815-21.531-10.815z" fill-opacity=".122" fill="#6D320E"/><g fill="#333"><text transform="rotate(-3 14579.943 -190.713)" font-family="GiddyupStd, Giddyup Std" font-size="50"><tspan x="3.095" y="59.044">Mai Nguyen</tspan></text><text transform="rotate(-3 14648.791 49.277)" font-family="SFProText-Regular, SF Pro Text" font-size="24"><tspan x="52.571" y="102.927">09/09/2018</tspan></text></g></g></svg>