<svg width="447" height="348" xmlns="http://www.w3.org/2000/svg" xmlns:xlink="http://www.w3.org/1999/xlink"><defs><filter x="-1.9%" y="-13.5%" width="103.8%" height="136.7%" filterUnits="objectBoundingBox" id="a"><feMorphology radius=".5" operator="dilate" in="SourceAlpha" result="shadowSpreadOuter1"/><feOffset dy="2" in="shadowSpreadOuter1" result="shadowOffsetOuter1"/><feMorphology radius="1" in="SourceAlpha" result="shadowInner"/><feOffset dy="2" in="shadowInner" result="shadowInner"/><feComposite in="shadowOffsetOuter1" in2="shadowInner" operator="out" result="shadowOffsetOuter1"/><feGaussianBlur stdDeviation="2" in="shadowOffsetOuter1" result="shadowBlurOuter1"/><feColorMatrix values="0 0 0 0 0 0 0 0 0 0 0 0 0 0 0 0 0 0 0.5 0" in="shadowBlurOuter1"/></filter><path d="M21.317 1.363c45.229 29.05 25.83 25.293 77.147 31.052 51.317 5.76 59.21 6.957 59.21 6.957 11.186 1.425 29.392 2.493 40.674 2.328 0 0 76.338-.227 115.074-6.706 57.044-9.541 98.673-31.928 98.673-31.928l2.897-2.191" id="b"/></defs><g transform="translate(0 2)" fill="none" fill-rule="evenodd"><path fill="#2B3C72" d="M1 0h446v346H1z"/><g transform="translate(188 10)"><circle fill="#F3F0F0" cx="43.5" cy="51.5" r="2.5"/><circle fill="#F3F0F0" cx="49.5" cy="43.5" r="2.5"/><circle fill="#F3F0F0" cx="54.5" cy="51.5" r="2.5"/><circle fill="#F3F0F0" cx="49.5" cy="60.5" r="2.5"/><circle fill="#F3F0F0" cx="37.5" cy="60.5" r="2.5"/><circle fill="#F3F0F0" cx="33.5" cy="51.5" r="2.5"/><circle fill="#F3F0F0" cx="38.5" cy="43.5" r="2.5"/><ellipse fill="#FFE3CF" transform="rotate(-13 35.245 30.32)" cx="35.245" cy="30.321" rx="2.5" ry="8"/><ellipse fill="#B2B7FF" transform="rotate(-44 18.71 30.601)" cx="18.71" cy="30.601" rx="2.5" ry="15.103"/><ellipse fill="#B2B7FF" transform="rotate(-2 42.392 15.55)" cx="42.392" cy="15.551" rx="2.5" ry="15.103"/><ellipse fill="#B2B7FF" transform="rotate(33 65.066 22.825)" cx="65.066" cy="22.825" rx="2.5" ry="15.103"/><ellipse fill="#B2B7FF" transform="rotate(103 74.767 56.498)" cx="74.767" cy="56.498" rx="2.5" ry="15.103"/><ellipse fill="#B2B7FF" transform="rotate(-179 42.028 75.55)" cx="42.028" cy="75.55" rx="1.764" ry="9.432"/><ellipse fill="#B2B7FF" transform="rotate(-110 15.112 65.971)" cx="15.112" cy="65.971" rx="2.5" ry="15.103"/><ellipse fill="#FFE3CF" transform="rotate(11 49.962 30.65)" cx="49.962" cy="30.651" rx="2.5" ry="8"/><ellipse fill="#FFE3CF" transform="rotate(41 64.135 41.678)" cx="64.135" cy="41.678" rx="2.5" ry="8"/><ellipse fill="#FFE3CF" transform="rotate(122 60.11 69.36)" cx="60.109" cy="69.359" rx="2.5" ry="8"/><ellipse fill="#FFE3CF" transform="rotate(-166 33.361 71.367)" cx="33.361" cy="71.367" rx="2.5" ry="8"/><ellipse fill="#FFE3CF" transform="rotate(-88 20.065 49.516)" cx="20.065" cy="49.516" rx="2.5" ry="8"/></g><path fill="#8BEE87" d="M1 280h446v66H1z"/><ellipse fill="#EEE" cx="267.001" cy="264.364" rx="13.001" ry="13.364"/><path d="M107.37 90.839l4.917 15.413 229.022-8.683 4.724-14.104-58.221 9.605-53.282 3.252c-6.281.383-16.482.787-22.765.886 0 0-36.249.775-54.364-.192-18.115-.966-50.03-6.177-50.03-6.177z" fill="#9B1919"/><path fill="#721010" d="M118.695 105.37v6.212l217.661-7.263-.541-6.865z"/><path fill="#9B1919" d="M162.765 109.848L148.11 298.27l16.399-.664 8.885-187.946zm119.271-3.719l20.154 186.94 17.457-.79-27.99-186.537z"/><path fill="#B72929" d="M129.003 125.757l199.117-6.965-.421 8.884-199.269 6.333z"/><path fill="#9B1919" d="M221.716 107.982l.761 22.8 10.622.158v-23.465z"/><g transform="translate(114 214)"><path fill="#C6A572" d="M26.751 60.845l3.538 19.112 2.008-.558-3.78-18.962z"/><g fill="#FFBAD8" transform="rotate(-13 114.657 9.78)"><ellipse cx="12.5" cy="14.5" rx="8.5" ry="9.5"/><ellipse cx="6.5" cy="20.5" rx="6.5" ry="5.5"/><ellipse cx="31.5" cy="24.5" rx="6.5" ry="5.5"/><ellipse cx="9.5" cy="29.5" rx="6.5" ry="5.5"/><ellipse cx="13" cy="35.5" rx="6.5" ry="5.5"/><ellipse cx="21.5" cy="9.587" rx="8.5" ry="9.5"/><ellipse cx="27.5" cy="14.5" rx="8.5" ry="9.5"/><ellipse cx="19.5" cy="24.5" rx="8.5" ry="9.5"/><ellipse cx="24.5" cy="33.5" rx="8.5" ry="9.5"/></g><path d="M41.848 54.946c1.141-6.528 1.724-17.18 1.302-23.793l.235 3.677c-.352-5.511 1.929-13.645 5.095-18.167l-1.324 1.89C55.393 6.79 69.551 6.181 78.763 17.176l.384.458c2.127 2.539 4.167 7.266 4.557 10.556l1.752 14.789 5.892 16.24 9.315 2.656c2.122.604 4.945 2.501 6.316 4.25l4.895 6.24s-5.066-1.939-7.37-2.163c-2.304-.223-7.958.676-7.958.676l.878 2.882c7.411 24.321-7.195 44.038-26.324 44.038-25.04 2.613-41.33-15.486-36.382-40.431l.78-3.935s-4.417-.544-6.503 0c-2.087.543-9.187 4.086-9.187 4.086s3.995-9.261 8.165-12.683c4.169-3.422 12.96-4.657 12.96-4.657l.915-5.232z" fill="#4D4D4D"/><path d="M42.673 48.632l13.003 7.595c6.202 3.623 15.565 2.673 20.914-2.122l9.741-8.732 2.364 6.465-11.851 11.618c-5.489 5.381-14.96 6.05-21.14 1.505L41.866 54.784l.807-6.152z" fill="#EEA6A6"/><path d="M42.66 48.73s-.039-.945 0-1.417c.04-.472.198-.936.198-.936l15.135 8.991C62.759 58.2 69.94 57.45 74.02 53.706l11.526-10.58s.26.683.39 1.015c.132.331.43 1.269.43 1.269L74.385 56.418c-4.084 3.752-11.25 4.499-16.023 1.657l-15.7-9.345z" fill="#F0E1A1"/><path d="M47.643 59.03c10.673 7.865 26.967 6.691 36.4-2.625l4.43-4.376 3.015 7.327 7.845 2.091c2.136.57 5.06 2.367 6.533 4.02l5.906 6.622s-4.963-1.885-7.458-2.112c-2.495-.227-7.504.75-7.504.75s2.787 11.513 3.565 16.971c.779 5.459.13.97.13.97 2.104 19.164-11.81 34.01-31.064 33.159l-.473-.021-6.385-.61c-19.2-1.83-32.256-18.75-29.163-37.779l1.63-10.026s-3.552-.577-5.325-.121c-1.773.456-9.847 4.287-9.847 4.287s1.482-4.235 2.67-6.142c1.186-1.907 3.444-4.768 3.444-4.768 1.009-1.313 3.087-2.857 4.625-3.443l10.1-3.848 1.132-4.595 5.794 4.27z" fill="#DE5B5B"/><g opacity=".406"><path d="M40.625 84.288c-.71.17-2.004.79-2.45 1.09l.424.69-.593.38.578.86c.261.42 1.342.809 2.412.87l-.76-.044c1.07.06 2.366-.646 2.632-1.117l-1.416-1.522-.827-1.207z" fill="#F6C7E5"/><path d="M40.57 84.281c-.19-.862.299-1.32.299-1.32.407-.449 1.624-.87 2.262-.91l-1.525.097c.842-.054 2.21.485 2.596.814l-1.07-.911c.59.503 1.322 1.763 1.407 2.05l-.337-1.14c.186.63-.217 1.85-.698 2.466l.326 1.79h-.827l-1.578-1.633-.856-1.303z" fill="#FFB2E4"/><path d="M40.444 88.022l-.402.662c-.152.565-.038 1.89.09 2.357l-.365-1.334c.201.737 1.185 1.695 1.671 1.909l-1.306-.575c.721.318 2.142.263 2.771.029l.627-.746.047.156c.162.532.684 1.187 1.166 1.461l-.873-.497c.531.302 1.709.038 2.174-.28l-1.212.828c.67-.457 1.543-1.654 1.681-2l-.47 1.173c.26-.648.47-2.074.47-2.583v1.41c0-.779-.862-1.663-1.186-1.758l-1.07-.933-.847-.667-.713.466-.966.631-1.287.291z" fill="#F498D4"/><path d="M46.44 88.607h1.356c.1-.499-.308-1.736-.733-2.459-.57-.911-1.748-2.022-1.748-2.022l.715.372c-.395-.206-1.513-.372-1.513-.372l-1.042 1.255.074 1.105.181.4 1.474 1.278 1.236.443z" fill="#FFD6F1"/><path fill="#C460A1" d="M43.612 86.478l-.879-1.057.438.896-.944-.558.83.761-1.526.051 1.485.238-1.93.652 1.88-.39-.738.635.761-.472-.224.923.53-1.005.423 1.015-.181-.995.563-.128-.528-.21.828-.396z"/><path d="M45.476 84.243l.22.362c.325.531.603 1.47.623 2.096l.004.115 1.426.796s-.1-.35-.169-.522c-.068-.173-.55-1.112-.55-1.112l-.957-1.324-.597-.411z" fill="#FFB2E4"/></g><g opacity=".406"><path d="M48.625 73.288c-.71.17-2.004.79-2.45 1.09l.424.69-.593.38.578.86c.261.42 1.342.809 2.412.87l-.76-.044c1.07.06 2.366-.646 2.632-1.117l-1.416-1.522-.827-1.207z" fill="#F6C7E5"/><path d="M48.57 73.281c-.19-.862.299-1.32.299-1.32.407-.449 1.624-.87 2.262-.91l-1.525.097c.842-.054 2.21.485 2.596.814l-1.07-.911c.59.503 1.322 1.763 1.407 2.05l-.337-1.14c.186.63-.217 1.85-.698 2.466l.326 1.79h-.827l-1.578-1.633-.856-1.303z" fill="#FFB2E4"/><path d="M48.444 77.022l-.402.662c-.152.565-.038 1.89.09 2.357l-.365-1.334c.201.737 1.185 1.695 1.671 1.909l-1.306-.575c.721.318 2.142.263 2.771.029l.627-.746.047.156c.162.532.684 1.187 1.166 1.461l-.873-.497c.531.302 1.709.038 2.174-.28l-1.212.828c.67-.457 1.543-1.654 1.681-2l-.47 1.173c.26-.648.47-2.074.47-2.583v1.41c0-.779-.862-1.663-1.186-1.758l-1.07-.933-.847-.667-.713.466-.966.631-1.287.291z" fill="#F498D4"/><path d="M54.44 77.607h1.356c.1-.499-.308-1.736-.733-2.459-.57-.911-1.748-2.022-1.748-2.022l.715.372c-.395-.206-1.513-.372-1.513-.372l-1.042 1.255.074 1.105.181.4 1.474 1.278 1.236.443z" fill="#FFD6F1"/><path fill="#C460A1" d="M51.612 75.478l-.879-1.057.438.896-.944-.558.83.761-1.526.051 1.485.238-1.93.652 1.88-.39-.738.635.761-.472-.224.923.53-1.005.423 1.015-.181-.995.563-.128-.528-.21.828-.396z"/><path d="M53.476 73.243l.22.362c.325.531.603 1.47.623 2.096l.004.115 1.426.796s-.1-.35-.169-.522c-.068-.173-.55-1.112-.55-1.112l-.957-1.324-.597-.411z" fill="#FFB2E4"/></g><g opacity=".406"><path d="M54.625 107.288c-.71.17-2.004.79-2.45 1.09l.424.69-.593.38.578.86c.261.42 1.342.809 2.412.87l-.76-.044c1.07.06 2.366-.646 2.632-1.117l-1.416-1.522-.827-1.207z" fill="#F6C7E5"/><path d="M54.57 107.281c-.19-.862.299-1.32.299-1.32.407-.449 1.624-.87 2.262-.91l-1.525.097c.842-.054 2.21.485 2.596.814l-1.07-.911c.59.503 1.322 1.763 1.407 2.05l-.337-1.14c.186.63-.217 1.85-.698 2.466l.326 1.79h-.827l-1.578-1.633-.856-1.303z" fill="#FFB2E4"/><path d="M54.444 111.022l-.402.662c-.152.565-.038 1.89.09 2.357l-.365-1.334c.201.737 1.185 1.695 1.671 1.909l-1.306-.575c.721.318 2.142.263 2.771.029l.627-.746.047.156c.162.532.684 1.187 1.166 1.461l-.873-.497c.531.302 1.709.038 2.174-.28l-1.212.828c.67-.457 1.543-1.654 1.681-2l-.47 1.173c.26-.648.47-2.074.47-2.583v1.41c0-.779-.862-1.663-1.186-1.758l-1.07-.933-.847-.667-.713.466-.966.631-1.287.291z" fill="#F498D4"/><path d="M60.44 111.607h1.356c.1-.499-.308-1.736-.733-2.459-.57-.911-1.748-2.022-1.748-2.022l.715.372c-.395-.206-1.513-.372-1.513-.372l-1.042 1.255.074 1.105.181.4 1.474 1.278 1.236.443z" fill="#FFD6F1"/><path fill="#C460A1" d="M57.612 109.478l-.879-1.057.438.896-.944-.558.83.761-1.526.051 1.485.238-1.93.652 1.88-.39-.738.635.761-.472-.224.923.53-1.005.423 1.015-.181-.995.563-.128-.528-.21.828-.396z"/><path d="M59.476 107.243l.22.362c.325.531.603 1.47.623 2.096l.004.115 1.426.796s-.1-.35-.169-.522c-.068-.173-.55-1.112-.55-1.112l-.957-1.324-.597-.411z" fill="#FFB2E4"/></g><g style="mix-blend-mode:luminosity"><path d="M63.625 86.288c-.71.17-2.004.79-2.45 1.09l.424.69-.593.38.578.86c.261.42 1.342.809 2.412.87l-.76-.044c1.07.06 2.366-.646 2.632-1.117l-1.416-1.522-.827-1.207z" fill="#F6C7E5"/><path d="M63.57 86.281c-.19-.862.299-1.32.299-1.32.407-.449 1.624-.87 2.262-.91l-1.525.097c.842-.054 2.21.485 2.596.814l-1.07-.911c.59.503 1.322 1.763 1.407 2.05l-.337-1.14c.186.63-.217 1.85-.698 2.466l.326 1.79h-.827l-1.578-1.633-.856-1.303z" fill="#FFB2E4"/><path d="M63.444 90.022l-.402.662c-.152.565-.038 1.89.09 2.357l-.365-1.334c.201.737 1.185 1.695 1.671 1.909l-1.306-.575c.721.318 2.142.263 2.771.029l.627-.746.047.156c.162.532.684 1.187 1.166 1.461l-.873-.497c.531.302 1.709.038 2.174-.28l-1.212.828c.67-.457 1.543-1.654 1.681-2l-.47 1.173c.26-.648.47-2.074.47-2.583v1.41c0-.779-.862-1.663-1.186-1.758l-1.07-.933-.847-.667-.713.466-.966.631-1.287.291z" fill="#F498D4"/><path d="M69.44 90.607h1.356c.1-.499-.308-1.736-.733-2.459-.57-.911-1.748-2.022-1.748-2.022l.715.372c-.395-.206-1.513-.372-1.513-.372l-1.042 1.255.074 1.105.181.4 1.474 1.278 1.236.443z" fill="#FFD6F1"/><path fill="#C460A1" d="M66.612 88.478l-.879-1.057.438.896-.944-.558.83.761-1.526.051 1.485.238-1.93.652 1.88-.39-.738.635.761-.472-.224.923.53-1.005.423 1.015-.181-.995.563-.128-.528-.21.828-.396z"/><path d="M68.476 86.243l.22.362c.325.531.603 1.47.623 2.096l.004.115 1.426.796s-.1-.35-.169-.522c-.068-.173-.55-1.112-.55-1.112l-.957-1.324-.597-.411z" fill="#FFB2E4"/></g><g opacity=".406"><path d="M79.625 106.288c-.71.17-2.004.79-2.45 1.09l.424.69-.593.38.578.86c.261.42 1.342.809 2.412.87l-.76-.044c1.07.06 2.366-.646 2.632-1.117l-1.416-1.522-.827-1.207z" fill="#F6C7E5"/><path d="M79.57 106.281c-.19-.862.299-1.32.299-1.32.407-.449 1.624-.87 2.262-.91l-1.525.097c.842-.054 2.21.485 2.596.814l-1.07-.911c.59.503 1.322 1.763 1.407 2.05l-.337-1.14c.186.63-.217 1.85-.698 2.466l.326 1.79h-.827l-1.578-1.633-.856-1.303z" fill="#FFB2E4"/><path d="M79.444 110.022l-.402.662c-.152.565-.038 1.89.09 2.357l-.365-1.334c.201.737 1.185 1.695 1.671 1.909l-1.306-.575c.721.318 2.142.263 2.771.029l.627-.746.047.156c.162.532.684 1.187 1.166 1.461l-.873-.497c.531.302 1.709.038 2.174-.28l-1.212.828c.67-.457 1.543-1.654 1.681-2l-.47 1.173c.26-.648.47-2.074.47-2.583v1.41c0-.779-.862-1.663-1.186-1.758l-1.07-.933-.847-.667-.713.466-.966.631-1.287.291z" fill="#F498D4"/><path d="M85.44 110.607h1.356c.1-.499-.308-1.736-.733-2.459-.57-.911-1.748-2.022-1.748-2.022l.715.372c-.395-.206-1.513-.372-1.513-.372l-1.042 1.255.074 1.105.181.4 1.474 1.278 1.236.443z" fill="#FFD6F1"/><path fill="#C460A1" d="M82.612 108.478l-.879-1.057.438.896-.944-.558.83.761-1.526.051 1.485.238-1.93.652 1.88-.39-.738.635.761-.472-.224.923.53-1.005.423 1.015-.181-.995.563-.128-.528-.21.828-.396z"/><path d="M84.476 106.243l.22.362c.325.531.603 1.47.623 2.096l.004.115 1.426.796s-.1-.35-.169-.522c-.068-.173-.55-1.112-.55-1.112l-.957-1.324-.597-.411z" fill="#FFB2E4"/></g><g opacity=".406"><path d="M38.625 64.288c-.71.17-2.004.79-2.45 1.09l.424.69-.593.38.578.86c.261.42 1.342.809 2.412.87l-.76-.044c1.07.06 2.366-.646 2.632-1.117l-1.416-1.522-.827-1.207z" fill="#F6C7E5"/><path d="M38.57 64.281c-.19-.862.299-1.32.299-1.32.407-.449 1.624-.87 2.262-.91l-1.525.097c.842-.054 2.21.485 2.596.814l-1.07-.911c.59.503 1.322 1.763 1.407 2.05l-.337-1.14c.186.63-.217 1.85-.698 2.466l.326 1.79h-.827l-1.578-1.633-.856-1.303z" fill="#FFB2E4"/><path d="M38.444 68.022l-.402.662c-.152.565-.038 1.89.09 2.357l-.365-1.334c.201.737 1.185 1.695 1.671 1.909l-1.306-.575c.721.318 2.142.263 2.771.029l.627-.746.047.156c.162.532.684 1.187 1.166 1.461l-.873-.497c.531.302 1.709.038 2.174-.28l-1.212.828c.67-.457 1.543-1.654 1.681-2l-.47 1.173c.26-.648.47-2.074.47-2.583v1.41c0-.779-.862-1.663-1.186-1.758l-1.07-.933-.847-.667-.713.466-.966.631-1.287.291z" fill="#F498D4"/><path d="M44.44 68.607h1.356c.1-.499-.308-1.736-.733-2.459-.57-.911-1.748-2.022-1.748-2.022l.715.372c-.395-.206-1.513-.372-1.513-.372l-1.042 1.255.074 1.105.181.4 1.474 1.278 1.236.443z" fill="#FFD6F1"/><path fill="#C460A1" d="M41.612 66.478l-.879-1.057.438.896-.944-.558.83.761-1.526.051 1.485.238-1.93.652 1.88-.39-.738.635.761-.472-.224.923.53-1.005.423 1.015-.181-.995.563-.128-.528-.21.828-.396z"/><path d="M43.476 64.243l.22.362c.325.531.603 1.47.623 2.096l.004.115 1.426.796s-.1-.35-.169-.522c-.068-.173-.55-1.112-.55-1.112l-.957-1.324-.597-.411z" fill="#FFB2E4"/></g><g opacity=".406"><path d="M95.375 76.288c.71.17 2.004.79 2.45 1.09l-.424.69.593.38-.578.86c-.261.42-1.342.809-2.412.87l.76-.044c-1.07.06-2.366-.646-2.632-1.117l1.416-1.522.827-1.207z" fill="#F6C7E5"/><path d="M95.43 76.281c.19-.862-.299-1.32-.299-1.32-.407-.449-1.624-.87-2.262-.91l1.525.097c-.842-.054-2.21.485-2.596.814l1.07-.911c-.59.503-1.322 1.763-1.407 2.05l.337-1.14c-.186.63.217 1.85.698 2.466l-.326 1.79h.827l1.578-1.633.856-1.303z" fill="#FFB2E4"/><path d="M95.556 80.022l.402.662c.152.565.038 1.89-.09 2.357l.365-1.334c-.201.737-1.185 1.695-1.671 1.909l1.306-.575c-.721.318-2.142.263-2.771.029l-.627-.746-.047.156c-.162.532-.684 1.187-1.166 1.461l.873-.497c-.531.302-1.709.038-2.174-.28l1.212.828c-.67-.457-1.543-1.654-1.681-2l.47 1.173c-.26-.648-.47-2.074-.47-2.583v1.41c0-.779.862-1.663 1.186-1.758l1.07-.933.847-.667.713.466.966.631 1.287.291z" fill="#F498D4"/><path d="M89.56 80.607h-1.356c-.1-.499.308-1.736.733-2.459.57-.911 1.748-2.022 1.748-2.022l-.715.372c.395-.206 1.513-.372 1.513-.372l1.042 1.255-.074 1.105-.181.4-1.474 1.278-1.236.443z" fill="#FFD6F1"/><path fill="#C460A1" d="M92.388 78.478l.879-1.057-.438.896.944-.558-.83.761 1.526.051-1.485.238 1.93.652-1.88-.39.738.635-.761-.472.224.923-.53-1.005-.423 1.015.181-.995-.563-.128.528-.21-.828-.396z"/><path d="M90.524 76.243l-.22.362c-.325.531-.603 1.47-.623 2.096l-.004.115-1.426.796s.1-.35.169-.522c.068-.173.55-1.112.55-1.112l.957-1.324.597-.411z" fill="#FFB2E4"/></g><g opacity=".406"><path d="M87.375 89.034c.71.17 2.004.79 2.45 1.09l-.424.69.593.38-.578.86c-.261.42-1.342.809-2.412.87l.76-.044c-1.07.06-2.366-.647-2.632-1.118l1.416-1.522.827-1.206z" fill="#F6C7E5"/><path d="M87.43 89.027c.19-.863-.299-1.32-.299-1.32-.407-.449-1.624-.87-2.262-.91l1.525.097c-.842-.054-2.21.485-2.596.813l1.07-.91c-.59.503-1.322 1.763-1.407 2.05l.337-1.14c-.186.63.217 1.85.698 2.466l-.326 1.79h.827l1.578-1.633.856-1.303z" fill="#FFB2E4"/><path d="M87.556 92.768l.402.662c.152.565.038 1.89-.09 2.357l.365-1.335c-.201.738-1.185 1.696-1.671 1.91l1.306-.575c-.721.317-2.142.263-2.771.028l-.627-.745-.047.156c-.162.532-.684 1.187-1.166 1.461l.873-.497c-.531.302-1.709.038-2.174-.28l1.212.828c-.67-.457-1.543-1.655-1.681-2l.47 1.173c-.26-.648-.47-2.074-.47-2.583v1.41c0-.779.862-1.663 1.186-1.758l1.07-.934.847-.666.713.466.966.631 1.287.291z" fill="#F498D4"/><path d="M81.56 93.353h-1.356c-.1-.5.308-1.736.733-2.46.57-.91 1.748-2.021 1.748-2.021l-.715.372c.395-.206 1.513-.372 1.513-.372l1.042 1.255-.074 1.105-.181.4-1.474 1.278-1.236.443z" fill="#FFD6F1"/><path fill="#C460A1" d="M84.388 91.224l.879-1.057-.438.896.944-.558-.83.761 1.526.051-1.485.237 1.93.653-1.88-.39.738.635-.761-.472.224.923-.53-1.005-.423 1.015.181-.995-.563-.128.528-.21-.828-.396z"/><path d="M82.524 88.989l-.22.362c-.325.531-.603 1.47-.623 2.096l-.004.115-1.426.796s.1-.35.169-.522c.068-.174.55-1.112.55-1.112l.957-1.324.597-.411z" fill="#FFB2E4"/></g><g opacity=".406"><path d="M84.375 67.288c.71.17 2.004.79 2.45 1.09l-.424.69.593.38-.578.86c-.261.42-1.342.809-2.412.87l.76-.044c-1.07.06-2.366-.646-2.632-1.117l1.416-1.522.827-1.207z" fill="#F6C7E5"/><path d="M84.43 67.281c.19-.862-.299-1.32-.299-1.32-.407-.449-1.624-.87-2.262-.91l1.525.097c-.842-.054-2.21.485-2.596.814l1.07-.911c-.59.503-1.322 1.763-1.407 2.05l.337-1.14c-.186.63.217 1.85.698 2.466l-.326 1.79h.827l1.578-1.633.856-1.303z" fill="#FFB2E4"/><path d="M84.556 71.022l.402.662c.152.565.038 1.89-.09 2.357l.365-1.334c-.201.737-1.185 1.695-1.671 1.909l1.306-.575c-.721.318-2.142.263-2.771.029l-.627-.746-.047.156c-.162.532-.684 1.187-1.166 1.461l.873-.497c-.531.302-1.709.038-2.174-.28l1.212.828c-.67-.457-1.543-1.654-1.681-2l.47 1.173c-.26-.648-.47-2.074-.47-2.583v1.41c0-.779.862-1.663 1.186-1.758l1.07-.933.847-.667.713.466.966.631 1.287.291z" fill="#F498D4"/><path d="M78.56 71.607h-1.356c-.1-.499.308-1.736.733-2.459.57-.911 1.748-2.022 1.748-2.022l-.715.372c.395-.206 1.513-.372 1.513-.372l1.042 1.255-.074 1.105-.181.4-1.474 1.278-1.236.443z" fill="#FFD6F1"/><path fill="#C460A1" d="M81.388 69.478l.879-1.057-.438.896.944-.558-.83.761 1.526.051-1.485.238 1.93.652-1.88-.39.738.635-.761-.472.224.923-.53-1.005-.423 1.015.181-.995-.563-.128.528-.21-.828-.396z"/><path d="M79.524 67.243l-.22.362c-.325.531-.603 1.47-.623 2.096l-.004.115-1.426.796s.1-.35.169-.522c.068-.173.55-1.112.55-1.112l.957-1.324.597-.411z" fill="#FFB2E4"/></g><path d="M44.314 113.913l-4.675 2.95c-2.464 1.556-2.112 2.63.806 2.396l.791-.063c1.1-.088 2.266.694 2.607 1.746l-.34-1.052c.68 2.098 2.764 2.88 4.667 1.742l-1.25.748c1.423-.851 3.37-.46 4.348.871l.43.584c.653.89 1.656.858 2.25-.087l2.554-4.068s-5.512-1.379-7.939-2.662c-2.427-1.282-4.249-3.105-4.249-3.105zm47.798-.167l4.564 3.082c2.505 1.692 2.1 2.87-.921 2.628l-.602-.048c-1.099-.088-2.266.694-2.607 1.746l.341-1.052c-.68 2.098-2.764 2.88-4.668 1.742l1.25.748c-1.423-.851-3.37-.46-4.348.87l-.429.585c-.653.89-1.683.872-2.307-.05l-2.366-3.501s5.257-2.145 7.684-3.428c2.427-1.283 4.41-3.322 4.41-3.322z" fill="#FF9000"/><path d="M71.175 76.895s2.904-2.243 4.636-2.836c1.733-.593 4.573-.795 4.573-.795 1.094-.109 2.187.668 2.444 1.738l.428 1.79c.773 3.225.572 8.405-.442 11.549l.569-1.764c-.848 2.629-3.533 3.772-6.022 2.543l-4.037-1.995-2.15-10.23zm-7.695-.065s-2.911-2.01-4.857-2.675c-1.945-.666-4.355-.896-4.355-.896-1.092-.143-2.185.607-2.44 1.677l-.43 1.79c-.772 3.225-.571 8.404.443 11.549l-.57-1.765c.848 2.63 3.534 3.773 6.022 2.543l4.038-1.995L63.48 76.83z" fill="#F692C0"/><path fill="#F692C0" d="M61.194 85.9L54.64 96.288l11.107 3.791 2.327-13.206z"/><path fill="#F692C0" d="M74.88 86l6.555 10.388-11.108 3.791L68 86.973z"/><path d="M61.45 77.941c3.08-2.618 9.2-2.724 12.235-.164s2.9 7.858-.095 10.405c-2.994 2.546-9.111 2.555-12.14 0-3.028-2.555-3.079-7.622 0-10.24z" fill="#FF80A2"/><path d="M61.318 87.573l-1.357 4.052 2.214-2.217v2.911l1.701-3.342s-.962-.488-1.323-.704c-.36-.216-1.235-.7-1.235-.7zm12.24.427l1.357 4.051-2.214-2.216v2.91L71 89.405s.962-.488 1.323-.704c.361-.217 1.235-.7 1.235-.7z" fill="#D672A0"/><path d="M130.848 50.946c1.141-6.528 1.724-17.18 1.302-23.793l.235 3.677c-.352-5.511 1.929-13.645 5.095-18.167l-1.324 1.89c8.237-11.764 22.395-12.372 31.607-1.377l.384.458c2.127 2.539 4.167 7.266 4.557 10.556l1.752 14.789 5.892 16.24 9.315 2.656c2.122.604 4.945 2.501 6.316 4.25l4.895 6.24s-5.066-1.939-7.37-2.163c-2.304-.223-7.958.676-7.958.676l.878 2.882c7.411 24.321-7.195 44.038-26.324 44.038-25.04 2.613-41.33-15.486-36.382-40.431l.78-3.935s-4.417-.544-6.503 0c-2.087.543-9.187 4.086-9.187 4.086s3.995-9.261 8.165-12.683c4.169-3.422 12.96-4.657 12.96-4.657l.915-5.232z" fill="#4D4D4D"/><g transform="translate(176 9)"><ellipse fill="#6195B4" cx="19.5" cy="22" rx="19.5" ry="22"/><ellipse fill="#FFF" cx="20" cy="34" rx="14" ry="10"/><path d="M17.49 43.634l-.283 21.54h2.41l.606-21.646 1.011-.058c2.203-.126 5.484-1.219 7.332-2.443l1.508-1-8.197 2.441 7.433-5.154-.73-1.216-7.503 5.803 4.98-7.269-1.107-.906-4.92 7.499-.09-8.716h-1.254v8.716l-4.784-8.058-.904.633 4.209 7.744h-.68l-6.02-5.674-.645.465 6.008 6.308s-2.357-.543-3.388-1.1c-1.031-.555-4.62-3.217-4.62-3.217l-.162.999s3.024 2.37 4.782 3.143c1.757.774 5.008 1.166 5.008 1.166z" fill="#DC7D45"/></g><path d="M131.673 44.632l13.003 7.595c6.202 3.623 15.565 2.673 20.914-2.122l9.741-8.732 2.364 6.465-11.851 11.618c-5.489 5.381-14.96 6.05-21.14 1.505l-13.838-10.177.807-6.152z" fill="#A6ACEE"/><path d="M131.66 44.73s-.039-.945 0-1.417c.04-.472.198-.936.198-.936l15.135 8.991c4.766 2.832 11.947 2.082 16.027-1.662l11.526-10.58s.26.683.39 1.015c.132.331.43 1.269.43 1.269l-11.982 11.008c-4.084 3.752-11.25 4.499-16.023 1.657l-15.7-9.345z" fill="#AA8F8F"/><path d="M136.643 55.032c10.672 7.863 26.978 6.686 36.409-2.62l4.582-4.52 2.854 7.464 9.23 2.24c2.143.52 4.942 2.384 6.255 4.165l4.878 6.619s-5.042-1.827-7.537-2.054c-2.495-.227-7.504.402-7.504.402s2.787 11.512 3.565 16.97c.779 5.459.122.903.122.903 2.108 19.2-11.828 34.075-31.132 33.222l-.397-.017-6.317-.603c-19.238-1.834-32.319-18.788-29.22-37.855l1.618-9.957s-3.55-.577-5.324-.121c-1.773.456-10.045 4.074-10.045 4.074l6.104-10.798c.818-1.447 2.758-3.034 4.338-3.546l10.854-3.52.893-4.702 5.774 4.254z" fill="#5B7FDE"/><path d="M133.314 109.913l-4.675 2.95c-2.464 1.556-2.112 2.63.806 2.396l.791-.063c1.1-.088 2.266.694 2.607 1.746l-.34-1.052c.68 2.098 2.764 2.88 4.667 1.742l-1.25.748c1.423-.851 3.37-.46 4.348.871l.43.584c.653.89 1.656.858 2.25-.087l2.554-4.068s-5.512-1.379-7.939-2.662c-2.427-1.282-4.249-3.105-4.249-3.105zm47.798-.167l4.564 3.082c2.505 1.692 2.1 2.87-.921 2.628l-.602-.048c-1.099-.088-2.266.694-2.607 1.746l.341-1.052c-.68 2.098-2.764 2.88-4.668 1.742l1.25.748c-1.423-.851-3.37-.46-4.348.87l-.429.585c-.653.89-1.683.872-2.307-.05l-2.366-3.501s5.257-2.145 7.684-3.428c2.427-1.283 4.41-3.322 4.41-3.322z" fill="#FF9000"/><path d="M122.259 86.41l22.186 4.833c6.06 1.32 15.646.551 21.42-1.72l22.792-8.965 1.307 7.504c.189 1.084-.486 2.322-1.496 2.762l-22.04 9.594c-5.689 2.477-15.19 3.331-21.227 1.907l-19.057-4.495c-2.146-.506-3.885-2.698-3.885-4.917V86.41z" fill="#3C4694"/><path d="M127.544 9.127c.954-1.995 2.934-4.937 4.418-6.569l.835-.918c1.486-1.633 3.255-1.262 3.953.83l2.408 7.217 4.574 1.793 9.079-3.833c1.016-.429 1.807.108 1.766 1.218l-.223 5.986c-.04 1.101-.375 2.839-.747 3.882l-5.87 16.471c-3.387 9.507-13.792 14.33-19.92 12.025-8.651-3.274-12.138-13.3-7.781-22.407l7.508-15.695z" fill="#FFF"/><path d="M134.383 3.768c0-.551-.319-.678-.708-.287l-2.19 2.203c-.643.647-.494 1.469.348 1.842l1.037.46c.835.37 1.513-.075 1.513-.985V3.768zm16.523 8.042c0-.551-.318-.678-.707-.287l-2.19 2.204c-.644.646-.494 1.468.348 1.841l1.037.46c.835.37 1.512-.075 1.512-.984V11.81z" fill="#DB5B5B"/><path d="M121.031 32.656h0c1.32 1.514 4.026 1.918 5.32 1.266h0l1.668 3.267c1.024 2.006 3.678 3.483 5.932 3.299l3.002-.245" stroke="#DF3C1B"/><path d="M134.494 33.335l1.79-.019c.56-.006 1.356.289 1.774.653l1.564 1.363m-18.333-9.702l1.79-.02c.56-.005 1.356.289 1.774.654l1.564 1.363m7.205 7.603l1.791-.02c.559-.005 1.355.289 1.773.654l1.565 1.363m-18.284-9.197l1.79-.02c.56-.005 1.355.289 1.774.654l1.564 1.363" stroke="#414141"/><path d="M124.62 20.842s1.178.054 1.642 0c.465-.054 1.643.555 1.643.555l-.037 3.546-3.248-4.101zm13.963 6.728l3.214 3.835s-2.66-.811-3.95-1.34c-1.29-.528-1.72-1.948-1.72-1.948l2.456-.548z" fill="#EE5947"/><path d="M126.55 21.552c1.121.476 1.686 1.676 2.03.862.346-.813-.284-1.858-1.406-2.335-1.122-.476-2.311-.203-2.657.61-.345.814.91.387 2.032.863zm11.887 7.208c1.322.507 2.077 1.744 2.394.919.316-.825-.499-1.905-1.82-2.413-1.323-.507-2.651-.25-2.968.575-.317.825 1.072.411 2.394.919z" fill="#535353"/><ellipse fill="#274A67" cx="193.5" cy="25" rx="6.5" ry="5"/></g><path d="M280.055 331.274s-.338-5.094-1.138-7.087c-.8-1.993-1.623-5.772-3.66-5.684-2.038.088-3.574 3.037-4.571 5.039-.998 2.001-2.035 8.373-2.035 8.373s3.322.247 4.953.18c1.631-.068 6.45-.82 6.45-.82z" fill="#4D4D4D"/><path d="M310 238.058l7.547-3.058-.31.625c-.925 1.865-.997 4.924-.16 6.837l.47 1.074-7.547-5.478z" fill="#274A67"/><path d="M264.54 238.803l10.4-.55c1.156-.06 2.956-.462 4.04-.905l6.733-2.746" stroke="#FFF"/><path fill="#424242" d="M28.722 6.32l-1.712 3.76 20.477 11.645 1.576-3.55z"/><path fill="#2F2929" d="M11.671 41.312l-1.908 4.056 16.399 8.936 1.85-3.357z"/><path d="M27.027 9.827l-3.214 1.08c-10.166 3.416-16.338 14.626-13.785 25.04l1.367 5.573 16.5 9.424 5.073-1.174c10.45-2.416 17.244-12.905 15.175-23.435l-.943-4.8L27.027 9.827z" fill="#FF7B4E"/><path d="M33.926 14.15l-4.864 3.541c-3.637 2.649-7.49 8.335-8.6 12.686l-3.53 13.837 4.664 2.337 9.301-7.488c3.5-2.819 7.016-8.693 7.85-13.113l1.574-8.345-6.395-3.456z" fill="#E8B977"/><path fill="#424242" d="M103.434 32.067l-.034 4.132 23.443 2.31-.004-3.885z"/><path fill="#2F2929" d="M102.09 70.97l-.092 4.481 18.615 1.493.324-3.818z"/><path d="M103.313 35.96l-2.497 2.294c-7.898 7.256-8.976 20.007-2.408 28.482l3.515 4.536 18.906 1.898 4.158-3.136c8.563-6.457 10.504-18.803 4.33-27.581l-2.813-4.002-23.191-2.49z" fill="#E9587E"/><path d="M111.373 37.103l-3.003 5.214c-2.245 3.9-3.451 10.66-2.696 15.087l2.402 14.077 5.212.237 5.451-10.624c2.052-3.998 2.874-10.794 1.838-15.171l-1.956-8.264-7.248-.556z" fill="#E4A49F"/><path fill="#424242" d="M336.937 29.714l.537 4.097-22.987 5.149-.47-3.856z"/><path fill="#2F2929" d="M343.011 68.162l.639 4.437-18.294 3.75-.788-3.75z"/><path d="M337.532 33.564l2.757 1.972c8.724 6.238 11.348 18.763 5.862 27.975l-2.936 4.931-18.534 4.188-4.509-2.606c-9.286-5.366-12.718-17.382-7.66-26.848l2.305-4.314 22.715-5.298z" fill="#E9587E"/><path d="M329.67 35.68l3.617 4.809c2.704 3.596 4.725 10.16 4.514 14.646l-.668 14.265-5.144.87-6.706-9.88c-2.524-3.719-4.168-10.364-3.673-14.835l.934-8.44 7.127-1.436z" fill="#E4A49F"/><path fill="#424242" d="M411.693 3.284l1.377 3.897-21.414 9.815-1.261-3.674z"/><path fill="#2F2929" d="M425.628 39.63l1.547 4.207-17.115 7.472-1.55-3.505z"/><path d="M413.075 6.927l3.107 1.355c9.83 4.289 15.001 15.994 11.55 26.146l-1.847 5.433-17.257 7.95-4.953-1.611c-10.199-3.318-16.054-14.36-13.075-24.67l1.358-4.7 21.117-9.904z" fill="#FF7B4E"/><path d="M405.825 10.63l4.537 3.953c3.393 2.956 6.735 8.956 7.461 13.387l2.312 14.092-4.85 1.922-8.613-8.27c-3.242-3.114-6.232-9.271-6.678-13.748l-.84-8.45 6.671-2.885z" fill="#E8B977"/><path fill="#424242" d="M219.243 41.61l.47 4.105 23.55-.565-.478-3.855z"/><path fill="#2F2929" d="M222.65 80.385l.454 4.46 18.658-.787-.143-3.83z"/><path d="M219.597 45.49l-2.198 2.58c-6.955 8.163-6.472 20.951 1.08 28.562l4.042 4.074 18.996-.42 3.745-3.619c7.712-7.453 8.134-19.943.937-27.904l-3.28-3.628-23.322.354z" fill="#FF7B4E"/><path d="M227.737 45.64l-2.346 5.542c-1.753 4.143-2.126 11.001-.837 15.302l4.1 13.68 5.202-.4 4.116-11.209c1.549-4.219 1.537-11.064-.025-15.282l-2.948-7.964-7.262.331z" fill="#E8B977"/><path fill="#FFF" d="M.922 145l-.24 12.767h97.351l-.244-12.674zm.318 89L1 280.488h97.94l-.834-46.15z"/><path fill="#FFF" d="M1.24 157L1 228h97.94l-.834-70.483zm0 77L1 280.488h97.94l-.834-46.15z"/><path fill="#DA3F3F" d="M1 140v17.767h4.153l.329-11.199 5.653.127-.354 11.072h6.555v-10.978l5.848-.253v11.23h6.006v-11.408l5.71.374v11.035h6.105l.158-11.172 6.009.01v11.162h6.407l-.186-11.615h6.097v11.615h5.282l.107-11.257 6.262.095.57 11.162h6.03v-11.542h5.605l.4 11.542h5.722l-.333-11.204 6.038-.037.302 11.24 2.61.115L97.72 140zm0 87v53.33h3.31l1.541-42.733h4.925v42.733h5.968l1.106-42.733h5.334v42.733h6.006v-42.733h5.832v42.733h5.977l.362-42.733h5.853v42.733h6.305v-42.733h5.38l.606 42.891h5.242v-42.891h6.293l.45 42.733h6.177l-.407-42.733h5.948l.393 42.733h6.29l-.909-42.733 6.077-.35.503 43.241h3.384V227z"/><path d="M188.957 335.758s-.304-4.38-1.032-6.241c-.727-1.862-1.489-5.386-3.305-5.319-1.817.068-3.167 2.803-4.042 4.66-.875 1.856-1.484 7.248-1.484 7.248s3.552.179 5.354.115c1.802-.063 4.509-.463 4.509-.463z" fill="#4D4D4D"/><path fill="#EA566A" d="M353.501 184.19l18.994 112.834 2.178-.804-18.803-112.266z"/><g transform="translate(358 178)"><ellipse fill="#6AA3AF" transform="rotate(-9 12.5 17)" cx="12.5" cy="17" rx="1.5" ry="5"/><path d="M11.751 11.896c2.08-1.839 8.63-3.163 14.646-2.967 0 0 11.249.418 16.726.418 5.478 0 12.413-.78 12.413-.78s3.437-1.857 4.998-2.937c1.562-1.08 5.48-4.445 5.48-4.445 1.688-1.426 3.518-.85 4.087 1.286l.166.623c.428 1.601-.266 3.761-1.54 4.816l-5.4 4.472s3.86.966 5.074 1.712c1.215.746 0 0 0 0 4.697 3.66 3.631 6.753 0 6.847l-9.179-2.254s-3.405.224-7.893.917c-4.489.694-12.005 2.137-16.398 2.462-4.661.345-10.914-.344-15.478-.45-4.563-.105-5.907.45-5.907.45 1.69-3.721-.915-9.549-1.795-10.17z" fill="#89CDDB"/><path d="M25.27 8.9l1.26-1.305c.551-.569 1.638-1.001 2.422-.966l11.203.508c.787.036 1.754.616 2.153 1.283l.632 1.058s-6.017-.09-8.901-.153c-2.885-.064-8.77-.426-8.77-.426z" fill="#4BA6B9"/><path d="M14.703 18.324l.696-.448a1.134 1.134 0 011.56.33l.528.806c.339.518 1.113.861 1.735.765l.574-.088m3.688-6.278l.348 2.798c.06.493-.102 1.235-.36 1.65l-1.323 2.124" stroke="#EEE" stroke-width=".5"/><path d="M52.091 8.894l3.792-.447-1.978 3.014.333.071c2.37.512 2.964 2.366 1.322 4.15l-1.117 1.21s1.797-.446 2.418-.297c.621.148.086.024.086.024 2.2 1.007 2.029 2.036-.382 2.298l-4.853.526s-2.044-2.848-1.985-4.762c.06-1.915 2.364-5.787 2.364-5.787z" fill="#4AB8DD"/><path d="M49.209 9.08l2.988-.18s-.076 1.981-.422 2.672c-.347.69-1.953 2.248-1.953 2.248s2.198.137 2.976.535c.778.399 0 0 0 0 1.191 1.157 1.471 3.905 1.127 4.793 0 0 .015-.009 0 0-.015.01-5.703.89-5.703.89s-2.832-4.824-2.832-6.892c0-2.067 3.819-4.066 3.819-4.066z" fill="#3C7AD9"/><path d="M24.838 19.826s.855-1.06 1.163-1.668c.308-.609.878-2.366.878-2.366 1.277.473 3.728.675 5.479.452l.852-.11s.55 2.356 0 3.37c-.55 1.014-2.851 2.675-2.851 2.675s-2.84-.132-3.955-.528c-1.115-.395-1.566-1.825-1.566-1.825z" fill="#53AEDB"/><path d="M44.603 9.327l4.423-.21-2.46 2.694.333.072c2.37.512 2.953 2.378 1.31 4.16l-1.105 1.2s1.797-.446 2.418-.298c.622.149.086.025.086.025 2.2 1.007 2.06 2.228-.31 2.727l-4.829 1.015s-2.14-3.766-2.08-5.68c.06-1.915 2.214-5.705 2.214-5.705z" fill="#4AB8DD"/><path d="M38.576 9.443l6.153-.139s.379 3.087 0 4.052c-.378.965-2.389 2.349-2.389 2.349s3.009.428 4.037 1.221c1.029.794 1.615 3.141 1.615 3.141l-5.563.957-3.201.283s-.7-5.428-.859-8.143c-.16-2.714.207-3.721.207-3.721z" fill="#3C7AD9"/><path d="M33.45 21.926s2.089-.096 3.136-.208c1.047-.112 5.672-.736 5.672-.736s-.423-.904-.934-1.274c-.512-.37-2.137-.947-2.137-.947l.482-.341c2.62-1.855 2.235-4.089-.841-4.984l-.454-.132c1.285-.77 1.372-3.826 1.355-3.869l-9.115-.115 2.837 12.606z" fill="#4AB8DD"/><path d="M24.456 9.16l2.819 6.664c1.187.781 4.31.839 6.058.373.796 2.073-.583 4.713-3.084 5.899l-.029.014 3.186-.203 1.523-.735c3.267-1.578 3.111-3.729-.155-4.743 0 0 1.192-.495 1.603-.794.41-.299 0 0 0 0 2.684-2.163 1.935-4.165-1.69-4.469 0 0-.06-.008-.13-.01-.07-.001-2.899.368-2.899.368 1.914-1.562.522-2.7-3.108-2.542l-4.094.179z" fill="#3C7AD9"/><circle fill="#19B0CD" cx="19" cy="14" r="2"/><circle fill="#413F3F" cx="19" cy="14" r="1"/><path stroke="#222" stroke-width=".2" d="M.34 20.762l6.16-.956 5.222-8.141m-5.159 8.122l-.278.302 7.316 2.293"/></g><g transform="translate(362 200)"><ellipse fill="#B45F5F" transform="rotate(-9 12.5 17)" cx="12.5" cy="17" rx="1.5" ry="5"/><path d="M11.751 11.896c2.08-1.839 8.63-3.163 14.646-2.967 0 0 11.249.418 16.726.418 5.478 0 12.413-.78 12.413-.78s3.437-1.857 4.998-2.937c1.562-1.08 5.48-4.445 5.48-4.445 1.688-1.426 3.518-.85 4.087 1.286l.166.623c.428 1.601-.266 3.761-1.54 4.816l-5.4 4.472s3.86.966 5.074 1.712c1.215.746 0 0 0 0 4.697 3.66 3.631 6.753 0 6.847l-9.179-2.254s-3.405.224-7.893.917c-4.489.694-12.005 2.137-16.398 2.462-4.661.345-10.914-.344-15.478-.45-4.563-.105-5.907.45-5.907.45 1.69-3.721-.915-9.549-1.795-10.17z" fill="#DB8989"/><path d="M25.27 8.9l1.26-1.305c.551-.569 1.638-1.001 2.422-.966l11.203.508c.787.036 1.754.616 2.153 1.283l.632 1.058s-6.017-.09-8.901-.153c-2.885-.064-8.77-.426-8.77-.426z" fill="#944242"/><path d="M14.703 18.324l.696-.448a1.134 1.134 0 011.56.33l.528.806c.339.518 1.113.861 1.735.765l.574-.088m3.688-6.278l.348 2.798c.06.493-.102 1.235-.36 1.65l-1.323 2.124" stroke="#EEE" stroke-width=".5"/><path d="M52.091 8.894l3.792-.447-1.978 3.014.333.071c2.37.512 2.964 2.366 1.322 4.15l-1.117 1.21s1.797-.446 2.418-.297c.621.148.086.024.086.024 2.2 1.007 2.029 2.036-.382 2.298l-4.853.526s-2.044-2.848-1.985-4.762c.06-1.915 2.364-5.787 2.364-5.787z" fill="#FDB1B1"/><path d="M49.209 9.08l2.988-.18s-.076 1.981-.422 2.672c-.347.69-1.953 2.248-1.953 2.248s2.198.137 2.976.535c.778.399 0 0 0 0 1.191 1.157 1.471 3.905 1.127 4.793 0 0 .015-.009 0 0-.015.01-5.703.89-5.703.89s-2.832-4.824-2.832-6.892c0-2.067 3.819-4.066 3.819-4.066z" fill="#A45757"/><path d="M24.838 19.826s.855-1.06 1.163-1.668c.308-.609.878-2.366.878-2.366 1.277.473 3.728.675 5.479.452l.852-.11s.55 2.356 0 3.37c-.55 1.014-2.851 2.675-2.851 2.675s-2.84-.132-3.955-.528c-1.115-.395-1.566-1.825-1.566-1.825zM44.603 9.327l4.423-.21-2.46 2.694.333.072c2.37.512 2.953 2.378 1.31 4.16l-1.105 1.2s1.797-.446 2.418-.298c.622.149.086.025.086.025 2.2 1.007 2.06 2.228-.31 2.727l-4.829 1.015s-2.14-3.766-2.08-5.68c.06-1.915 2.214-5.705 2.214-5.705z" fill="#FDB1B1"/><path d="M38.576 9.443l6.153-.139s.379 3.087 0 4.052c-.378.965-2.389 2.349-2.389 2.349s3.009.428 4.037 1.221c1.029.794 1.615 3.141 1.615 3.141l-5.563.957-3.201.283s-.7-5.428-.859-8.143c-.16-2.714.207-3.721.207-3.721z" fill="#A45757"/><path d="M33.45 21.926s2.089-.096 3.136-.208c1.047-.112 5.672-.736 5.672-.736s-.423-.904-.934-1.274c-.512-.37-2.137-.947-2.137-.947l.482-.341c2.62-1.855 2.235-4.089-.841-4.984l-.454-.132c1.285-.77 1.372-3.826 1.355-3.869l-9.115-.115 2.837 12.606z" fill="#FDB1B1"/><path d="M24.456 9.16l2.819 6.664c1.187.781 4.31.839 6.058.373.796 2.073-.583 4.713-3.084 5.899l-.029.014 3.186-.203 1.523-.735c3.267-1.578 3.111-3.729-.155-4.743 0 0 1.192-.495 1.603-.794.41-.299 0 0 0 0 2.684-2.163 1.935-4.165-1.69-4.469 0 0-.06-.008-.13-.01-.07-.001-2.899.368-2.899.368 1.914-1.562.522-2.7-3.108-2.542l-4.094.179z" fill="#A45757"/><circle fill="#A56C6C" cx="19" cy="14" r="2"/><circle fill="#413F3F" cx="19" cy="14" r="1"/><path stroke="#222" stroke-width=".2" d="M.023 20.836l6.477-1.03 5.28-7.842M6.514 19.81l7.075 2.084"/></g><g transform="translate(366 227)"><ellipse fill="#4E814D" transform="rotate(-9 12.5 17)" cx="12.5" cy="17" rx="1.5" ry="5"/><path d="M11.751 11.896c2.08-1.839 8.63-3.163 14.646-2.967 0 0 11.249.418 16.726.418 5.478 0 12.413-.78 12.413-.78s3.437-1.857 4.998-2.937c1.562-1.08 5.48-4.445 5.48-4.445 1.688-1.426 3.518-.85 4.087 1.286l.166.623c.428 1.601-.266 3.761-1.54 4.816l-5.4 4.472s3.86.966 5.074 1.712c1.215.746 0 0 0 0 4.697 3.66 3.631 6.753 0 6.847l-9.179-2.254s-3.405.224-7.893.917c-4.489.694-12.005 2.137-16.398 2.462-4.661.345-10.914-.344-15.478-.45-4.563-.105-5.907.45-5.907.45 1.69-3.721-.915-9.549-1.795-10.17z" fill="#6BA26A"/><path d="M25.27 8.9l1.26-1.305c.551-.569 1.638-1.001 2.422-.966l11.203.508c.787.036 1.754.616 2.153 1.283l.632 1.058s-6.017-.09-8.901-.153c-2.885-.064-8.77-.426-8.77-.426z" fill="#3C723B"/><path d="M14.703 18.324l.696-.448a1.134 1.134 0 011.56.33l.528.806c.339.518 1.113.861 1.735.765l.574-.088m3.688-6.278l.348 2.798c.06.493-.102 1.235-.36 1.65l-1.323 2.124" stroke="#EEE" stroke-width=".5"/><path d="M52.091 8.894l3.792-.447-1.978 3.014.333.071c2.37.512 2.964 2.366 1.322 4.15l-1.117 1.21s1.797-.446 2.418-.297c.621.148.086.024.086.024 2.2 1.007 2.029 2.036-.382 2.298l-4.853.526s-2.044-2.848-1.985-4.762c.06-1.915 2.364-5.787 2.364-5.787z" fill="#7BC579"/><path d="M49.209 9.08l2.988-.18s-.076 1.981-.422 2.672c-.347.69-1.953 2.248-1.953 2.248s2.198.137 2.976.535c.778.399 0 0 0 0 1.191 1.157 1.471 3.905 1.127 4.793 0 0 .015-.009 0 0-.015.01-5.703.89-5.703.89s-2.832-4.824-2.832-6.892c0-2.067 3.819-4.066 3.819-4.066z" fill="#4B864A"/><path d="M24.838 19.826s.855-1.06 1.163-1.668c.308-.609.878-2.366.878-2.366 1.277.473 3.728.675 5.479.452l.852-.11s.55 2.356 0 3.37c-.55 1.014-2.851 2.675-2.851 2.675s-2.84-.132-3.955-.528c-1.115-.395-1.566-1.825-1.566-1.825zM44.603 9.327l4.423-.21-2.46 2.694.333.072c2.37.512 2.953 2.378 1.31 4.16l-1.105 1.2s1.797-.446 2.418-.298c.622.149.086.025.086.025 2.2 1.007 2.06 2.228-.31 2.727l-4.829 1.015s-2.14-3.766-2.08-5.68c.06-1.915 2.214-5.705 2.214-5.705z" fill="#7BC579"/><path d="M38.576 9.443l6.153-.139s.379 3.087 0 4.052c-.378.965-2.389 2.349-2.389 2.349s3.009.428 4.037 1.221c1.029.794 1.615 3.141 1.615 3.141l-5.563.957-3.201.283s-.7-5.428-.859-8.143c-.16-2.714.207-3.721.207-3.721z" fill="#4B864A"/><path d="M33.45 21.926s2.089-.096 3.136-.208c1.047-.112 5.672-.736 5.672-.736s-.423-.904-.934-1.274c-.512-.37-2.137-.947-2.137-.947l.482-.341c2.62-1.855 2.235-4.089-.841-4.984l-.454-.132c1.285-.77 1.372-3.826 1.355-3.869l-9.115-.115 2.837 12.606z" fill="#7BC579"/><path d="M24.456 9.16l2.819 6.664c1.187.781 4.31.839 6.058.373.796 2.073-.583 4.713-3.084 5.899l-.029.014 3.186-.203 1.523-.735c3.267-1.578 3.111-3.729-.155-4.743 0 0 1.192-.495 1.603-.794.41-.299 0 0 0 0 2.684-2.163 1.935-4.165-1.69-4.469 0 0-.06-.008-.13-.01-.07-.001-2.899.368-2.899.368 1.914-1.562.522-2.7-3.108-2.542l-4.094.179z" fill="#4B864A"/><circle fill="#BCAA6F" cx="19" cy="14" r="2"/><circle fill="#413F3F" cx="19" cy="14" r="1"/><path stroke="#222" stroke-width=".2" d="M.496 20.833L6.5 19.806l5.433-7.962m-5.439 8.003l7.08 2.068"/></g><path d="M41.586 187.714c-5.8-2.814-5.507-11.708.648-19.857l-1.882 2.491c6.159-8.152 15.938-8.014 21.851.322l-.248-.349c5.91 8.33 2.628 16.926-.153 17.56l3.482 5.844c.284.476.932.697 1.442.495l1.61-.638c1.54-.61 2.101.061 1.25 1.476 0 0-.668 1.208-1.172 1.797-.503.59-1.986 1.82-1.986 1.82-1.253 1.078-3.233 1.015-4.409-.14 0 0-1.003-.945-1.447-1.482-.444-.536-2.7-4.021-2.7-4.021l.59 6.357s2.362-.31 3.053-.173c.69.137.832.944.832.944-1.681 3.797-7.433 2.887-7.433 2.887s-1.719-1.019-2.151-2.42c-.432-1.403-.948-7.592-.948-7.592-.048-.544-.15-.534-.228.007 0 0-.678 4.865-1.175 7.118-.496 2.254 0 0 0 0-1.057 3.618-4.455 4.718-7.593 2.447 0 0-.696-.488-.962-.708-.265-.219-.82-.902-.82-.902-.716-.84-.408-1.416.684-1.289l.893.105c1.643.192 2.914-.987 2.838-2.64l-.143-3.105c-.026-.553-.308-.638-.638-.185 0 0-1.255 1.765-2.278 2.972-1.022 1.208-1.32 1.475-1.32 1.475-1.511 1.61-3.898 1.55-5.324-.138 0 0-1.013-1.163-1.444-1.76-.431-.596-1.091-1.85-1.091-1.85-.532-.97-.085-1.567.995-1.338 0 0 1.391.304 1.335.269-.057-.035 0 0 0 0 1.375 1.612 3.026.749 3.688-1.933l.008-.031 2.346-3.835z" fill="#DA3C3C"/><circle stroke="#FFF" fill="#DA3C3C" cx="51.5" cy="185.5" r="2.5"/><circle fill="#4E4E4E" cx="46" cy="182" r="2"/><circle fill="#4E4E4E" cx="58" cy="182" r="2"/><path d="M36.489 176.037s3.631-2.4 5.587-2.957c1.956-.558 5.96-.897 5.96-.897 1.71-.177 4.487-.198 6.204-.039 0 0 5.615.45 7.34.936.974.275 2.87 1.077 4.055 2.084 1.185 1.008 1.474 1.678 1.474 1.678.287.457.077.723-.46.598 0 0-3.874-.935-5.83-1.213-1.956-.279-6.53-.64-6.53-.64-1.726-.145-4.528-.194-6.25-.098 0 0-4.016.149-5.963.548-1.947.4-5.372 2.256-5.372 2.256l-.215-2.256z" fill="#2E2E2E"/><path d="M62.884 175.561s.212-3.611.653-5.414c.441-1.803 1.152-1.965 1.152-1.965s1.956.213 2.712.653c.756.439 2.634 2.453 2.634 2.453s-1.759 2.424-2.91 3.113c-1.153.688-4.24 1.16-4.24 1.16z" fill="#2E2E2E"/><path d="M33.613 208.169l.881-1.46.338-.203c.472-.285 1.21-.26 1.673.072l.057.042.025 1.23 1.393.314 1.507.238.349.122c1.039.364 1.129 1.153.211 1.755l.707-.464a8.763 8.763 0 01-1.782.852l.946-.303c-.955.306-3.95.631-4.122.637l-1.192 4.05a8.886 8.886 0 01-.814 1.824l.215-.348c-.292.473-.902 1.107-1.367 1.42l-.43.288-.392-.239c-.469-.284-.872-.967-.9-1.523l-.022-.421c.069-.927.82-3.778 1.482-5.78-.575-.376-1.483-1.457-1.521-1.523l.347-.71 2.41.13z" fill="#373636"/><path d="M39.853 216.8c1.657 0 3.147-.92 3.147-2.3s-1.198-2.238-2.854-2.238c-.742 0-1.558.367-2.082.738-.524.372-1.358.63-1.358 1.392 0 1.38 1.49 2.407 3.147 2.407zm-3.291 1.313c.336-.443 1.006-.595 1.491-.341l-.26-.137c.821.43 2.236.844 3.173.925.931.082 1.128.646.427 1.274 0 0 .052-.05-.368.331s-.696.512-.696.512c-.778.5-1.984.425-2.706-.175l-.464-.387a1.783 1.783 0 01-.279-2.422l-.318.42zm13.51-3.575c2.068 0 3.928-.919 3.928-2.3 0-1.38-1.495-2.238-3.563-2.238-.926 0-1.944.367-2.598.739-.653.372-1.695.63-1.695 1.392 0 1.38 1.86 2.407 3.928 2.407zm-3.812 1.926c.326-.449.987-.596 1.462-.336l-.107-.058c1.155.631 3.148 1.24 4.465 1.359l-.187-.017c1.31.12 1.597.942.629 1.85 0 0 .112-.11-.456.43-.568.54-.869.673-.869.673-1.093.735-2.787.627-3.782-.239l-.532-.463c-.996-.867-1.174-2.437-.408-3.494l-.214.295zm21 1c.326-.449.987-.596 1.462-.336l-.107-.058c1.155.631 3.148 1.24 4.465 1.359l-.187-.017c1.31.12 1.597.942.629 1.85 0 0 .112-.11-.456.43-.568.54-.869.673-.869.673-1.093.735-2.787.627-3.782-.239l-.532-.463c-.996-.867-1.174-2.437-.408-3.494l-.214.295zm-11.536-3.873s.434-.415.683-.522c.25-.108.87-.146.87-.146s-.231-.984-.16-1.47c.072-.485.489-.77.489-.77s.865-.025 1.17.174c.306.199 1.214 1.38 1.214 1.38l.799-.155-.365-.828c.093-2.392 1.154-2.583 2.371-.422l.015.025v.894l1.02.426c.513.215.895.84.833 1.375 0 0 .02.528-.263 1.022-.283.493-.799.796-.799.796-.437.325-1.223.455-1.74.295l.773.24a.883.883 0 01-.557-1.214l.132-.31-1.984.296s1.134 2.407 1.46 3.624c.325 1.218.01.043.01.043.17 1.642-.706 2.093-1.949.99 0 0-.468-.367-.659-.635-.19-.268-1.53-3.613-1.53-3.613s-1.224-.1-1.604-.409c-.379-.31-.23-1.086-.23-1.086zm14.304-3.293c.045-1.957 1.054-2.042 2.187-.292l.694-.039c2.294-.128 2.511.641.474 1.725l-.246.131.607 1.091s.533-.168.8-.168c.266 0 1.153.168 1.153.168s.085.605-.098.846c-.184.241-1.303.998-1.303.998l-.397 1.46c-.29 1.07-.98 1.179-1.557.219l-.514-.859s-1.511-.012-2.139-.19c-.627-.178-.876-.395-.876-.395-.472-.284-.48-.762-.02-1.062 0 0 .492-.345.751-.45.259-.105 1.326-.186 1.326-.186l-.136-.818s-1.256.036-1.872 0c-.616-.037-.066-.005-.066-.005-2.296-.198-2.397-1.007-.273-1.788l1.505-.386z" fill="#373636"/><use fill="#000" filter="url(#a)" xlink:href="#b"/><use stroke="#6587DA" xlink:href="#b"/><g transform="translate(21 42)"><circle fill="#F3F0F0" cx="43.5" cy="51.5" r="2.5"/><circle fill="#F3F0F0" cx="49.5" cy="43.5" r="2.5"/><circle fill="#F3F0F0" cx="54.5" cy="51.5" r="2.5"/><circle fill="#F3F0F0" cx="49.5" cy="60.5" r="2.5"/><circle fill="#F3F0F0" cx="37.5" cy="60.5" r="2.5"/><circle fill="#F3F0F0" cx="33.5" cy="51.5" r="2.5"/><circle fill="#F3F0F0" cx="38.5" cy="43.5" r="2.5"/><ellipse fill="#FFE3CF" transform="rotate(-13 35.245 30.32)" cx="35.245" cy="30.321" rx="2.5" ry="8"/><ellipse fill="#F798FF" transform="rotate(-44 18.71 30.601)" cx="18.71" cy="30.601" rx="2.5" ry="15.103"/><ellipse fill="#F798FF" transform="rotate(5 44.86 15.733)" cx="44.86" cy="15.733" rx="2.5" ry="15.103"/><ellipse fill="#F798FF" transform="rotate(33 62.884 26.185)" cx="62.884" cy="26.185" rx="2.5" ry="11.098"/><ellipse fill="#F798FF" transform="rotate(103 72.524 55.98)" cx="72.524" cy="55.98" rx="2.5" ry="12.801"/><ellipse fill="#F798FF" transform="rotate(-179 41.869 78.313)" cx="41.869" cy="78.313" rx="1.653" ry="12.198"/><ellipse fill="#F798FF" transform="rotate(-110 15.112 65.971)" cx="15.112" cy="65.971" rx="2.5" ry="15.103"/><ellipse fill="#FFE3CF" transform="rotate(11 49.962 30.65)" cx="49.962" cy="30.651" rx="2.5" ry="8"/><ellipse fill="#FFE3CF" transform="rotate(41 64.135 41.678)" cx="64.135" cy="41.678" rx="2.5" ry="8"/><ellipse fill="#FFE3CF" transform="rotate(122 60.11 69.36)" cx="60.109" cy="69.359" rx="2.5" ry="8"/><ellipse fill="#FFE3CF" transform="rotate(-166 33.361 71.367)" cx="33.361" cy="71.367" rx="2.5" ry="8"/><ellipse fill="#FFE3CF" transform="rotate(-88 20.065 49.516)" cx="20.065" cy="49.516" rx="2.5" ry="8"/></g><circle fill="#F3F0F0" cx="386.5" cy="105.5" r="2.5"/><circle fill="#F3F0F0" cx="392.5" cy="97.5" r="2.5"/><circle fill="#F3F0F0" cx="397.5" cy="105.5" r="2.5"/><circle fill="#F3F0F0" cx="392.5" cy="114.5" r="2.5"/><circle fill="#F3F0F0" cx="380.5" cy="114.5" r="2.5"/><circle fill="#F3F0F0" cx="376.5" cy="105.5" r="2.5"/><circle fill="#F3F0F0" cx="381.5" cy="97.5" r="2.5"/><ellipse fill="#FFE3CF" transform="rotate(-13 378.245 84.32)" cx="378.245" cy="84.321" rx="2.5" ry="8"/><ellipse fill="#CCFFCD" transform="rotate(-44 361.71 84.601)" cx="361.71" cy="84.601" rx="2.5" ry="15.103"/><ellipse fill="#CCFFCD" transform="rotate(5 387.86 69.733)" cx="387.86" cy="69.733" rx="2.5" ry="15.103"/><ellipse fill="#CCFFCD" transform="rotate(33 408.066 76.825)" cx="408.066" cy="76.825" rx="2.5" ry="15.103"/><ellipse fill="#CCFFCD" transform="rotate(103 417.767 110.498)" cx="417.767" cy="110.498" rx="2.5" ry="15.103"/><ellipse fill="#CCFFCD" transform="rotate(-179 385.665 135.234)" cx="385.665" cy="135.234" rx="2.5" ry="15.103"/><ellipse fill="#CCFFCD" transform="rotate(-110 358.112 119.971)" cx="358.112" cy="119.971" rx="2.5" ry="15.103"/><ellipse fill="#FFE3CF" transform="rotate(11 392.962 84.65)" cx="392.962" cy="84.651" rx="2.5" ry="8"/><ellipse fill="#FFE3CF" transform="rotate(41 407.135 95.678)" cx="407.135" cy="95.678" rx="2.5" ry="8"/><ellipse fill="#FFE3CF" transform="rotate(122 403.11 123.36)" cx="403.109" cy="123.359" rx="2.5" ry="8"/><ellipse fill="#FFE3CF" transform="rotate(-166 376.361 125.367)" cx="376.361" cy="125.367" rx="2.5" ry="8"/><ellipse fill="#FFE3CF" transform="rotate(-88 363.065 103.516)" cx="363.065" cy="103.516" rx="2.5" ry="8"/></g></svg>