<svg width="446" height="346" xmlns="http://www.w3.org/2000/svg"><g fill="none" fill-rule="evenodd"><path fill="#FFC35D" d="M0 0h446v346H0z"/><path fill="#FF9378" d="M0 0h446v194H0z"/><path d="M58.864 184.632l.196 18.46-8.254-3.745-1.665 3.293 8.913 4.888-.853 4.844-1.164 2.043c-.545.957-1.791 2.142-2.764 2.638l.233-.12c-.981.5-1.939 1.781-2.14 2.872l-.122.664c.423.881 1.58 1.968 2.588 2.428l-.415-.19c1.005.46 2.334.097 2.97-.811l1.42-2.029 4.32-1.512 4.031 3.86 2.34.667 2.237-.657 2.33-4.066 2.957-.134 3.463.846 4.244 2.619-5.342-14.893-.358-19.699s-4.78-.34-6.437-1.023c-1.658-.683-5.31-3.815-5.31-3.815s-2.588 1.258-4.154 1.8c-1.567.544-3.264.772-3.264.772z" fill="#935D13"/><path d="M56.439 214.877l24.792.263 2.892 6.852-3.366-1.76-3.587-1.276-3.656-.226-1.776 2.803-1.76 1.647-2.625.329-2.087-1.23-2.91-3.39-4.104 1.54-.862 1.276c-.93 1.377-2.912 1.958-4.44 1.293l-.305-.133-1.202-1.498.009-.103c.145-1.651 1.534-3.42 3.107-3.952l.112-.038 1.768-2.397z" fill="#A06718"/><path d="M58.456 185.475l.57 17.767-2.014 10.038-1.817 3.418-2.47 1.256c-.836.616-1.117 3.327-1.027 3.824l1.992 1.923 1.226-.152 2.626-3.013 4.285-1.802 1.686-6.413c1.017-3.868 1.891-10.24 1.954-14.245l.234-15.016s-3.21 1.136-4.855 1.492c-1.646.356-2.39.923-2.39.923z" fill-opacity=".344" fill="#653F0B"/><path d="M65.558 185.755l-3.495 1.547-2.711.844c-3.576-.079-8.907-2.114-11.486-4.204-2.267 1.102-7.69 2.036-8.172 2.041-2.96-.116-9.192-2.517-11.385-3.837l6.027 3.627c-3.329-2.003-8.15-6.502-9.75-8.67l1.189 1.61c-.656-.89-1.498-2.452-1.88-3.488l.692 1.877c-.996-2.702-1.79-9.362-1.783-11.708l-.012 4.004c.007-2.211.68-5.669 1.498-7.708l.289-.721c.41-1.021.741-2.735.741-3.709v1.86c0-1.027-.638-2.485-1.426-3.258l1.336 1.31c-1.973-1.935-4.584-5.497-5.831-7.958l2.259 4.455c-1.56-3.075-2.722-8.707-2.596-12.56l-.228 6.992c.16-4.917 2.005-13.037 2.446-14.101l-1.532 3.695c.846-2.04 2.742-5.006 4.244-6.631l-2.072 2.243c2.625-2.842 7.52-6.616 8.92-7.36l-4.168 2.215c2.302-1.223 6.311-2.834 7.161-3.08l-1.913.553c1.057-.305 2.047-1.436 2.212-2.528l-.236 1.559c.496-3.279 2.304-8.226 4.04-11.05l-3.143 5.114c1.897-3.087 5.814-7.62 8.032-9.511l-4.597 3.92c2.539-2.165 7.696-4.41 9.925-4.763 1.948-.19 5.393-1.573 7.705-3.095l-1.164.767c1.38-.909 3.768-2.09 5.324-2.637l-2.298.807c2.088-.733 5.578-1.392 7.78-1.473l-2.859.104c2.209-.08 5.7.435 7.784 1.145l-3.24-1.104c2.618.892 6.572 2.915 8.824 4.514l-4.084-2.899c2.56 1.817 6.382 5.887 6.645 6.278l-.56-.832c.31.46.737 1.24.96 1.757l-.156-.361c.66 1.523 1.232 4.098 1.256 4.954 1.564-.174 6.859-.033 9.397.146l-4.993-.351c2.758.194 6.969 1.403 9.27 2.63l-2.648-1.411c1.463.779 3.7 2.254 4.988 3.287l-2.34-1.876c2.35 1.884 6.262 6.379 7.847 8.724l-2.802-4.146c1.547 2.29 3.409 6.297 4.159 8.957l-1.357-4.811c.86 3.05 1.747 8.041 1.747 8.041l-.075-.996c.041.55.468 1.228.943 1.509l-.868-.513c2.551 1.505 6.177 5.447 8.092 8.793l-2.772-4.844c2.196 3.838 4.609 10.478 5.387 14.817l-.728-4.061c.488 2.723.547 7.146.133 9.877l.75-4.947c-.66 4.353-2.912 11.024-4.319 13.6l2.4-4.393c-1.326 2.426-3.943 6.003-5.862 8.006l-1.25 1.305c-3.364 2.38-9.655 4.677-12.862 5.008l4.974-.513c-2.747.283-6.29 2.328-7.908 4.558-1.62 2.233-4.897 5.106-7.334 6.423l4.4-2.379c-2.592 1.402-7.81 2.903-10.853 3.259l6.16-.721c-3.402.398-9.24.12-12.912-.596l4.907.957c-2.71-.528-6.584-2.455-8.183-3.885z" fill="#F86828"/><path d="M27.985 123.103c-7.593 7.606-2.001 18.198-2.001 18.198 1.555 2.245 6.394 4.064 8.03 4.064l-.336.585c-1.377 2.399-2.066 6.542-1.54 9.25l.054.279c1.43 2.6 7.968 4.79 10.97 4.837l6.998-.816c-1.294 2.395 1.72 5.754 1.72 5.754l-1.889-.659c1.044.364 2.778.53 3.877.372l2.896-.418c2.729-.393 6.845-1.89 9.196-3.343l1.709-1.057 1.143.986c2.091 1.803 5.939 3.868 8.603 4.615l-3.983-1.116c2.66.745 6.907.542 9.473-.448l-2.529.976c2.572-.993 5.789-3.739 7.176-6.117l2.363-4.049c3.817.774 12.116.076 13.801-.354 3.756-1.088 8.448-6.606 10.484-12.342l-3.683 10.372c2.912-8.2 1.684-18.996 1.684-18.996s1.471 1.194 0 0-4.602-2.497-4.602-2.497-.354-3.847-2.381-7.332c-2.027-3.484-4.51-4.936-6.454-6.185-2.11-1.357-5.467-2.811-8.849-3.148-3.382-.337-7.536.45-7.536.45s-.886-4.064-3.693-6.951c-2.806-2.888-6.668-3.847-8.769-4.428-2.212-.613-6.32-.931-9.968 0-3.649.93-7.099 3.202-7.099 3.202s-4.823.09-9.081 1.226c-4.259 1.134-4.053 1.75-5.24 2.568-1.508 1.04-3.97 2.377-5.073 4.382-1.104 2.005-1.435 6.189-1.435 6.189l-4.036 1.951z" fill="#FE7B41"/><path d="M140.864 184.632l.196 18.46-8.254-3.745-1.665 3.293 8.913 4.888-.853 4.844-1.164 2.043c-.545.957-1.791 2.142-2.764 2.638l.233-.12c-.981.5-1.939 1.781-2.14 2.872l-.122.664c.423.881 1.58 1.968 2.588 2.428l-.415-.19c1.005.46 2.334.097 2.97-.811l1.42-2.029 4.32-1.512 4.031 3.86 2.34.667 2.237-.657 2.33-4.066 2.957-.134 3.463.846 4.244 2.619-5.342-14.893-.358-19.699s-4.78-.34-6.437-1.023c-1.658-.683-5.31-3.815-5.31-3.815s-2.588 1.258-4.154 1.8c-1.567.544-3.264.772-3.264.772z" fill="#935D13"/><path d="M138.439 214.877l24.792.263 2.892 6.852-3.366-1.76-3.587-1.276-3.656-.226-1.776 2.803-1.76 1.647-2.625.329-2.087-1.23-2.91-3.39-4.104 1.54-.862 1.276c-.93 1.377-2.912 1.958-4.44 1.293l-.305-.133-1.202-1.498.009-.103c.145-1.651 1.534-3.42 3.107-3.952l.112-.038 1.768-2.397z" fill="#A06718"/><path d="M140.456 185.475l.57 17.767-2.014 10.038-1.817 3.418-2.47 1.256c-.836.616-1.117 3.327-1.027 3.824l1.992 1.923 1.226-.152 2.626-3.013 4.285-1.802 1.686-6.413c1.017-3.868 1.891-10.24 1.954-14.245l.234-15.016s-3.21 1.136-4.855 1.492c-1.646.356-2.39.923-2.39.923z" fill-opacity=".344" fill="#653F0B"/><path d="M147.558 185.755l-3.495 1.547-2.711.844c-3.576-.079-8.907-2.114-11.486-4.204-2.267 1.102-7.69 2.036-8.172 2.041-2.96-.116-9.192-2.517-11.385-3.837l6.027 3.627c-3.329-2.003-8.15-6.502-9.75-8.67l1.189 1.61c-.656-.89-1.498-2.452-1.88-3.488l.692 1.877c-.996-2.702-1.79-9.362-1.783-11.708l-.012 4.004c.007-2.211.68-5.669 1.498-7.708l.289-.721c.41-1.021.741-2.735.741-3.709v1.86c0-1.027-.638-2.485-1.426-3.258l1.336 1.31c-1.973-1.935-4.584-5.497-5.831-7.958l2.259 4.455c-1.56-3.075-2.722-8.707-2.596-12.56l-.228 6.992c.16-4.917 2.005-13.037 2.446-14.101l-1.532 3.695c.846-2.04 2.742-5.006 4.244-6.631l-2.072 2.243c2.625-2.842 7.52-6.616 8.92-7.36l-4.168 2.215c2.302-1.223 6.311-2.834 7.161-3.08l-1.913.553c1.057-.305 2.047-1.436 2.212-2.528l-.236 1.559c.496-3.279 2.304-8.226 4.04-11.05l-3.143 5.114c1.897-3.087 5.814-7.62 8.032-9.511l-4.597 3.92c2.539-2.165 7.696-4.41 9.925-4.763 1.948-.19 5.393-1.573 7.705-3.095l-1.164.767c1.38-.909 3.768-2.09 5.324-2.637l-2.298.807c2.088-.733 5.578-1.392 7.78-1.473l-2.859.104c2.209-.08 5.7.435 7.784 1.145l-3.24-1.104c2.618.892 6.572 2.915 8.824 4.514l-4.084-2.899c2.56 1.817 6.382 5.887 6.645 6.278l-.56-.832c.31.46.737 1.24.96 1.757l-.156-.361c.66 1.523 1.232 4.098 1.256 4.954 1.564-.174 6.859-.033 9.397.146l-4.993-.351c2.758.194 6.969 1.403 9.27 2.63l-2.648-1.411c1.463.779 3.7 2.254 4.988 3.287l-2.34-1.876c2.35 1.884 6.262 6.379 7.847 8.724l-2.802-4.146c1.547 2.29 3.409 6.297 4.159 8.957l-1.357-4.811c.86 3.05 1.747 8.041 1.747 8.041l-.075-.996c.041.55.468 1.228.943 1.509l-.868-.513c2.551 1.505 6.177 5.447 8.092 8.793l-2.772-4.844c2.196 3.838 4.609 10.478 5.387 14.817l-.728-4.061c.488 2.723.547 7.146.133 9.877l.75-4.947c-.66 4.353-2.912 11.024-4.319 13.6l2.4-4.393c-1.326 2.426-3.943 6.003-5.862 8.006l-1.25 1.305c-3.364 2.38-9.655 4.677-12.862 5.008l4.974-.513c-2.747.283-6.29 2.328-7.908 4.558-1.62 2.233-4.897 5.106-7.334 6.423l4.4-2.379c-2.592 1.402-7.81 2.903-10.853 3.259l6.16-.721c-3.402.398-9.24.12-12.912-.596l4.907.957c-2.71-.528-6.584-2.455-8.183-3.885z" fill="#F86828"/><path d="M109.985 123.103c-7.593 7.606-2.001 18.198-2.001 18.198 1.555 2.245 6.394 4.064 8.03 4.064l-.336.585c-1.377 2.399-2.066 6.542-1.54 9.25l.054.279c1.43 2.6 7.968 4.79 10.97 4.837l6.998-.816c-1.294 2.395 1.72 5.754 1.72 5.754l-1.889-.659c1.044.364 2.778.53 3.877.372l2.896-.418c2.729-.393 6.845-1.89 9.196-3.343l1.709-1.057 1.143.986c2.091 1.803 5.939 3.868 8.603 4.615l-3.983-1.116c2.66.745 6.907.542 9.473-.448l-2.529.976c2.572-.993 5.789-3.739 7.176-6.117l2.363-4.049c3.817.774 12.116.076 13.801-.354 3.756-1.088 8.448-6.606 10.484-12.342l-3.683 10.372c2.912-8.2 1.684-18.996 1.684-18.996s1.471 1.194 0 0-4.602-2.497-4.602-2.497-.354-3.847-2.381-7.332c-2.027-3.484-4.51-4.936-6.454-6.185-2.11-1.357-5.467-2.811-8.849-3.148-3.382-.337-7.536.45-7.536.45s-.886-4.064-3.693-6.951c-2.806-2.888-6.668-3.847-8.769-4.428-2.212-.613-6.32-.931-9.968 0-3.649.93-7.099 3.202-7.099 3.202s-4.823.09-9.081 1.226c-4.259 1.134-4.053 1.75-5.24 2.568-1.508 1.04-3.97 2.377-5.073 4.382-1.104 2.005-1.435 6.189-1.435 6.189l-4.036 1.951z" fill="#FE7B41"/><path d="M367.864 184.632l.196 18.46-8.254-3.745-1.665 3.293 8.913 4.888-.853 4.844-1.164 2.043c-.545.957-1.791 2.142-2.764 2.638l.233-.12c-.981.5-1.939 1.781-2.14 2.872l-.122.664c.423.881 1.58 1.968 2.588 2.428l-.415-.19c1.005.46 2.334.097 2.97-.811l1.42-2.029 4.32-1.512 4.031 3.86 2.34.667 2.237-.657 2.33-4.066 2.957-.134 3.463.846 4.244 2.619-5.342-14.893-.358-19.699s-4.78-.34-6.437-1.023c-1.658-.683-5.31-3.815-5.31-3.815s-2.588 1.258-4.154 1.8c-1.567.544-3.264.772-3.264.772z" fill="#935D13"/><path d="M365.439 214.877l24.792.263 2.892 6.852-3.366-1.76-3.587-1.276-3.656-.226-1.776 2.803-1.76 1.647-2.625.329-2.087-1.23-2.91-3.39-4.104 1.54-.862 1.276c-.93 1.377-2.912 1.958-4.44 1.293l-.305-.133-1.202-1.498.009-.103c.145-1.651 1.534-3.42 3.107-3.952l.112-.038 1.768-2.397z" fill="#A06718"/><path d="M367.456 185.475l.57 17.767-2.014 10.038-1.817 3.418-2.47 1.256c-.836.616-1.117 3.327-1.027 3.824l1.992 1.923 1.226-.152 2.626-3.013 4.285-1.802 1.686-6.413c1.017-3.868 1.891-10.24 1.954-14.245l.234-15.016s-3.21 1.136-4.855 1.492c-1.646.356-2.39.923-2.39.923z" fill-opacity=".344" fill="#653F0B"/><path d="M374.558 185.755l-3.495 1.547-2.711.844c-3.576-.079-8.907-2.114-11.486-4.204-2.267 1.102-7.69 2.036-8.172 2.041-2.96-.116-9.192-2.517-11.385-3.837l6.027 3.627c-3.329-2.003-8.15-6.502-9.75-8.67l1.189 1.61c-.656-.89-1.498-2.452-1.88-3.488l.692 1.877c-.996-2.702-1.79-9.362-1.783-11.708l-.012 4.004c.007-2.211.68-5.669 1.498-7.708l.289-.721c.41-1.021.741-2.735.741-3.709v1.86c0-1.027-.638-2.485-1.426-3.258l1.336 1.31c-1.973-1.935-4.584-5.497-5.831-7.958l2.259 4.455c-1.56-3.075-2.722-8.707-2.596-12.56l-.228 6.992c.16-4.917 2.005-13.037 2.446-14.101l-1.532 3.695c.846-2.04 2.742-5.006 4.244-6.631l-2.072 2.243c2.625-2.842 7.52-6.616 8.92-7.36l-4.168 2.215c2.302-1.223 6.311-2.834 7.161-3.08l-1.913.553c1.057-.305 2.047-1.436 2.212-2.528l-.236 1.559c.496-3.279 2.304-8.226 4.04-11.05l-3.143 5.114c1.897-3.087 5.814-7.62 8.032-9.511l-4.597 3.92c2.539-2.165 7.696-4.41 9.925-4.763 1.948-.19 5.393-1.573 7.705-3.095l-1.164.767c1.38-.909 3.768-2.09 5.324-2.637l-2.298.807c2.088-.733 5.578-1.392 7.78-1.473l-2.859.104c2.209-.08 5.7.435 7.784 1.145l-3.24-1.104c2.618.892 6.572 2.915 8.824 4.514l-4.084-2.899c2.56 1.817 6.382 5.887 6.645 6.278l-.56-.832c.31.46.737 1.24.96 1.757l-.156-.361c.66 1.523 1.232 4.098 1.256 4.954 1.564-.174 6.859-.033 9.397.146l-4.993-.351c2.758.194 6.969 1.403 9.27 2.63l-2.648-1.411c1.463.779 3.7 2.254 4.988 3.287l-2.34-1.876c2.35 1.884 6.262 6.379 7.847 8.724l-2.802-4.146c1.547 2.29 3.409 6.297 4.159 8.957l-1.357-4.811c.86 3.05 1.747 8.041 1.747 8.041l-.075-.996c.041.55.468 1.228.943 1.509l-.868-.513c2.551 1.505 6.177 5.447 8.092 8.793l-2.772-4.844c2.196 3.838 4.609 10.478 5.387 14.817l-.728-4.061c.488 2.723.547 7.146.133 9.877l.75-4.947c-.66 4.353-2.912 11.024-4.319 13.6l2.4-4.393c-1.326 2.426-3.943 6.003-5.862 8.006l-1.25 1.305c-3.364 2.38-9.655 4.677-12.862 5.008l4.974-.513c-2.747.283-6.29 2.328-7.908 4.558-1.62 2.233-4.897 5.106-7.334 6.423l4.4-2.379c-2.592 1.402-7.81 2.903-10.853 3.259l6.16-.721c-3.402.398-9.24.12-12.912-.596l4.907.957c-2.71-.528-6.584-2.455-8.183-3.885z" fill="#F86828"/><path d="M336.985 123.103c-7.593 7.606-2.001 18.198-2.001 18.198 1.555 2.245 6.394 4.064 8.03 4.064l-.336.585c-1.377 2.399-2.066 6.542-1.54 9.25l.054.279c1.43 2.6 7.968 4.79 10.97 4.837l6.998-.816c-1.294 2.395 1.72 5.754 1.72 5.754l-1.889-.659c1.044.364 2.778.53 3.877.372l2.896-.418c2.729-.393 6.845-1.89 9.196-3.343l1.709-1.057 1.143.986c2.091 1.803 5.939 3.868 8.603 4.615l-3.983-1.116c2.66.745 6.907.542 9.473-.448l-2.529.976c2.572-.993 5.789-3.739 7.176-6.117l2.363-4.049c3.817.774 12.116.076 13.801-.354 3.756-1.088 8.448-6.606 10.484-12.342l-3.683 10.372c2.912-8.2 1.684-18.996 1.684-18.996s1.471 1.194 0 0-4.602-2.497-4.602-2.497-.354-3.847-2.381-7.332c-2.027-3.484-4.51-4.936-6.454-6.185-2.11-1.357-5.467-2.811-8.849-3.148-3.382-.337-7.536.45-7.536.45s-.886-4.064-3.693-6.951c-2.806-2.888-6.668-3.847-8.769-4.428-2.212-.613-6.32-.931-9.968 0-3.649.93-7.099 3.202-7.099 3.202s-4.823.09-9.081 1.226c-4.259 1.134-4.053 1.75-5.24 2.568-1.508 1.04-3.97 2.377-5.073 4.382-1.104 2.005-1.435 6.189-1.435 6.189l-4.036 1.951z" fill="#FE7B41"/><path d="M293.864 184.632l.196 18.46-8.254-3.745-1.665 3.293 8.913 4.888-.853 4.844-1.164 2.043c-.545.957-1.791 2.142-2.764 2.638l.233-.12c-.981.5-1.939 1.781-2.14 2.872l-.122.664c.423.881 1.58 1.968 2.588 2.428l-.415-.19c1.005.46 2.334.097 2.97-.811l1.42-2.029 4.32-1.512 4.031 3.86 2.34.667 2.237-.657 2.33-4.066 2.957-.134 3.463.846 4.244 2.619-5.342-14.893-.358-19.699s-4.78-.34-6.437-1.023c-1.658-.683-5.31-3.815-5.31-3.815s-2.588 1.258-4.154 1.8c-1.567.544-3.264.772-3.264.772z" fill="#935D13"/><path d="M291.439 214.877l24.792.263 2.892 6.852-3.366-1.76-3.587-1.276-3.656-.226-1.776 2.803-1.76 1.647-2.625.329-2.087-1.23-2.91-3.39-4.104 1.54-.862 1.276c-.93 1.377-2.912 1.958-4.44 1.293l-.305-.133-1.202-1.498.009-.103c.145-1.651 1.534-3.42 3.107-3.952l.112-.038 1.768-2.397z" fill="#A06718"/><path d="M293.456 185.475l.57 17.767-2.014 10.038-1.817 3.418-2.47 1.256c-.836.616-1.117 3.327-1.027 3.824l1.992 1.923 1.226-.152 2.626-3.013 4.285-1.802 1.686-6.413c1.017-3.868 1.891-10.24 1.954-14.245l.234-15.016s-3.21 1.136-4.855 1.492c-1.646.356-2.39.923-2.39.923z" fill-opacity=".344" fill="#653F0B"/><path d="M300.558 185.755l-3.495 1.547-2.711.844c-3.576-.079-8.907-2.114-11.486-4.204-2.267 1.102-7.69 2.036-8.172 2.041-2.96-.116-9.192-2.517-11.385-3.837l6.027 3.627c-3.329-2.003-8.15-6.502-9.75-8.67l1.189 1.61c-.656-.89-1.498-2.452-1.88-3.488l.692 1.877c-.996-2.702-1.79-9.362-1.783-11.708l-.012 4.004c.007-2.211.68-5.669 1.498-7.708l.289-.721c.41-1.021.741-2.735.741-3.709v1.86c0-1.027-.638-2.485-1.426-3.258l1.336 1.31c-1.973-1.935-4.584-5.497-5.831-7.958l2.259 4.455c-1.56-3.075-2.722-8.707-2.596-12.56l-.228 6.992c.16-4.917 2.005-13.037 2.446-14.101l-1.532 3.695c.846-2.04 2.742-5.006 4.244-6.631l-2.072 2.243c2.625-2.842 7.52-6.616 8.92-7.36l-4.168 2.215c2.302-1.223 6.311-2.834 7.161-3.08l-1.913.553c1.057-.305 2.047-1.436 2.212-2.528l-.236 1.559c.496-3.279 2.304-8.226 4.04-11.05l-3.143 5.114c1.897-3.087 5.814-7.62 8.032-9.511l-4.597 3.92c2.539-2.165 7.696-4.41 9.925-4.763 1.948-.19 5.393-1.573 7.705-3.095l-1.164.767c1.38-.909 3.768-2.09 5.324-2.637l-2.298.807c2.088-.733 5.578-1.392 7.78-1.473l-2.859.104c2.209-.08 5.7.435 7.784 1.145l-3.24-1.104c2.618.892 6.572 2.915 8.824 4.514l-4.084-2.899c2.56 1.817 6.382 5.887 6.645 6.278l-.56-.832c.31.46.737 1.24.96 1.757l-.156-.361c.66 1.523 1.232 4.098 1.256 4.954 1.564-.174 6.859-.033 9.397.146l-4.993-.351c2.758.194 6.969 1.403 9.27 2.63l-2.648-1.411c1.463.779 3.7 2.254 4.988 3.287l-2.34-1.876c2.35 1.884 6.262 6.379 7.847 8.724l-2.802-4.146c1.547 2.29 3.409 6.297 4.159 8.957l-1.357-4.811c.86 3.05 1.747 8.041 1.747 8.041l-.075-.996c.041.55.468 1.228.943 1.509l-.868-.513c2.551 1.505 6.177 5.447 8.092 8.793l-2.772-4.844c2.196 3.838 4.609 10.478 5.387 14.817l-.728-4.061c.488 2.723.547 7.146.133 9.877l.75-4.947c-.66 4.353-2.912 11.024-4.319 13.6l2.4-4.393c-1.326 2.426-3.943 6.003-5.862 8.006l-1.25 1.305c-3.364 2.38-9.655 4.677-12.862 5.008l4.974-.513c-2.747.283-6.29 2.328-7.908 4.558-1.62 2.233-4.897 5.106-7.334 6.423l4.4-2.379c-2.592 1.402-7.81 2.903-10.853 3.259l6.16-.721c-3.402.398-9.24.12-12.912-.596l4.907.957c-2.71-.528-6.584-2.455-8.183-3.885z" fill="#F86828"/><path d="M262.985 123.103c-7.593 7.606-2.001 18.198-2.001 18.198 1.555 2.245 6.394 4.064 8.03 4.064l-.336.585c-1.377 2.399-2.066 6.542-1.54 9.25l.054.279c1.43 2.6 7.968 4.79 10.97 4.837l6.998-.816c-1.294 2.395 1.72 5.754 1.72 5.754l-1.889-.659c1.044.364 2.778.53 3.877.372l2.896-.418c2.729-.393 6.845-1.89 9.196-3.343l1.709-1.057 1.143.986c2.091 1.803 5.939 3.868 8.603 4.615l-3.983-1.116c2.66.745 6.907.542 9.473-.448l-2.529.976c2.572-.993 5.789-3.739 7.176-6.117l2.363-4.049c3.817.774 12.116.076 13.801-.354 3.756-1.088 8.448-6.606 10.484-12.342l-3.683 10.372c2.912-8.2 1.684-18.996 1.684-18.996s1.471 1.194 0 0-4.602-2.497-4.602-2.497-.354-3.847-2.381-7.332c-2.027-3.484-4.51-4.936-6.454-6.185-2.11-1.357-5.467-2.811-8.849-3.148-3.382-.337-7.536.45-7.536.45s-.886-4.064-3.693-6.951c-2.806-2.888-6.668-3.847-8.769-4.428-2.212-.613-6.32-.931-9.968 0-3.649.93-7.099 3.202-7.099 3.202s-4.823.09-9.081 1.226c-4.259 1.134-4.053 1.75-5.24 2.568-1.508 1.04-3.97 2.377-5.073 4.382-1.104 2.005-1.435 6.189-1.435 6.189l-4.036 1.951z" fill="#FE7B41"/><g transform="translate(52 46)" fill="#F3F3F3"><ellipse cx="8.667" cy="14.237" rx="8.667" ry="7.593"/><ellipse cx="43.333" cy="14.237" rx="8.667" ry="7.593"/><ellipse cx="25.235" cy="14" rx="13.51" ry="14"/></g><g transform="translate(148 18)" fill="#F3F3F3"><ellipse cx="8.667" cy="14.237" rx="8.667" ry="7.593"/><ellipse cx="43.333" cy="14.237" rx="8.667" ry="7.593"/><ellipse cx="25.235" cy="14" rx="13.51" ry="14"/></g><g transform="translate(338 46)" fill="#F3F3F3"><ellipse cx="8.667" cy="14.237" rx="8.667" ry="7.593"/><ellipse cx="43.333" cy="14.237" rx="8.667" ry="7.593"/><ellipse cx="25.235" cy="14" rx="13.51" ry="14"/></g><path d="M224.226 18.509l-1.514 6.606c-2.627 11.465-12.429 26.405-21.907 33.381l-3.532 2.6h55.27l-4.574-3.658c-9.181-7.342-19.174-22.477-22.32-33.803l-1.423-5.126z" fill="#5E3823"/><path fill="#3C291F" d="M208.442 60.79v5.735h32.707v-5.649z"/><path fill="#B27D38" d="M225.252 66.45l-36.516-.672 7.375 9.807 57.593.348 7.12-9.47z"/><path fill="#82531E" d="M225.218 66.528l-36.329-.754 7.192 9.69 29.137.357z"/><path fill="#FAF4C1" d="M196.058 75.499l.14 30.728h57.69l-.158-30.36z"/><path fill="#5E3823" d="M192.107 107.61V92.872l65.137.144-.18 15.61-1.756-2.201V95.649l-4.449.056v10.518h-1.674l-.165-10.593h-4.768v10.795h-1.635V95.649l-4.494.058.17 10.516-2.225.202V95.649l-3.99-.02v10.796l-1.815.673V95.707l-4.814-.077v10.795l-1.943.12V95.706l-4.641-.058.105 10.895-1.454.17-.15-11.007-4.215-.002.093 10.518h-1.752V95.649h-4.288v10.574h-2.067V95.707h-4.738l.134 10.516h-2.267V95.707h-4.344v10.408z"/><path fill="#B27D38" d="M192.85 106.32l-16.175 20.266-7.896.449 7.028 9.164 97.689.274 5.318-9.047h-5.53l-16.281-19.377-.35-2.044z"/><path fill="#FAF4C1" d="M175.762 136.168l.01 53.463 97.016.415.73-53.696z"/><path fill="#5E3823" d="M170.2 191.591l-.07-22.632 108.273-.585-.102 24.812-2.907-.764.024-20.517-7.39.025v20.492l-3.22.058-.07-20.443h-6.991v20.443h-2.833l-.43-20.489-7.71-.266v20.697l-2.952.058v-20.747l-7.815-.088.28 20.777-3.008-.219V171.72h-7.922l-.185 20.483h-2.775l.165-20.488-7.918-.098v20.805l-2.904.058v-20.743l-7.109-.041.42 20.726h-2.953v-20.724l-7.584.242v20.263l-2.533.22v-20.34l-8.13-.101v20.221h-3.058v-20.112l-8.146-.216v20.328z"/><path fill="#B27D38" d="M170.19 191.612l-15.52 20.48h-7.802l7.61 9.204 139.622-.521 6.69-8.64-7.823-.154-17.491-22.948-103.842.437z"/><path d="M153.999 221.636v30.61c4.782.637 12.58 3.316 17.42 5.984l7.613 4.196.028-.024c5.545-4.56 13.1-3.307 15.315.274l4.63.15c.557.018 1.235-.347 1.522-.827l2.688-4.505c6.2-10.388 15.553-10.004 20.888.851l.84 1.71c.73 1.485 2.654 2.818 4.304 2.978l.115.012c2.747.266 6.007-1.5 7.286-3.951l-2.312 4.433c3.924-7.525 10.366-7.24 14.382.627l.083.162 7.135-4.824c7.6-8.417 18.823-6.85 24.893 3.214l7.735-1.096 5.685-6.78.24-34.329-140.49 1.135z" fill="#FAF4C1"/><path fill="#5E3823" d="M196.658 263.627v-37.76l54.028-.082v37.842z"/><path fill="#82531E" d="M224.619 106.185l-.125 29.588-48.51-.09-7.223-8.707 8.213-.276 16.035-20.515zm.064 82.853l-52.82.65-17.003 22.617-7.738.007 6.973 9.368 70.374-.427z"/><path fill="#934141" d="M147.909 252.152L298.267 251l.02 12.647L148.406 265z"/><g transform="scale(-1 1) rotate(43 -446.81 -257.668)"><circle fill="#9D7051" cx="56" cy="46" r="1"/><path d="M31.015 85.855l-.023 2.676 3.09 3.937c.339.43.543 1.22.458 1.762l-.1.634a1.085 1.085 0 01-1.15.894l-1.449-.128c-.549-.049-.887.343-.75.89l.388 1.558c.135.54-.17 1.128-.69 1.315l-.64.23c-.515.187-1.199-.016-1.533-.46l-.6-.8c-.331-.441-.778-.388-1 .122l-.61 1.4c-.22.509-.723.605-1.113.225l-.647-.631c-.394-.385-.78-1.136-.861-1.687l-.444-2.971c-.081-.547-.021-1.427.13-1.95l1.15-3.957s1.995-1.417 3.062-1.927m15.104-2.418l2.374 1.235 2.025 4.578c.221.5.823 1.051 1.341 1.23l.607.21c.52.18 1.116-.09 1.33-.595l.566-1.34c.215-.507.72-.622 1.139-.244l1.192 1.074c.414.373 1.076.38 1.486.009l.504-.457c.406-.369.548-1.068.312-1.57l-.424-.907c-.234-.499.023-.868.577-.825l1.523.12c.553.043.873-.356.72-.879l-.253-.867c-.154-.528-.636-1.221-1.084-1.552l-2.416-1.787c-.444-.328-1.25-.688-1.783-.8l-4.033-.843s-2.188 1.097-3.139 1.799" fill="#F48359"/><path d="M41.734 10.333c-.67-1.51-2.02-3.806-3.013-5.124l1.8 2.39C33.037-2.34 21.549-1.646 14.86 9.15l-1.48 2.39c-.582.939-1.266 2.573-1.527 3.64L7.975 31.054c-1.834 7.506-3.361 19.863-3.41 27.581L4.527 64.5c-.018 2.762.735 7.114 1.67 9.692l2.018 5.56c.377 1.04-.19 2.075-1.274 2.313l-4.8 1.053c-2.16.474-2.488 1.95-.697 3.23 0 0 1.147 1.105 2.743 1.514 1.596.41 9.194 0 9.194 0l4.006 2.212c1.934 1.067 5.281 1.98 7.492 2.04l5.634.151c1.65.045 4.309-.111 5.958-.351l-1.53.222c6.014-.875 14.141-5.275 16.682-8.16l2.82-9.542c.782-2.647 1.1-7.003.704-9.752l-.507-3.533c-.235-1.638-1.005-4.18-1.715-5.67l-1.95-4.091H53.4c1.654 0 3.937-.96 5.1-2.146l.01-.01c.773-.788.705-1.987-.15-2.678l-2.754-2.225a10.324 10.324 0 00-1.677-1.058l-6.363-3.06c-.5-.24-.938-.88-.98-1.43 0 0-.914-13.094-2.123-19.429-1.208-6.334-2.73-9.019-2.73-9.019z" fill="#4D4D4D"/><path d="M36.864 9.433c-6.54-2.631-11.26 1.745-10.97 4.994 0 0-1.094 8.271-1.377 12.345-.282 4.073-.863 18.341-.863 18.341-.092 2.213 1.515 4.645 3.569 5.426l9.744 3.705c2.063.784 2.065 2.044-.018 2.821l-9.612 3.59c-1.557.581-2.362 2.313-1.756 3.847 0 0 1.279 4.103 3.599 6.357 2.32 2.253 4.857 2.824 4.857 2.824 2.571.99 6.893 1.752 9.64 1.544 0 0 2.136.364 4.697-1.233 2.561-1.596 0 0 0 0 3.595-2.646 5.405-9.134 4.045-14.477l-2.398-9.422c-1.77-6.96-3.692-18.4-4.54-25.534 0 0 .447-1.407-1.966-10.134s-6.651-4.994-6.651-4.994z" fill="#EEEDED"/><path d="M34.726 22.76s2.365-1.788 3.686-2.268c1.321-.48 5.326-.365 5.326-.365l-1.795 1.604c-1.554 1.39-1.244 3.142.702 3.918l1.962.783-2.627.932c-1.97.7-4.537-.129-5.73-1.845l-1.22-1.759-.303-1z" fill="#DF9778"/><path d="M31.773 18.107c1.17 0 2.118 1.73 2.118.451s-.949-2.315-2.118-2.315c-1.17 0-2.118 1.036-2.118 2.315 0 1.28.948-.451 2.118-.451zm10.167-1.663c1.17 0 2.117 1.54 2.117.262 0-1.28-.948-2.316-2.118-2.316s-2.118 1.037-2.118 2.316.949-.262 2.118-.262z" fill="#3F3F3F"/></g><g fill="#F06138"><path d="M155.166 318.388l-.163-5.664c-.032-1.085.235-2.79.6-3.818l1.384-3.906 1.31 3.906c.344 1.024.622 2.729.622 3.818v5.664h-3.753z"/><path d="M156 317.086l3.515-4.444c.674-.852 1.974-1.986 2.915-2.54L166 308l-1.506 3.834c-.395 1.005-1.278 2.49-1.978 3.325l-3.64 4.34"/><path d="M158.154 318.125l3.826.077c.85.018 2.156.314 2.934.668l2.563 1.17-2.657.837c-.81.255-2.143.426-3 .38l-3.82-.2.154-2.932zm-.75 0l-3.826.077c-.85.018-2.156.314-2.933.668l-2.564 1.17 2.657.837c.81.255 2.144.426 3 .38l3.82-.2-.154-2.932z"/><path d="M157.78 318.103l-3.204 2.093c-.71.464-1.662 1.408-2.133 2.12l-1.554 2.351 2.697-.698c.821-.213 2.043-.775 2.745-1.267l3.134-2.194-1.684-2.405z"/><path d="M157 319h2v6h-2z"/><path d="M158.684 318.103l3.205 2.093c.71.464 1.662 1.408 2.133 2.12l1.554 2.351-2.697-.698c-.82-.213-2.043-.775-2.745-1.267L157 320.508l1.684-2.405zm-2.504 1.651l-4.121-3.889c-.79-.745-1.806-2.14-2.276-3.125L148 309l3.688 1.835c.967.481 2.37 1.49 3.14 2.26l4.005 4.005"/></g><g fill="#FFA72E"><path d="M26.166 247.388l-.163-5.664c-.032-1.085.235-2.79.6-3.818L27.987 234l1.31 3.906c.344 1.024.622 2.729.622 3.818v5.664h-3.753z"/><path d="M28 245.086l3.515-4.444c.674-.852 1.974-1.986 2.915-2.54L38 236l-1.506 3.834c-.395 1.005-1.278 2.49-1.978 3.325l-3.64 4.34"/><path d="M29.154 246.125l3.826.077c.85.018 2.156.314 2.934.668l2.563 1.17-2.657.837c-.81.255-2.143.426-3 .38l-3.82-.2.154-2.932zm-.75 0l-3.826.077c-.85.018-2.156.314-2.933.668l-2.564 1.17 2.657.837c.81.255 2.144.426 3 .38l3.82-.2-.154-2.932z"/><path d="M28.78 246.103l-3.204 2.093c-.71.464-1.662 1.408-2.133 2.12l-1.554 2.351 2.697-.698c.821-.213 2.043-.775 2.745-1.267l3.134-2.194-1.684-2.405z"/><path d="M29.684 246.103l3.205 2.093c.71.464 1.662 1.408 2.133 2.12l1.554 2.351-2.697-.698c-.82-.213-2.043-.775-2.745-1.267L28 248.508l1.684-2.405z"/><path d="M28 248h2v6h-2zm-1.82-.246l-4.121-3.889c-.79-.745-1.806-2.14-2.276-3.125L18 237l3.688 1.835c.967.481 2.37 1.49 3.14 2.26l4.005 4.005"/></g><g fill="#F04638"><path d="M400 269h2v6h-2zm-1.441-1.083l-.164-5.664c-.031-1.085.236-2.79.6-3.818l1.385-3.906 1.31 3.906c.344 1.024.622 2.729.622 3.818v5.664h-3.753z"/><path d="M400.02 265.85l3.514-4.443c.674-.852 1.974-1.986 2.915-2.54l3.57-2.102-1.506 3.834c-.395 1.006-1.278 2.49-1.978 3.325l-3.64 4.34"/><path d="M401.154 267.125l3.826.077c.85.018 2.156.314 2.934.668l2.563 1.17-2.657.837c-.81.255-2.143.426-3 .38l-3.82-.2.154-2.932zm-.75 0l-3.826.077c-.85.018-2.156.314-2.933.668l-2.564 1.17 2.657.837c.81.255 2.144.426 3 .38l3.82-.2-.154-2.932z"/><path d="M400.78 267.103l-3.204 2.093c-.71.464-1.662 1.408-2.133 2.12l-1.554 2.351 2.697-.698c.821-.213 2.043-.775 2.745-1.267l3.134-2.194-1.684-2.405z"/><path d="M401.684 267.103l3.205 2.093c.71.464 1.662 1.408 2.133 2.12l1.554 2.351-2.697-.698c-.82-.213-2.043-.775-2.745-1.267L400 269.508l1.684-2.405zm-2.851 1.544l-4.12-3.89c-.79-.744-1.807-2.138-2.276-3.124l-1.783-3.74 3.688 1.835c.967.481 2.37 1.49 3.14 2.26l4.005 4.005"/></g><g transform="translate(65 234)"><path d="M6.215 32.262s-3.33-.739-4.313-1.976C.92 29.049.492 26.999.492 26.999c-.138-.532.118-.715.573-.41 0 0 2.084 1.425 3.206 2.009 1.122.584 3.408 1.307 3.408 1.307l9.14.738c13.425 1.083 20.582-8.301 17.345-17.217l.34.938c-.187-.518-.787-.968-1.336-1.005l-3.662-.247c-1.103-.074-2.748-.616-3.683-1.216L22.786 9.95c-.467-.3-.486-.823-.054-1.159l8.686-6.759C35.734-1.44 44.632.852 44.632.852l4.197 1.881c.505.226.542.663.085.973l-2.54 1.724c-.457.31-1.28.54-1.82.511l-2.252-.116 2.161 17.844c.598 4.935.113 12.838-1.087 17.668l-.103.415c-.667 2.684-3.45 4.86-5.856 4.86L33.53 80.411l-2.11-.068-1.069-33.37c-5.437 1.513-16.274-1.428-16.274-1.428s-1.706 5.54-3.003 8.115C9.776 56.234 6.9 60.77 6.9 60.77 5.448 63.112 4.404 67.245 4.57 70l.618 10.372-2.149.609s-.87-5.563-1.136-8.387c-.266-2.824-.302-5.006-.302-5.006-.059-1.66.355-4.274.89-5.827 0 0 1.281-3.203 1.78-6.625.344-2.348-.046-10.973.414-16.953.461-5.98 1.531-5.92 1.531-5.92z" fill="#A5693B"/><path d="M13.9 45.481l-2.001 6.123c-.515 1.575-.959 4.199-.989 5.677L9.545 59.78c-1.06 1.942-1.672 5.286-1.358 7.478 0 0 .552 4.042.93 6.031.377 1.99 1.857 7.656 1.857 7.656l1.92-.277-1.246-13.497c-.204-2.204.596-5.49 1.795-7.355l.791-1.23c1.731-2.691 3.94-7.335 4.938-10.377l.521-1.593L13.9 45.48zm23.377 1.193l-.82 33.638H38.7l3.127-36.252s-1.338.935-2.193 1.671-2.356.943-2.356.943z" fill="#794924"/><path d="M42.218 3.205V4.45l1.214.072c.36.022.931-.048 1.291-.161l.61-.192c.352-.11.36-.313.02-.45l-.65-.264a4.035 4.035 0 00-1.271-.25h-1.214z" fill="#FBD899"/><ellipse fill="#2D2C2C" cx="23.5" cy="9" rx="1.5" ry="1"/><path d="M33.5 7.704c.828 0 1.5.624 1.5-.204a1.5 1.5 0 00-3 0c0 .828.672.204 1.5.204z" fill="#3F3F3F"/><path d="M.476 26.639l.193 2.174c.116 1.319 1.277 2.59 2.566 2.834l2.046.388-1.232-.722c-1.147-.673-2.501-2.2-3.033-3.427l-.54-1.247z" fill="#FFE9D9"/><g transform="translate(8 31)" fill="#FFF0BE"><circle cx="1" cy=".5" r="1"/><circle cx="3" cy="2.5" r="1"/><circle cx="17" cy="2.5" r="1"/><circle cx="13" cy="2.5" r="1"/><circle cx="7" cy="1.5" r="1"/></g></g><path d="M278.037 304.24l3.85 10.955 1.95-1.084c2.68-1.491 5.32-5.134 5.895-8.145l.356-1.864-12.051.138z" fill="#FA6464"/><path d="M281.951 315.42l.342 1.013 2.67-1.596c2.231-1.332 4.616-4.438 5.33-6.941l1.07-3.754-1.289-.038-.897 2.682c-.824 2.466-3.197 5.705-5.3 7.234l-1.926 1.4z" fill="#57A32F"/><path d="M282.051 315.345l-.178-.28c.49-1.485 2.67-3.058 3.208-3.17l.823-.6s1.389-1.437 1.857-2.318c.469-.88.465-1.034.465-1.034.182-.524.06-1.31-.27-1.75l-.275-.367c-.33-.443-.493-1.244-.377-1.731h2.7s-.27 2.08-.894 3.87c-.625 1.788-1.224 2.461-1.806 3.194-1.43 1.8-5.253 4.186-5.253 4.186z" fill="#E94343"/><path d="M282 310l.03.668c.013.292.257.456.533.37l.137-.043c.162-.197.102-.48-.157-.646L282 310zm1.849-1.797l.256.618c.113.27.398.34.628.165l.114-.087c.085-.241-.069-.486-.369-.554l-.63-.142zm.494-2.153l.588.32c.257.138.523.014.592-.267l.034-.14c-.086-.24-.36-.334-.635-.198l-.579.286z" fill="#212121"/><path d="M283.915 314.077l.12 1.3s.694-.34 1.008-.55c.315-.208 1.092-.833 1.092-.833l-.301-1.416-.134.118a21.659 21.659 0 01-1.744 1.353l-.041.028zm3.46-3.012l.51 1.158s.503-.681.739-1.01c.236-.33.71-1.04.71-1.04l-.71-1.08s-.378.746-.622 1.117c-.245.372-.627.855-.627.855zm1.959-3.864l1.095.217.58-2.028-1.206-.172s-.167.708-.262 1.064c-.094.357-.207.919-.207.919z" fill="#316316"/><g transform="translate(218 263)"><path d="M5.93 4.937L4.67 4.6C2.004 3.883.257 1.112.463.017c0 0 1.625.37 2.751 1.075S5.14 2.14 5.14 2.14c.994.485 2.701.857 3.795.831l9.643-.227c5.518-.13 13.88 1.977 18.63 4.797 0 0 .633.12 4.617 3.008s8.517 9.204 8.517 9.204l6.558 5.918c1.231 1.11 2.469 3.332 2.767 4.973l1.683 9.272 1.456 2.249c.599.926.393 2.246-.315 2.829l-3.583-.606c-.549-.093-1.346-.453-1.767-.793l-5.143-4.16-.112-.132c-1.789-2.11-3.51-6.037-3.848-8.79l-.027-.224-8.282-7.046c-.84-.714-2.363-1-3.42-.633l.087-.03c-1.048.364-2.141 1.516-2.444 2.583l-.716 2.52-1.326 23.214h-2.56s-.768-10.657-.78-16.018c-.013-5.36.709-14.124.709-14.124-5.06 0-15.665-2.23-15.665-2.23l-3.66 8.708-3.082 4.475C4.99 34.438 3.709 39.32 4.01 42.624l.798 8.764-2.444.09-.962-8.95c-.294-2.743.104-7.115.868-9.76 0 0 .912-2.892 1.195-4.63.282-1.739 1.343-11.356 1.343-11.356s-.22-6.688 0-8.349c.222-1.66 1.121-3.496 1.121-3.496z" fill="#A5693B"/><path d="M.386.051l.482 2.137c.296 1.311 1.619 2.462 2.956 2.57l2.053.167-1.145-.497C3.497 3.89 1.92 2.525 1.208 1.378L.386.05z" fill="#FFE3CD"/><path d="M50.17 24.374s-3.277-.614-3.998-.424c-.722.19-3.65 1.266-3.65 1.266s1.832 1.534 2.9 2.196c1.067.662 2.423.928 2.423.928l2.325-3.966z" fill="#FBD899"/><path d="M13.588 18.035L9.77 26.991l-.695 2.583c-.759 2.823-1.285 7.48-1.175 10.403l-.014-.35c.104 2.762.98 7.087 1.962 9.672l.492 1.295 2.19-.526-1.962-8.82c-.635-2.855.258-7.066 1.966-9.442 0 0 2.269-2.838 3.653-5.744 1.385-2.905 2.295-6.748 2.295-6.748l-4.895-1.279zm20.527 6.308l1.903 26.362 2.596-.308v-27.93l-.94-.315c-1.182-.396-2.58.187-3.125 1.302l-.434.889z" fill="#794924"/><path d="M49.67 25.21l.51-.878-3.174-.445a3.117 3.117 0 00-1.299.14l-3.181 1.183s2.64-.66 4.042-.672c1.403-.013 3.102.672 3.102.672z" fill="#523C17"/><ellipse fill="#2D2C2C" transform="rotate(67 61.633 42.967)" cx="61.633" cy="42.967" rx="1.5" ry="1"/><path d="M55.5 34.704c.828 0 1.5.624 1.5-.204a1.5 1.5 0 00-3 0c0 .828.672.204 1.5.204z" fill="#3F3F3F"/><g transform="translate(9 5)" fill="#FFF0BE"><circle cx="1" cy=".5" r="1"/><circle cx="3" cy="2.5" r="1"/><circle cx="17" cy="2.5" r="1"/><circle cx="13" cy="2.5" r="1"/><circle cx="7" cy="1.5" r="1"/></g></g></g></svg>