<svg width="567" height="570" xmlns="http://www.w3.org/2000/svg"><g fill="none" fill-rule="evenodd"><path fill="#E581B2" d="M0 0h566v570H0z"/><g transform="translate(109 39)"><path d="M.045 322.513s9.25 2.561 13.76 3.459c4.512.897 41.578 3.349 41.578 3.349l22.89-15.22-10.376-13.126-1.788-22.314-26.95 7.97L5.61 270.844l4.851 24.62-10.417 27.05z" stroke="#D0CFCF" fill="#E1E1E1"/><path d="M12.714 274.603l11.148-47.43.378-7.318c.142-2.755 2.402-5.635 5.047-6.433l1.059-.319-1.032-10.007a4.754 4.754 0 014.474-5.272l5.74-.355 13.597-11.336 10.178-20.613c1.224-2.479 4.042-5.78 6.299-7.379l19.503-13.81c2.255-1.597 4.676-.725 5.401 1.925l-.212-.777c.728 2.66-.289 6.37-2.277 8.295l-11.451 11.08c-1.59 1.54-3.627 4.425-4.542 6.434l-.872 1.914 20.902-3.876 18.906 8.182c3.549 1.535 4.431 5.197 1.97 8.182l-2.878 3.487-20.484-5.681-20.46 4.746-4.994 5.927 20.511 17.505 6.786-13.622s2.926-3.526 4.533-3.883c1.607-.356 7.411 1.236 7.411 1.236h0c2.135 1.296 1.438 6.113-1.556 10.756l-2.935 4.55-3.721 9.13 2.862 2.717c2 1.897 2.008 4.977.006 6.891l-2.067 1.977-6.756-2.34-9.434 19.79-25.592 25.727 10.455 3.945-30.807 7.641-25.096-11.586z" stroke="#BFBFBF" fill="#FDFDFD"/><path d="M90.474 142.539l-24.306 19.442-9.2 20.008s-11.593 17.382-11.882 23.25c-.29 5.867 7.784 59.918 7.784 59.918l-5.753 12.486 9.918 2.337 4.566-8.58 24.464-23.071 7.112-17.555 15.971-32.398-7.222-2.357-7.56 4.564s-3.387 9.117-6.223 10.452c-2.836 1.335-6.658-4.39-6.658-4.39l-2.578-1.406-8.026-17.218 23.722-5.434 19.327 3.057 5.715-7.331-27.453-9.192-19.091 4.907 3.69-3.276 17.777-18.532-.978-10.13-3.116.449z" fill-opacity=".217" fill="#C4A2A2"/><path stroke="#CABF8C" fill="#E8CCA1" d="M9.034 288.293l31.935 7.605 26.298-6.913v8.32l3.198 8.684-28.05 13.758-37.137-10.323 5.343-14.54z"/><path d="M347.725 77.233s-14.236 15.765-20.964 23.94c-6.728 8.176-13.655 18.13-13.655 18.13l-6.555 9.629-6.316 13.62-2.119 29.345 2.12 13.763 8.54 1.855 15.679-9.228-12.043.74-.45-3.562 2.985-34.55 42.533-52.743 1.94-.763-11.695-10.176z" fill="#413E3E"/><path d="M357.624 98.655l2.083 2.897.396 3.344-23.487 27.861-.596 4.924-5.703.807-2.89-3.42-1.823 26.879h24.459l26.436-26.878-2.328-2.11-7.218 3.956-5.098-7.905 13.469-9.898v-15.236s-1.23-4.066-2.903-5.923c-1.674-1.857-6.445-5.265-6.445-5.265l-8.352 5.967z" fill="#837A84"/><path d="M329.199 144.008l8.102 3.395 3.364-8.479 13.553-18.669 5.68 1.42 5.603-2.739 6.48-8.296.899-10.598s-.43-2.253-.899-2.746c-.469-.494-6.803-4.54-6.803-4.54s-5.51 3.551-7.326 6.056c-1.814 2.505-21.707 33.979-21.707 33.979l-.52 5.441h-6.644l.218 5.776z" fill-opacity=".632" fill="#D8D8D8"/><path fill="#251C2B" d="M327.712 135.383l.73 1.74 1.74 1.402h5.225l1.317-5.557 24.707-29.499-4.017-4.978-24.434 26.012z"/><path fill="#FD6DCB" d="M370.624 96.174l49.43-50.038-3.219 21.783-41.252 49.72-.585-13.7z"/><path d="M347.795 77.454l10.54 9.481-43.504 52.58-5.837 34.196 2.438 5.403h12.331s13.462-7.996 19.888-12.196c6.425-4.2 5.917-4.671 5.917-4.671h-24.724l3.384-27.455 10.445-15.932s2.815-1.563 3.945-2.71c1.13-1.149 14.075-15.59 14.075-15.59l9.49-7.998-1.789-10.225s-2.217-2.97-3.354-3.305c-1.137-.334-13.245-1.578-13.245-1.578z" fill="#221E1E"/><path fill="#E063B5" d="M371.772 94.877l2.934 8.882.463 15.418 11.327-14.068-4.049-20.841z"/><path d="M167.46 525.337l-1.845-10.916v-16.613l-16.214-42.915 2.696-31.634-24.585-25.562-8.246-14.281v-29.907s15.81-16.424 24.14-24.01c8.33-7.584 12.295-12.048 12.295-12.048l39.076-32.328 4.86 8.54 20.104-14.117 16.521 4.923 34.936 2.789 15.931 19.216 24.292-9.671 43.563 95.485-25.535 37.215-11.594 18.864-4.006 11.565 5.078 14.68-13.58 53.487-137.887-2.762z" stroke="#A74486" fill="#A74486"/><path d="M106.447 329.974l-22.479 30.172-18.774-36.965-6.936 5.46-41.604-1.352s2.93 43.206 6.017 64.211c3.087 21.005 7.161 33.304 7.161 33.304s5.576 14.378 9.777 21.838c4.202 7.461 9.179 14.705 9.179 14.705C55.146 471.045 68 473.5 77.45 466.8c0 0 7.472-5.077 19.526-14.229 12.055-9.152 46.502-36.814 46.502-36.814l-15.995-17.69s-6.617-11.173-7.621-16.977c-1.004-5.804.37-17.097.37-17.097.274-2.74 1.479-6.97 2.69-9.446l4.56-9.325-21.036-15.25z" stroke="#616161" fill="#A74486"/><path d="M127.079 344.138l41.628 27.49 10.745 25.59-22.282 27.374-9.47-2.864-19.956-24.51s-5.806-6.846-6.933-13.692c-1.127-6.846-1.787-6.15-2.681-9.415-2.692-9.825 2.03-1.886 2.03-1.886l1.445-16.648 5.474-11.44z" fill-opacity=".248" fill="#48668D"/><path fill-opacity=".451" fill="#56749D" d="M215.996 373.698l22.374-3.226 9.241-12.521 19.258-7.641 21.12 7.437 9.758 11.125 10.198 2.092 17.14-39.654 28.005 59.555-27.364 42.962-12.29 21.88-26.23-5.317-6.738-15.773-19.287-10.428-24.084-8.83-26.556-38.41z"/><path d="M130.106 345.964l38.263 23.619L186 397.516l4.503-63.116s3.165 6.135 3.434 6.029c.269-.106 9.081-10.946 9.081-10.946l8.34-20.756 3.648 2.864v14.94l14.425 3.887 7.078-13.613h10.24l1.25 8.984-11.49 11.557 5.512 14.53h34.186s4.707.545 10.355 4.815c5.649 4.27 8.511 9.634 11.865 11.538 8.107 4.605 8.959 1.354 8.959 1.354l18.966-37.801-15.632-36.345-26.668 11.129-13.344-19.747-51.015-7.753-20.448 12.826s6.753-9.892-11.88 0c-18.633 9.893-31.48 27.13-31.48 27.13s-4.194 3.298-7.935 6.767c-3.742 3.468-2.566 3.822-4.063 4.629-4.92 2.65-13.78 15.546-13.78 15.546z" fill-opacity=".214" fill="#F5EEEE"/><path d="M299.03 146.476l2.428-5.845 5.032-12.11 25.351-35.05 16.236-16.106 15.213 2.944 2.873 11.848 4.551 4.35 4.81-7.886-1.98-38.023-7.34-17.66c-2.332-5.613-8.455-12.668-13.686-15.764l-12.22-7.23-32.647-8.216L273.69.57l-9.145 1.374-21.12 1.088c-5.519.284-13.84 2.82-18.568 5.654l-16.04 9.616-10.22 7.701-17.26.917-15.387-6.027 1.677 2.127c2.053 2.604 6.287 5.489 9.455 6.443l2.244.676 16.047 1.718-18.89 16.673-8.047 13.62c-1.968 3.33-3.878 9.153-4.268 13.004l-1.584 15.653 6.484 12.64h10.258l-3.746 9.692-2.432 12.896 1.347 7.172 2.45-1.92-.344 17.004.66 5.353-46.001 50.913-8.93 22.37-8.23 17.16-7.327 23.429-.37 14.814 6.611 15.598 11.939.156 6.693-9.728-8.857-2.523-2.02-9.907v-14.41l9.255-40.45-3.324 32.602 6.52 21.813 2.673 5.64h4.443l8.809-27.219 9.301 6.145 15.756-3.029 7.68-9.697 11.866-12.035 8.898 1.494 11.232 6.986 10.71-.505 13.607-9.907-2.86-10.56 7.995-7.7-3.277-1.58s-12.346.433-15.465-1.287c-3.12-1.72-5.238-6.387-5.238-6.387l-16.954-21.181-8.414-15.082h0c-3.159-7.33-4.321-19.845-2.598-27.945l1.887-8.865v-7.363h0c-1.662-4.984-2.737-18.874-2.525-26.524h0l.484-7.909 12.688-4.374 19.962-3.574 10.539-10.096L220.177 87l14.876-2.402 25.305-22.803-8.54 14.935 25.913-22.19-1.011 14.134 11.207 20.654-5.048-20.843 12.114 20.103 9.201 7.12-3.942.56-1.348 14.41v14.726" stroke="#46362E" fill="#6A485A"/><path d="M103.698 331.75l-15.406 20.453-3.683 4.417 10.125 26.08-.868 48.23-11.848 33.142 61.96-47.796-16.835-17.602s-6.518-12.624-7.423-19.083c-.906-6.46 1.917-20.206 1.917-20.206l6.217-14.412-24.156-13.221z" stroke="#783160" fill-opacity=".359" fill="#214370"/><path fill-opacity=".367" fill="#56749D" d="M29.824 327.771l2.403 18.114 27.589 48.713 11.172 25.47 3.747 7.754 19.944 4.502 2.088-50.048-31.947-58.152-8.706 5.225z"/><path stroke="#2B2B2B" d="M299.951 146.96l-.375 4.389-1.442 16.872.545 5.109 1.356 12.732 9.356 1.342 31.91-19.076 13.382-9.77 21.56-23.852-1.332-15.546 42.398-51.245 3.613-21.727-48.62 48.51-2.187 1.997-3.78-4.636-2.663-12.515-16.39-2.472-15.568 17.626-16.544 20.973-13.394 23.164"/><path d="M177.95 152.774l-46.74 52.27s-6.721 29.903-4.7 47.866c1.334 11.85 6.256 23.531 9.81 28.557 3.553 5.026 3.687 1.742 3.687 1.742l17.686-24.338s9.59 3.095 17.42-2.72c5.205-3.866 8.496-16.112 15.39-20.648 6.895-4.536 10.155-.096 13.834 1.02 4.804 1.458 7.834 4.846 10.763 5.651 2.928.805 11.012 0 11.012 0l11.891-9.126s7.7-14.63 4.402-18.295c-3.3-3.666-25.902-14.093-25.902-14.093l-38.554-47.886z" fill-opacity=".671" fill="#4F3442"/><path stroke="#2B2B2B" d="M365.133 92.504l-8.64 5.788 3.176 3.483.274 3.02-22.617 24.41-3.315 9.021-4.637-.19-1.89-2.997-2.151 27.206 23.06-.285"/><path stroke="#2B2B2B" d="M367.525 106.864l-25.681 28.818-3.434 7.526-1.688 14.893"/><path fill-opacity=".819" fill="#DBA859" d="M373.833 115.666l-12.693 13.753 4.559 8.666 10.648-4.671z"/><path stroke="#2B2B2B" d="M375.366 103.61L411.8 63.07l-.496-6.856"/><path d="M230.846 213.253c7.736 0 19.544-2.94 26.372-6.564l1.735-.921c8.782-4.662 21.49-14.24 28.387-21.397l10.847-11.255 1.684-26.86V125.33l5.698-19.69c1.687-5.83-.587-13.887-5.058-17.972l-14.717-13.45 3.934 15.452-14.874-35.566-21.852 22.156 5.115-11.174-24.694 20.74-11.669.516 7.908-9.132-12.894 8.32s-5.822-.515-8.367 0c-2.545.513-15.13 4.436-15.13 4.436-1.583.49-2.89 2.23-2.918 3.88l-.247 14.662c-.075 4.414 1.608 11.118 3.756 14.971l1.032 1.851-4.617 23.767c-.843 4.34.051 11.075 1.992 15.033l6.002 12.243s3.198 6.472 5.324 9.37c2.125 2.897 21.735 27.51 21.735 27.51h5.516z" stroke="#2B2B2B" fill="#FFDCCC"/><path d="M192.03 121.734l21.258 3.995 27.751-8.894 49.498-23.192-15.94-39.006s-9.127 10.076-16.356 17.315c-7.23 7.239-4.556 4.994-6.312 6.2-1.054.724 5.439-11.102 3.565-10.09-1.279.69-9.275 7.943-15.647 13.235-6.372 5.293-5.43 5.014-6.97 5.354-7.063 1.56-12.226 0-12.226 0s6.771-6.5 5.81-6.692c-.962-.191-9.303 5.973-9.87 6.062-.552.086-5.069-.467-10.322.63-5.253 1.096-14.239 4.473-14.239 4.473s-1.662 5.12-1.75 7.853c-.087 2.733 1.75 22.757 1.75 22.757z" fill-opacity=".711" fill="#FFE6DB"/><path d="M220.29 205.344l4.77 7.838s13.029 1.225 16.853 0c3.823-1.226 14.284-8.894 14.284-8.894s12.703-5.793 17.201-9.262c4.5-3.468 25.523-23.677 25.523-23.677v-13.693s-18.293-5.49-25.523 1.749c-7.229 7.239-4.555 4.994-6.312 6.2-1.054.724 1.874 2.134 0 3.145-1.279.691-5.709-5.292-12.081 0-6.372 5.293-5.43 5.014-6.971 5.354-7.062 1.56-12.225 0-12.225 0s.962 2.725 0 2.534c-.962-.192-3.493-3.252-4.061-3.164-.552.087-5.068-.467-10.321.63-5.253 1.096-14.165-7.153-14.165-7.153s-11.744-.934-11.831 1.8c-.038 1.17 2.079 8.452 7.304 15.943s17.555 20.65 17.555 20.65z" fill-opacity=".529" fill="#FFE6DB"/><ellipse stroke="#262525" fill="#614C67" cx="267.5" cy="118.5" rx="9.5" ry="7.5"/><path d="M349.325 75.69l-9.15-33.3-10.606-9.799c-6.49-5.996-18.316-13.711-26.42-17.233l-7.767-3.377-32.2-9.295L276.224.54l20.957 5.857 26.971 8.742 10.3 8.613c4.238 3.544 9.55 10.473 11.875 15.501l-4.202-9.083c7.072 15.289 13.451 44.904 13.543 47.356h0" stroke="#2B2B2B" stroke-width="2" fill-opacity=".59" fill="#F256C5"/><path d="M375.575 120.606l12.678 21.95 11.444 6.348 21.899-3.096h0c10.918-3.914 34.7 5.002 34.7 5.002h0v11.523l-24.187-9.03-29.7 5.265 17.868 16.873c11.647 10.998 23.462 32.68 26.423 48.42 0 0 1.652 9.365 5.643 29.06 3.991 19.694 0 64.822 0 64.822l-11.988-42.32c-1.355-4.784-6.281-9.952-10.988-11.538l-6.95-2.342 21.6 29.71-23.128-13.326-9.369-25.901c-2.065-5.708-8.533-11.448-14.453-12.823l-29.864-6.932H348.96l-12.451 10.407-11.58 10.242-15.918 3.932-9.754-7.428v-18.568l1.696-13.953 4.342-21.549 3.716-6.037 38.575-24.736 27.99-28.394v-15.58z" stroke="#2B2B2B" fill="#4F3844"/><path stroke="#2B2B2B" d="M241.265 213.735l18.308-.296 25.174-11.519 20.064-13.64.459 14.134-4.849 16.22-.393 19.06.804 13.568 8.234 6.394 3.485 2.071-12.603 7.756-8.334-1.825-23.449 15.185-24.649-1.825-22.266-6.54-5.521-23.714-2.977-.393-.577-5.492 14.564-.854 11.471-6.919V230.8l-2.975-7.809z"/><path stroke="#2B2B2B" d="M258.264 213.801l3.959 8.528 42.61-19.145.394-14.742-27.425 17.992z"/><path d="M305.505 191.73l-6.744 42.171 1.73 30.788 82.45-30.788 55.062 33.377 14.519 49.229s1.703-31.619 0-47.445-14.52-77.332-14.52-77.332l-39.972-38.168-22.692-16.69s-21.064 21.17-32.035 30.401c-10.971 9.231-17.667 11.79-17.667 11.79l-20.803 8.407.672 4.26z" fill-opacity=".341" fill="#33212A"/><path stroke="#2B2B2B" fill="#434040" d="M262.77 223.627l-.889 11.83 20.852-6.362 19.523-10.09 3.418-15.463-33.832 15.957z"/><path stroke="#2B2B2B" d="M255.47 213.723l-2.801 10.451 2.271 10.369 7.088 2.48 1.561-14.984zm-15.873 3.117s1.092-2.88 1.369-2.968c.277-.088 5.889.65 5.889.65l-.434 9.688-.434 9.701h-6.804l-4.106-11.125 4.52-5.946z"/><path stroke="#555454" stroke-width="4" d="M257.127 256.767l25.223-7.429 16.16-15.145"/><path stroke="#2B2B2B" d="M235.26 237.04l2.35 12.64 3.092-6.573-.642-7.492-2.843-1.414z"/><path stroke="#CE77AC" fill="#EF82C4" d="M240.939 242.325l12.687 2.843 7.492 3.666-3.254 6.95-17.613 15.248-3.896-1.414-.79-8.827 2.436-11.8z"/><path stroke="#2B2B2B" d="M213.783 248.518l1.183 12.456 4.795 17.55 21.215 7.114 29.334 1.052 26.588-19.16"/><path d="M311.969 223.152s-1.71 5.39-2.123 8.236c-.413 2.846 0 6.4 0 6.4s3.712 4.431 6.217 5.66c2.505 1.228 7.832 1.23 7.832 1.23l16.737-8.493-.98-3.81-27.683-9.223z" fill="#EDEAEA"/><path stroke="#2B2B2B" d="M165.01 237.148l3.048 8.96 11.777-5.323 5.249-5.634-3.817-1.769-14.414.613z"/><path d="M149.21 251.91l-8.412 30.712-4.18.646-13.585 17.562-7.083 15.927-32.816 44.43-18.293-37.51-6.689 5.749h-4.975l-37.337-3.037 6.934 66.152 13.345 48.754 13.993 21.721c5.682 8.821 17.236 11.047 25.789 4.985l22.14-15.693 43.223-35.037 9.635 2.918-1.753 34.748 16.282 43.556 1.687 29.007" stroke="#A74486"/><path d="M119.585 435.785c-1.708 1.397-2.863 4.31-2.582 6.496l1.913 14.894c.634 4.93 3.546 12.158 5.04 14.171h0l.565-16.981c.054-1.651.803-4.125 1.685-5.548l7.579-12.224 2.986 15.464c.628 3.254 3.3 7.488 5.972 9.458l12.521 9.237-5.792-16.058 2.34-31.53-7.784-7.377-24.443 19.998z" stroke="#545454" fill="#49313E"/><path stroke="#2B2B2B" d="M382.952 526.66L356.701 510l-17.734-15.344-20.362-16.356-5.623-13.127v-10.13l40.618-61.687"/><path d="M314.698 465.823l5.537 4.06c5.791 4.246 15.979 5.783 22.77 3.427l3.233-1.123-17.603-9.087-.6-2.818c-2.066-9.723 1.546-23.674 8.077-31.17l2.116-2.43-1.57 8.13c-1.048 5.418.207 13.759 2.806 18.637l.82 1.541 2.025-10.009c1.314-6.495 6.63-15.05 11.868-19.103l10.733-8.305 7.946-9.26-3.413 13.47 19.081-19.22.809 23.323.39-.22c6.253-3.536 12.456-12.113 13.852-19.15l.938-4.729-43.415-34.391-9.86 30.934-12.083 22.517" stroke="#2B2B2B" fill="#30222A"/><path d="M408.809 402.8l31.192-25.593" stroke="#2B2B2B"/><path d="M401.82 401.362l46.412-42.228-45.599-34.424s-10.91 18.39-17.604 25.352c-6.695 6.962-23.778 18.087-23.778 18.087l40.57 33.213z" fill="#302E2E"/><path stroke="#2B2B2B" d="M361.505 363.798l33.702-35.54 5.049-11.713 17.215 3.25 6.095 10.751 11.099 8.445 5.847.817"/><path d="M399.792 313.766l-34.421-14.86-9.138-49.013-15.677-12.225-13.512 14.024-15.003 2.942.634 4.5-12.184 7.666-30.091 19.216 15.873 20.586s9.478-2.787 14.218-4.89c4.741-2.103 10.625-6.133 10.625-6.133l42.87 94.256 7.756-22.818-1.779-3.703 21.013-18.338 19.66-27.22-.844-3.99z" stroke="#2B2B2B" fill="#313131"/><path d="M105.749 331.825l22.602 12.053s2.004-2.22 3.399-3.533c1.395-1.313 25.51-23.685 25.51-23.685l38.795-31.089 3.191 6.556 21.782-14.334-7.134-33.8-17.205 9.569-16.698 28.166-25.865 9.02-13.02 19.806-21.213 15.09-14.144 6.181z" stroke="#2B2B2B" stroke-width="2"/><path stroke="#CA64B6" fill="#F269BA" d="M132.802 336.983l-7.303-3.853 28.912-30.61 8.57 7.786 6.527-2.472-13.536-18.309-13.938 19.486-19.485 13.793-11.816 2.674-6.584 6.382 22.987 12.643z"/><path d="M320.975 480.004l-11.932 45.993" stroke="#2B2B2B"/><path d="M349.78 504.892l-14.66 23.544" stroke="#2B2B2B" stroke-width="3"/><path d="M121.385 310.156l-8.438 7.13-21.417-13.6.42 1.87c1.215 5.391 6.015 12.093 10.73 14.973l6.986 4.268" stroke="#2B2B2B" fill="#6A485A"/><path d="M212.686 376.462l11.447 20.864c2.658 4.844 8.826 10.762 13.784 13.187 0 0 4.733 2.437 7.116 3.274 2.382.838 15.117 4.337 15.117 4.337 7.983 2.221 20.55 1.191 28.054-2.294l14.253-6.618c9.015-4.187 16.786-15.62 17.357-25.547l1.283-22.318c.349-6.065-2.627-14.669-6.535-19.091h0" stroke-opacity=".343" stroke="#2B2B2B"/><path d="M229.68 90.104l3.13 3.595 7.295-4.187c1.912-1.098 5.24-2.194 7.433-2.449l7.555-.877c2.192-.255 5.697-.007 7.838.557l14.318 3.767-10.807-5.006c-3.094-1.433-8.346-2.976-11.72-3.445l1.018.141c-3.379-.47-8.815-.231-12.135.531l.628-.144c-2.694.619-6.743 2.354-9.051 3.88l-5.502 3.637z" stroke-opacity=".971" stroke="#785F4D" fill="#785F4D"/><path d="M191.746 93.37l6.233 1.636c.596.157 1.578.283 2.21.283h1.579c.548 0 .635-.263.186-.593l-.453-.333c-.5-.368-1.397-.702-2.028-.746l-8.038-.57.31.323z" stroke="#745238" fill="#785F4D"/><path d="M213.027 125.03l.518 13.692-5.803 4.736c-1.714 1.398-2.141 4.043-.959 5.902l6.098 9.588" stroke="#9B8B80"/><path d="M295.258 158.425c7.732 0 4.214-11.59 4.214-18.648 0-7.056-11.74-12.777-19.472-12.777-7.732 0-23.26 5.72-23.26 12.777 0 2.778 3.884 7.605 10.14 10.804 6.255 3.2 23.689 7.844 28.378 7.844z" fill-opacity=".104" fill="#FF6A63"/><path d="M198.603 146.318c4.2 0 14.947-6.032 14.947-8.881 0-1.74-4.572-5.146-9.415-6.457-4.842-1.312-6.54 0-8.176 0-4.199 0-3.768 8.134-3.768 10.983s2.213 4.355 6.412 4.355z" fill-opacity=".1" fill="#FF6A63"/><path stroke="#F894A9" fill="#FB9CB2" d="M269.906 148.194l10.406 13.812 4.525 9.555 7.808-11.074z"/><path stroke="#D98498" fill="#FB9CB2" d="M275.947 139.583l16.772 6.11 5.131 2.791.951-8.9-11.048-1.417z"/><path d="M449.55 310.84l3.45 8.01" stroke="#2B2B2B"/><path stroke="#9D9D9D" d="M28.074 213.254l31.643-3.116 29.66 20.976-4.856 4.617-26.632-15.937-20.533 1.78"/><path d="M33.17 197.435l34.443-4.026L89.56 213.12l11.093 9.258c2.542 2.122 2.486 5.501-.12 7.545l.048-.038c-.872.683-2.416.906-3.444.5l-7.577-2.992-28.76-17.855-22.858 1.764" stroke="#B9B9B9"/><path stroke="#BCBCBC" d="M42.248 195.319l18.693-17.294 18.913-5.761 16.072-2.942 19.841 8.703"/><path stroke-opacity=".288" stroke="#444" fill="#313131" d="M300.116 516.322l3.334-15.41-24.937-13.74-4.39.902-.59 3.474 2.785 7.398 11.097 13.003z"/><path d="M168.509 516.82l5.844.3 3.246-6.62c.729-1.488 1.148-4.017.933-5.666l-.567-4.353c-.394-3.032-2.896-4.307-5.582-2.849l.33-.18c-2.688 1.46-4.769 5.11-4.648 8.165l.444 11.203z" stroke="#4B4B4B" fill="#313131"/><path d="M162.566 319.185l-15.278 42.588c-.748 2.085-1.255 5.557-1.131 7.76l1.257 22.497c.154 2.753 1.319 6.978 2.594 9.42l7.67 14.683m59.064-131.793l-19.524 30.537-12.877 45.698-.162 39.409M161.02 419.2l8.73 82.351m16.279-99.487l8.148 71.054 5.478 52.688m17.642-29.596l6.447 30.357m44.722-237.02l-20.638 45.172-7.922 40.406 3.215 36.443 10.993 43.976 7.76 56.994 1.456 14.94m27.629-198.437l-11.946 55.882 9.54 33.933 2.262 42.768 3.396 28.662v4.792" stroke-opacity=".698" stroke="#2B2B2B"/><path d="M279.66 327.546l19.907.405c1.653.034 4.158-.61 5.593-1.436l2.807-1.617c1.436-.827 2.6-2.84 2.6-4.491v-5.815c0-.549-.382-1.229-.853-1.52l-.777-.478c-2.819-1.736-7.605-2.174-10.703-.975l-7.295 2.825-8.369 5.44-2.891 2.548-.019 5.114z" stroke-opacity=".579" stroke="#6C6B6B" fill="#403D3D"/><path d="M156.024 318.18l9.155.56c3.018.185 5.233-2.109 4.948-5.114l-.55-5.811-13.553 10.366z" fill="#3C3C3C"/><path d="M308.51 296.971l-9.176 12.268" stroke="#2B2B2B"/><path d="M338.79 416.71l5.497-49.558" stroke-opacity=".542" stroke="#2B2B2B"/><path d="M266.453 122.04c2.459 0 4.452-1.793 4.452-4.004 0-.572-3.56-.01-3.8-.502-.24-.491 1.171-3.502-.652-3.502-2.46 0-4.453 1.792-4.453 4.004 0 2.21 1.994 4.004 4.453 4.004z" fill-opacity=".304" fill="#000"/><g stroke="#FF3EB0"><path d="M205.979 332.218l.413-5.95c.307-4.408 2.09-11.221 3.981-15.214l-1.343 2.836c1.892-3.994 5.742-4.514 7.132-1.918 0 0-.449-2.019 0 0 .448 2.019.074 3.205.074 3.205a276.644 276.644 0 01-1.448 11.87l-.934 6.287h0c3.513.396 9.05 2.337 12.366 4.332l.086.052 4.431-8.46c2.817-5.38 10.015-9.845 12.258-10.17 0 0-1.938.554 0 0 1.939-.555 0 0 0 0 2.103-1.494 3.638 1.181 3.638 1.181s-.098-1.02 0 0 0 0 0 0c-.132 1.823-3.782 7.93-8.15 13.628 0 0-.35.474-.517.669-.167.195-6.277 6.2-6.277 6.2l.253 4.091c.342 5.517-2.043 13.584-5.327 18.019l2.216-2.993c-1.314 1.775-4.168 3.343-6.37 3.502l-5.497.396c-2.75.198-6.912-.783-9.292-2.19l-.593-.35c-2.382-1.408-5.86-4.157-7.783-6.154l.244.253c-.764-.794-1.274-2.327-1.14-3.423l.402-3.282c.335-2.744 1.953-6.76 3.608-8.965l1.04-1.386 3.209-2.899-.68-3.167z" fill="#FBFAFA"/><path d="M219.443 348.726l8.843-2.088m-14.719 1.464l-5.995-6.827m13.881 6.932l.102.969c.115 1.1 1.1 2.13 2.183 2.298l-.293-.046c.55.086 1.312-.162 1.708-.56l-.711.715c.75-.754 1.374-2.268 1.393-3.38l.01-.608m-14.398-1.019l-.768.6c-.87.68-2.296.687-3.17.026l.238.18c-.445-.337-.796-1.057-.784-1.618l-.02 1.008c.02-1.064.676-2.564 1.463-3.35l.43-.43m3.751 11.004l2.729 1.016-2.14 1.17zm.574 2.434l-1.023 1.043-1.733-.465c-.38-.102-.875-.438-1.114-.763l-.92-1.25m5.299 1l-.455 1.7.585.655c.572.64 1.698.965 2.516.724l.99-.291"/></g><path stroke-opacity=".571" stroke="#B0408A" stroke-width="2" d="M31.34 332.105l3.425 59.568 38.194 78.45"/><path fill-opacity=".294" fill="#A74486" d="M54.526 332.058l23.008 72.255 15.435 30.678 6.96-55.796-35.357-55.797"/><path d="M87.573 371.46l28.624-32.53m-23.783 67.76l29.084-27.593" stroke-opacity=".571" stroke="#B0408A" stroke-width="2"/><path stroke-opacity=".71" stroke="#6B6B6B" d="M27.909 277.495l5.762-14.723 1.258-36.648m9.593 53.244l8.277-17.04-7.753-31.5"/><path stroke="#BCB7B7" d="M36.441 220.957l20.382-1.873 25.318 15.075"/><path stroke="#929292" d="M40.582 209.247l23.194-6.89 16.949 11.606"/><path d="M85.884 218.702l11.745 10.07c.84.721 2.219.737 3.065.047l1.163-.949" stroke="#949191"/><path stroke="#969191" d="M56.864 192.756l14.356-9.93 22.045-5.344 15.536 6.38"/><path stroke="#ABABAB" d="M62.242 176.598l6.89-10.675 11.278-7.858 12.876-12.85"/><path stroke="#B5B5B5" d="M97.556 211.003l3.944-8.16 4.845-4.074 2.582.302"/><path stroke="#959595" d="M37.998 225.875l15.235-3.101 20.62 13.526 6.81-.804m-6.906 24.03l12.924-16.284 2.04-9.033M56.27 246.472l.56-9.865 6.276-1.796m-19.683-4.678l9.607-6.087"/><path fill-opacity=".291" fill="#AE7A58" d="M62.901 297.176l-20.487 5.81-19.898 1.604 37.556 1.991z"/><path stroke="#976371" d="M218.827 173.255l-1.67 1.448-2.021-.48 3.926 3.68v2.664l6.538 1.204 9.21-1.204 8.385-5.322-9.714 1.001-9.479-3.652z"/><path d="M214.348 173.499l.74-3.76c.107-.542.581-1.218 1.047-1.501l2.666-1.623c.472-.287 1.302-.447 1.84-.36l2.098.337c1.087.175 2.618.944 3.41 1.71l2.288 2.208 3.38 3.243h0c.834.857 3.297 1.55 4.21 1.55h0" stroke="#FF98B4"/><path d="M219.59 181.643l1.09 2.243c.837 1.723 3.06 3.015 4.971 2.885l2.545-.173 7.493-6.745-16.098 1.79z" stroke="#976371"/><path d="M241.148 117.07l4.475-3.912 2.88-4.74 4.675-2.879 6.08-1.027 7.746 1.54 6.656 2.181 4.625 3.515 2.657-.419 3.185-1.18-3.92 2.64 6.174 1.365 2.414-.547s-4.227 1.932-6.364 2.924c-2.137.991-2.515 1.196-2.515 1.196l-1.427-.962-12.686-3.977-8.332-.192-3.77.77-4.74 4.996-3.463 1.146-3.328 1.99-2.608.569 6.456-4.868-4.87-.128z" stroke="#2B2B2B" fill="#373737"/><path stroke="#333" d="M259.352 113.887l-1.355 3.713.762 2.237.89 2.88 1.012 2.165 7.675.962h6.359l3.388-3.605 1.856-4.091-3.954-2.234-5.871-2.118-6.6-.769z"/><path stroke="#2B2B2B" d="M250.201 128.546l9.551-2.367 16.4-.104 4.139.641m-43.823-19.426l4.61 2.565 6.008.32m-52.976 10.797l.549-.049 5.882-.52 4.29 4.25 2.974 4.859 2.877 3.057-4.931-4.032-3.802.263-6.257.35-1.205-.13.257-3.9"/><path stroke="#9B8B80" d="M193.57 113.396l4.079-.704 4.346 1.827m3.44-15.356l3.66 7.42m-4.256 12.453l1.887 1.948 2.628 5.195v1.758"/><path fill="#9B8B80" d="M218.537 150.22l4.554 5.86-4.562-3.048.008-2.23"/><path d="M320.123 479.765l-10.836 47.797 26.083.86 14.85-24.057s-4.486-4.103-9.926-8.677c-5.44-4.575-8.285-6.658-11.274-9.101-7.24-5.917-8.897-6.822-8.897-6.822z" fill="#3D3535"/><path fill="#312D2D" d="M336.08 528.27l1.007.002 47.007.09-33.586-22.794z"/><path fill="#A74486" d="M304.867 527.896l4.603.615 11.791-51.023-3.519-2.385z"/><path fill-opacity=".348" fill="#A8A8A8" d="M280.722 502.502l-3.811-5.484-1.936-6.384 1.982-1.99h2.594l6.278 4.72 2.928 1.512 1.634 4.16z"/><path d="M280.38 323.23v3.731l10.952.906 6.27.519s3.188-2.994 3.556-5.156c.368-2.161-1.397-7.52-1.397-7.52l-7.403-.893s-5.802 2.95-8.193 4.63c-2.392 1.68-3.785 3.783-3.785 3.783z" fill-opacity=".383" fill="#D9D9D9"/><path fill-opacity=".306" fill="#262626" d="M303.212 327.636l1.7-13.215 4.524-.99 1.302 10.212z"/><path d="M167.769 512.706l8.72-.825s-.6-1.845.428-1.845c.512 0 1.762-2.232 1.795-3.75.033-1.52-.187-2.595 0-3.367.065-.27-.041-.71 0-.92.04-.21-.794-3.437-.794-3.437-.789-1.662-3.475-2.1-5.995-.98l-.465.206c-1.687 1.396-3.18 4.975-3.334 7.998l-.355 6.92z" fill-opacity=".401" fill="#FFF"/><path fill-opacity=".617" fill="#788CA8" d="M299.187 460.45l-55.045 30.906 5.576 10.14 23.825-8.543 3.02-7.434 25.246 12.929 3.252 7.957-3.837 9.471-18.508-5.55v14.846l21.093 1.393 13.886-50.983-3.487-13.366z"/><path stroke-opacity=".635" stroke="#546A89" d="M55.339 333.954l20.782 61.732 13.846 35.707 5.593-6.573 2.11-44.01"/><path d="M116.157 432.886l19.465-24.394" stroke-opacity=".571" stroke="#B0408A"/><path d="M133.056 337.918l-7.894-5.576 28.91-29.633 9.493 8.182s-13.545 12.571-20.102 18.524c-6.558 5.952-10.407 8.503-10.407 8.503zm35.324-31.705l-12.85-16.903 23.108-6.72 19.462-30.617 15.366-9.115 5.148 21.358 2.254 13.801-21.041 16.074-3.544-9.07-26.09 21.76z" fill="#313131"/><path fill="#3C3434" d="M394.238 340.979l1.068 18.012 38.86-9.837-30.95-21.812z"/><path d="M360.488 363.281s11.302-10.08 17.246-15.237c5.945-5.158 4.028-3.482 4.028-3.482s1.263-2.313 2.365-3.7c1.102-1.387 12.575-17.16 12.575-17.16s2.232-2.495 2.509-3.493c.276-.997 2.062-3.782 2.062-3.782l11.067 2.723s4.552-.222 5.688 1.06c1.135 1.28 10.386 13.48 10.386 13.48l15.982 7.172 13.072 10.763-10.508 29.5-24.068 33.248-20.578-14.17 44.646-41.281-43.842-33.792-16.438 23.758s-9.005 8.153-13.63 11.655c-4.626 3.503-10.898 6.916-10.898 6.916l-1.664-4.178z" fill="#F269BA"/><path fill="#FDFDFD" d="M342.3 238.603l12.57 9.64 10.936 51.263 34.337 14.614v3.358l17.854 2.208 7.3 10.022 5.458 5.755 25.64 15.487v-28.934l-36.279-44.181-11.613-31.333-32.293-11.317-27.226-1.93z"/><path fill-opacity=".377" fill="#C4A2A2" d="M408.178 246.77l-8.714 52.013 10.686 5.519 5.388 9.744 6.696 3.768 17.473 17.28.118-15-7.478-7.065-13.423-33.983z"/><path stroke="#979797" d="M420.38 280.793l3.682 18.09 15.646 22.001"/><path d="M205.786 329.181l-6.31 4.53c-2.69 1.933-5.803 6.018-6.95 9.12l.658-1.778c-.767 2.073-1.238 5.537-1.052 7.747l.062.741c.278 3.307 1.802 8.336 3.406 11.236l.537.971c.534.966 1.707 2.25 2.62 2.869l.404.273c3.66 2.479 10.16 5.064 14.514 5.773l-2.23-.363c3.817.622 10.02.725 13.845.232l2.615-.337c1.638-.211 3.897-1.34 5.061-2.535l.587-.603c3.082-3.167 6.019-9.282 6.56-13.664l.641-5.182h0c-.103-3.458-2.284-8.59-4.456-11.001h0l-3.833 3.533-1.06 9.822c-.295 2.742-1.393 7.024-2.462 9.586l1.438-3.449c-1.064 2.553-4.081 5.232-6.74 5.986l-5.285 1.498-6.484-.69-7.717-3.734h0c-2.887-2.99-5.068-8.996-4.873-13.415l.083-1.882 7.287-8.675-.866-6.609z" stroke="#FF3EB0" fill="#EC68B6"/><path d="M214.845 327.392l-.791 6.413 7.21 1.098 4.594 3.301 3.356-7.334-1.158-.965c-2.12-1.765-6.07-3.246-8.838-3.239 0 0 .949-.093-.933.044-1.881.137-3.44.682-3.44.682z" stroke="#FF3EB0" fill="#EC68B6"/><path d="M213.96 243.099l11.543-.36s1.63-.548 2.4-1.098 10.692-6.3 10.692-6.3 1.209-.916 1.536 0c.328.915-.149 3.957-.273 5.315-.045.495.439 1.422.273 2.084-.165.662-2.777 6.164-2.777 6.164s1.654-3.877 1.632-3.776l-2.961 12.685v10.725l4.838 1.42 13.103-10.207 5.683-5.669 23.544-5.469 15.732-13.273.631 12.51 4.661 6.776s4.638 1.126 6.973 2.42c2.334 1.295 1.432 2.241 1.432 2.241l-13.697 8.442-7.53-2.726-21.74 15.72s-13.166-.238-19.736-.681c-6.571-.443-7.983-1.188-7.983-1.188l-21.107-6.608-6.868-29.147z" fill="#7B7B7B"/><path fill-opacity=".339" fill="#F0E4E4" style="mix-blend-mode:lighten" d="M215.527 250.147l-2.062-6.372 9.915 2.634L234.024 239l-10.845 11.62 3.158 1.751 3.724 12.31.324 7.427h-9.895z"/><path fill-opacity=".22" fill="#151212" d="M274.4 254.872l-18.983 12.998 11.678 5.045 12.108-8.586 5.657 4.07 8.812-3.581 7.343 1.992 8.604-8.607-9.58-7.79v-16.23l-18.024 15.598z"/><path d="M221.377 279.512l-.829-7.093s9.699 2.95 15.21 4.654c5.512 1.703 7.744 2.439 7.744 2.439l25.825 1.455 22.557-15.487 7.085 2.05-28.891 18.978s-11.86.208-17.718 0c-5.858-.21-12.418-1.074-12.418-1.074l-18.565-5.922z" fill="#F269BA"/><path fill="#979797" d="M258.945 254.353l20.303-4.64 19.524-14.515 1.244-14.77-25.235 11.636-14.443 4.631-5.41-1.693-2.682-9.926 2.683-11.399-7.774.368-.523 19.53-8.086.526 2.081 8.121 6.005 1.543 5.38.763 5.897 2.938 2.855 1.91z"/><path stroke="#7E7E7E" fill="#D8D8D8" d="M263.63 222.71l40.486-18.518 1.36-15.845-25.882 16.639-22.51 8.779z"/><path stroke="#525151" fill="#6C6969" d="M255.112 214.317l8.952 9.352-1.178 12.775-7.766-2.29-2.618-7.447z"/><path fill="#6D6A6A" d="M239.392 233.891l7.235.135.125-19.94h-5.502l-5.502 8.565v2.162l.271 2.607.768 1.574z"/><path stroke="#656565" fill="#F5F5F5" d="M110.345 324.909l16.76-2.124 14.464-14.324 13.661-18.325 25.844-9.52 15.958-27.912 16.281-9.747-16.606-8.624-6.577 1.655-16.508 21.888-13.846 1.655-11.232-6.827-8.429 26.917-3.383 3.53-13.49 17.298-9.736 19.99z"/><path fill-opacity=".38" fill="#C4A2A2" d="M141.984 294.946l17.701-30.689-9.364-8.38-6.769 16.198z"/><path stroke="#979797" d="M122.04 312.631l11.54-10.454 9.515-14.149-.307-7.236"/><path stroke="#656262" fill="#F069D4" d="M123.143 304.8l9.276-7.328 7.307-13.325-5.028 4.342z"/><path d="M166.35 233.745h19.315s-3.123 5.346-5.689 7.598c-2.565 2.25-6.586 3.174-6.586 3.174l-5.56 1.987-2.296-5.161s-1.117-2.393-.986-3.612c.131-1.219 1.802-3.986 1.802-3.986z" fill="#F5F5F5"/><path fill-opacity=".526" fill="#FFE8AB" d="M368.59 127.125l.582 4.276 5.837-1.834-.583-6.254-5.851 1.199v1.61z"/><path d="M348.24 76.899l8.002 1.153-3.062-13.911c-.95-4.315-2.254-11.355-2.998-15.705 0 0-.504-4.948-1.942-7.55-1.437-2.602-6.341-9.17-6.341-9.17l-1.66 10.53s3.196 10.823 4.446 16.235c1.25 5.413 3.555 18.418 3.555 18.418z" fill="#282828"/><path d="M266.292 3.393s11.394 3.21 16.83 4.848c5.437 1.638 19.763 6.178 19.763 6.178l1.033-5.091s-9.373-3.741-14.148-5.212c-4.776-1.47-14.012-3.46-14.012-3.46s-6.604.331-8.427.971c-1.824.64-1.04 1.766-1.04 1.766z" fill="#232323"/><path fill="#45313B" d="M317.35 467.97l-4.594-4.442.755-9.036 40.223-60.764.217 3.302-18.392 32.745-8.534 14.067v6.458z"/><path fill-opacity=".275" fill="#F6F7CB" d="M13.37 289.933l16.273 4.837-4.314 9.006 25.704 8.453-2.314 4.476-17.92-.796-20.947-7.16.217-12.405z"/><path fill-opacity=".219" fill="#B68E71" d="M230.023 90.57l3.172 2.989 6.393-3.812-3.279-3.897z"/><path d="M239.867 213.206l9.526.398h6.871s17.05-6.363 23.542-9.977c.905-.504 2.238-.813 3.525-1.598 1.288-.785 22.176-14.723 22.176-14.723l-5.385-.811-1.987-13.103-24.398 23.078-33.87 16.736z" fill="#FFDCCC"/><path d="M241.999 211.367s12.699-4.256 19.491-8.056c3.226-1.805 6.345-2.874 8.597-4.12 2.252-1.244 3.948-2.836 3.948-2.836s9.296-6.711 13.243-10.629c3.947-3.917 10.897-10.826 10.897-10.826l-.467-3.585s-6.581 6.64-10.43 10.199c-3.849 3.559-13.243 13.87-13.243 13.87L242 211.367z" fill="#A9958D"/><path fill-opacity=".247" fill="#B4B4B4" d="M28.207 326.458l7.35-7.983 7.249 2.22 16.858-5.14 12.03-7.5 5.482 5.283-23.565 14.676z"/><path d="M244.62 120.609l5.651 7.438 13.042-1.924s-3.246-2.093-4.056-3.425c-.811-1.332-1.157-5.128-1.157-5.128l1.157-3.036 2.227-1.572s-3.245-.038-4.148 0c-.904.038-3.14.462-3.14.462l-5.19 5.108-4.385 2.077z" fill="#FBEFE9"/><path fill-opacity=".572" fill="#D8D8D8" d="M261.19 120.495l1.751-.13.454 1.269-1.668.406z"/><path d="M273.004 116.075l-.09 2.32c-.047 1.222-.611 3.065-1.246 4.095l-1.057 1.713 2.011-.877c1.012-.441 1.99-1.68 2.187-2.767l.201-1.116c.196-1.087-.418-2.427-1.361-2.986l-.645-.382z" fill-opacity=".57" fill="#D8D8D8"/><path fill="#FBEFE9" d="M272.877 125.214l3.198-2.685 1.553-5.286 1.958.714-1.896 4.585-3.177 3.052z"/><path fill="#454545" d="M251.833 108.507l4.29 1.698 8.893-.732-5.996-2.329z"/><path d="M210.321 131.605s-3.542-5.978-5.802-8.57c-2.259-2.59-4.174-3.196-4.174-3.196h-4.133c-2.204 0-3.532 1.73-2.963 3.87l.424 1.595 7.3-.332 9.348 6.633z" fill="#4A3A3A"/><path d="M208.359 130.487l-3.337-3.084c-1.5-1.387-4.38-2.444-6.406-2.362l-4.836.196-3.664-2.146 2.343 3.875-5.705-2.838s2.05.975 2.872 1.6c.821.627 3.553 3.294 3.553 3.294l11.547-.105 3.633 1.57z" stroke="#373737" fill="#373737"/><path fill-opacity=".1" fill="#FF6A63" d="M261.451 206.956l19.263-15.812 17.343-16.225 3.513 13.113-19.78 8.93z"/><path fill="#C2647D" d="M216.338 175.427l3.192 2.345-1.342 3.406 8.169.31 8.8-1.68 6.894-4.381-8.646 1.019v.873l-9.537.453-.58-5.207-4.03.95z"/><path d="M218.264 181.11l1.432 2.308c.932 1.503 3.12 2.808 4.873 2.916l1.244.076c1.76.108 4.23-.776 5.524-1.98l4.742-4.413-10.836.51-6.98.583z" fill="#FF98B4"/><path d="M214.473 173.573l.922-4.532 4.147-2.833 4.793.603s4.597 5.284 7.365 7.258c2.767 1.975 4.817 1.433 4.817 1.433l-3.794.95-8.785-4.188-5.295 1.309-1.548 1.458-2.622-1.458z" fill-opacity=".899" fill="#FC83A4"/><path d="M217.539 174.569l-3.18-3.772c.19-1.878 1.865-3.642 3.614-3.919l3.23 6.084s-1.127.358-1.719.55c-.591.193-1.945 1.057-1.945 1.057zm5.658-2.004s-.736.288-.945.14c-.209-.147-.71-1.305-.71-1.305s-1.116-2.146-1.963-3.66c-.847-1.514-.989-1.12-.928-1.374.196-.825.708-.53.708-.53 1.695-.303 4.207.286 5.15.978l.149 1.176c.139 1.094-.244 2.731-.852 3.653l-.609.922z" fill-opacity=".676" fill="#FFA9C0"/><path d="M218.247 166.303l3.54 6.608" stroke-opacity=".36" stroke="#B7ACAF"/><path fill="#FFF" d="M223.046 172.735l.86 5.126 9.293-.319v-1.023z"/><path fill-opacity=".852" fill="#FFA9C0" d="M222.049 181.07l9.983-.125-3.274 3.643h-5.134z"/><path stroke="#4F3442" d="M129.65 429.822l-6.626 17.842 18.438-27.77 3.697 33.159M128.59 223.174l-13.231 39.782c-1.37 4.12-1.87 10.931-1.119 15.206l2.098 11.926 9.256 1.3"/><path d="M186.26 73.033s31.101-18.363 45.983-21.856c14.882-3.493 31.337 3.707 31.337 3.707s-8.066-11.777-6.102-16.572c1.964-4.795 20.748-19.192 20.748-19.192s-21.428 11.569-31.903 11.47c-10.475-.1-26.621-12.027-26.621-12.027s3.002 14.86 0 19.75c-3.002 4.888-33.442 34.72-33.442 34.72z" fill-opacity=".996" fill="#724B5F"/><path fill="#A74486" d="M422.903 414.12l33.35 18.663v-78.008l-10.517 27.083z"/></g><path fill-opacity=".318" fill="#302C2C" d="M314.58 229.222l-9.964 43.738 16.787 8.55h13.512l12.69-8.026-2.566-7.075-.41-4.243 4.642-9.504-15.464-.572z"/><text transform="rotate(-16 98.73 61.735)" font-family="GiddyupStd, Giddyup Std" font-size="36" fill="#333"><tspan x="28.23" y="67.735">Mai Nguyen</tspan></text><text transform="rotate(-16 116.694 89.44)" font-family="SFProText-Regular, SF Pro Text" font-size="14" fill="#333"><tspan x="77.694" y="94.44">09/06/2018</tspan></text></g></svg>