<svg width="545" height="545" xmlns="http://www.w3.org/2000/svg"><g fill="none" fill-rule="evenodd"><path fill="#D5D5D5" d="M89.234 484.53l-2.198 18.506 19.199 7.51 29.839-7.51-18.618-13.675-10.055-2.134z"/><path fill="#8DB7FF" d="M0 0h545v545H0z"/><ellipse fill="#CBCABC" cx="323.123" cy="175.726" rx="47.265" ry="28.805"/><path fill="#FFF" d="M87.392 503.88l.806-18.4 26.464 4.212 16.946 12.442 1.683 2.593-27.548 5.414z"/><path d="M113.751 145.072l12.788 10.136v4.667l3.78 25.67 17.385 16.222 10.002-10.932-18.24-17.415 21.644 10.515h1.509l4.57-15.662-12.561-4.878-5.742 3.3-5.273 1.578 1.39-12.198s-9.748-5.92-13.492-7.06c-3.744-1.141-17.76-3.943-17.76-3.943z" fill="#887878"/><path d="M255.234 487.788l82.544-2.794 83.026 6.737 1.722-57.838 1.121-11.212-5.536-2.814-3.38-15.558 6.073-4.987s-.446-5.584 0-7.736 2.843-20.838 2.843-20.838l-23.416 4.746-20.057 14.107-48.651 2.684-41.83.606-7.893 11.418 18.914 12.028 17.724-2.078 3.783 10.516-13.44 25.222-14.894 1.399-38.653 36.392z" fill-opacity=".964" fill="#6486E7"/><path d="M139.13 389.686l38.634 23.785 47.934 59.692 15.933 16.865s11.594 2.152 14.645 0c3.05-2.153 42.272-37.542 42.272-37.542l-9.3-10.127 21.013-27.616-24.734-9.281 3.72-11.544H339.1l44.408-3.668 24.57-14.23 16.079-4.087s4.493-18.163 4.08-23.93c-.412-5.766-7.142-12.603-7.142-12.603l-1.43-1.416-11.586 8.905s4.7-18.94 2.281-27.174c-2.42-8.233-10.796-1.801-10.796-1.801l-25.419-4.596-.952 7.46-61.014 9.752-9.585-6.24-44.542 13.694s-22.847 33.238-35.277 52.099c-12.43 18.86-6.494 6.275-6.494 6.275l-11.394-3.557-53.091-19.3-12.667 20.185z" fill="#83A6DF"/><path fill="#675252" d="M87.184 484.987l27.85 4.935 18.533 13.998 21.115-7.699.61-3.548L129.7 478.36l-35.075-12.304z"/><path d="M154.199 496.444l11.859-2.272-26.426-26.044v-14.006s-8.303-11.658-12.73-14.562c-4.428-2.903-17.484-6.091-17.484-6.091s-4.53 7.896-6.84 12.171c-2.31 4.276-8.696 21.177-8.696 21.177l35.861 13.657 24.456 15.97z" fill="#4E3C3C"/><path d="M117.895 435.006s36.927 22.257 54.624 34.563c17.697 12.306 14.855 13.75 14.855 13.75l-25.55-28.984v-9.451l-26.379-27.679s20.771 13.183 30.614 20.592c9.843 7.409 13.261 12.434 13.261 12.434l1.348 9.57 17.905 12.256 13.705 22.216-48.049 2.169-24.787-28.882-.753-15.37-20.794-17.184z" stroke="#3F3131" fill="#3F3131"/><path d="M108.654 433.469l17.948-25.376 6.148 6.195h13.746s12.197 2.213 17.171 6.736 20.06 21.66 20.06 21.66l5.415 8.302 12.542 21.978s-10.946-4.08-16.084-7.653c-5.139-3.573-4.467-6.64-4.467-6.64l-10.061-13.859-33.85-26.184 30.128 27.276-4.65 7.863 26.442 26.6-80.488-46.898z" fill="#675252"/><path fill="#3F3131" d="M159.304 418.092l-25.057-21.712-7.282 12.474 7.282 7.513z"/><path d="M290.833 129.523L252.036 100l-35.534-2.27 6.33 5.803 9.36 6.377-12.85 10.136 17.412 10.241 24.376.573s2.863 1.069 6.003 2.047c3.14.978 15.303 4.544 15.303 4.544l8.397-7.928z" stroke-opacity=".575" stroke="#957A6A" fill="#FEF2E1"/><path stroke-opacity=".279" stroke="#957A6A" fill="#FEF2E1" d="M344.827 78.622L331.442 90.27l-6.277 19.82 3.675 16.45 3.317 2.289 6.933 1.494 10.576-21.844 13.48-11.785-15.302-5.508z"/><path d="M258.485 130.734s-6.772.49-9.752 1.103c-2.98.612-17.72 4.54-17.72 4.54s12.367 7.165 17.72 8.563c1.762.46 4.436-.299 5.923 0 1.488.298 6.225 2.192 6.225 2.192s3.637-.297 5.497 0c1.86.298 8.199 0 8.199 0l5.064.938-.621-5.92s-6.565-5.598-9.84-7.62c-3.275-2.024-10.695-3.796-10.695-3.796z" fill="#404040"/><path fill="#333" d="M345.804 118.998l10.436-.12 5.844.998 1.673 7.931-3.09 5.2-7.14 6.308-8.9-.568-5.736-5.282.604-4.507 1.662-5.307z"/><path stroke="#000" d="M162.26 185.907l-5.039 6.652 17.576 10.087-7.185 4.544 16.468 14.208"/><path stroke="#F69EC5" d="M164.335 182.379l24.229 3.37 43.034-7.004-42.711-18.39h-4.668"/><path d="M391.236 143.927l-20.665 24.577h38.697s-3.787-8.371-6.356-12.288-11.676-12.289-11.676-12.289zm26.84 36.26l-33.42 12.802 33.97 12.007z" stroke="#F69EC5" fill="#F69EC5"/><path d="M350.315 195.113l-16.256 21.212" stroke="#000"/><path d="M79.17 241.319l-1.599 18.105c-.388 4.398 2.246 10.002 5.875 12.51l19.69 13.609 39.957-4.3 24.657-29.692-8.673-18.777-11.893 31.4-4.09 8.23H97.426l-9.625-10.476-1.359-10.377-7.273-10.232z" stroke="#DDD" fill="#F6F4EF"/><path stroke="#5E5CB7" stroke-width="4" d="M153.295 369.138l39.282 13.352 21.216 12.41 21.766-26.342 21.126-35.277 43.495-13.894 13.092 6.869 59.11-8.853 1.85-9.552 36.07 6.944 21.241 22.457"/><path stroke="#664D4D" stroke-width="4" d="M225.69 278.596l66.099 25.43 16.063 16.711"/><path stroke="#A73AA9" stroke-width="2" d="M228.299 273.211l53.275 19.153 36.197 21.534 39.961-5.917 22.449-40.024 8.637 4.882-18.557 43.876-58.709 7.937"/><path stroke="#8F506C" fill="#D477A0" d="M395.344 243.308l31.295 77.29-47.947-58.609z"/><path fill="#675252" d="M159.648 352.562l44.674 18.31 22.786-22.996-31.97 13.978 11.03-34.333 9.201-31.948 33.664 4.003-4.344-12.423 46.265 16.946 13.347 15.274L256.84 333.2l-26.179 41.689-3.552-15.578-22.786 21.107 1.846 8.436-23.632-10.814z"/><path d="M373.669 306.899l38.472 8.44" stroke="#000"/><path d="M321.317 281.223s7.252-2.063 10.516-2.761c3.263-.698 14.683 0 14.683 0v14.075l-10.867 3.998s-9.41-2.222-13.003-3.998c-3.593-1.777-9.59-7.17-9.59-7.17l8.261-4.144z" fill="#B65C84"/><path stroke="#B17999" d="M330.965 351.02l1.651 17.875 20.448 17.332 27.495.645 13.774-14.612-3.435-26.398-5.445-18.442-9.349-1.725-5.421 5.796-12.834-1.752-6.5 3.183-14.193-2.37-7.018 2.777 2.855 11.946z"/><path stroke="#000" d="M343.659 332.146l10.162 8.792 14.4-2.589 2.094-9.87 13.463-1.025 8.194 13.45-6.837 6.038 7.959 18.39-10.261 9.653-22.335 3.881-10.607-3.207-10.421-7.523.603-13.103-9.584-9.488-2.514-7.308 5.864-8.816zM98.21 466.874l33.294 11.834 23.368 12.668"/><path stroke-opacity=".651" stroke="#000" d="M90.257 493.525l17.03-.599 16.522 14.332"/><path stroke-opacity=".371" stroke="#000" d="M88.77 484.67l22.259 1.065 18.138 12.118 3.032 7.806"/><path d="M437.69 428.19l-1.83 63.379" stroke="#000"/><path d="M313.196 360.753c1.648-4.099-.308-8.84-4.365-10.588l-16.602-7.153-9.887 1.82 1.636 12.313 12.012 8.652 15.302-.308 1.904-4.736z" fill="#373737"/><path d="M325.504 418.296c-3.71-4.02-13.919-2.742-19.747.928h0l-15.842 18.914c-2.13 2.543-1.695 6.2.965 8.161l7.117 5.25 10.054-.358c1.653-.059 3.66-1.271 4.487-2.716l9.843-17.192 3.123-12.987h0z" stroke="#575757"/><path fill="#313131" d="M407.096 317.327l-3.86 10.233 4.794 15.361 12.925-8.337 7.351 10.459 3.741-9.603-20.73-19.541z"/><path fill="#2F2F2F" d="M419.566 398.011l-5.888 4.208.9 18.99 8.512.889 5.85-5.483z"/><path stroke="#A5B4F5" d="M260.29 338.196l-5.538 47.951-42.863 63.652m77.835-83.496l-19.287 49.763-37.636 61.382m-3.942-89.176l-11.82 25.33-19.488 15.152m-1.289-44.894l-22.591 26.207m150.539-82.982l4.844 68.803-7.377 53.38-12.65 36.223m52.201-96.116l-7.647 39.882-7.712 55.108m41.097-95.946l-2.11 20.902 8.04 39.223-5.93 41.081m5.578-173.995l13.089 61.932-2.024 38.186 14.365 28.815"/><path stroke="#77879E" d="M105.487 293.344l49.446-4.98 18.086-28.086v57.608l-15.12 21.251"/><path stroke="#000" d="M204.856 307.267l4.274-7.594 2.565-35.346 6.89 24.784"/><path stroke="#A99474" d="M234.072 64.595l13.307 8.943-7.24 8.995 33.472-5.723 1.923 10.262h20.785l-4.273 14.663"/><path d="M205.505 322.514l14.05-15.958s-3.131-9.237-2.707-13.256c.423-4.018 5.55-17.039 5.55-17.039l4.691 3.493 1.1 27.797-9.136 15.624-13.548-.661z" fill="#7F447C"/><path fill="#F69EC5" d="M180.812 168.416l-10.783-8.086h17.356l42.355 18.309-39.635 6.025-25.329-2.602-1.002-1.562zm.918 50.929l15.247 19.52 28.98-23.934-1.512-4.518-31.166.897z"/><path d="M200.105 312.79s-2.145-23.413-3.217-32.458c-1.072-9.044-5.328-47.611-5.328-47.611s4.343 3.068 6.835 6.34c2.492 3.273 16.362 24.117 16.362 24.117l-5.917 35.635-8.735 13.976z" fill="#C47D9D"/><path d="M222.247 277.604l69.936 25.8 16.53 20.563 60.726-7.18 18.667-43.532-7.375-7.748-22.467 40.058-43.966 4.118-20.524-9.788s-15.977-8.585-23.943-12.143c-7.966-3.558-10.987-5.461-10.987-5.461l-44.44-18.542 7.843 13.855zm200.06 143.928l7.1-5.092 8.47 12.154.156 62.782-15.726.468-2.603-1.423-1.086-44.44z" fill="#F69EC5"/><path fill="#E07FAA" d="M208.016 493.096l34.535-1.842-52.546-70.762-50.214-31.326-5.326 7.689 48.803 44.628z"/><path fill-opacity=".843" fill="#474747" style="mix-blend-mode:lighten" d="M293.872 344.546h-7.864l-3.815.154 1.5 12.026 12.494 9.401 6.113-3.166-9.403-11.07z"/><path fill="#656464" d="M284.35 346.138l5.105 12.677 9.988 5.945-1.837.99-15.055-8.782z"/><path fill="#3F3131" d="M437.643 491.979v-60.632l20.46 40.18-.352 20.452z"/><path fill-opacity=".649" fill="#7187CC" d="M257.625 334.767l19.006 27.736h12.602l-5.16-4.406-1.47-13.463 8.78-3.728 17.672 6.851-21.626-22.846z"/><path fill-opacity=".842" fill="#7384C6" d="M308.943 326.5l17.809 9.295 8.42-8.176 17.293 4.135 5.05-1.992 10.951-.766 10.221-4.868 9.283-3.214-4.173-10.816-9.329-.586.448 8.625z"/><path fill-opacity=".68" fill="#8282BC" d="M141.26 388.257l20.988 12.4 11.597-22.94-19.168-5.583z"/><path d="M123.597 297.362l-1.339 31.535 36.86 13.682 14.832-23.733-.793-60.16s-8.399 14.64-11.427 19.712c-3.027 5.073-5.048 9.55-5.048 9.55s-9.688-6.298-14.69-6.966c-5.002-.668-18.395 2.546-18.395 2.546v13.834z" fill="#8282BC"/><path stroke="#A5B4F5" d="M132.818 293.313l11.306 21.456 18.912 13.31m-11.148-37.222l18.759 14.17"/><path fill="#7FA0D6" d="M101.601 285.947L122.735 330l2.976-47.187z"/><path d="M157.305 341.563l8.812 4.224 25.414-13.96 9.78-26.673-9.205-73.788s-4.055-5.695-6.807-8.174c-2.752-2.478-13.404-10.028-13.404-10.028l-5.778-1.988-9.713-5.51.901 28.36 10.22 15.869-23.942 31.691v6.707h12.82l16.61-28.604-.207 56.246-14.472 23.378-1.029 2.25z" fill-opacity=".832" fill="#3C1675"/><path d="M163.012 222.19l16.256 41.12 7.907 20.807 7.627-4.466-2.138-48.348s-9.013-10.106-14.55-14.004c-5.536-3.898-11.988-4.679-11.988-4.679l-3.114 9.57z" fill-opacity=".383" fill="#1B0733"/><path fill-opacity=".262" fill="#1B0733" d="M174.51 313.265l13.306-3.509 8.983-15.874 3.422 15.859-12.509 12.865-17.332-1.7z"/><path d="M167.081 345.982l22.75-19.855 7.484-20.003 4.868 3.421 4.346-10.814s2.624-5.064 2.757-7.522c.134-2.459 4.93-27.12 4.93-27.12l8.609 11.304s-5.687 21.027-8.609 30.17c-2.922 9.144-7.687 24.029-7.687 24.029l-39.448 16.39z" fill-opacity=".892" fill="#675252"/><path d="M184.851 378.476l-6.825-15.559-14.251-5.56-11.66 8.867s9.188 6.192 14.408 8.146c5.22 1.953 18.328 4.106 18.328 4.106zm18.849 9.777l-6.494-3.661 28.998-27.846 7.237 14.482-18.89 22.293s-6.343-1.34-7.911-2.903c-1.57-1.564-2.94-2.365-2.94-2.365z" fill="#4E3C3C"/><path fill="#4E3C3C" d="M227.24 346.222l-1.15-10.202-20.546 18.019-41.009-9.459-3.029 7.552-7.957 12.23 59.272 27.153 15.037-42.36z"/><path d="M185.525 354.973l22.958 3.326 19.816-21.704-16.588-6.914s-13.355-.01-17.687 4.174c-4.333 4.184-8.5 21.118-8.5 21.118zm45.737-47.463l-10.383-30.092 25.726 10.006 2.483 12.458z" fill="#4E3C3C"/><path fill="#303030" d="M170.208 349.702l14.363 3.458 17.66-21.397-32.626 12.907z"/><path fill="#453734" d="M237.886 326.072l7.88 8.708 15-14.256-8.27-8.022z"/><path fill="#453B3B" d="M224.095 334.78l30.04-20.07-3.297-10.012-27.069 19.167z"/><path fill-opacity=".709" fill="#3C2C2C" d="M247.751 297.846l17.578 31.248 39.4-9.069-16.65-17.5-41.78-13.205z"/><path fill="#4F3434" d="M226.196 352.458l23.22-23.112 40.553-21.903"/><path fill="#F0F0F0" d="M339.92 352.053l4.474-1.15-3.931-12.154-9.23-3.065 4.253-5.125 11.553 4.131 7.23 6.274 13.323-1.894 2.464-.415 1.036-6.616 4.082-3.19 8.8-.166 5.058 5.954-2.062 9.319-2.053-8.915-5.7-4.886-3.119 2.63.695 11.347 5.965 4.048 2.967 3.396 3.557 8.359.635 5.343-7.059 7.766-8.005 1.49-9.121 2.455h-7.15l-11.4-5.29-3.932-3.046-3.54-8.769v-5.094z"/><path fill="#4F3434" d="M217.982 342.912l23.22-23.112 40.553-21.903"/><path fill="#383333" d="M292.195 444.537l4.979 6.203h14.468l12.467-21.73-3.854-16.057-23.974 29.763z"/><path d="M318.943 411.761l-14.137 7.163L287.881 441l4.689 5.442s13.765-13.553 19.527-21.13c5.763-7.579 6.846-13.55 6.846-13.55z" fill="#403F3F"/><path fill="#5A5959" d="M293.21 445.816l11.99-13.674-6.118-2.666-9.598 10.787z"/><path d="M332.901 348.76l.38 15.927c.066 2.761 1.777 6.518 3.814 8.383l10.236 9.371c2.04 1.869 5.926 3.462 8.692 3.56l20.684.736c2.76.098 6.437-1.527 8.225-3.644l6.879-8.143c1.783-2.11 2.166-5.78.853-8.2l-9.477 9.257-17.368 2.815-8.84-.526-16.67-8.996-.75-14.047-6.658-6.494zm13.809-14.968l6.232 6.825 15.112-2.117 2.02-7.97-13.859.947zm49.48 37.153l-3.28-30.496-6.31 5.773 2.03 9.216z" fill="#EBA6CE"/><path d="M384.878 361.372l5.604 2.134" stroke="#3E3D3D"/><path d="M338.877 352.707l4.945-2.252-1.544-5.477c-1.059-3.759-5.028-7.382-8.738-8.069h0l-3.845 2.737 1.111 4.25 8.07 8.811z" stroke="#E98FCD" fill="#E694BE"/><path stroke="#E387BB" fill="#E694BE" d="M377.292 332.57l1.046 14.666 8.905-6.181-5.264-9.22z"/><path fill="#383838" d="M351.276 354.55l-1.226 4.498 4.217 4.84 3.22-3.737v-1.843z"/><path fill="#474747" d="M374.187 361.6l4.448-.183v-5.83l-2.308-2.426-2.679 1.985-1.623 2.508 1.663 3.212"/><path d="M341.41 367.345l5.108-2.567m-.023 5.797l5.038-3.707" stroke="#424242"/><path d="M438.492 323.413l-21.662-32.867-18.347-39.189 21.538 1.326 4.339-8.814s10.551-2.426 14.879-3.46c4.328-1.032 20.578-3.028 20.578-3.028l-28.401-17.083 13.02-13.25 22.552 22.185 18.249-19.815 5.628 4.513-16.265 49.75-36.108 59.732z" fill="#7981CD"/><path d="M384.237 364.228l6.287 2.309" stroke="#3E3D3D"/><path stroke="#646464" d="M364.379 364.744l3.193-.029v2.651z"/><path d="M365.683 366.637l-1.596 4.243m1.764-4.124l3.775 2.65" stroke="#575757"/><path fill="#7878AE" d="M431.287 310.698l37.672-52.08 8.287-33.33-7.816 6.27-13.648-4.174 5.925 8.982-39.312 50.36z"/><path fill="#402F2F" d="M153.606 367.37l8.145-14.047 47.362 14.462.938 24.572z"/><path fill="#7878AE" d="M421.117 279.38l27.863-37.793-21.596 2.738-11.348 26.632z"/><path fill="#885B91" d="M398.243 250.928l27.814 69.544h12.826l-25.404-54.973z"/><path fill="#7FA0D6" d="M421.47 183.98l20.087 18.706.486 3.835 2.732 1.664 21.362 22.156 20.04-20.368-53.257-37.577z"/><path fill="#383737" d="M418.54 336.2l1.233-14.414-9.614-2.547-3.661 8.96 2.191 11.867z"/><path fill="#7981CD" d="M418.378 217.668l27.11-13.91-22.358-20.011-4.752 1.673z"/><path fill-opacity=".71" fill="#3C2C2C" d="M374.281 306.466l52.286 14.777-37.162-47.06z"/><path fill="#3D3131" d="M222.343 268.883l59.741 23.12 32.487 20.412 46.103-5.932 21.22-36.47-12.827.746-14.617 27.427-39.319 3.265-83.134-38.538-13.16-1.68z"/><path d="M225.265 57.145s5.338 9.089 9.278 11.712c3.941 2.623 11.858 2.356 11.858 2.356l-6.012 12.337 33.559-6.525 1.926 8.793h19.998l-2.702 15.538 7.599 7.422 11.123-9.983 14.845 8.063 7.46-18.305 10.554-10.405-45.245-18.382-32.557-2.296-10.734-11.08v10.602l-13.664-11.72 1.195 12.659-18.481-.786z" fill="#F2E1C8"/><path fill="#BFA681" d="M231.602 69.935l-41.038 16.157-9.52-1.729-24.293-22.992-29.786-.59-27.098 12.383-12.264 41.573-4.001 20.648 9.151 22.03v-17.27l2.33-27.823 13.056-34.463 27.119 13.301 18.688 16.804 35.121 4.142-27.332 43.784 20.706-10.652 71.064 1.335-16.759-9.459 21.617-6.805h-21.617l-15.644-10.436 12.51-10.41-12.555-9.077-3.067-1.293 35.515 1.293-20.784-19.463-25.272-5.133"/><path fill-opacity=".857" fill="#DFC49C" d="M181.003 92.605l-49.386-21.95-19.02-2.245 17.413-7.573 24.744-.746z"/><path fill="#DFC49C" d="M208.96 78.239l24.962-10.216 12.48 3.49-4.787 11.152 31.962-5.497 1.777 7.867 20.424.774-1.862 14.748-4.866 27.936-39.51-30.612-7.925-1.107-13.732-15.9z"/><path fill-opacity=".441" fill="#E1D1B9" d="M273.223 123.365L240 104.718l-10.357 13.597z"/><path d="M301.848 61.295l29.07 14.487s1.039-14.629 0-21.626c-1.038-6.998-4.07-5.807-4.07-5.807l-12.312 13.518-12.688-.572z" fill="#BFA681"/><path fill="#DFC49C" d="M329.166 73.146l12.885 6.955-2.172-23.403-11.087-6.075z"/><path fill="#D195A0" d="M97.532 87.392l-10.736 25.93 5.908 44.238 16.278-14.734 22.869 8.225-12.28-37.229 17.459 2.581-17.184-20.446 20.824-2.482-35.495-18.418z"/><path d="M159.669 162.123l-6.044-7.548-9.04-5.389-7.108 3.036s-7.552-3.649-8.65-5.38c-1.096-1.733-2.481-11.43-2.481-11.43l-8.276-22.77 14.127 1.977-12.26-18.776 17.954-2.218 20.085 13.687 31.902 4.307-30.21 50.504z" fill-opacity=".868" fill="#F9DADA"/><path fill="#F0C3C3" d="M339.521 57.798l7.008 26.134v10.946l12.5.482.311 13.55 8.72 9.845.448 9.261 8.178 5.112-14.792-62.799z"/><path fill="#E8D4B9" d="M292.06 100.788l-4.445 31.515 9.323-7.281-2.565 7.796h7.906l30.195-3.624-4.751-8.499v-17.5l-3.647 1.547-12.189-6.673-11.377 9.156z"/><path d="M280.997 148.648s-22.908-3.806-30.375-4.059c-7.467-.252-22.068 1.645-22.068 1.645h-14.485l-25.377 13.775 41.617 18.509-68.118 4.125-4.632 8.721 9.524 9.922v9.158l14.877 8.922 6.732-3.37 37.96-6.201-29.11 28.51 18.93 28.233 80.769 4.977-11.8 8.172s10.843.884 16.245 0c5.402-.885 13.449-4.863 13.449-4.863v8.141l48.135-16.427 15.936-4.384 40.136-47.653-.748-10.302-31.014-10.697 29.777-12.829-6.256-14.811-41.026 3.428 21.66-25.782-7.013-5.584h-40.766l11.385 22.085-1.783 18.509-15.118 14.707-44.399-5.107-13.044-5.475-7.985-16.781 7.985-17.214z" stroke="#CFB6B6" fill="#D8C9B3"/><path fill-opacity=".767" fill="#F7EEE0" d="M215.653 184.67l30.884 5.454 25.555-40.981-44.307-.72-27.914 9.917 38.014 19.15z"/><path d="M217.452 228.81l60.302-21.364c5.203-1.844 13.428-1.34 18.376 1.127l25.382 12.656 61.914-10.317c5.45-.908 11.775 2.407 14.13 7.409l5.91 12.55s-16.46 20.024-24.402 25.61c-7.942 5.586-15.595 2.523-15.595 2.523s-30.219 10.426-38.48 12.248c-8.263 1.821-24.732 1.69-24.732 1.69L278.33 262.65s-32.382 2.42-46.424 0c-14.042-2.421-17.604-11.04-17.604-11.04l3.15-22.8z" fill-opacity=".994" fill="#CCBDA7"/><path fill="#A07F67" d="M163.24 181.776l17.72-13.485-9.191-6.8 19.348-1.579 35.875-16.024H179.17L151.7 163.26l13.404 6.94zm239.137-27.272l20.256-9.494-1.962 20.658 17.58 1.817-18.906 19.192z"/><path fill-opacity=".44" fill="#E1D1B9" d="M332.625 103.133l8.249-.588 5.394.718-12.41 19.709z"/><path fill="#AA747E" d="M339.536 56.985l.744 20.321 6.56.928z"/><path fill="#7D6C54" d="M259.735 130.876l22.181 6.104 15.128-12.35-1.565 7.32 14.839-.306-30.864 17.048-1.179-7.087z"/><path fill="#7C6F50" d="M339.521 127.739l8.172-17.258 12.216-11.838"/><path fill="#665241" d="M344.863 118.974l17.925 1.166-10.649-10.274z"/><path fill="#FEFBF8" d="M358.927 100.445l3.14 7.983 5.727 4.102 2.017 1.18-1.262 14.69-5.168-.496-1.849-7.804-9.818-10.172z"/><path fill="#FEFBF8" d="M356 137.285L364.621 127l7.585 1.745-14.318 10.873z"/><path fill-opacity=".83" fill="#3C1675" d="M402.469 251.638l18.282 1.248 8.304-9.443 30.668-6.118-26.283-16.183 16.638-19.669-32.843 14.46-22.015 27.51 3.167 8.195z"/><path fill-opacity=".38" fill="#1B0733" d="M417.717 224.51l10.102 1.274 19.512 7.93-24.915 4.498-1.379 10.24-18.998-.34.331-4.589z"/><path fill="#958179" d="M328.207 129.006l11.93-1.018v5.98z"/><path fill="#C1B190" d="M359.348 138.61l12.165-10.964L387 137.388z"/><path fill-opacity=".916" fill="#E2DACF" d="M282.821 144.115l-8.93 12.833-3.655 9.103 11.478 18.603 5.746-.544 11.511-9.12 7.276 3.44-1.619 4.563 10.757.723 16.904-16.687-1.175-14.129-7.106-.966-11.29-6.812.556-3.501 9.933-7.076h5.58l10.779 3.38.697 3.696-3.987 8.777 1.688 14.876 14.306 12.524 4.042-4.597v-12.287l-3.356-12.687-2.374-5.739-10.319-8.47-11.476-5.049-11.866.417-10.667 3.763-9.666 3.329z"/><path fill-opacity=".772" fill="#F1ECE5" d="M275.116 164.671l35.063-18.383.685-7.51 19.21-7.384h-16.421l-8.823 1.303-13.478 6.08-10.808 7.529-7.17 9.518z"/><path d="M311.832 141.86l11.468-7.46s3.816-.251 5.632.253c1.817.504 12.998 3.785 12.998 3.785l-7.417 16.324-15.48-4.287-7.364-5.27.163-3.343z" fill="#DCA1A1"/><path fill-opacity=".361" fill="#F7B9B9" d="M316.49 141.545l10.94-6.476 11.532 4.878-6.743 11.52-10.53-3.067-5.318-4.195z"/><path fill-opacity=".277" fill="#F8DDDD" d="M331.805 136.989l8.04 2.467-4.694 11.702z"/><path fill-opacity=".345" fill="#B57A7A" d="M137.22 152.061l8.665-4.305 4.391 4.806 11.366 2.634-8.376 7.558v5.049l-9.176.31-.944-12.917z"/><path d="M100.934 163.865l-9.485-6.392 20.866-16.677 18.893 16.034c.42.355.83 1.09.915 1.623l4.881 30.596 21.005 17.5v33.815s-3.139 8.08-4.556 10.19c-1.418 2.111-5.96 5.468-5.96 5.468l-10.079-19.574 3.071-12.92-3.48 20.955s-35.22 10.524-43.914 14.867c-8.694 4.343-10.188-28.488-10.188-28.488l-5.979 3.186-1.422-9.387-20.446-18.112.528-16.98 8.428-16.7h8.757l15.602 9.2 10.421 11.084 8.04-13.869 5.042-5.049-10.94-10.37z" fill="#B49E8C"/><path fill="#DAB0B0" d="M67.36 178.518l25.475 17.256 6.616 18.254-10.874 8.939H77.83l-9.747-13.256zm36.209-17.095l9.746-8.052 15.1 11.164.766 21.233-2.094 10.795-9.717 2.397-9.81-5.654 3.16-19.04 1.615-6.866z"/><path fill="#846D6D" d="M132.996 233.218l2.887-11.81-3.265-5.944 10.942 7.562 10.11-7.951 2.389 21.13-9.883.374-.242 9.46-3.583-5.975z"/><path fill="#F1E2D2" d="M66.677 174.608l-9.066 9.306-2.872 18.42.725 10.939 22.092 16.992 7.571-4.591-1.663-4.077-14.249-9.788-.681-34.96 3.49-3.316zm42.927-4.483l-13.666-10.07 1.699-11.171 12.428-8.306 8.554 2.9 10.387 8.022h-1.819l-17.72-7.185-5.724 4.537 1.47 12.606z"/><path fill="#D2BB9D" d="M82.156 227.725l8.754.333 33.164-18.485 9.642 6.747 2.937 6.917-3.06 11.33-15.761 9.187-21.178 7.436-9.289 1.876-5.51-6.414-4.268-9.156 1.316-7.814z"/><path stroke="#CEBFAB" fill="#EBDBC6" d="M136.184 234.343l7.805 8.934 1.44 9.867-9.245 12.792-9.578 4.687-17.75 2.72-12.854-1.387-7.943-10.055-.844-8.058 15-1.617 13.79-4.663 17.093-11.078z"/><path fill="#EBDBC6" d="M81.445 233.218l13.176.757 9.656-7.548 10.391-5.168 9.519-6.303 3.245 2.632 4.27 6.792v6.792l-7.833 7.673-13.82 6.555-12.809 4.79h-8.294l-6.228-2.647-2.326-5.28z"/><path d="M89.245 265.109h8.202l4.686-1.846v-10.847l-13.79 2.03.902 10.663z" fill-opacity=".181" fill="#BD9B9B"/><path fill-opacity=".529" fill="#F1E2D2" d="M98.344 192.393l2.78 12.262 10.958-5.542-4.447-11.072z"/><path fill="#968272" d="M116.102 272.83l20.05-7.258 9.068-13.73h7.164l-5.464 15.195-3.597 5.793z"/><path d="M291.796 285.85s3.368 6.927 6.656 9.415c3.287 2.487 16.207 7.885 16.207 7.885l40.61-2.504 15.941-33.813s-9.877 5.898-14.403 9.37c-4.526 3.473-4.465 5.105-4.465 5.105h-6.923l-.461 10.78-8.002 3.177-21.093-8.576s-19.17-1.727-26.725-1.99c-7.555-.263 2.658 1.152 2.658 1.152z" fill="#653270"/><path d="M240.768 267.897l54.656 3.786-8.39 7.248h11.973l18.145-5.342-3.338 8.201 39.757-14.693 26.59-4.606 1.387 6.155s-4.27 2.779-6.467 3.037c-2.196.259-7.476 1.906-7.476 1.906l-5.496 1.074-10.16 7.147h-6.695l-3.683-3.157-22.155 4.606-4.109 1.747s-.443 2.264-1.493 2.381c-1.051.118-19.853 0-19.853 0l9.106 8.558-62.299-28.048z" stroke-opacity=".805" stroke="#553A53" fill="#59477E"/><path fill="#5C3360" d="M248.849 270.086l46.28 17.757 7.522 7.455-5.425-.85z"/><path fill="#7981CD" d="M416.892 318.131l23.476 2.754-8.372 14.507-16.209-15.72z"/><path fill="#9A7B6A" d="M159.732 191.357l3.155-19.699-25.594-.315 17.581 20.603-7.409 9.724 21.762 11.044V199.26z"/><path stroke="#464646" d="M334.5 154.763l.279 12.479-17.566 17.335-22.283-.864 28.446 5.864 17.672.43 11.298-12.208"/><path fill="#EFEFEF" d="M334.975 170.924l-16.538 13.808 3.876 3.418 18.718 1.276 8.627-9.043z"/><path d="M333.847 170.222v13.112" stroke="#050505"/><path stroke="#555" d="M337.59 167.833l12.554 10.935-7.196 9.295"/><path stroke-opacity=".788" stroke="#0E0E0E" d="M87.434 485.57v18.74l17.908 6.253 28.644-5.815-3.801-3.878"/><path d="M456.31 470.543l10.967 15.502c2.457 3.472 1.008 6.003-3.236 5.651l-7.73-.64v-20.513z" stroke="#5E5E5E" fill="#E7E7E7"/><path stroke="#9A8C6D" d="M190.6 85.95l18.852-7.366 20.419-8.44"/><path d="M104.601 75.448l36.062 18.784m-35.604-18.985l-2.72 3.756c-1.74 2.402-3.926 6.625-4.886 9.438l-3.132 9.173" stroke-opacity=".479" stroke="#797878"/><path d="M287.78 58.448s10.362 2.059 15.707 2.758c5.346.7 11.03.741 11.03.741l10.584-11.99c1.828-2.072 4.058-1.646 5.07.918 0 0-.05.331.374.65.425.32 23.061 14.736 23.061 14.736" stroke="#8A7E70"/><path stroke-opacity=".343" stroke="#585858" d="M176.974 135.09l13.621-23.354-26.755-4.67"/><path fill-opacity=".285" fill="#EDEBEB" d="M262.221 136.11l-9.34.787-1.858 3.785 8.072.322 7.152.322z"/><path fill-opacity=".385" fill="#ECE9E9" d="M349.341 121.423l5.158 8.672 5.328.989.384-6.625-1.895-2.963z"/><text transform="rotate(-16 459.73 47.735)" font-family="GiddyupStd, Giddyup Std" font-size="36" fill="#333"><tspan x="389.23" y="53.735">Mai Nguyen</tspan></text><text transform="rotate(-16 477.694 75.44)" font-family="SFProText-Regular, SF Pro Text" font-size="14" fill="#333"><tspan x="438.694" y="80.44">09/24/2018</tspan></text></g></svg>