<svg width="6087" height="4613" xmlns="http://www.w3.org/2000/svg" xmlns:xlink="http://www.w3.org/1999/xlink"><defs><filter x="-2.5%" y="-2.5%" width="107%" height="107%" filterUnits="objectBoundingBox" id="a"><feOffset dx="5" dy="5" in="SourceAlpha" result="shadowOffsetOuter1"/><feGaussianBlur stdDeviation="5" in="shadowOffsetOuter1" result="shadowBlurOuter1"/><feColorMatrix values="0 0 0 0 0.505580357 0 0 0 0 0.505580357 0 0 0 0 0.505580357 0 0 0 0.5 0" in="shadowBlurOuter1"/></filter><filter x="-2.3%" y="-2.3%" width="106.5%" height="106.4%" filterUnits="objectBoundingBox" id="c"><feOffset dx="5" dy="5" in="SourceAlpha" result="shadowOffsetOuter1"/><feGaussianBlur stdDeviation="5" in="shadowOffsetOuter1" result="shadowBlurOuter1"/><feColorMatrix values="0 0 0 0 0.505580357 0 0 0 0 0.505580357 0 0 0 0 0.505580357 0 0 0 0.5 0" in="shadowBlurOuter1"/></filter><filter x="-2.3%" y="-2.3%" width="106.4%" height="106.4%" filterUnits="objectBoundingBox" id="e"><feOffset dx="5" dy="5" in="SourceAlpha" result="shadowOffsetOuter1"/><feGaussianBlur stdDeviation="5" in="shadowOffsetOuter1" result="shadowBlurOuter1"/><feColorMatrix values="0 0 0 0 0.505580357 0 0 0 0 0.505580357 0 0 0 0 0.505580357 0 0 0 0.5 0" in="shadowBlurOuter1"/></filter><filter x="-2.3%" y="-2.3%" width="106.4%" height="106.4%" filterUnits="objectBoundingBox" id="g"><feOffset dx="5" dy="5" in="SourceAlpha" result="shadowOffsetOuter1"/><feGaussianBlur stdDeviation="5" in="shadowOffsetOuter1" result="shadowBlurOuter1"/><feColorMatrix values="0 0 0 0 0.505580357 0 0 0 0 0.505580357 0 0 0 0 0.505580357 0 0 0 0.5 0" in="shadowBlurOuter1"/></filter><filter x="-2.3%" y="-2.3%" width="106.4%" height="106.4%" filterUnits="objectBoundingBox" id="i"><feOffset dx="5" dy="5" in="SourceAlpha" result="shadowOffsetOuter1"/><feGaussianBlur stdDeviation="5" in="shadowOffsetOuter1" result="shadowBlurOuter1"/><feColorMatrix values="0 0 0 0 0.505580357 0 0 0 0 0.505580357 0 0 0 0 0.505580357 0 0 0 0.5 0" in="shadowBlurOuter1"/></filter><filter x="-2.5%" y="-2.5%" width="107%" height="107%" filterUnits="objectBoundingBox" id="k"><feOffset dx="5" dy="5" in="SourceAlpha" result="shadowOffsetOuter1"/><feGaussianBlur stdDeviation="5" in="shadowOffsetOuter1" result="shadowBlurOuter1"/><feColorMatrix values="0 0 0 0 0.505580357 0 0 0 0 0.505580357 0 0 0 0 0.505580357 0 0 0 0.5 0" in="shadowBlurOuter1"/></filter><filter x="-2.5%" y="-2.5%" width="107%" height="107%" filterUnits="objectBoundingBox" id="m"><feOffset dx="5" dy="5" in="SourceAlpha" result="shadowOffsetOuter1"/><feGaussianBlur stdDeviation="5" in="shadowOffsetOuter1" result="shadowBlurOuter1"/><feColorMatrix values="0 0 0 0 0.505580357 0 0 0 0 0.505580357 0 0 0 0 0.505580357 0 0 0 0.5 0" in="shadowBlurOuter1"/></filter><filter x="-2.5%" y="-2.5%" width="107%" height="107%" filterUnits="objectBoundingBox" id="o"><feOffset dx="5" dy="5" in="SourceAlpha" result="shadowOffsetOuter1"/><feGaussianBlur stdDeviation="5" in="shadowOffsetOuter1" result="shadowBlurOuter1"/><feColorMatrix values="0 0 0 0 0.505580357 0 0 0 0 0.505580357 0 0 0 0 0.505580357 0 0 0 0.5 0" in="shadowBlurOuter1"/></filter><filter x="-2.5%" y="-2.5%" width="107%" height="107%" filterUnits="objectBoundingBox" id="q"><feOffset dx="5" dy="5" in="SourceAlpha" result="shadowOffsetOuter1"/><feGaussianBlur stdDeviation="5" in="shadowOffsetOuter1" result="shadowBlurOuter1"/><feColorMatrix values="0 0 0 0 0.505580357 0 0 0 0 0.505580357 0 0 0 0 0.505580357 0 0 0 0.5 0" in="shadowBlurOuter1"/></filter><filter x="-2.5%" y="-2.5%" width="107%" height="107%" filterUnits="objectBoundingBox" id="s"><feOffset dx="5" dy="5" in="SourceAlpha" result="shadowOffsetOuter1"/><feGaussianBlur stdDeviation="5" in="shadowOffsetOuter1" result="shadowBlurOuter1"/><feColorMatrix values="0 0 0 0 0.505580357 0 0 0 0 0.505580357 0 0 0 0 0.505580357 0 0 0 0.5 0" in="shadowBlurOuter1"/></filter><filter x="-2.5%" y="-2.5%" width="107%" height="107%" filterUnits="objectBoundingBox" id="u"><feOffset dx="5" dy="5" in="SourceAlpha" result="shadowOffsetOuter1"/><feGaussianBlur stdDeviation="5" in="shadowOffsetOuter1" result="shadowBlurOuter1"/><feColorMatrix values="0 0 0 0 0.505580357 0 0 0 0 0.505580357 0 0 0 0 0.505580357 0 0 0 0.5 0" in="shadowBlurOuter1"/></filter><filter x="-2.5%" y="-2.5%" width="107%" height="107%" filterUnits="objectBoundingBox" id="w"><feOffset dx="5" dy="5" in="SourceAlpha" result="shadowOffsetOuter1"/><feGaussianBlur stdDeviation="5" in="shadowOffsetOuter1" result="shadowBlurOuter1"/><feColorMatrix values="0 0 0 0 0.505580357 0 0 0 0 0.505580357 0 0 0 0 0.505580357 0 0 0 0.5 0" in="shadowBlurOuter1"/></filter><filter x="-2.5%" y="-2.5%" width="107%" height="107%" filterUnits="objectBoundingBox" id="y"><feOffset dx="5" dy="5" in="SourceAlpha" result="shadowOffsetOuter1"/><feGaussianBlur stdDeviation="5" in="shadowOffsetOuter1" result="shadowBlurOuter1"/><feColorMatrix values="0 0 0 0 0.505580357 0 0 0 0 0.505580357 0 0 0 0 0.505580357 0 0 0 0.5 0" in="shadowBlurOuter1"/></filter><filter x="-2.5%" y="-2.5%" width="107%" height="107%" filterUnits="objectBoundingBox" id="A"><feOffset dx="5" dy="5" in="SourceAlpha" result="shadowOffsetOuter1"/><feGaussianBlur stdDeviation="5" in="shadowOffsetOuter1" result="shadowBlurOuter1"/><feColorMatrix values="0 0 0 0 0.505580357 0 0 0 0 0.505580357 0 0 0 0 0.505580357 0 0 0 0.5 0" in="shadowBlurOuter1"/></filter><filter x="-2.5%" y="-2.5%" width="107%" height="107%" filterUnits="objectBoundingBox" id="C"><feOffset dx="5" dy="5" in="SourceAlpha" result="shadowOffsetOuter1"/><feGaussianBlur stdDeviation="5" in="shadowOffsetOuter1" result="shadowBlurOuter1"/><feColorMatrix values="0 0 0 0 0.505580357 0 0 0 0 0.505580357 0 0 0 0 0.505580357 0 0 0 0.5 0" in="shadowBlurOuter1"/></filter><filter x="-2.5%" y="-2.5%" width="107%" height="107%" filterUnits="objectBoundingBox" id="E"><feOffset dx="5" dy="5" in="SourceAlpha" result="shadowOffsetOuter1"/><feGaussianBlur stdDeviation="5" in="shadowOffsetOuter1" result="shadowBlurOuter1"/><feColorMatrix values="0 0 0 0 0.505580357 0 0 0 0 0.505580357 0 0 0 0 0.505580357 0 0 0 0.5 0" in="shadowBlurOuter1"/></filter><filter x="-2.5%" y="-2.5%" width="107%" height="107%" filterUnits="objectBoundingBox" id="G"><feOffset dx="5" dy="5" in="SourceAlpha" result="shadowOffsetOuter1"/><feGaussianBlur stdDeviation="5" in="shadowOffsetOuter1" result="shadowBlurOuter1"/><feColorMatrix values="0 0 0 0 0.505580357 0 0 0 0 0.505580357 0 0 0 0 0.505580357 0 0 0 0.5 0" in="shadowBlurOuter1"/></filter><filter x="-2.5%" y="-2.5%" width="107%" height="107%" filterUnits="objectBoundingBox" id="I"><feOffset dx="5" dy="5" in="SourceAlpha" result="shadowOffsetOuter1"/><feGaussianBlur stdDeviation="5" in="shadowOffsetOuter1" result="shadowBlurOuter1"/><feColorMatrix values="0 0 0 0 0.505580357 0 0 0 0 0.505580357 0 0 0 0 0.505580357 0 0 0 0.5 0" in="shadowBlurOuter1"/></filter><filter x="-2.5%" y="-2.5%" width="107%" height="107%" filterUnits="objectBoundingBox" id="K"><feOffset dx="5" dy="5" in="SourceAlpha" result="shadowOffsetOuter1"/><feGaussianBlur stdDeviation="5" in="shadowOffsetOuter1" result="shadowBlurOuter1"/><feColorMatrix values="0 0 0 0 0.505580357 0 0 0 0 0.505580357 0 0 0 0 0.505580357 0 0 0 0.5 0" in="shadowBlurOuter1"/></filter><filter x="-2.5%" y="-2.5%" width="107%" height="107%" filterUnits="objectBoundingBox" id="M"><feOffset dx="5" dy="5" in="SourceAlpha" result="shadowOffsetOuter1"/><feGaussianBlur stdDeviation="5" in="shadowOffsetOuter1" result="shadowBlurOuter1"/><feColorMatrix values="0 0 0 0 0.505580357 0 0 0 0 0.505580357 0 0 0 0 0.505580357 0 0 0 0.5 0" in="shadowBlurOuter1"/></filter><filter x="-2.5%" y="-2.5%" width="107%" height="107%" filterUnits="objectBoundingBox" id="O"><feOffset dx="5" dy="5" in="SourceAlpha" result="shadowOffsetOuter1"/><feGaussianBlur stdDeviation="5" in="shadowOffsetOuter1" result="shadowBlurOuter1"/><feColorMatrix values="0 0 0 0 0.505580357 0 0 0 0 0.505580357 0 0 0 0 0.505580357 0 0 0 0.5 0" in="shadowBlurOuter1"/></filter><filter x="-2.5%" y="-2.5%" width="107%" height="107%" filterUnits="objectBoundingBox" id="Q"><feOffset dx="5" dy="5" in="SourceAlpha" result="shadowOffsetOuter1"/><feGaussianBlur stdDeviation="5" in="shadowOffsetOuter1" result="shadowBlurOuter1"/><feColorMatrix values="0 0 0 0 0.505580357 0 0 0 0 0.505580357 0 0 0 0 0.505580357 0 0 0 0.5 0" in="shadowBlurOuter1"/></filter><filter x="-2.5%" y="-2.5%" width="107%" height="107%" filterUnits="objectBoundingBox" id="S"><feOffset dx="5" dy="5" in="SourceAlpha" result="shadowOffsetOuter1"/><feGaussianBlur stdDeviation="5" in="shadowOffsetOuter1" result="shadowBlurOuter1"/><feColorMatrix values="0 0 0 0 0.505580357 0 0 0 0 0.505580357 0 0 0 0 0.505580357 0 0 0 0.5 0" in="shadowBlurOuter1"/></filter><filter x="-2.5%" y="-2.5%" width="107%" height="107%" filterUnits="objectBoundingBox" id="U"><feOffset dx="5" dy="5" in="SourceAlpha" result="shadowOffsetOuter1"/><feGaussianBlur stdDeviation="5" in="shadowOffsetOuter1" result="shadowBlurOuter1"/><feColorMatrix values="0 0 0 0 0.505580357 0 0 0 0 0.505580357 0 0 0 0 0.505580357 0 0 0 0.5 0" in="shadowBlurOuter1"/></filter><filter x="-2.5%" y="-2.5%" width="107%" height="107%" filterUnits="objectBoundingBox" id="W"><feOffset dx="5" dy="5" in="SourceAlpha" result="shadowOffsetOuter1"/><feGaussianBlur stdDeviation="5" in="shadowOffsetOuter1" result="shadowBlurOuter1"/><feColorMatrix values="0 0 0 0 0.505580357 0 0 0 0 0.505580357 0 0 0 0 0.505580357 0 0 0 0.5 0" in="shadowBlurOuter1"/></filter><filter x="-2.5%" y="-2.5%" width="107%" height="107%" filterUnits="objectBoundingBox" id="Y"><feOffset dx="5" dy="5" in="SourceAlpha" result="shadowOffsetOuter1"/><feGaussianBlur stdDeviation="5" in="shadowOffsetOuter1" result="shadowBlurOuter1"/><feColorMatrix values="0 0 0 0 0.505580357 0 0 0 0 0.505580357 0 0 0 0 0.505580357 0 0 0 0.5 0" in="shadowBlurOuter1"/></filter><filter x="-2.5%" y="-2.5%" width="107%" height="107%" filterUnits="objectBoundingBox" id="aa"><feOffset dx="5" dy="5" in="SourceAlpha" result="shadowOffsetOuter1"/><feGaussianBlur stdDeviation="5" in="shadowOffsetOuter1" result="shadowBlurOuter1"/><feColorMatrix values="0 0 0 0 0.505580357 0 0 0 0 0.505580357 0 0 0 0 0.505580357 0 0 0 0.5 0" in="shadowBlurOuter1"/></filter><filter x="-2.5%" y="-2.5%" width="107%" height="107%" filterUnits="objectBoundingBox" id="ac"><feOffset dx="5" dy="5" in="SourceAlpha" result="shadowOffsetOuter1"/><feGaussianBlur stdDeviation="5" in="shadowOffsetOuter1" result="shadowBlurOuter1"/><feColorMatrix values="0 0 0 0 0.505580357 0 0 0 0 0.505580357 0 0 0 0 0.505580357 0 0 0 0.5 0" in="shadowBlurOuter1"/></filter><filter x="-2.5%" y="-2.5%" width="107%" height="107%" filterUnits="objectBoundingBox" id="ae"><feOffset dx="5" dy="5" in="SourceAlpha" result="shadowOffsetOuter1"/><feGaussianBlur stdDeviation="5" in="shadowOffsetOuter1" result="shadowBlurOuter1"/><feColorMatrix values="0 0 0 0 0.505580357 0 0 0 0 0.505580357 0 0 0 0 0.505580357 0 0 0 0.5 0" in="shadowBlurOuter1"/></filter><filter x="-2.5%" y="-2.5%" width="107%" height="107%" filterUnits="objectBoundingBox" id="ag"><feOffset dx="5" dy="5" in="SourceAlpha" result="shadowOffsetOuter1"/><feGaussianBlur stdDeviation="5" in="shadowOffsetOuter1" result="shadowBlurOuter1"/><feColorMatrix values="0 0 0 0 0.505580357 0 0 0 0 0.505580357 0 0 0 0 0.505580357 0 0 0 0.5 0" in="shadowBlurOuter1"/></filter><filter x="-2.5%" y="-2.5%" width="107%" height="107%" filterUnits="objectBoundingBox" id="ai"><feOffset dx="5" dy="5" in="SourceAlpha" result="shadowOffsetOuter1"/><feGaussianBlur stdDeviation="5" in="shadowOffsetOuter1" result="shadowBlurOuter1"/><feColorMatrix values="0 0 0 0 0.505580357 0 0 0 0 0.505580357 0 0 0 0 0.505580357 0 0 0 0.5 0" in="shadowBlurOuter1"/></filter><filter x="-2.5%" y="-2.5%" width="107%" height="107%" filterUnits="objectBoundingBox" id="ak"><feOffset dx="5" dy="5" in="SourceAlpha" result="shadowOffsetOuter1"/><feGaussianBlur stdDeviation="5" in="shadowOffsetOuter1" result="shadowBlurOuter1"/><feColorMatrix values="0 0 0 0 0.505580357 0 0 0 0 0.505580357 0 0 0 0 0.505580357 0 0 0 0.5 0" in="shadowBlurOuter1"/></filter><filter x="-2.5%" y="-2.5%" width="107%" height="107%" filterUnits="objectBoundingBox" id="am"><feOffset dx="5" dy="5" in="SourceAlpha" result="shadowOffsetOuter1"/><feGaussianBlur stdDeviation="5" in="shadowOffsetOuter1" result="shadowBlurOuter1"/><feColorMatrix values="0 0 0 0 0.505580357 0 0 0 0 0.505580357 0 0 0 0 0.505580357 0 0 0 0.5 0" in="shadowBlurOuter1"/></filter><path id="b" d="M0 0h500v500H0z"/><path id="d" d="M0 0h537.109v550H0z"/><path id="f" d="M0 0h550v550H0z"/><path id="h" d="M0 0h550v550H0z"/><path id="j" d="M0 0h550v550H0z"/><path id="l" d="M0 0h499.673v500H0z"/><path id="n" d="M0 0h500v500H0z"/><path id="p" d="M0 0h500v500H0z"/><path id="r" d="M0 0h500v500H0z"/><path id="t" d="M0 0h500v500H0z"/><path id="v" d="M0 0h497.602v500H0z"/><path id="x" d="M0 0h500v500H0z"/><path id="z" d="M0 0h500v500H0z"/><path id="B" d="M0 0h500v500H0z"/><path id="D" d="M0 0h500v500H0z"/><path id="F" d="M0 0h500v500H0z"/><path id="H" d="M0 0h500v500H0z"/><path id="J" d="M0 0h500v500H0z"/><path id="L" d="M0 0h500v500H0z"/><path id="N" d="M0 0h500v500H0z"/><path id="P" d="M0 0h500v500H0z"/><path id="R" d="M0 0h500v500H0z"/><path id="T" d="M0 0h500v500H0z"/><path id="V" d="M0 0h500v500H0z"/><path id="X" d="M0 0h500v500H0z"/><path id="Z" d="M0 0h500v500H0z"/><path id="ab" d="M0 0h500v500H0z"/><path id="ad" d="M0 0h500v500H0z"/><path id="af" d="M0 0h500v500H0z"/><path id="ah" d="M0 0h500v500H0z"/><path id="aj" d="M0 0h500v500H0z"/><path id="al" d="M0 0h500v500H0z"/><path id="an" d="M0 0h500v500H0z"/></defs><g fill="none" fill-rule="evenodd"><path fill="#FFF" d="M0 0h6087v4613H0z"/><g transform="translate(5184 2790)"><use fill="#000" filter="url(#a)" xlink:href="#b"/><use fill="#FFE8F7" xlink:href="#b"/></g><text font-family="ArialMT, Arial" font-size="48" fill="#545454" transform="translate(5184 2790)"><tspan x="32" y="96">“Clients show me </tspan> <tspan x="32" y="149">many visuals of how </tspan> <tspan x="32" y="202">they want it to look, </tspan> <tspan x="32" y="255">shape and feel, and I </tspan> <tspan x="32" y="308">fuse all the ideas into </tspan> <tspan x="32" y="361">something unique </tspan> <tspan x="32" y="414">and fitting”</tspan></text><g transform="translate(473 303)"><use fill="#000" filter="url(#c)" xlink:href="#d"/><use fill="#FFEAA9" xlink:href="#d"/></g><text stroke="#979797" font-family="Arial-BoldMT, Arial" font-size="100" font-weight="bold" fill="#545454" transform="translate(473 303)"><tspan x="33.228" y="194.4">Behaviors </tspan> <tspan x="238.892" y="306.4">&amp; </tspan> <tspan x="58.35" y="418.4">Attitudes</tspan></text><g transform="translate(1958 303)"><use fill="#000" filter="url(#e)" xlink:href="#f"/><use fill="#FFEAA9" xlink:href="#f"/></g><text font-family="Arial-BoldMT, Arial" font-size="100" font-weight="bold" fill="#545454" transform="translate(1958 303)"><tspan x="115" y="301">Goals</tspan></text><g transform="translate(3416 303)"><use fill="#000" filter="url(#g)" xlink:href="#h"/><use fill="#FFEAA9" xlink:href="#h"/></g><text font-family="Arial-BoldMT, Arial" font-size="90" font-weight="bold" fill="#545454" transform="translate(3416 303)"><tspan x="12" y="301">Frustrations</tspan></text><g transform="translate(4820 303)"><use fill="#000" filter="url(#i)" xlink:href="#j"/><use fill="#FFEAA9" xlink:href="#j"/></g><text font-family="Arial-BoldMT, Arial" font-size="100" font-weight="bold" fill="#545454" transform="translate(4820 303)"><tspan x="116" y="301">Quotes</tspan></text><g transform="translate(1708 1014)"><use fill="#000" filter="url(#k)" xlink:href="#l"/><use fill="#A9FFD5" xlink:href="#l"/></g><text font-family="ArialMT, Arial" font-size="48" fill="#545454" transform="translate(1708 1014)"><tspan x="76" y="151">Wants to decide </tspan> <tspan x="76" y="204">on the designs </tspan> <tspan x="76" y="257">based on the </tspan> <tspan x="76" y="310">content of the </tspan> <tspan x="76" y="363">artwork</tspan></text><g transform="translate(197 1038)"><use fill="#000" filter="url(#m)" xlink:href="#n"/><use fill="#A9FFD5" xlink:href="#n"/></g><text font-family="ArialMT, Arial" font-size="48" fill="#545454" transform="translate(197 1038)"><tspan x="61" y="87">Has ideas in her </tspan> <tspan x="61" y="140">head already and </tspan> <tspan x="61" y="193">draws them out </tspan> <tspan x="61" y="246">or tries to find an </tspan> <tspan x="61" y="299">artist through IG </tspan> <tspan x="61" y="352">or online that has </tspan> <tspan x="61" y="405">a similar style to </tspan> <tspan x="61" y="458">her idea</tspan></text><g transform="translate(2258 1014)"><use fill="#000" filter="url(#o)" xlink:href="#p"/><use fill="#A9FFD5" xlink:href="#p"/></g><text font-family="ArialMT, Arial" font-size="48" fill="#545454" transform="translate(2258 1014)"><tspan x="32.53" y="122.133">Wants something </tspan> <tspan x="32.53" y="175.133">very personal and </tspan> <tspan x="32.53" y="228.133">also wants matching </tspan> <tspan x="32.53" y="281.133">tattoos with certain </tspan> <tspan x="32.53" y="334.133">people</tspan></text><g transform="translate(748 1038)"><use fill="#000" filter="url(#q)" xlink:href="#r"/><use fill="#A9FFD5" xlink:href="#r"/></g><text font-family="ArialMT, Arial" font-size="48" fill="#545454" transform="translate(748 1038)"><tspan x="32.53" y="131.771">Follows artists on </tspan> <tspan x="32.53" y="184.771">IG for awhile and if </tspan> <tspan x="32.53" y="237.771">she cotinues to </tspan> <tspan x="32.53" y="290.771">like their work, she </tspan> <tspan x="32.53" y="343.771">gets attached to </tspan> <tspan x="32.53" y="396.771">that artist</tspan></text><g transform="translate(3723 1014)"><use fill="#000" filter="url(#s)" xlink:href="#t"/><use fill="#A9FFD5" xlink:href="#t"/></g><text font-family="ArialMT, Arial" font-size="48" fill="#545454" transform="translate(3723 1014)"><tspan x="32.53" y="142.614">Thinks finding styles </tspan> <tspan x="32.53" y="195.614">of tattoos are the </tspan> <tspan x="32.53" y="248.614">most difficult</tspan></text><g transform="translate(3168 1590)"><use fill="#000" filter="url(#u)" xlink:href="#v"/><use fill="#A9FFD5" xlink:href="#v"/></g><text font-family="ArialMT, Arial" font-size="48" fill="#545454" transform="translate(3168 1590)"><tspan x="34" y="106">Finds it easier to </tspan> <tspan x="34" y="159">find a specific </tspan> <tspan x="34" y="212">style she likes if </tspan> <tspan x="34" y="265">there is a more </tspan> <tspan x="34" y="318">definite name she </tspan> <tspan x="34" y="371">can search online </tspan> <tspan x="34" y="424">with</tspan></text><g transform="translate(748 1614)"><use fill="#000" filter="url(#w)" xlink:href="#x"/><use fill="#A9FFD5" xlink:href="#x"/></g><text font-family="ArialMT, Arial" font-size="48" fill="#545454" transform="translate(748 1614)"><tspan x="39" y="160">Calls artists to set </tspan> <tspan x="39" y="213">up an appointment </tspan> <tspan x="39" y="266">or book online if </tspan> <tspan x="39" y="319">possible</tspan></text><g transform="translate(197 1614)"><use fill="#000" filter="url(#y)" xlink:href="#z"/><use fill="#A9FFD5" xlink:href="#z"/></g><text font-family="ArialMT, Arial" font-size="48" fill="#545454" transform="translate(197 1614)"><tspan x="32.53" y="182.373">Thinks experience </tspan> <tspan x="32.53" y="235.373">depends on the </tspan> <tspan x="32.53" y="288.373">vibe of the shop</tspan></text><g transform="translate(3166 1014)"><use fill="#000" filter="url(#A)" xlink:href="#B"/><use fill="#A9FFD5" xlink:href="#B"/></g><text font-family="ArialMT, Arial" font-size="48" fill="#545454" transform="translate(3166 1014)"><tspan x="32.53" y="108.88">Feel regret or </tspan> <tspan x="32.53" y="161.88">frustrated getting </tspan> <tspan x="32.53" y="214.88">their tattoos </tspan> <tspan x="32.53" y="267.88">because their artist </tspan> <tspan x="32.53" y="320.88">didn’t approach it </tspan> <tspan x="32.53" y="373.88">the right way”</tspan></text><g transform="translate(748 2170)"><use fill="#000" filter="url(#C)" xlink:href="#D"/><use fill="#A9F5FF" xlink:href="#D"/></g><text font-family="ArialMT, Arial" font-size="48" fill="#545454" transform="translate(748 2170)"><tspan x="83" y="191">Looks through IG </tspan> <tspan x="83" y="244">when looking for </tspan> <tspan x="83" y="297">tattoo ideas</tspan></text><g transform="translate(4569 1014)"><use fill="#000" filter="url(#E)" xlink:href="#F"/><use fill="#A9F5FF" xlink:href="#F"/></g><text font-family="ArialMT, Arial" font-size="48" fill="#545454" transform="translate(4569 1014)"><tspan x="47" y="124">“The desire for a </tspan> <tspan x="47" y="177">new tattoo forms </tspan> <tspan x="47" y="230">during a difficult </tspan> <tspan x="47" y="283">time in my life”</tspan></text><g transform="translate(197 2170)"><use fill="#000" filter="url(#G)" xlink:href="#H"/><use fill="#A9F5FF" xlink:href="#H"/></g><text font-family="ArialMT, Arial" font-size="48" fill="#545454" transform="translate(197 2170)"><tspan x="71" y="101">Goes through </tspan> <tspan x="71" y="154">&quot;following&quot; list on </tspan> <tspan x="71" y="207">Instagram </tspan> <tspan x="71" y="260">because tattoo </tspan> <tspan x="71" y="313">artists usually </tspan> <tspan x="71" y="366">follow other tattoo </tspan> <tspan x="71" y="419">artists they admire</tspan></text><g transform="translate(218 2755)"><use fill="#000" filter="url(#I)" xlink:href="#J"/><use fill="#A9F5FF" xlink:href="#J"/></g><text font-family="ArialMT, Arial" font-size="48" fill="#545454" transform="translate(218 2755)"><tspan x="76" y="101">Tries calling to </tspan> <tspan x="76" y="154">schedule an </tspan> <tspan x="76" y="207">appointment or </tspan> <tspan x="76" y="260">email the studio </tspan> <tspan x="76" y="313">online on their </tspan> <tspan x="76" y="366">website.</tspan></text><g transform="translate(3723 1584)"><use fill="#000" filter="url(#K)" xlink:href="#L"/><use fill="#A9F5FF" xlink:href="#L"/></g><text font-family="ArialMT, Arial" font-size="48" fill="#545454" transform="translate(3723 1584)"><tspan x="53" y="116">“The most </tspan> <tspan x="53" y="169">challenging part is </tspan> <tspan x="53" y="222">finding a tattoo </tspan> <tspan x="53" y="275">that is different or </tspan> <tspan x="53" y="328">hasn’t been done </tspan> <tspan x="53" y="381">before.”</tspan></text><g transform="translate(773 2755)"><use fill="#000" filter="url(#M)" xlink:href="#N"/><use fill="#A9F5FF" xlink:href="#N"/></g><text font-family="ArialMT, Arial" font-size="48" fill="#545454" transform="translate(773 2755)"><tspan x="38" y="116">Like to give artist </tspan> <tspan x="38" y="169">the freedom to </tspan> <tspan x="38" y="222">interpret whatever </tspan> <tspan x="38" y="275">tattoo. This </tspan> <tspan x="38" y="328">allows of diversity </tspan> <tspan x="38" y="381">of inspiration.</tspan></text><g transform="translate(5184 1014)"><use fill="#000" filter="url(#O)" xlink:href="#P"/><use fill="#A9F5FF" xlink:href="#P"/></g><text font-family="ArialMT, Arial" font-size="48" fill="#545454" transform="translate(5184 1014)"><tspan x="47" y="107">“They are the </tspan> <tspan x="47" y="160">artists, and we are </tspan> <tspan x="47" y="213">the canvas. </tspan> <tspan x="47" y="266">Shouldn&apos;t the artist </tspan> <tspan x="47" y="319">decide how to paint </tspan> <tspan x="47" y="372">his/her own art?”</tspan></text><g transform="translate(218 3327)"><use fill="#000" filter="url(#Q)" xlink:href="#R"/><use fill="#A9F5FF" xlink:href="#R"/></g><text font-family="ArialMT, Arial" font-size="48" fill="#545454" transform="translate(218 3327)"><tspan x="39" y="55">Tattoo parlor </tspan> <tspan x="39" y="108">should required </tspan> <tspan x="39" y="161">appointments in </tspan> <tspan x="39" y="214">advance and </tspan> <tspan x="39" y="267">consultations rather </tspan> <tspan x="39" y="320">than accepting </tspan> <tspan x="39" y="373">walk in’s to reduce </tspan> <tspan x="39" y="426">people from </tspan> <tspan x="39" y="479">regretting tattoos</tspan></text><g transform="translate(5184 1590)"><use fill="#000" filter="url(#S)" xlink:href="#T"/><use fill="#FFE8F7" xlink:href="#T"/></g><text font-family="ArialMT, Arial" font-size="48" fill="#545454" transform="translate(5184 1590)"><tspan x="40" y="172">“When I was a kid, </tspan> <tspan x="40" y="225">I loved to draw and </tspan> <tspan x="40" y="278">sketch people and </tspan> <tspan x="40" y="331">places everywhere </tspan> <tspan x="40" y="384">I went.”</tspan></text><g transform="translate(223 3898)"><use fill="#000" filter="url(#U)" xlink:href="#V"/><use fill="#FFE8F7" xlink:href="#V"/></g><text font-family="ArialMT, Arial" font-size="48" fill="#545454" transform="translate(223 3898)"><tspan x="40" y="141">Checks out </tspan> <tspan x="40" y="194">Instagram to see </tspan> <tspan x="40" y="247">what’s been done </tspan> <tspan x="40" y="300">before for </tspan> <tspan x="40" y="353">inspiration</tspan></text><g transform="translate(773 3327)"><use fill="#000" filter="url(#W)" xlink:href="#X"/><use fill="#FFE8F7" xlink:href="#X"/></g><text font-family="ArialMT, Arial" font-size="48" fill="#545454" transform="translate(773 3327)"><tspan x="40" y="119">Likes to learn new </tspan> <tspan x="40" y="172">styles and do </tspan> <tspan x="40" y="225">different things </tspan> <tspan x="40" y="278">everyday.</tspan></text><g transform="translate(5184 2194)"><use fill="#000" filter="url(#Y)" xlink:href="#Z"/><use fill="#FFE8F7" xlink:href="#Z"/></g><text font-family="ArialMT, Arial" font-size="48" fill="#545454" transform="translate(5184 2194)"><tspan x="40" y="119">“Sometimes an </tspan> <tspan x="40" y="172">artist’s style may </tspan> <tspan x="40" y="225">not suit what clients </tspan> <tspan x="40" y="278">were looking for.”</tspan></text><g transform="translate(3168 2187)"><use fill="#000" filter="url(#aa)" xlink:href="#ab"/><use fill="#FFE8F7" xlink:href="#ab"/></g><text font-family="ArialMT, Arial" font-size="48" fill="#545454" transform="translate(3168 2187)"><tspan x="38" y="172">Takes time to </tspan> <tspan x="38" y="225">research references </tspan> <tspan x="38" y="278">and plan a drawing.</tspan></text><g transform="translate(1708 1594)"><use fill="#000" filter="url(#ac)" xlink:href="#ad"/><use fill="#A9F5FF" xlink:href="#ad"/></g><text font-family="ArialMT, Arial" font-size="48" fill="#545454" transform="translate(1708 1594)"><tspan x="56" y="174">Wants to search </tspan> <tspan x="56" y="227">for tattoo artists in </tspan> <tspan x="56" y="280">her area</tspan></text><g transform="translate(4569 1590)"><use fill="#000" filter="url(#ae)" xlink:href="#af"/><use fill="#A9F5FF" xlink:href="#af"/></g><text font-family="ArialMT, Arial" font-size="48" fill="#545454" transform="translate(4569 1590)"><tspan x="74" y="70">“I consider my </tspan> <tspan x="74" y="123">tattoos a part of </tspan> <tspan x="74" y="176">my life story and </tspan> <tspan x="74" y="229">personal identity </tspan> <tspan x="74" y="282">that I continuously </tspan> <tspan x="74" y="335">build and collect </tspan> <tspan x="74" y="388">as I go through </tspan> <tspan x="74" y="441">life”</tspan></text><g transform="translate(773 3898)"><use fill="#000" filter="url(#ag)" xlink:href="#ah"/><use fill="#FFE8F7" xlink:href="#ah"/></g><text font-family="ArialMT, Arial" font-size="48" fill="#545454" transform="translate(773 3898)"><tspan x="63" y="169">Many clients come </tspan> <tspan x="63" y="222">from yelp and try to </tspan> <tspan x="63" y="275">message for </tspan> <tspan x="63" y="328">availability.</tspan></text><g transform="translate(2279 1592)"><use fill="#000" filter="url(#ai)" xlink:href="#aj"/><use fill="#FFE8F7" xlink:href="#aj"/></g><text font-family="ArialMT, Arial" font-size="48" fill="#545454" transform="translate(2279 1592)"><tspan x="38" y="83">Main </tspan> <tspan x="38" y="136">communication is </tspan> <tspan x="38" y="189">via texting. Need to </tspan> <tspan x="38" y="242">set up multiple </tspan> <tspan x="38" y="295">appointments for </tspan> <tspan x="38" y="348">consultation, follow-</tspan> <tspan x="38" y="401">up, and actual </tspan> <tspan x="38" y="454">tattoo session.</tspan></text><g transform="translate(4569 2195)"><use fill="#000" filter="url(#ak)" xlink:href="#al"/><use fill="#FFE8F7" xlink:href="#al"/></g><text font-family="ArialMT, Arial" font-size="48" fill="#545454" transform="translate(4569 2195)"><tspan x="21" y="179">“I just remember that </tspan> <tspan x="21" y="232">the place was clean, </tspan> <tspan x="21" y="285">warm, friendly, and </tspan> <tspan x="21" y="338">had professional </tspan> <tspan x="21" y="391">atmosphere.”</tspan></text><g transform="translate(4569 2783)"><use fill="#000" filter="url(#am)" xlink:href="#an"/><use fill="#FFE8F7" xlink:href="#an"/></g><text font-family="ArialMT, Arial" font-size="48" fill="#545454" transform="translate(4569 2783)"><tspan x="23" y="179">“Great artwork and </tspan> <tspan x="23" y="232">was willing to listen </tspan> <tspan x="23" y="285">to my vision.”</tspan></text></g></svg>