<svg width="724" height="843" xmlns="http://www.w3.org/2000/svg"><defs><radialGradient cx="50%" cy="0%" fx="50%" fy="0%" r="100%" id="a"><stop stop-color="#FB2B2B" offset="0%"/><stop stop-color="#EC9C41" offset="100%"/></radialGradient><radialGradient cx="50%" cy="0%" fx="50%" fy="0%" r="100%" gradientTransform="matrix(0 .96956 -1 0 .5 -.485)" id="b"><stop stop-color="#FB2B2B" offset="0%"/><stop stop-color="#EC9C41" offset="100%"/></radialGradient></defs><g fill="none" fill-rule="evenodd"><path fill="#3465B2" d="M0 0h724v843H0z"/><g transform="translate(188 376)"><circle fill="url(#a)" cx="18.5" cy="35.5" r="17.5"/><path d="M19.292 17.058l2.552 5.563 3.796 10.241c.67 1.807.807 4.784.311 6.632L22.37 52.841m-5.166-35.537l-1.518 1.998-6.053 12.085c-1.068 2.132-1.378 5.704-.689 7.994l3.897 12.945" stroke="#C22B2B"/><path d="M7.35 22.406s2.929.802 5.202 1.166c2.272.364 4.914.353 4.914.353.42.005 1.103.004 1.516-.003 0 0 4.34-.04 6.115-.35 1.774-.311 5.136-1.166 5.136-1.166M3.14 26.653s.61.089 2.14.59c1.55.508 3.44 1.086 4.769 1.356 2.639.537 7 .835 7 .835.773.06 2.032.05 2.807-.024 0 0 5.015-.46 7.362-.811 2.347-.35 6.895-1.166 6.895-1.166M.997 33.142s.409.32 1.895.737c2.075.583 4.964 1.357 6.894 1.719 3.312.62 7.348.875 7.348.875.926.07 2.412.012 3.334-.136 0 0 4.38-.675 6.233-1.13 1.852-.456 9.16-2.065 9.16-2.065m-34.74 6.524s.017-.198.658 0c1.939.596 6.166 1.855 8.772 2.322 3.467.622 7.648.707 7.648.707.858.032 2.25-.038 3.095-.155 0 0 4.194-.561 5.964-.91 1.77-.35 8.533-1.749 8.533-1.749M3.717 45.456s.042.237 1.233.544c1.757.454 4.263 1.059 5.893 1.277 2.735.365 7.717.403 7.717.403a68.32 68.32 0 002.218-.011s4.522-.08 6.717-.392c2.196-.313 5.687-1.821 5.687-1.821M7.763 49.845s.853.68 2.418.95c.993.172 1.964.806 2.738.87 1.992.161 5.158.03 5.158.03.523-.017 1.37-.018 1.905-.004 0 0 2.89.103 4.351-.027 1.461-.13 3.91-1.414 3.91-1.414" stroke-opacity=".337" stroke="#C22B2B" stroke-width=".5"/><path d="M9.705 51.697s5.876 1.212 8.755 1.25c2.878.036 8.754-1.25 8.754-1.25v3.519s-2.69.548-3.938.697c-1.249.15-2.59.212-2.59.212-1.23.077-3.222.032-4.437-.103 0 0-2.347-.235-3.471-.456-1.124-.222-2.999-1.014-2.999-1.014l-.074-2.855z" fill="#1C1C1C"/><path fill="#323131" d="M18.286.508l-.546 14.808-2.042 3.008h5.176l-1.762-3.087.422-14.156z"/><path fill="#702626" d="M18.113 56.116l-.246 20.514h1.513l-.246-20.514z"/><circle fill="#D0A77E" cx="19" cy="63" r="2"/><circle fill="#D0A77E" cx="19" cy="72" r="2"/><path fill="#A64242" d="M17.42 76.333l-.357 8.431-1.244 4.992 2.537-4.687v3.219l.761-7.041-.126 9.493.96-4.773 2.228 4.169-.805-3.824-1.423-9.979z"/></g><path fill="#D8D8D8" d="M353.354 171.306l10.824-6.87 13.716 7.263-12.048 6.618z"/><path fill="#878787" d="M365.863 178.258l-.24 8.608 12.211-7.254v-7.98z"/><path fill="#A2A2A2" d="M353.347 171.3l12.497 6.975-.205 8.58-12.694-8.103z"/><path d="M363.536 172.505c-1.088-.19-1.928-1.249-1.877-2.349l3.031-65.417c.052-1.106.154-1.1.227 0l4.38 65.417c.075 1.106-.75 2.147-1.834 2.324l-.144.023c-1.087.177-2.846.167-3.938-.025l.155.027z" fill="#8A8A8A"/><path fill="#D8D8D8" d="M353.092 175.75l-6.569 3.84 19.072 11.361 18.546-11.656-6.36-3.546v3.84l-11.96 7.065-12.848-7.89z"/><path fill="#969696" d="M365.51 190.858l-.02 5.018 18.482-11.211.058-5.33z"/><path fill="#A7A5A5" d="M346.536 179.587l18.98 11.32v5.023l-18.801-10.303z"/><path d="M365.45 195.87l-1.339 143.797 138.985-78.815-11.931-3.44c-36.877-10.63-85.496-44.095-107.146-72.825l-18.57 11.283z" fill="#1D1D1D"/><path d="M365.536 195.91l-19.518-10.626c-15.996 24.4-58.103 54.244-94.045 66.658l-24.147 8.34 136.51 79.407 1.2-143.78z" fill="#363636"/><path d="M366.165 200.045l20.575-11.598M366 205.598l24.5-13.098" stroke="#131313"/><path d="M366 211.598l27.5-15.098" stroke="#727272"/><path d="M366 229.598l38.5-23.098M365 247.598l52.5-31.098M365 268.598l65.5-41.098M366 259.598l59.5-37.098M366 242.598l46.5-29.098M366 224.598l35.5-21.098m-35.5 8.098l27.5-15.098M365 296.598l90.5-54.098M365 281.598l78.5-46.098M366 253.598l54.5-34.098M365 275.598l71.5-44.098M365 308.598L466.5 248.5m-101.782 65.24L473.5 251.5m-108.81 68.912L480.5 253.5M365 328.598L487.5 256.5M365 333.598L497.5 259.5M366 302.598l94.5-57.098M365 289.598l82.5-50.098m-81.5-3.902l42.5-25.098m-42.5 7.098l31.5-18.098" stroke="#131313"/><path d="M275 242.402l89.667 54.062M287.5 236.5l77.378 45.036M311.5 220.5l53 33M294 231.402l71.5 44.098M264 248.402l100.535 60.046M257 251.402l107.41 62.146M250 253.402l114.37 66.926M243 256.402l121.27 71.964M233 259.402l131.311 74.028M270 245.402l94.5 57.098M283 239.402l81.75 50.005M323.5 210.5l41 25m-30-35l30 17M344.424 188L365 199.598m-24.5-6.098l24 12m-27-9l27 15m-38-4l38 22m-50-11l51 29M300 227.402l65.5 41.098m-59-45l58 36m-46-45l46 28m-34-38l34 20" stroke="#282828"/><path fill="#BF1A1A" d="M363.872 339.069l.266 69.683 102.763-58.003-.66-69.013z"/><path stroke="#792525" fill="#962121" d="M371.414 371.933l.791 30.974 42.597-23.077-1.198-30.746zm49.393-27.729l.933 30.476 42.004-22.954-1.724-30.545z"/><path fill="#6A5555" d="M372.635 338.986v23.616l42.39-23.616-.745-21.197zm49.006-26.317v21.284l41.328-22.928.059-21.504z"/><path d="M416.68 310.008l1.396 68.132" stroke="#A91717" stroke-width="2"/><path fill="#CE2424" d="M261.93 280.143l.185 71.4 102.142 57.227v-69.738z"/><path d="M312.523 310.245l-2.592 67.352" stroke="#A91717" stroke-width="2"/><path fill="#CAC8C8" d="M266.346 289.025l-.536 21.902 41.726 23.77.158-21.815zm49.492 28.905l-.549 22.232 41.04 23.062 1.576-24.205z"/><path stroke="#8C2B2B" fill="#A22727" d="M315.454 350.68v25.903l40.292 23.16 1.098-28.219zm-48.564-29.352l-.542 28.629 40.273 21.299.968-26.55z"/><path stroke="#A91717" stroke-width="2" d="M262.742 314.771l101.795 56.535 101.886-56.95"/><path d="M364.235 408.516l-1.496 60.428 162.376-95.393s-24.471-9.308-36.722-14.842c-12.251-5.534-21.452-11.436-21.452-11.436l-.064 3.487-102.642 57.756z" fill="#1D1D1D"/><path d="M364.254 408.385l-1.229 60.562-159.997-94.389s22.992-9.21 33.762-14.449c10.77-5.24 25.717-14.486 25.717-14.486l.054 5.798 101.693 56.964z" fill="#363636"/><path d="M364.281 413.686l108.753-62.177M365 422.177L480.5 355.5M364 430.177L487.5 359.5M364 455.177L511.5 371.5M364 462.177L517.5 374.5M364 446.177L504.5 368.5M364 438.177L495.5 363.5" stroke="#131313"/><path d="M363.56 438.336L232.756 364.5m130.791 49.113L255.504 353m108.113 69.103L247.757 356.5m116.008 73.755L240.757 360.5m122.151 94.759L216.757 372.5m146.157 89.726L210.757 375.5m152.516 70.85L223.757 369.5" stroke="#282828"/><path fill="#EBD5AE" d="M267.22 440.597l-37.994 17.126 132.366 74.111.275-16.615-94.647-54.303z"/><path fill="#B71818" d="M223.339 386.538l-.427 78.421 4.104 1.484 1.728-76.867z"/><path fill="#A82121" d="M223.446 441.935l139.575 79.393-1.023 5.49-138.792-79.712zm-.496 22.875l139.828 80.424 1.257-11.997-141.086-80.425z"/><path fill="#E63939" d="M362.427 469.2l-1.006 74.434 3.445 3.184v-1.858l1.667-78.303-2.878 1.7z"/><path fill="#961E1E" d="M251.145 457.625l-.76 22.869 4.96 2.82 1.94-22.06zm40.873 23.373l-.938 22.945 6.414 3.718 1.084-22.973zm43.367 24.662l-.685 23.323 5.513 3.19.918-23.214z"/><path fill="#CE2424" d="M267.188 412.442v48.716l94.882 55.064.903-47.405z"/><path fill="#BF1A1A" d="M366.535 466.651l-1.045 49.19 44.21-25.908 52.357-29.625-.798-49.268z"/><path fill="#B58484" d="M269.705 419.052l-.162 16.845 23.898 13.161 1.02-15.571z"/><path fill="#B52020" d="M297.742 430.45l-1.113 47.628 37.849 22.2 2.024-46.833z"/><path fill="#B58484" d="M336.97 455.189v17.426l22.623 12.492 2.051-15.686z"/><path fill="#B3B3B3" d="M300.442 433.835l-1.247 20.482 12.828 6.396 1.29-20.068zm17.598 10.15l.21 20.937 13.198 6.503.264-19.804z"/><path fill="#6E5A5A" d="M366.737 484.973l25.789-12.835-.76-17.832-24.445 13.214z"/><path fill="#A51818" d="M394.898 450.997v45.914l38.37-20.632-.576-47.733z"/><path fill="#6E5A5A" d="M434.572 431.92l-.182 18.379 26.272-14.71-1.257-17.734z"/><path fill="#898888" d="M397.525 449.52l.253 22.175 14.1-7.908-1.139-21.566zm17.721-10.16l.198 21.494 13.95-6.77-.38-22.49z"/><path fill="#C8A485" d="M365.455 515.543l96.439-55.419-.257-18.002 3.434-.237 35.282 22.994-135.407 80.977z"/><path fill="#BD3636" d="M226.667 438.902l40.419-21.21.104 2.67-40.119 21.341z"/><path fill="#B71818" d="M226.88 441.708v2.466l40.3-21.414v-2.486z"/><path fill="#A71515" d="M250.152 431.326l.493 17.156 3.57-1.79-.16-17.15z"/><path fill="#B22A2A" d="M248.916 432.293l.515 5.816-17.056 9.134 3.097 1.544 15.145-8.295-.087-9.35zm5.127-2.713l1.416-.636.347 6.24 12.669-6.24v2.222l-14.54 7.874z"/><path fill="#A71515" d="M260.988 435.139l.29 8.51 2.933-1.44-.512-8.457z"/><path fill="#BB2A2A" d="M250.658 440.402l-.986.6.493 7.231.493.166z"/><path fill="#A71515" d="M240.942 445.695l.395 6.712 3.693-1.669v-7.326zm-13.933-1.856l-.15 11.526 3.836 1.892-.415-14.942z"/><path fill="#BB2A2A" d="M260.94 434.414l-.48.202.183 8.946.66.063z"/><path fill="#BA2727" d="M241.028 445.674l-.636.372.935 6.314z"/><path fill="#B71818" d="M500.562 388.244l-.25 78.29 4.959-.64.452-80.928z"/><path fill="#9C2020" d="M365.27 521.105l135.102-75.03.09 3.846-135.328 77.36z"/><path fill="#8E1313" d="M365.063 532.156l135.534-75.883.273 10.263-136.195 80.36z"/><path fill="#821818" d="M389.423 512.516l-.097 19.445 5.052-3.485-.2-18.752z"/><path fill="#AB3131" d="M389.453 512.55l-1.866 1.112v18.573l1.866-.304z"/><path fill="#821818" d="M433.05 487.76l.652 18.443 3.408-1.791-.906-18.364z"/><path fill="#AB3131" d="M433.131 487.847l-1.803 1.082.4 18.476 1.933-1.24z"/><path fill="#821818" d="M473.86 464.81l-.37 17.801 5.759-3.117-.748-17.359z"/><path fill="#AB3131" d="M473.867 464.809l-2.262 1.282.797 17.29 1.465-.894z"/><path fill="#BE2020" d="M461.351 417.01l39.284 22.422v2.36l-39.255-22.46z"/><path fill="#9D1818" d="M461.395 419.323l.026 3.227 39.027 21.032v-2.011z"/><path fill="#8F2424" d="M473.867 429.248l-.811 18.192 6.451 3.987.618-18.893z"/><path d="M365.136 545.88l-1.606 84.89 228.775-133.131-19.973-7.21c-16.628-6.001-42.333-18.336-57.411-27.55l-9.486-5.796-4.464 9.306-135.835 79.49z" fill="#1D1D1D"/><path fill="#363636" d="M365.176 545.894L364 631.556 139.284 499.892l83.804-39.837v4.74z"/><path fill="#B71818" d="M146.745 504.259l-.505 105.64 7.778-.612.214-100.643zm427.576 3.63l.453 101.05 7.368.614.433-106.327z"/><path fill="#CE2424" d="M182.33 525.074l-1.673 89.923 179.88 103.09 4.284-86.45z"/><path fill="#BF1A1A" d="M364.061 630.388l3.64 87.674 179.882-104.797-.498-89.248z"/><path fill="#B61616" d="M361.412 630.111l-.898 106.5 8.494-1.806 2.03-106.659-5.768 2.383z"/><path fill="#B58484" d="M189.342 544.512l-1.057 33.144 49.196 27.612.608-32.016zm119.205 68.93l-1.585 32.13 47.242 27.596 1.169-32.997z"/><path fill="#BE2020" d="M461.46 429.085l12.396 5.903v4.873l-5.099-2.581-.08 3.95 4.751 2.86-.344 3.383-8.008-5.56-3.318.318-.153-3.045h3.237v-4.198l-3.237-.743zm18.492 9.874l18.593 8.239-13.993 7.744-5.13-3.55.192-3.498 4.805 2.02.216-4.105-4.889-1.783z"/><path fill="#7B1616" d="M500.441 449.587l-13.038 7.512 6.065 3.434 6.973-4.072z"/><path d="M365.49 553.002l151.363-87.803M365.931 561.88l158.403-92.91M365.457 570.55l166.982-97.153M365.198 580.7l175.903-103.52M365.012 588.716L549.427 481.41M364.674 598.718l193.733-113.562M364.6 608.007l203.456-118.824M364.697 616.224l212.45-123.385" stroke="#131313"/><path d="M212.686 466.352l152.288 87.379M206.018 468.32l158.543 94.424M199.093 472.19l165.218 98.42M190.81 477.378l174.12 103.564m-182.8-101.043l181.96 108.869M174.711 483.56l189.533 115.048M165.85 487.625l198.271 120.47M157.35 491.582l206.492 124.613M144.79 497.85l217.492 126.998" stroke="#282828"/><path fill="#A22727" d="M190 583.8l-.87 31.7 47.618 26.18 1.116-31.254zm118.229 66.077l-1.25 33.3 49.44 26.865-.015-30.546z"/><path fill="#B21F1F" d="M244.569 651.941l.387-77.17 55.996 31.51-.387 76.248z"/><path fill="#C3C3C3" d="M249.79 583.17l19.374 11.991-.434 32.306-19.714-11.69z"/><path fill="#764444" d="M249.79 619l19.374 11.992-.434 32.305-19.714-11.689zm26.294 14.976l19.417 11.169-.787 31.152-18.63-10.845z"/><path fill="#C3C3C3" d="M275.773 597l19.374 11.992-.433 32.305L275 629.608z"/><path fill="#5F5555" d="M374.534 638.977l-.844 34.018 46.108-25.416-.275-33.87zm116.178-65.912l.302 31.912 48.872-27.25-.164-33.163z"/><path fill="#962121" d="M374.693 677.692l.667 31.076 43.919-25.987.546-30.954zm117.624-68.377l-.898 30.952 49.634-27.582.644-30.56z"/><path fill="#A11717" d="M428.52 682.481l-1.018-75.283 56.355-32.938 1.297 75.92z"/><path fill="#6B6B6B" d="M433.336 645.863l-.61 31.01 20.092-10.31.136-32.043zm25.844-16.859l.448 31.824 20.312-10.486-1.017-31.333z"/><path fill="#B9B8B8" d="M432.127 609.015l-.27 32.23 20.65-10.63.618-31.4zm28.543-15.214l-.381 31.01 19.49-10.175-.203-31.213z"/><g transform="translate(62 89)"><path d="M.908 345.622v5.631c0 2.21 1.664 4.672 3.719 5.492 0 0 2.086.862 3.209 1.228 1.123.367 3.89.931 3.89.931 3.73.818 9.77.735 13.477-.183l1.73-.428c3.712-.919 6.722-4.77 6.722-8.577v-3.627l-32.747-.467z" fill="#171717"/><path fill="#F1EBEB" d="M20.644 82.486l-1.468 110.139 144.46-83.823.237-108.11z"/><ellipse fill="#DC3232" transform="rotate(22 90.677 96.089)" cx="90.677" cy="96.089" rx="26.5" ry="39.5"/><ellipse fill="#363535" cx="17" cy="345" rx="16" ry="11"/><path d="M20.405 82.934l-.89 259.248a2.87 2.87 0 01-3.005 2.877l.72.027c-1.768-.067-3.201-1.548-3.201-3.331L14.004 88.73c0-1.773 1.326-3.746 2.975-4.412l3.426-1.384z" fill="#171717"/></g><g transform="translate(486 261)"><ellipse fill="url(#b)" cx="14.389" cy="29.478" rx="13.611" ry="14.038"/><path d="M15.005 14.684l2.864 3.789s1.465 2.765 2.25 4.166c.784 1.401 1.698 3.996 1.698 3.996.734 1.936.905 5.134.372 7.123 0 0-.578 2.373-1.012 3.373-.434 1-3.778 6.258-3.778 6.258M13.381 14.88l-1.18 1.604s-2.745 3.77-3.812 5.966c-1.066 2.196-1.354 3.496-1.354 3.496-.578 1.838-.827 4.888-.543 6.8 0 0 .296 2.362.621 3.478.326 1.116 2.874 6.752 2.874 6.752" stroke="#C22B2B"/><path d="M5.716 18.974s2.279.643 4.046.935c1.768.292 3.808.283 3.808.283.335.004.873.004 1.212-.002 0 0 3.358-.031 4.738-.28 1.38-.25 3.994-.936 3.994-.936M2.442 22.381s.474.071 1.665.473c1.206.408 2.676.871 3.709 1.088 2.052.43 5.406.667 5.406.667.623.05 1.638.041 2.26-.02 0 0 3.862-.366 5.687-.647 1.826-.281 5.363-.935 5.363-.935M.775 27.586s.318.257 1.474.592c1.614.468 3.861 1.089 5.362 1.378 2.577.498 5.674.699 5.674.699.744.059 1.937.01 2.675-.112 0 0 3.366-.535 4.807-.9 1.441-.366 7.124-1.657 7.124-1.657M1.384 32.82c1.508.478 4.795 1.488 6.822 1.863 2.697.499 5.91.565 5.91.565a16.77 16.77 0 002.496-.13s3.212-.443 4.589-.723c1.376-.28 6.636-1.402 6.636-1.402M4.11 37.901s-1.186-.246-.26 0c1.367.364 3.315.85 4.584 1.024 2.127.293 5.978.323 5.978.323.49.007 1.288.004 1.782-.009 0 0 3.484-.063 5.191-.314 1.708-.25 4.423-1.46 4.423-1.46M7.214 40.616s-.512.914.704 1.132c.773.138 1.528.647 2.13.697 1.55.13 3.811.03 3.811.03a40 40 0 011.89-.004s2.04.078 3.177-.026c1.136-.104 3.041-1.135 3.041-1.135" stroke-opacity=".337" stroke="#C22B2B" stroke-width=".5"/><path d="M7.606 41.68s4.513 1.764 6.751 1.793c2.239.03 6.81-1.794 6.81-1.794v3.615s-2.093.44-3.064.56c-.97.12-1.572.138-1.572.138-1.2.079-3.138.035-4.338-.104 0 0-1.38-.136-2.255-.313-.873-.178-2.332-.813-2.332-.813v-3.083z" fill="#1C1C1C"/><path fill="#323131" d="M14.223 1.481l-.425 11.805L12.21 15.7h4.025l-1.37-2.477.233-12.241z"/><path fill="#702626" d="M13.897 45.86v16.612h1.176V45.861z"/><ellipse fill="#D0A77E" cx="14.778" cy="51.538" rx="1.556" ry="1.604"/><ellipse fill="#D0A77E" cx="14.778" cy="58.758" rx="1.556" ry="1.604"/><path fill="#A64242" d="M13.27 62.2v6.798l-.966 4.004 1.973-3.76v2.582l.592-5.648-.098 7.615.746-3.829 1.733 3.345-.626-3.068-1.3-8.039z"/></g><g transform="translate(344 468)"><circle fill="url(#a)" cx="18.5" cy="35.5" r="17.5"/><path d="M19.292 17.058l2.552 5.563 3.796 10.241c.67 1.807.807 4.784.311 6.632L22.37 52.841m-5.166-35.537l-1.518 1.998-6.053 12.085c-1.068 2.132-1.378 5.704-.689 7.994l3.897 12.945" stroke="#C22B2B"/><path d="M7.35 22.406s2.929.802 5.202 1.166c2.272.364 4.914.353 4.914.353.42.005 1.103.004 1.516-.003 0 0 4.34-.04 6.115-.35 1.774-.311 5.136-1.166 5.136-1.166M3.14 26.653s.61.089 2.14.59c1.55.508 3.44 1.086 4.769 1.356 2.639.537 7 .835 7 .835.773.06 2.032.05 2.807-.024 0 0 5.015-.46 7.362-.811 2.347-.35 6.895-1.166 6.895-1.166M.997 33.142s.409.32 1.895.737c2.075.583 4.964 1.357 6.894 1.719 3.312.62 7.348.875 7.348.875.926.07 2.412.012 3.334-.136 0 0 4.38-.675 6.233-1.13 1.852-.456 9.16-2.065 9.16-2.065M2.682 39.98s-1.544-.512-.903-.314c1.939.596 6.166 1.855 8.772 2.322 3.467.622 7.665.708 7.665.708a21.12 21.12 0 003.062-.154s4.21-.563 5.98-.912c1.77-.35 8.155-1.741 8.155-1.741M3.717 45.456s.042.237 1.233.544c1.757.454 4.263 1.059 5.893 1.277 2.735.365 7.717.403 7.717.403a68.32 68.32 0 002.218-.011s4.522-.08 6.717-.392c2.196-.313 5.147-1.821 5.147-1.821M7.763 49.845s.853.68 2.418.95c.993.172 1.964.806 2.738.87 1.992.161 5.158.03 5.158.03.523-.017 1.37-.018 1.905-.004 0 0 2.89.103 4.351-.027 1.461-.13 3.91-1.414 3.91-1.414" stroke-opacity=".337" stroke="#C22B2B" stroke-width=".5"/><path d="M9.984 50.92s5.597 1.99 8.476 2.026c2.878.037 8.342-2.026 8.342-2.026l.412 4.296s-2.69.548-3.938.697a30.57 30.57 0 01-2.212.186c-1.438.091-3.77.04-5.205-.122 0 0-1.957-.19-3.081-.411-1.124-.222-2.999-1.014-2.999-1.014l.205-3.632z" fill="#1C1C1C"/><path fill="#323131" d="M18.286.508l-.546 14.808-2.042 3.008h5.176l-1.762-3.087.49-14.73z"/><path fill="#702626" d="M18.085 55.998l-.218 20.632h1.513l-.301-20.632z"/><circle fill="#D0A77E" cx="19" cy="63" r="2"/><circle fill="#D0A77E" cx="19" cy="72" r="2"/><path fill="#A64242" d="M17.608 76.575l-.545 8.19-1.244 4.991 2.537-4.687v3.219l.761-7.041-.126 9.493.96-4.773 2.228 4.169-.805-3.824-1.67-9.737z"/></g><g transform="translate(505 374)"><circle fill="url(#a)" cx="18.5" cy="35.5" r="17.5"/><path d="M19.292 17.058l2.552 5.563 3.796 10.241c.67 1.807.807 4.784.311 6.632L22.37 52.841m-5.166-35.537l-1.518 1.998-6.053 12.085c-1.068 2.132-1.378 5.704-.689 7.994l3.897 12.945" stroke="#C22B2B"/><path d="M7.35 22.406s2.929.802 5.202 1.166c2.272.364 4.914.353 4.914.353.42.005 1.103.004 1.516-.003 0 0 4.34-.04 6.115-.35 1.774-.311 5.136-1.166 5.136-1.166M3.14 26.653s.61.089 2.14.59c1.55.508 3.44 1.086 4.769 1.356 2.639.537 7 .835 7 .835.773.06 2.032.05 2.807-.024 0 0 5.015-.46 7.362-.811 2.347-.35 6.895-1.166 6.895-1.166M.997 33.142s.409.32 1.895.737c2.075.583 4.964 1.357 6.894 1.719 3.312.62 7.348.875 7.348.875.926.07 2.412.012 3.334-.136 0 0 4.38-.675 6.233-1.13 1.852-.456 9.16-2.065 9.16-2.065M1.779 39.477s-.64-.009 0 .189c1.939.596 6.166 1.855 8.772 2.322 3.467.622 7.597.705 7.597.705a22.23 22.23 0 003.21-.162s4.13-.552 5.9-.901c1.77-.35 7.908-1.67 7.908-1.67M4.26 45.256s-.5.437.69.744c1.757.454 4.263 1.059 5.893 1.277 2.735.365 7.625.4 7.625.4.665.01 1.738.007 2.426-.011 0 0 4.406-.077 6.601-.39 2.196-.312 5.27-1.766 5.27-1.766M8.326 49.162s.29 1.362 1.855 1.633c.993.172 1.964.806 2.738.87 1.992.161 4.813.04 4.813.04.714-.023 1.88-.024 2.586-.007 0 0 2.554.096 4.015-.034.647-.057 1.488-.341 2.224-.64.926-.376 1.53-1.018 1.53-1.018" stroke-opacity=".337" stroke="#C22B2B" stroke-width=".5"/><path d="M10.086 50.978s5.495 1.931 8.374 1.968c2.878.037 8.573-1.968 8.573-1.968l.18 4.238s-2.689.548-3.937.697c-1.249.15-2.237.188-2.237.188-1.425.09-3.732.039-5.15-.12 0 0-1.987-.194-3.111-.415-1.124-.222-2.999-1.014-2.999-1.014l.307-3.574z" fill="#1C1C1C"/><path fill="#323131" d="M18.286.637l-.546 14.679-2.042 3.008h5.176l-1.762-3.087.131-15.189z"/><path fill="#702626" d="M17.867 56.019V76.63h1.513V56.019z"/><circle fill="#D0A77E" cx="19" cy="63" r="2"/><circle fill="#D0A77E" cx="19" cy="72" r="2"/><path fill="#A64242" d="M17.516 76.328l-.453 8.436-1.244 4.992 2.537-4.687v3.219l.761-7.041-.126 9.493.96-4.773 2.228 4.169-.805-3.824-1.876-9.984z"/></g><g transform="translate(350 337)"><ellipse fill="url(#b)" cx="14.389" cy="29.478" rx="13.611" ry="14.038"/><path d="M15.005 14.684l2.864 3.789s1.465 2.765 2.25 4.166c.784 1.401 1.698 3.996 1.698 3.996.734 1.936.905 5.134.372 7.123 0 0-.578 2.373-1.012 3.373-.434 1-3.778 6.258-3.778 6.258M13.381 14.88l-1.18 1.604s-2.745 3.77-3.812 5.966c-1.066 2.196-1.354 3.496-1.354 3.496-.578 1.838-.827 4.888-.543 6.8 0 0 .296 2.362.621 3.478.326 1.116 2.874 6.752 2.874 6.752" stroke="#C22B2B"/><path d="M5.716 18.974s2.279.643 4.046.935c1.768.292 3.808.283 3.808.283.335.004.873.004 1.212-.002 0 0 3.358-.031 4.738-.28 1.38-.25 3.994-.936 3.994-.936m-20.219 3.88s-.379-.402.812 0c1.206.408 2.676.871 3.709 1.088 2.052.43 5.553.68 5.553.68a13.23 13.23 0 001.959-.018s4.016-.38 5.841-.662c1.826-.281 5.363-.935 5.363-.935M.775 27.586s.318.257 1.474.592c1.614.468 3.861 1.089 5.362 1.378 2.577.498 5.674.699 5.674.699.744.059 1.937.01 2.675-.112 0 0 3.366-.535 4.807-.9 1.441-.366 7.124-1.657 7.124-1.657M.872 32.82s.013-.158.512 0c1.508.478 4.795 1.488 6.822 1.863 2.697.499 5.91.565 5.91.565a16.77 16.77 0 002.496-.13s3.212-.443 4.589-.723c1.376-.28 6.636-1.402 6.636-1.402M2.89 37.465s.034.19.96.436c1.367.364 3.315.85 4.584 1.024 2.127.293 5.978.323 5.978.323.49.007 1.288.004 1.782-.009 0 0 3.484-.063 5.191-.314 1.708-.25 4.423-1.46 4.423-1.46m-19.77 3.521s.664.544 1.88.762c.773.138 1.528.647 2.13.697 1.55.13 3.995.025 3.995.025a30.605 30.605 0 011.515-.003s2.231.082 3.368-.022c1.136-.104 3.041-1.135 3.041-1.135" stroke-opacity=".337" stroke="#C22B2B" stroke-width=".5"/><path d="M7.548 42.472s4.57.972 6.81 1.001c2.238.03 6.808-1.001 6.808-1.001v2.822s-2.092.44-3.063.56a30.01 30.01 0 01-1.966.166 23.99 23.99 0 01-3.568-.088s-1.757-.18-2.63-.357c-.874-.178-2.333-.813-2.333-.813l-.058-2.29z" fill="#1C1C1C"/><path fill="#323131" d="M14.223 1.481l-.425 11.805L12.21 15.7h4.025l-1.37-2.477.233-12.241z"/><path fill="#702626" d="M14.09 45.89l-.193 16.582h1.176l-.22-16.454z"/><ellipse fill="#D0A77E" cx="14.778" cy="51.538" rx="1.556" ry="1.604"/><ellipse fill="#D0A77E" cx="14.778" cy="58.758" rx="1.556" ry="1.604"/><path fill="#A64242" d="M13.795 62.13l-.524 6.868-.967 4.004 1.973-3.76v2.582l.592-5.648-.098 7.615.746-3.829 1.733 3.345-.626-3.068-1.31-7.936z"/></g><g transform="translate(215.392 260.5)"><ellipse fill="url(#b)" cx="14.389" cy="29.478" rx="13.611" ry="14.038"/><path d="M15.005 14.684l2.864 3.789s1.465 2.765 2.25 4.166c.784 1.401 1.698 3.996 1.698 3.996.734 1.936.905 5.134.372 7.123 0 0-.578 2.373-1.012 3.373-.434 1-3.778 6.258-3.778 6.258M13.381 14.88l-1.18 1.604s-2.745 3.77-3.812 5.966c-1.066 2.196-1.354 3.496-1.354 3.496-.578 1.838-.827 4.888-.543 6.8 0 0 .296 2.362.621 3.478.326 1.116 2.874 6.752 2.874 6.752" stroke="#C22B2B"/><path d="M5.716 18.974s2.279.643 4.046.935c1.768.292 3.808.283 3.808.283.335.004.873.004 1.212-.002 0 0 3.358-.031 4.738-.28 1.38-.25 3.994-.936 3.994-.936M2.735 22.41s.181.042 1.372.444c1.206.408 2.676.871 3.709 1.088 2.052.43 5.431.669 5.431.669.609.049 1.594.041 2.21-.02 0 0 3.887-.368 5.712-.649 1.826-.281 5.363-.935 5.363-.935M1.09 27.793s.003.05 1.16.385c1.613.468 3.86 1.089 5.361 1.378 2.577.498 5.674.699 5.674.699.744.059 1.937.01 2.675-.112 0 0 3.366-.535 4.807-.9 1.441-.366 7.124-1.657 7.124-1.657M1.384 32.82c1.508.478 4.795 1.488 6.822 1.863 2.697.499 5.91.565 5.91.565a16.77 16.77 0 002.496-.13s3.212-.443 4.589-.723c1.376-.28 6.25-1.324 6.25-1.324m-22.976 4.83s-1.551-.246-.625 0c1.367.364 3.315.85 4.584 1.024 2.127.293 5.978.323 5.978.323.49.007 1.288.004 1.782-.009 0 0 3.484-.063 5.191-.314 1.708-.25 4.014-1.46 4.014-1.46m-18.776 2.92s.079 1.145 1.295 1.363c.773.138 1.528.647 2.13.697 1.55.13 3.694.033 3.694.033.582-.018 1.54-.018 2.117-.005 0 0 1.93.076 3.067-.028 1.136-.104 3.041-1.135 3.041-1.135" stroke-opacity=".337" stroke="#C22B2B" stroke-width=".5"/><path d="M7.93 41.896s4.189 1.548 6.427 1.577c2.239.03 6.678-1.668 6.678-1.668l.131 3.49s-2.092.438-3.063.558c-.97.12-1.631.143-1.631.143-1.168.077-3.06.034-4.208-.1 0 0-1.452-.144-2.326-.321-.873-.178-2.332-.813-2.332-.813l.323-2.866z" fill="#1C1C1C"/><path fill="#323131" d="M14.223.778l-.425 12.508L12.21 15.7h4.025l-1.37-2.477.435-11.8z"/><path fill="#702626" d="M14.077 45.853l-.18 16.62h1.176l-.201-16.62z"/><ellipse fill="#D0A77E" cx="14.778" cy="51.538" rx="1.556" ry="1.604"/><ellipse fill="#D0A77E" cx="14.778" cy="58.758" rx="1.556" ry="1.604"/><path fill="#A64242" d="M13.59 62.242l-.32 6.756-.966 4.004 1.973-3.76v2.582l.592-5.648-.098 7.615.746-3.829 1.733 3.345-.626-3.068-1.275-7.997z"/></g></g></svg>