<svg width="339" height="276" xmlns="http://www.w3.org/2000/svg"><g fill="none" fill-rule="evenodd"><path fill="#B08181" d="M0 0h339v276H0z"/><g transform="translate(48 10)"><circle fill="#E23939" cx="108" cy="106" r="100"/><circle fill="#BD2E2E" cx="108" cy="106" r="75"/><ellipse fill="#722020" cx="108" cy="53" rx="2" ry="53"/><ellipse fill="#722020" cx="108" cy="159" rx="2" ry="54"/><g transform="rotate(-90 53.899 53.899)" fill="#722020"><ellipse cx="2" cy="54.277" rx="2" ry="54.277"/><ellipse cx="2" cy="161.365" rx="2" ry="54.277"/></g><g transform="rotate(-133 55.207 82.336)" fill="#722020"><ellipse cx="2" cy="53" rx="2" ry="53"/><ellipse cx="2" cy="158" rx="2" ry="53"/></g><g transform="rotate(-45 54.823 -21.978)" fill="#722020"><ellipse cx="2" cy="53" rx="2" ry="53"/><ellipse cx="2" cy="158" rx="2" ry="53"/></g></g><g transform="translate(188 57)"><ellipse fill="#FAF6F0" cx="41.5" cy="46.72" rx="41.5" ry="46.5"/><path d="M61.896 28.948c-1.536-.072-3.524.881-4.44 2.13l-1.11 1.514s9.203-1.307 13.593-.971c4.39.335 10.362 2.803 10.362 2.803s-5.645-3.45-9.215-4.395c-3.57-.944-9.19-1.08-9.19-1.08zm-25.108-5.875c1.401.633 2.74 2.385 2.989 3.914l.302 1.852s-7.607-5.342-11.671-7.036c-4.064-1.694-10.505-2.207-10.505-2.207s6.596-.511 10.205.268c3.61.779 8.68 3.209 8.68 3.209z" fill="#3C3C3C"/></g><g transform="translate(163 10)"><ellipse fill="#3C3C3C" cx="126" cy="38" rx="18" ry="19"/><ellipse fill="#3C3C3C" cx="49" cy="19" rx="18" ry="19"/><path d="M39.336 26.669l9.07-4.338c36.865-17.632 73.531.51 81.893 40.504l2.56 12.244 15.488 31.142-16.497-17.11 9 22.011-7.992-5.977 7.992 33.598s-9.311-.236-13.272 2.245c-3.96 2.482-12.422 35.96-12.422 35.96h-6.026l-8.044-17.262s-8.324 26.668-13.91 30.799c-5.587 4.13-3.498-29.643-3.498-29.643l1.943-8.55-9.295 7.394 5.296-14.581-17.42 17.424 26.944-45.67-13.675 6.896 18.878-20.524c2.616-2.843 5.704-8.14 6.89-11.809l3.086-9.541-.16-.212c-4.309-5.742-13.388-12.033-20.284-14.053L65.656 61.69l-.328-12.906-8.339 8.876-10.478 1.81c-2.175.375-4.76 2.273-5.768 4.231l-3.508 6.814c-7.839 15.225-5.959 38.736 2.62 50.373l5.059 6.914 4.234 38.452L2.38 181.2V70.527l20.66-20.134L.36 52.514l25.62-10.29-18.492 4.36 31.847-19.915z" fill="#3C3C3C"/><path d="M111.284 28.412l7.375 6.367c3.644 3.145 7.358 9.526 8.293 14.246l1.746 8.805-17.414-29.418zm-44.878-12.65l-9.693.985c-4.79.486-11.49 3.583-14.965 6.913l-6.48 6.211 31.138-14.11z" fill="#CC3B4F"/></g><path d="M137.134 83.965c20.42-2.507 37.353-1.438 40.954 27.889 2.047 16.67-1.428 26.97-8.6 37.734-7.172 10.762-13.04 18.825-21.852 19.907-9.299 1.141-20.901-9.686-28.398-17.028-7.496-7.343-13.133-15.562-15.094-31.534-3.6-29.327 12.571-34.46 32.99-36.968z" fill="#FFF"/><path d="M150.218 129.75l3.272-11.338c.92-3.184 4.336-5.409 7.609-4.97l1.278.17c2.734.366 5.426-1.525 6.006-4.197l-.46 7.072c-.145 2.207-1.886 4.737-3.9 5.656l1.076-.49c-3.02 1.376-8.132 2.82-10.049 3.055l-4.832 5.041zm-13.803 1.625l-5.918-10.208c-1.662-2.868-5.516-4.2-8.585-2.983l-1.198.475c-2.565 1.016-5.635-.168-6.844-2.62l2.158 6.751c.674 2.107 2.976 4.14 5.152 4.544l-1.163-.216c3.263.606 8.573.77 10.49.535l5.908 3.722z" fill="#454545"/><path d="M134.738 94.714c-2.154-.766-4.428.38-5.085 2.583l-.74 2.482c-.655 2.192-.244 5.568.912 7.531l1.352 2.298a185.565 185.565 0 013.997 7.225l1.14 2.2c.985-1.862.791-4.934-.434-6.865l-2.697-4.25c-1.225-1.93-1.052-4.93.387-6.7l1.758-2.164c1.439-1.77.87-3.822-1.296-4.591l.706.25zm5.562-.932c1.783-1.184 3.976-.88 4.898.678l2.2 3.718c.922 1.557 1.251 4.234.739 5.966l-1.24 4.192a146.181 146.181 0 00-1.686 6.31l-.777 3.26-.272-.304c-1.256-1.4-1.808-3.935-1.23-5.674l2.114-6.353c.577-1.733-.24-4.103-1.812-5.283l-3.123-2.345c-1.577-1.184-1.417-3.1.373-4.287m10.179 18.43l2.507-14.981.162 1.322c.27 2.194 1.483 2.471 2.696.642l1.232-1.858-.66 2.453c-.6 2.23-2.02 5.653-3.178 7.654l-2.76 4.768zm-20.823 2.557l-6.057-13.93.162 1.322c.27 2.194-.84 2.757-2.46 1.275l-1.645-1.505 1.234 2.221c1.12 2.018 3.328 4.996 4.935 6.657l3.831 3.96z" fill="#FF5FAF"/><path d="M157.731 139.34l20.935-18.009c.07 1.26-.257 5.153-.257 5.153l-20.678 12.856zm1.265 7.64l18.763-16.034-.87 3.822c-.247 1.08-1.218 2.41-2.167 2.967l-15.726 9.245zm-28.112-3.336l-24.67-12.41c.236 1.24 1.496 4.938 1.496 4.938l23.174 7.472zm.621 7.719l-22.085-11.018 1.77 3.497c.5.989 1.764 2.044 2.82 2.355l17.495 5.166z" fill="#FF72B9"/><path d="M143.769 147.878c1.307 1.538 3.097 1.312 3.99-.49l.923-1.86c.738-1.488.009-2.531-1.644-2.328l-3.582.44c-1.646.202-2.108 1.391-1.032 2.657l1.345 1.581z" fill="#363636"/><path d="M126.32 151.789s8.21 3.52 11.672 3.862c3.462.341 9.56-1.766 9.56-1.766s4.89.71 7.473-.326c2.582-1.035 10.716-6.61 10.716-6.61s-4.406 5.775-8.006 8.084c-3.6 2.308-9.525 1.17-9.525 1.17s-9.281 2.536-12.698 1.558c-3.416-.977-9.193-5.972-9.193-5.972z" fill="#FF72B9"/><path d="M108.14 79.44c-4.03-2.911-7.47-1.242-7.684 3.714l.066-1.537c-.336 7.791 1.308 20.14 3.668 27.564l.93 2.93 29.68-22.513-3.262-.622c-7.655-1.462-18.98-6.345-25.31-10.918l1.913 1.382z" fill="#FFF"/><path d="M107.356 85.573c-1.134-1.211-1.814-.866-1.518.766l3.501 19.322 12.084-13.627-1.548-.162c-4.052-.423-9.597-3.18-12.383-6.153l-.136-.146z" fill="#FF5FAF"/><path d="M164.286 71.583c3.253-3.764 7.105-2.978 8.606 1.76l-.377-1.188c2.344 7.4 3.92 19.689 3.523 27.426l-.161 3.126-35.45-15.147 3.315-1.453C150.85 82.989 160.728 75.7 165.8 69.83l-1.514 1.752z" fill="#FFF"/><path d="M166.814 77.304c.835-1.434 1.596-1.256 1.7.39l1.226 19.502-15.487-10.18 1.495-.53c3.979-1.407 8.926-5.506 11.052-9.158l.014-.024z" fill="#FF5FAF"/><path d="M177.024 105.114l-4.197.034c-.553.005-1.364.265-1.824.591l.381-.27c-.904.642-1.563 2.056-1.472 3.149l-.072-.861c.138 1.652 1.533 3.402 3.105 3.904l1.43.457c2.105.672 2.798 2.685 1.54 4.51l-.723 1.048c-2.193 3.18-5.052 8.692-6.391 12.327l-3.155 8.56 1.486.504 2.972-7.278c1.636-4.007 4.838-10.22 7.154-13.881l.668-1.057c1.18-1.866.514-4.158-1.469-5.111l-3.326-1.599c-.496-.238-.824-.872-.732-1.411l.221-1.307c.092-.541.62-.971 1.157-.961l3.574.068-.327-1.416z" fill="#F3336A"/><path d="M177.026 106.3l.158-.585c.855-3.172 4.103-5.006 4.853-4.79h0c1.567 1.684 1.658 5.438 1.617 5.52h0c-.668 1.697-2.704 4.75-4.533 6.802l-1.091 1.225-2.323 22.271" stroke="#F3336A" stroke-width="2"/><g transform="rotate(-7 1154.723 -1251.23)"><ellipse stroke="#FFD98A" stroke-width=".2" fill="#FE9" transform="rotate(29 5.47 5.455)" cx="5.47" cy="5.455" rx="4.036" ry="4"/><path d="M3.11 2.225l1.06 1.302.569.42c.645.477 1.812.92 2.616.99l2.062.18M2.054 3.425l1.302 1.481c.569.647 1.728 1.239 2.594 1.322l3.378.327" stroke="#383838" stroke-width=".1"/><path fill="#565656" d="M2.63 6.937l.398-.604 3.207 1.832-.486.63-1.24-.653-.317.493-.723-.39.165-.616z"/></g><g transform="rotate(-32 322.12 -226.221)"><ellipse stroke="#FFD98A" stroke-width=".2" fill="#FE9" transform="rotate(29 5.47 5.455)" cx="5.47" cy="5.455" rx="4.036" ry="4"/><path d="M3.11 2.225l1.06 1.302.569.42c.645.477 1.812.92 2.616.99l2.062.18M2.054 3.425l1.302 1.481c.569.647 1.728 1.239 2.594 1.322l3.378.327" stroke="#383838" stroke-width=".1"/><path fill="#565656" d="M2.63 6.937l.398-.604 3.207 1.832-.486.63-1.24-.653-.317.493-.723-.39.165-.616z"/></g><path d="M102.647 111.867l-4.197.035c-.553.004-1.364.265-1.824.59l.381-.27c-.905.642-1.563 2.056-1.472 3.149l-.072-.861c.138 1.652 1.533 3.402 3.104 3.904l1.431.457c2.105.672 2.798 2.685 1.54 4.51l-.723 1.048c-2.193 3.18-5.052 8.692-6.392 12.328l-3.154 8.56 1.486.503 2.971-7.277c1.637-4.008 4.838-10.22 7.155-13.882l.668-1.057c1.18-1.866.514-4.158-1.469-5.111l-3.326-1.599c-.496-.238-.824-.872-.732-1.411l.221-1.307c.092-.541.62-.971 1.156-.961l3.575.068-.327-1.416z" fill="#F3336A"/><path d="M102.455 113.173l.157-.584c.856-3.172 4.104-5.006 4.854-4.79h0c1.566 1.683 1.657 5.438 1.617 5.52h0c-.669 1.697-2.705 4.75-4.534 6.802l-1.09 1.225-2.323 22.27" stroke="#F3336A" stroke-width="2"/><g transform="rotate(-7 1167.699 -636.61)"><ellipse stroke="#FFD98A" stroke-width=".2" fill="#FE9" transform="rotate(29 5.47 5.455)" cx="5.47" cy="5.455" rx="4.036" ry="4"/><path d="M3.11 2.225l1.06 1.302.569.42c.645.477 1.812.92 2.616.99l2.062.18M2.054 3.425l1.302 1.481c.569.647 1.728 1.239 2.594 1.322l3.378.327" stroke="#383838" stroke-width=".1"/><path fill="#565656" d="M2.63 6.937l.398-.604 3.207 1.832-.486.63-1.24-.653-.317.493-.723-.39.213-.574z"/></g><g transform="rotate(-32 295.117 -92.617)"><ellipse stroke="#FFD98A" stroke-width=".2" fill="#FE9" transform="rotate(29 5.47 5.455)" cx="5.47" cy="5.455" rx="4.036" ry="4"/><path d="M3.11 2.225l1.06 1.302.569.42c.645.477 1.812.92 2.616.99l2.062.18M2.054 3.425l1.302 1.481c.569.647 1.728 1.239 2.594 1.322l3.378.327" stroke="#383838" stroke-width=".1"/><path fill="#565656" d="M2.63 6.937l.398-.604 3.207 1.832-.486.63-1.24-.653-.317.493-.723-.39.165-.616z"/></g><path fill="#565656" d="M165.739 138.222l.596-1.246.788.381-.517 1.472zm-74.771 6.61l.727-1.424.565.23-.534 1.405zm10.279 1.89l-.083-1.598.604-.083.241 1.483zm74.897-5.987l-.166-1.59.6-.115.317 1.468z"/><path d="M139.136 196.855l.097-2.852-10.675-14.197-3.66-7.75-2.068-2.339c-2.564-2.898-3.16-8.008-1.327-11.422l-.37.691c.781-1.456 1.327-3.977 1.219-5.626l-.094-1.424c-.108-1.652.89-2.205 2.229-1.237l-.081-.058c.45.325.91 1.018 1.036 1.57l.758 3.342c-1.005 7.097 4.087 12.85 4.087 12.85l3.278 4.634 3.092-10.564c.93-3.178 3.015-8.083 4.66-10.963l2.703-4.733c.82-1.435 2.566-3.386 3.912-4.366l-.409.298c.442-.322 1.11-.269 1.508.137l.187.19c.39.399.53 1.121.305 1.628l-5.32 11.995c-1.42 2.42-1.68 10.136-1.235 13.009l7.403-12.44c2.26-3.798 6.39-9.62 9.234-13.013l1.123-1.34a.966.966 0 011.382-.103l-.303-.267c.412.363.568 1.065.346 1.573l-2.911 6.676-5.196 11.441c-.914 2.011-1.883 5.423-2.164 7.608l.231-1.797c-.14 1.09.2 1.213.769.256l4.685-7.872c.849-1.426 1.61-3.917 1.7-5.578l.188-3.449 3.55-7.443c.785.033 1.302.941 1.153 2.035l-1.689 12.444-1.918 5.45c-.55 1.56-1.006 4.177-1.02 5.815l-.014 1.774c1.63-.685 3.422-3.418 4.005-6.12l.588-2.723-.906-5.19.836-4.219c1.103.986 2.943 4.305 4.07 7.31.294 2.618-1.34 8.804-1.755 9.703l-.468 10.543c-.197 4.417-1.854 11.246-3.704 15.259l-.16.346-4.27 2.753-3.75 7.204-14.867-9.449z" fill="#F3EADC"/><path d="M122.348 153.502l1.412.086.032-2.61c.006-.461-.36-.783-.566-.785 0 0 .162.03 0 0-.16-.031-.527.202-.527.202l-.095.095c-.326.324-.537.966-.476 1.408l.22 1.604z" fill="#FF72B9"/><path d="M122.22 152.675h1.14l.124-1.6c.03-.38-.227-.787-.419-.855l-.03.007c-.365.09-.741.462-.838.825l.008-.03a3.558 3.558 0 00-.046 1.34l.06.313z" fill="#FF96CB"/><path d="M148.08 142.292c-.914.482-2.052 1.601-2.47 2.364l3.34 1.297.482-.904a1.904 1.904 0 00-.747-2.545l-.489-.274-.116.062zm14.155.812c-.364-.804-1.11-.891-1.658-.208l-1.53 1.908 2.14 1.434.584-.832c.505-.72.623-1.949.257-2.76l.207.458zm1.863.993c-.538-.48-1.202-.327-1.48.334l-.876 2.077 2.228 1.105s.44-2.267.398-2.931c-.042-.664-.27-.585-.27-.585zm.55 9.136c-.657-.351-1.212-.02-1.239.73l-.1 2.808 2.743-.818s-.504-1.723-.957-2.31c-.453-.585-.447-.41-.447-.41z" fill="#FF72B9"/><path d="M138.56 173.028l-.161 1.764c-.07.753.064 1.947.293 2.657l.302.93m9.018-5.382l-.97 1.827a2.97 2.97 0 00-.294 1.187v2.164m8.764-3.445l-.254.518c-.354.72-.616 1.952-.586 2.749l.033.878m7.104-1.429l-.023.085a9.344 9.344 0 00-.267 1.968h0" stroke="#CABDA8" stroke-width=".5"/><path d="M146.294 144.105l1.258-1.51a.89.89 0 011.342-.063l-.03-.03c.58.588.696 1.633.258 2.338l-.252.406-2.576-1.141zm13.706-.324l.817-1.03c.34-.429.898-.421 1.237.008l-.106-.135c.385.488.414 1.3.06 1.82l-.327.48L160 143.78zm2.264 1.572l.501-1.216c.21-.506.747-.652 1.191-.333l-.139-.1c.505.362.756 1.136.56 1.732l-.183.551-1.93-.634zm1.382 9.917l-.264-1.288c-.11-.536.254-.958.801-.942l-.171-.005c.621.018 1.262.518 1.432 1.123l.157.559-1.955.554z" fill="#FF96CB"/><path d="M208.182 138.34l1.276 18.422c-2.146 4.736-8.79 9.092-14.825 9.728l-21.415 2.258c-6.04.637-11.701 6.022-12.64 12.011l-5.095 32.504 69.755 26.317 79.234-32.494-4.613-11.761c-1.816-4.63-6.935-10.08-11.455-12.185l-30.51-14.204c-3-1.396-6.06-5.132-6.84-8.365l-4.9-20.318-9.791 5.016c-10.322 5.287-23.38 1.418-28.181-6.93z" fill="#6C3D53"/><path fill="#EC5379" d="M207.803 137.544l18.54 19.468 19.955-17.115 6.575 25.318-29.61 17.706-17.247-20.873z"/><path fill="#EC5379" d="M218.491 171.13l-5.21 63.448 15.203 5.885 12.86-8.934-5.46-56.347z"/><g transform="translate(113 183)"><path d="M38.59 5.851L35.231.752s-4.805 3.456-6.543 5.8c-1.739 2.343-1.989 5.116-1.989 5.116-.776 3.37.239 8.366 2.281 11.18l9.61 13.243V5.85z" fill="#F7BFBF"/><path d="M38.62 5.905L41.447 1s4.744 3.54 6.442 5.913c1.697 2.373 2.005 5.571 2.005 5.571.658 3.15-.309 7.838-2.164 10.48l-9.293 13.222.183-30.28z" fill="#E7AEAE"/><path d="M66.6 29.243l4.364-4.27s-4.31-4.057-6.942-5.316c-2.632-1.26-5.401-.976-5.401-.976-3.456-.119-8.167 1.83-10.54 4.372l-11.165 11.96 29.683-5.77z" fill="#F7BFBF"/><path d="M66.552 29.283l5.355 1.84s-2.57 5.332-4.575 7.45c-2.006 2.12-5.087 3.032-5.087 3.032-2.966 1.247-7.753 1.193-10.7-.125l-14.752-6.598 29.76-5.599z" fill="#E7AEAE"/><path d="M9.128 28.576L3.482 30.9s2.476 5.377 4.445 7.53c1.968 2.155 4.642 2.929 4.642 2.929 3.16 1.404 8.258 1.362 11.41-.106l14.833-6.907-29.684-5.77z" fill="#F7BFBF"/><path d="M9.187 28.557l-4.276-3.71s4.38-3.983 7.034-5.196c2.653-1.213 5.851-.905 5.851-.905 3.218-.045 7.636 1.799 9.874 4.124l11.206 11.645-29.689-5.958z" fill="#E7AEAE"/><path d="M15.676 54.995l-1.542 5.908s5.783 1.258 8.688.982c2.905-.276 5.133-1.945 5.133-1.945 3.023-1.678 6.057-5.775 6.782-9.176l3.41-16.003-22.471 20.234z" fill="#F7BFBF"/><path d="M15.696 54.937l-5.537 1.181s-.545-5.894.083-8.743c.628-2.85 2.799-5.219 2.799-5.219 1.9-2.596 6.031-5.015 9.236-5.403l16.044-1.942-22.625 20.126z" fill="#E7AEAE"/><path d="M49.74 61.47l5.085 3.382s3.073-5.059 3.758-7.895c.684-2.837-.169-5.487-.169-5.487-.602-3.404-3.489-7.607-6.468-9.4l-14.02-8.434L49.74 61.47z" fill="#F7BFBF"/><path d="M49.692 61.433l-.685 5.62s-5.75-1.405-8.24-2.926c-2.49-1.522-4.023-4.345-4.023-4.345-1.837-2.642-2.779-7.336-2.102-10.492l3.387-15.802 11.663 27.945z" fill="#E7AEAE"/><circle fill="#DD8989" cx="39.5" cy="34.5" r="3.5"/></g><g transform="translate(256 191)"><path d="M38.59 5.851L35.231.752s-4.805 3.456-6.543 5.8c-1.739 2.343-1.989 5.116-1.989 5.116-.776 3.37.239 8.366 2.281 11.18l9.61 13.243V5.85z" fill="#F7BFBF"/><path d="M38.62 5.905L41.447 1s4.744 3.54 6.442 5.913c1.697 2.373 2.005 5.571 2.005 5.571.658 3.15-.309 7.838-2.164 10.48l-9.293 13.222.183-30.28z" fill="#E7AEAE"/><path d="M66.6 29.243l4.364-4.27s-4.31-4.057-6.942-5.316c-2.632-1.26-5.401-.976-5.401-.976-3.456-.119-8.167 1.83-10.54 4.372l-11.165 11.96 29.683-5.77z" fill="#F7BFBF"/><path d="M66.552 29.283l5.355 1.84s-2.57 5.332-4.575 7.45c-2.006 2.12-5.087 3.032-5.087 3.032-2.966 1.247-7.753 1.193-10.7-.125l-14.752-6.598 29.76-5.599z" fill="#E7AEAE"/><path d="M9.128 28.576L3.482 30.9s2.476 5.377 4.445 7.53c1.968 2.155 4.642 2.929 4.642 2.929 3.16 1.404 8.258 1.362 11.41-.106l14.833-6.907-29.684-5.77z" fill="#F7BFBF"/><path d="M9.187 28.557l-4.276-3.71s4.38-3.983 7.034-5.196c2.653-1.213 5.851-.905 5.851-.905 3.218-.045 7.636 1.799 9.874 4.124l11.206 11.645-29.689-5.958z" fill="#E7AEAE"/><path d="M15.676 54.995l-1.542 5.908s5.783 1.258 8.688.982c2.905-.276 5.133-1.945 5.133-1.945 3.023-1.678 6.057-5.775 6.782-9.176l3.41-16.003-22.471 20.234z" fill="#F7BFBF"/><path d="M15.696 54.937l-5.537 1.181s-.545-5.894.083-8.743c.628-2.85 2.799-5.219 2.799-5.219 1.9-2.596 6.031-5.015 9.236-5.403l16.044-1.942-22.625 20.126z" fill="#E7AEAE"/><path d="M49.74 61.47l5.085 3.382s3.073-5.059 3.758-7.895c.684-2.837-.169-5.487-.169-5.487-.602-3.404-3.489-7.607-6.468-9.4l-14.02-8.434L49.74 61.47z" fill="#F7BFBF"/><path d="M49.692 61.433l-.685 5.62s-5.75-1.405-8.24-2.926c-2.49-1.522-4.023-4.345-4.023-4.345-1.837-2.642-2.779-7.336-2.102-10.492l3.387-15.802 11.663 27.945z" fill="#E7AEAE"/><circle fill="#DD8989" cx="39.5" cy="34.5" r="3.5"/></g><g transform="translate(184 204)"><path d="M38.59 5.851L35.231.752s-4.805 3.456-6.543 5.8c-1.739 2.343-1.989 5.116-1.989 5.116-.776 3.37.239 8.366 2.281 11.18l9.61 13.243V5.85z" fill="#F7BFBF"/><path d="M38.62 5.905L41.447 1s4.744 3.54 6.442 5.913c1.697 2.373 2.005 5.571 2.005 5.571.658 3.15-.309 7.838-2.164 10.48l-9.293 13.222.183-30.28z" fill="#E7AEAE"/><path d="M66.6 29.243l4.364-4.27s-4.31-4.057-6.942-5.316c-2.632-1.26-5.401-.976-5.401-.976-3.456-.119-8.167 1.83-10.54 4.372l-11.165 11.96 29.683-5.77z" fill="#F7BFBF"/><path d="M66.552 29.283l5.355 1.84s-2.57 5.332-4.575 7.45c-2.006 2.12-5.087 3.032-5.087 3.032-2.966 1.247-7.753 1.193-10.7-.125l-14.752-6.598 29.76-5.599z" fill="#E7AEAE"/><path d="M9.128 28.576L3.482 30.9s2.476 5.377 4.445 7.53c1.968 2.155 4.642 2.929 4.642 2.929 3.16 1.404 8.258 1.362 11.41-.106l14.833-6.907-29.684-5.77z" fill="#F7BFBF"/><path d="M9.187 28.557l-4.276-3.71s4.38-3.983 7.034-5.196c2.653-1.213 5.851-.905 5.851-.905 3.218-.045 7.636 1.799 9.874 4.124l11.206 11.645-29.689-5.958z" fill="#E7AEAE"/><path d="M15.676 54.995l-1.542 5.908s5.783 1.258 8.688.982c2.905-.276 5.133-1.945 5.133-1.945 3.023-1.678 6.057-5.775 6.782-9.176l3.41-16.003-22.471 20.234z" fill="#F7BFBF"/><path d="M15.696 54.937l-5.537 1.181s-.545-5.894.083-8.743c.628-2.85 2.799-5.219 2.799-5.219 1.9-2.596 6.031-5.015 9.236-5.403l16.044-1.942-22.625 20.126z" fill="#E7AEAE"/><path d="M49.74 61.47l5.085 3.382s3.073-5.059 3.758-7.895c.684-2.837-.169-5.487-.169-5.487-.602-3.404-3.489-7.607-6.468-9.4l-14.02-8.434L49.74 61.47z" fill="#F7BFBF"/><path d="M49.692 61.433l-.685 5.62s-5.75-1.405-8.24-2.926c-2.49-1.522-4.023-4.345-4.023-4.345-1.837-2.642-2.779-7.336-2.102-10.492l3.387-15.802 11.663 27.945z" fill="#E7AEAE"/><circle fill="#DD8989" cx="39.5" cy="34.5" r="3.5"/></g><g transform="translate(151 198.5)"><path d="M31.313 5.263L28.957.67s-3.407 3.138-4.644 5.26c-1.237 2.121-1.666 5.784-1.666 5.784-.426 2.404.21 6.087 1.406 8.2L31.21 32.56l.103-27.297z" fill="#F79595"/><path d="M31.291 5.331L33.29.903s3.353 3.195 4.552 5.338c1.2 2.142 1.618 6.105 1.618 6.105.355 2.25-.248 5.69-1.342 7.679l-6.955 12.643.13-27.337z" fill="#DB7A7A"/><path d="M53.526 26.422l4.058-3.19s-3.73-2.746-6.048-3.555c-2.318-.81-5.996-.532-5.996-.532-2.44.04-5.934 1.368-7.78 2.944l-11.05 9.44 26.816-5.107z" fill="#F79595"/><path d="M53.455 26.413l4.728 1.116s-2.497 3.9-4.371 5.487c-1.875 1.587-5.685 2.753-5.685 2.753-2.14.777-5.633.842-7.794.148l-13.737-4.415 26.859-5.089z" fill="#DB7A7A"/><path d="M8.005 25.77l-4.957 1.436s2.428 3.944 4.275 5.563c1.846 1.619 5.36 2.739 5.36 2.739 2.279.876 6.015.954 8.317.184l13.78-4.612-26.775-5.31z" fill="#F79595"/><path d="M8.068 25.804l-3.966-2.806s3.776-2.681 6.108-3.45c2.332-.769 6.302-.423 6.302-.423 2.276.081 5.538 1.33 7.282 2.783l11.083 9.239-26.81-5.343z" fill="#DB7A7A"/><path d="M13.19 49.643l-1.835 4.823s4.611.434 7.015-.067c2.404-.5 5.413-2.632 5.413-2.632 2.072-1.292 4.383-4.23 5.153-6.531l4.61-13.782L13.19 49.643z" fill="#F79595"/><path d="M13.256 49.613l-4.628 1.479s.132-4.63.921-6.955c.79-2.325 3.455-5.288 3.455-5.288 1.434-1.768 4.395-3.623 6.605-4.14l14.049-3.292-20.402 18.196z" fill="#DB7A7A"/><path d="M40.087 55.523l3.963 3.305s1.912-4.218 2.221-6.654c.31-2.436-.726-5.976-.726-5.976-.548-2.379-2.572-5.52-4.498-6.998l-11.53-8.845 10.57 25.168z" fill="#F79595"/><path d="M40.081 55.451l-.109 4.857s-4.334-1.631-6.276-3.135c-1.941-1.504-3.874-4.988-3.874-4.988-1.205-1.932-1.995-5.335-1.765-7.593l1.462-14.355L40.08 55.451z" fill="#DB7A7A"/><circle fill="#BD6868" cx="31.5" cy="30.5" r="3.5"/></g><g transform="translate(230 206)"><path d="M31.313 5.263L28.957.67s-3.407 3.138-4.644 5.26c-1.237 2.121-1.666 5.784-1.666 5.784-.426 2.404.21 6.087 1.406 8.2L31.21 32.56l.103-27.297z" fill="#F79595"/><path d="M31.291 5.331L33.29.903s3.353 3.195 4.552 5.338c1.2 2.142 1.618 6.105 1.618 6.105.355 2.25-.248 5.69-1.342 7.679l-6.955 12.643.13-27.337z" fill="#DB7A7A"/><path d="M53.526 26.422l4.058-3.19s-3.73-2.746-6.048-3.555c-2.318-.81-5.996-.532-5.996-.532-2.44.04-5.934 1.368-7.78 2.944l-11.05 9.44 26.816-5.107z" fill="#F79595"/><path d="M53.455 26.413l4.728 1.116s-2.497 3.9-4.371 5.487c-1.875 1.587-5.685 2.753-5.685 2.753-2.14.777-5.633.842-7.794.148l-13.737-4.415 26.859-5.089z" fill="#DB7A7A"/><path d="M8.005 25.77l-4.957 1.436s2.428 3.944 4.275 5.563c1.846 1.619 5.36 2.739 5.36 2.739 2.279.876 6.015.954 8.317.184l13.78-4.612-26.775-5.31z" fill="#F79595"/><path d="M8.068 25.804l-3.966-2.806s3.776-2.681 6.108-3.45c2.332-.769 6.302-.423 6.302-.423 2.276.081 5.538 1.33 7.282 2.783l11.083 9.239-26.81-5.343z" fill="#DB7A7A"/><path d="M13.19 49.643l-1.835 4.823s4.611.434 7.015-.067c2.404-.5 5.413-2.632 5.413-2.632 2.072-1.292 4.383-4.23 5.153-6.531l4.61-13.782L13.19 49.643z" fill="#F79595"/><path d="M13.256 49.613l-4.628 1.479s.132-4.63.921-6.955c.79-2.325 3.455-5.288 3.455-5.288 1.434-1.768 4.395-3.623 6.605-4.14l14.049-3.292-20.402 18.196z" fill="#DB7A7A"/><path d="M40.087 55.523l3.963 3.305s1.912-4.218 2.221-6.654c.31-2.436-.726-5.976-.726-5.976-.548-2.379-2.572-5.52-4.498-6.998l-11.53-8.845 10.57 25.168z" fill="#F79595"/><path d="M40.081 55.451l-.109 4.857s-4.334-1.631-6.276-3.135c-1.941-1.504-3.874-4.988-3.874-4.988-1.205-1.932-1.995-5.335-1.765-7.593l1.462-14.355L40.08 55.451z" fill="#DB7A7A"/><circle fill="#BD6868" cx="31.5" cy="31.5" r="3.5"/></g></g></svg>