<svg width="762" height="585" xmlns="http://www.w3.org/2000/svg"><defs><linearGradient x1="50%" y1="0%" x2="50%" y2="100%" id="b"><stop stop-color="#ED9" offset="0%"/><stop stop-color="#B8A767" offset="100%"/></linearGradient><linearGradient x1="50%" y1="0%" x2="50%" y2="100%" id="c"><stop stop-color="#ED9" offset="0%"/><stop stop-color="#B8A767" offset="100%"/></linearGradient><linearGradient x1="50%" y1="0%" x2="50%" y2="100%" id="d"><stop stop-color="#E2D191" offset="0%"/><stop stop-color="#332B0C" offset="100%"/></linearGradient><linearGradient x1="50%" y1="0%" x2="50%" y2="100%" id="e"><stop stop-color="#9F9057" offset="0%"/><stop stop-color="#85773F" offset="100%"/></linearGradient><linearGradient x1="50%" y1="0%" x2="50%" y2="100%" id="i"><stop stop-color="#BAA05F" offset="0%"/><stop stop-color="#4A3C19" offset="100%"/></linearGradient><linearGradient x1="50%" y1="0%" x2="50%" y2="100%" id="k"><stop stop-color="#595959" offset="0%"/><stop stop-color="#0F0F0F" offset="100%"/></linearGradient><linearGradient x1="50%" y1="0%" x2="50%" y2="100%" id="l"><stop stop-color="#636363" offset="0%"/><stop stop-color="#090909" offset="100%"/></linearGradient><linearGradient x1="50%" y1="0%" x2="50%" y2="100%" id="m"><stop stop-color="#98501B" offset="0%"/><stop stop-color="#4F270A" offset="100%"/></linearGradient><linearGradient x1="50%" y1="0%" x2="50%" y2="100%" id="n"><stop stop-color="#2E2312" offset="0%"/><stop stop-color="#231C13" offset="100%"/></linearGradient><linearGradient x1="50%" y1="0%" x2="50%" y2="100%" id="o"><stop stop-color="#A8602A" offset="0%"/><stop stop-color="#482503" offset="100%"/></linearGradient><linearGradient x1="50%" y1="0%" x2="50%" y2="100%" id="q"><stop stop-color="#5F5F5F" offset="0%"/><stop offset="100%"/></linearGradient><linearGradient x1="50%" y1="0%" x2="50%" y2="100%" id="r"><stop stop-color="#241D15" offset="0%"/><stop stop-color="#2E271B" offset="100%"/></linearGradient><radialGradient cx="61.326%" cy="8.436%" fx="61.326%" fy="8.436%" r="100%" gradientTransform="matrix(0 1 -.30013 0 .639 -.529)" id="a"><stop stop-color="#9D9D9D" offset="0%"/><stop stop-color="#676767" offset="47.608%"/><stop stop-color="#5C5B5B" offset="56.622%"/><stop stop-color="#232222" offset="100%"/></radialGradient><radialGradient cx="61.326%" cy="8.436%" fx="61.326%" fy="8.436%" r="100%" gradientTransform="matrix(0 1 -.35567 0 .643 -.529)" id="f"><stop stop-color="#9D9D9D" offset="0%"/><stop stop-color="#676767" offset="47.608%"/><stop stop-color="#5C5B5B" offset="56.622%"/><stop stop-color="#232222" offset="100%"/></radialGradient><radialGradient cx="50%" cy="10.435%" fx="50%" fy="10.435%" r="71.108%" gradientTransform="matrix(0 .903 -1 0 .604 -.347)" id="g"><stop stop-color="#0D0D0D" offset="0%"/><stop stop-color="#3DA6AB" offset="100%"/></radialGradient><radialGradient cx="50%" cy="20.548%" fx="50%" fy="20.548%" r="71.442%" gradientTransform="matrix(-.63074 .6849 -.59289 -.72863 .937 .012)" id="h"><stop offset="0%"/><stop stop-color="#1E5254" offset="49.474%"/><stop stop-color="#3DA6AB" offset="100%"/></radialGradient><radialGradient cx="50%" cy="0%" fx="50%" fy="0%" r="100%" gradientTransform="matrix(0 .98036 -1 0 .5 -.49)" id="j"><stop stop-color="#6F6F6F" offset="0%"/><stop stop-color="#515151" offset="100%"/></radialGradient><radialGradient cx="50%" cy="0%" fx="50%" fy="0%" r="100%" gradientTransform="matrix(0 1 -.79112 0 .5 -.5)" id="p"><stop stop-color="#504233" offset="0%"/><stop stop-color="#39332A" offset="100%"/></radialGradient></defs><g fill="none" fill-rule="evenodd"><path fill="#5B805A" d="M0 0h762v585H0z"/><g transform="translate(136 17)"><path d="M152.976 66.337l.121 12.166c3.5 2.184 11.16 4.975 17.1 6.232l-.293-.062c1.625.344 4.26.33 5.863-.026l12.226-2.719 1.643-.578c6.254-2.202 14.79-8.092 19.06-13.155l1.569-1.858-6.44-8.78-10.127 6.196-9.952 3.504-11.455 1.207-7.88 1.03-11.435-3.157z" fill="#302721"/><path d="M152.974 61.162v5.19l.703.373c3.898 2.072 10.63 3.402 15.022 2.972l3.531-.347c4.902-.48 12.694-2.03 17.41-3.463l-1.84.56c3.696-1.123 9.225-3.871 12.352-6.14l3.699-2.684-3.76-5.699-10.505 4.212-16.008 3.875-9.894 1.53-10.71-.379z" fill="#232222"/><g transform="translate(131)"><path d="M4.672 33.974L8.414 49.26c.788 3.217 3.365 7.674 5.763 9.96l-1.871-1.784c2.797 2.667 8.206 4.775 12.073 4.708l2.139-.037c6.621-.114 17.183-1.602 23.573-3.32l8.483-2.279c4.265-1.146 10.676-4.11 14.305-6.61l3.22-2.218c1.815-1.25 3.09-4.045 2.848-6.242l-2.555-23.182c-2.894 3.737-8.787 8.669-13.178 11.024l3.225-1.73c-5.844 3.135-15.819 6.874-22.276 8.353l-2.415.552a115.78 115.78 0 00-3.884.976l1.93-.528c-7.67 2.097-21.71 1.826-28.959 0l7.756 1.954c-4.283-1.08-11.19-2.98-11.586-3.098l-2.333-1.784z" fill="url(#a)"/><ellipse stroke="#323232" fill="#061534" transform="rotate(-13 39.941 22.412)" cx="39.941" cy="22.412" rx="37.477" ry="14.153"/><ellipse fill="#090E19" transform="rotate(-14 41.546 27.23)" cx="41.546" cy="27.23" rx="27.42" ry="7"/><path d="M15.749 35.776l5.584-3.446c2.978-1.838 8.108-4.138 11.464-5.14l4.416-1.318c3.354-1 8.904-1.812 12.403-1.812H65.64l-4.46 3.832-10.45 4.744-10.03 2.43-6.707 1.336-5.986.318h-5.103l-3.641-.31-3.513-.634z" fill="#17233E"/><path d="M14.91 35.05L11.6 34l-2.497-1.613-.35-3.384 2.811-4.621 7.05-5.16 7.229-2.81 9.939-3.55 8.322-1.332 8.715-.733 7.882.634 6.456 1.898 3.036 2.913.38 2.782-2.62 2.041c-.888-1.364-5.184-2.344-9.612-2.188l-1.768.063c-4.42.156-11.464 1.24-15.72 2.416l-6.136 1.698-9.379 3.31-2.468 1.097c-6.116 2.72-7.96 7.59-7.96 7.59z" fill="#272626"/><path d="M42.642 33.953c16.564-4.13 28.803-11.321 27.32-17.27-1.483-5.948-16.126-8.4-32.69-4.27-16.564 4.129-29.48 12.8-27.997 18.749 1.483 5.948 16.804 6.92 33.367 2.791z" stroke-opacity=".321" stroke="#979797"/></g><path d="M152.986 76.472l-5.474 10.74c-1.255 2.46-2.374 6.695-2.5 9.454l-.034.751 11.026-6.256 21.116-7.614-5.994-.574c-5.752-.551-14.65-3.021-17.194-4.236l-.946-2.265z" fill="#4C371B"/><path fill="#171717" d="M197.348 81.428h-8.311l10.34-6.035 10.99-9.195-1.612-5.4.254-.68 5.357 1.484 4.345 3.494 2.43 3.733-4.973-2.025-6.978 7.377 3.79 2.172-4.607 4.45-11.689 4.473z"/><path d="M153.069 72.344c-1.103.245-3.834 3.33-6.102 6.896l-2.249 3.533c-2.075 3.262-4.307 8.996-4.982 12.798l-1.748 9.845s5.987-5.357 7.507-7.82c1.521-2.464 1.351-7.049 1.351-7.049l6.432-13.955-.21-4.248z" fill="#27180D"/><path d="M196.86 84.528l-2.39 8.287s4.307-.902 6.445-1.731c2.138-.83 6.332-3.226 6.332-3.226l12.777-9.26-7.385-2.438-4.052 3.313-11.728 5.055z" fill="#202020"/><path fill="#2A2A2A" d="M208.46 73.528l7.593-6.838 24.576 8.701 4.206 4.334-5.79 6.104-5.188-4.532z"/><path fill="#3F3834" d="M208.405 73.485l-.382 1.34 24.947 8.242 4.814 3.842 1.124-1.344-4.835-4.268z"/><path fill="#464545" d="M213.082 74.314l8.46-5.158 18.825 6.85-5.948 5.27z"/><path d="M135.034 131.735l-.937-1.689c-1.342-2.415-2.341-6.6-2.232-9.366l-.002.058c.11-2.758 1.305-6.939 2.671-9.337l3.38-5.934 4.585-5.616c2.1-2.57 6.277-5.685 9.337-6.96l12.549-5.224 7.262-2.232c3.171-.974 8.4-2.21 11.659-2.757l7.567-1.27c2.726-.457 6.948.156 7.506.429l-2.398 6.21-2.51 6.389a43.393 43.393 0 00-1.25 3.786l-.315 1.168c-1.009 3.738-1.544 9.891-1.197 13.735l.13 1.427c.198 2.2 1.092 5.62 1.994 7.635l3.155 7.042-14.184-4.043c-3.188-.909-8.456-1.645-11.78-1.645h-1.312c-4.414 0-11.521.612-15.877 1.367l2.019-.35c-4.898.85-12.455 3.385-16.87 5.658l-2.95 1.519z" fill="url(#b)"/><path d="M132.63 126.143l6.397-3.711c3.725-2.16 10.19-4.4 14.46-5.005l5.016-.711c4.26-.604 11.176-.74 15.47-.303l11.546 1.176c3.3.336 6.993 3.086 8.257 6.161l2.257 5.488-10.367-2.92-9.346-1.965-12.077-.624-10.268 1.223-9.601 2.253-9.302 4.533c-1.075-1.38-2.301-4.717-2.442-5.595z" fill-opacity=".555" fill="#000"/><circle fill="#313131" cx="150" cy="112" r="3"/><circle fill="#313131" cx="156" cy="101" r="3"/><circle fill="#313131" cx="169" cy="96" r="3"/><circle fill="#313131" cx="161" cy="108" r="3"/><circle fill="#313131" cx="173" cy="109" r="3"/><path d="M194.127 92.406l-1.606 4.009s-.966 2.838-1.534 6.093c-.568 3.255-.415 4.769-.545 6.502-.317 4.226.545 7.868.545 7.868s.928 3.264 1.534 4.843c.605 1.578 3.21 7.527 3.21 7.527l3.918.954 13.041-23.985 9.822-18.498 1.034-2.79-9.783-2.069-8.203 5.363-5.072 2.995-6.36 1.188z" fill="#5C5745"/><path d="M216.438 84.091l-11.183 20.339c-.8 1.455-1.837 3.928-2.312 5.509l-5.343 17.793 1.811.754 11.933-19.365L223.9 85.427l-7.461-1.336z" fill="#8E835A"/><path fill="#605942" d="M218.503 83.903l-20.574 41.034 1.57 1.333 21.409-41.439z"/><path d="M192.398 104.398l12.51.692-.824 2.285a565.59 565.59 0 00-4.548 13.247l-2.752 8.422-1.143.157-.01-.018c-1.786-3.425-3.962-9.24-4.726-12.425l1.493-12.36z" fill="#303030"/><path d="M133.05 114.918c.875-2.224 2.941-6.348 4.616-9.212l-.611 1.045c1.392-2.382 4.107-5.891 6.07-7.839 0 0 .65-.657.963-.943.314-.286 2.307-1.902 2.307-1.902.858-.699 2.349-1.659 3.344-2.152l7.727-3.826 14.103-5.339 14.573-2.888 7.056-.918c1.096-.143 2.826.047 3.865.423l1.26.456-2.64 6.73-2.7 10.448c-.848 6.022-1.752 17.163-1.784 18.104l-.6-1.706c-1.098-3.122-1.486-8.295-.87-11.54l.186-.98c.515-2.712 1.722-7.007 2.695-9.59l1.623-4.31 2.655-6.567-5.266.273c-2.76.143-7.184.723-9.888 1.295l-4.971 1.053c-3.242.686-8.359 2.25-11.438 3.496l-7.34 2.97-6.843 3.298c-2.485 1.197-6.12 3.705-8.123 5.605l2.47-2.343c-2.402 2.277-5.786 6.386-7.57 9.194l-4.87 7.665z" fill-opacity=".887" fill="#7F480E"/><path fill="url(#c)" d="M199.203 129.785l23.066-41.287 7.51 6.868 18.64 17.912 11.798 12.816 9.186 12.427 6.097 13.091 2.423 14.306-10.266 10.643-12.527-13.148-14.737-11.792-13.564-7.46-14.066-6.727z"/><ellipse fill="#313131" cx="225" cy="126.5" rx="4" ry="3.5"/><ellipse fill="#313131" cx="236.367" cy="120.5" rx="4" ry="3.5"/><ellipse fill="#313131" cx="239" cy="135.5" rx="4" ry="3.5"/><ellipse fill="#313131" cx="253" cy="132.5" rx="4" ry="3.5"/><ellipse fill="#313131" cx="253" cy="147.5" rx="4" ry="3.5"/><path d="M199.058 129.826l18.342 10.326 25.898 13.767 24.593 22.793 6.741-6.184-18.957-13.898c-4.9-3.592-12.983-9.209-18.065-12.554l-22.01-14.485c-5.998-3.947-14.41-2.535-16.542.235z" fill-opacity=".555" fill="#000"/><path fill="#0C0C0C" d="M234.409 84.145l-2.656 2.863 6.72 2.796 9.926-11.474-5.141-2.68-1.212 1.41 2.418 2.445-6.384 6.634z"/><path d="M209.651 39.005l-.032.807c-.133 3.311-2.454 7.507-5.197 9.38l-4.381 2.993s3.548 5.278 5.411 7.858c1.863 2.58 5.016 6.581 5.016 6.581l-1.551-6.388 1.254.289c2.69.619 6.348 2.814 8.157 4.888l2.628 3.014 4.033 1.482s-1.825-9.762-4.033-14.21c-2.207-4.45-11.305-16.694-11.305-16.694z" fill="#9F9057"/><path d="M205.079 119.267l17.087-30.79 18.545 16.24 15.643 16.246 9.8 10.536 4.582 6.362c.321.447.721 1.228.899 1.76l1.71 5.136.482.987c1.94 3.97 3.656 10.762 3.836 15.188l.2 4.951-4.66-13.133c-1.477-4.161-4.453-10.644-6.644-14.47l1.416 2.473c-3.29-5.75-9.59-14.375-14.07-19.263l-2.152-2.348L223.52 90.76l-16.653 28.507h-1.788z" fill-opacity=".7" fill="#7F480E"/><path d="M247.73 75.025l-4.622.701 5.022 2.483-9.811 11.31-8.151-3.133c-.613 3.234.71 7.834 2.955 10.275l7.42 8.065 14.285 15.583 13.144 16.505 8.72 6.719c.878.676 2.48 1.224 3.595 1.224h8.59c1.657 0 3.711-1.138 4.586-2.536l2.841-4.544-1.198-4.29c-1.783-6.386-1.218-16.541-.163-19.154l-2.962 3.198c-2.249 2.426-6.765 4.393-10.062 4.393h-2.668c-3.871 0-9.637-1.695-12.899-3.8l-7.494-4.834-7.008-6.507c-2.425-2.252-5.444-6.554-6.738-9.598l-3.505-8.247 7.216-9.894-1.092-3.919z" fill="#202020"/><path d="M266.075 132.441l9.658 5.039c3.108 1.62 8.467 2.769 11.952 2.565l-3.751.22c3.493-.205 8.909-1.552 10.928-2.475l-2.237 5.074c-.464 1.382-3.527 2.387-6.829 2.244l-6.462-.28c-1.976-.904-4.775-2.966-6.25-4.603l-7.009-7.784z" fill="#141414"/><path d="M248.896 78.622l.692 1.94c1.484 4.162 4.814 10.414 7.438 13.966l-2.906-3.934c3.278 4.439 9.644 10.564 14.192 13.665l2.786 1.9 3.806 1.659c3.542 1.545 9.516 2.357 13.344 1.813l5.949-.844 3.374-.466-.682 2.012c-1.063 3.138-4.094 7.268-6.77 9.224l1.79-1.309c-2.675 1.956-7.515 3.84-10.798 4.208l5.953-.666c-4.428.495-12.004.311-15.966-.27l5.943.872c-3.282-.482-8.192-2.33-10.973-4.132l-9.468-6.136-4.907-5c-2.71-2.761-6.152-7.866-7.692-11.412l-2.953-6.8 7.848-10.29z" fill="#302721"/><path d="M247.563 69.706l14.627 18.017c2.088 2.572 5.95 6.244 8.627 8.203l1.251.916c6.241 4.566 17.504 9.171 25.15 10.283l3.233.47-8.2 2.503-7.065.383c-2.205.12-5.775.246-8 .222 0 0-3.112.229-4.326-.605-1.214-.834-2.8-2.23-2.8-2.23-.84-.715-2.197-1.89-3.016-2.612L252.82 92.721c-3.319-2.924-5.857-8.88-5.67-13.286l.413-9.729z" fill="#232222"/><path d="M218.265 78.05l14.553 4.876 1.684 1.266-3.657 3.905c.302 3.157 2.263 7.771 4.39 10.317l4.636 5.55L221.95 88.73l1.458-3.68-9.565-2.123 4.423-4.877z" fill="#282727"/><path d="M321.527 82.102a226.58 226.58 0 019.37-1.072s10.246-1.108 17.212-.732c6.966.376 15.999 1.99 15.999 1.99l5.923 1.155-12.288 20.888-14.07 31.763s-3.946 7.327-6.25 10.763c-2.302 3.437-10.37 14.039-10.37 14.039l-19.747 23.002-1.751 7.248-4.686-2.31 3.88-11.18v-20.374l-10.086-22.184-1.37-5.786 1.083-13.592 2.44-4.862v-1.68s15.037-16.43 21.266-23.688c6.23-7.258 3.445-3.388 3.445-3.388z" fill="url(#d)"/><path d="M302.165 109.63l12.435 8.1 4.901 8.267c4.997 3.821 9.464 13.629 9.976 21.9l.33 5.34-.334-1.028c-3.162-9.714-12.362-22.545-18.093-26.825l-7.275-4.356 6.595 15.407 3.565 21.279-4 19.407-5.347 13.665-4.425-1.527 4.425-12.138v-19.407l-8.125-17.774-1.733-3.883a31.493 31.493 0 01-1.34-3.74l-.887-3.238 1.414-13.79 2.546-4.628 5.372-1.03z" fill-opacity=".653" fill="#464028"/><path d="M367.95 84.277l-41.676 49.233 3.637 23.263s5.56-7.327 7.83-10.835c2.268-3.508 6.803-12.428 6.803-12.428l23.406-49.233z" fill="#7E7245"/><path d="M268.057 134.096l6.479 7.667c2.073 1.496 5.992 2.783 8.744 2.875l2.375.079c2.756.092 6.254-1.674 7.817-3.949l2.289-3.33 9.098 20.013.44 18.331c.027 1.108-.27 2.834-.665 3.866l-3.604 9.403s-3.793-.177-3.36-2.854c.432-2.678 5.525-12 5.525-12l-.912-16.65-27.873-9.626-5.444-10.483-.91-3.342z" fill="#211E12"/><path d="M267.377 175.941l1.163 13.077c.44 4.952-.605 12.742-2.335 17.398l-12.439 33.486-2.099 5.9c-.927 2.606-2.022 6.935-2.443 9.659l-11.338 73.311 18.684 1.433 9.005-75.91 18.347-8.548 3.052 3.303a4.897 4.897 0 007.01.217l1.807-1.725 12.377-34.218v-11.132c0-1.1-.633-2.635-1.405-3.418l-9.776-9.918 3.242-5.253c2.612-4.232 4.317-11.678 3.81-16.612l-.709-6.915c-.225-2.198-2.119-4.481-4.245-5.104l-24.182-7.079 2.535 12.718c.54 2.712-.65 6.448-2.651 8.337l-7.41 6.993z" fill="url(#e)"/><path d="M151.612 124.994c-2.705.534-6.916 1.944-9.404 3.15l-7.234 3.505-13.964 25.508-2.245 6.418 1.688 11.106 5.618 9.924c3.81 6.731 11.103 16.836 16.288 22.569l3.71 4.102c1.85 2.044 3.349 4.38 3.349 4.38l.29 1.085c.571 2.133 2.14 5.281 3.492 7.016l-2.458-3.154c2.947 3.782 9.18 9.146 13.92 11.98l.368.22c3.319 1.984 9.112 4 12.953 4.502l1.93.253c5.477.718 14.395 1.262 19.919 1.216l12.351-.103c7.181-.06 18.787-.821 25.904-1.698l13.775-1.697c2.74-.338 5.643-2.748 6.486-5.381l10.234-32.005-.625-17.827c-.077-2.211-1.335-5.332-2.812-6.975l-8.047-8.947c-2.955-3.286-8.453-7.736-12.29-9.945l-2.502-1.44a619.508 619.508 0 00-15.752-8.707l-23.4-12.4-11.326-3.82-7.356-2.007c-4.257-1.162-11.287-2.103-15.708-2.103h-4.146c-4.315.138-11.772 1.032-16.647 1.993l3.641-.718z" fill="#D4C8A1"/><path d="M158.273 126.682l.417 1.204 1.628 4.703 4.049-3.752h9.672l4.98.978-6.042 21.273-9.97-7.714 6.626 8.804-4.2-2.354 5.325 7.604-.032.336c-.42 4.396-2.674 10.987-4.727 14.235l3.201-5.065c-1.767 2.798-5.886 5.29-9.177 5.567l2.584-.217c-1.647.138-4.308.032-5.95-.237l-.108-.018c-3.814-.626-9.693-2.555-13.15-4.317l6.245 3.183c-3.656-1.863-9.092-5.97-12.14-9.173l-1.092-1.147-1.883 19.153c-.325 3.297 1.063 8.086 3.104 10.703l3.402 4.361c4.755 6.097 11.163 16.753 14.156 23.448h0l1.77 7.703 9.038 7.702 10.663 3.962 17.397-4.16 32.628-13.15 5.92-4.758c2.584-2.077 4.68-6.441 4.68-9.76v-7.325h-3.864c-9.39 0-23.31-4.25-31.102-9.5l1.037.698c-1.83-1.233-2.517-3.827-1.524-5.813l8.16-16.318 12.533-4.049-9.584-2.239v-24.356l-14.156-8.04-22.125-5.166s-5.668-.257-8.3-.333c-2.633-.077-8.737.333-8.737.333l-1.352 3.011z" stroke-opacity=".103" stroke="#482E15" fill-opacity=".628" fill="#603E1F"/><path d="M163.023 194.123c-1.557-2.283-.709-3.386 1.886-2.464l10.128 3.598c2.598.922 2.577 2.383-.042 3.261l-5.411 1.813c-1.048.351-2.4-.102-3.025-1.02l-3.536-5.188z" fill="#F6D2D2"/><path d="M164.355 170.266l.595-9.289c.212-3.312-.794-8.42-2.24-11.396l.98 2.016c-1.45-2.982-5.116-6.38-8.21-7.597l-2.864-1.127c-2.053-.808-5.44-1.005-7.584-.435l1.709-.454c-4.272 1.134-7.734 5.627-7.734 10.05v1.455h0c0 3.386 2.165 8.389 4.842 11.182l-.496-.518c2.291 2.39 6.819 4.61 10.114 4.959l10.888 1.154z" stroke="#515151" fill="#FFF"/><path d="M204.856 186.643l3.916-6.186c2.362-3.73 7.458-8.4 11.384-10.428l-2.766 1.429c2.945-1.522 7.987-2.346 11.254-1.84l3.846.594c1.641.254 4.006 1.307 5.292 2.359l2.49 2.038c3.421 2.8 4.18 8.043 1.705 11.698l-.227.336-.61 1.17c-1.792 3.43-6.378 6.396-10.235 6.623l-5.38.317c-3.305.194-8.311-.989-11.182-2.643l-9.487-5.467z" stroke="#525252" fill="#EBEDE9"/><path d="M133.556 110.973c-8.25-.937-13.396-11.238-17.453-17.482m23.534-1.568c-6.887-2.303-3.036-.389-10.57-7.392" stroke="#D4C895"/><g transform="scale(-1 1) rotate(-22 -39.228 900.326)"><path d="M6.392 36.53l3.597 20.273c.579 3.264 2.832 7.913 5.033 10.384l-1.117-1.254c2.575 2.891 7.803 5.171 11.656 5.093l2.154-.044c6.62-.134 17.118-1.866 23.432-3.864l8.716-2.759c4.214-1.333 10.406-4.666 13.849-7.459l3.768-3.057c1.713-1.39 2.934-4.304 2.729-6.502l-2.62-28-.297.452c-2.73 4.151-8.356 9.672-12.545 12.318l2.446-1.545c-5.6 3.537-15.332 7.804-21.727 9.528l-2.537.684c-1.07.289-2.785.795-3.84 1.135l1.902-.613c-7.67 2.47-21.367 1.45-25.054-.039l7.416 2.997-14.426-5.829-2.535-1.9z" fill="url(#f)"/><ellipse stroke="#323232" fill="#061534" transform="rotate(-13 40.659 26.17)" cx="40.659" cy="26.17" rx="37.477" ry="17.922"/><ellipse fill="#090E19" transform="rotate(-14 42.546 33.067)" cx="42.546" cy="33.067" rx="27.42" ry="8.243"/><path d="M16.749 43.131l4.942-3.591c3.332-2.422 9.188-5.494 13.057-6.854l2.514-.884c3.88-1.363 10.37-2.468 14.482-2.468H66.64l-4.46 4.512-10.45 5.588-10.03 2.862-6.707 1.572-5.986.375h-5.103l-3.641-.366-3.513-.746z" fill="#17233E"/><path d="M15.91 42.276L12.6 41.04l-2.497-1.9-.35-3.986 2.811-5.441 7.05-6.076 7.229-3.31 9.939-4.181 8.322-1.568 8.715-.863 7.882.746 6.456 2.236 3.036 3.43.38 3.277-2.62 2.403c-.888-1.607-5.184-2.76-9.6-2.577l-1.793.074c-4.414.184-11.398 1.442-15.606 2.813l-6.237 2.032-9.379 3.897-.888.466c-6.989 3.66-9.54 9.764-9.54 9.764z" fill="#272626"/><path d="M44.12 41.006c16.563-4.13 28.63-12.014 26.883-19.019-1.746-7.005-16.645-10.478-33.208-6.348-16.564 4.13-29.253 13.713-27.506 20.718 1.746 7.005 17.267 8.779 33.83 4.649z" stroke-opacity=".321" stroke="#979797"/></g><path d="M131.903 121.589l-3.23 8.01c-1.239 3.068-4.9 5.977-6.903 6.293l2.965-.468c-1.638.259-3.502 1.705-4.164 3.23l-5.493 12.655c-1.1 2.535-2.493 6.766-3.112 9.46l-1.038 4.512-.874 10.802c-1.75 3.379-3.811 11.007-4.603 17.026l-.082.62-4.79 9.098c-.771 1.465-1.462 3.99-1.544 5.644l-.946 19.194-4.576 43.087h11.856s2.705-10.912 2.705-16.182c0-5.27-1.422-12.339-1.422-12.339-1.568-9.802-.938-25.586 1.403-35.237l6.123-25.243 1.081-5.596c2.186-11.315 9.163-28.256 15.578-37.829l4.413-6.585c-2.187-1.592-3.347-10.152-3.347-10.152z" fill="#CAB874"/><path fill="#D5C484" d="M133.613 130.507l-10.598 15.041-7.551 18.536-3.888 14.078-6.415 36.317 4.894-14.966 5.014-19.458 1.747-9.15 3.781-12.874 14.064-25.65z"/><path d="M128.356 130.133h-4.895c-1.1 0-2.685.554-3.554 1.248l1.562-1.248c-3.455 2.76-9.39 9.354-12.451 13.608l-6.522 19.98-1.065 7.553-1 2.808c-.741 2.08-.482 5.342.574 7.277l.524.959 3.308 1.2.804-.513c1.858-1.187 3.867-3.867 4.478-5.989 0 0 .227-.715.276-1.028.048-.313.495-7.27.495-7.27l2.466-11.506 9.429-19.982s2.539-2.648 3.9-4.11c1.36-1.461 1.671-2.987 1.671-2.987z" fill="#A4924D"/><path fill-opacity=".746" fill="#938552" d="M286.967 155.122L250.624 259.41l14.11-3.59 21.617-67.864h11.204l5.957-10.526-4.096-18.851z"/><path d="M125.682 131.75l-4.16.765-4.812 5.42c-3.303 3.721-7.003 10.625-8.271 15.442l-.682 2.592-4.068 14.394-.413 4.238-1.685.372c-.539.118-1 .66-1.031 1.209l-.149 2.644.904 2.217 2.147 1.669 1.5.217c1.54-1.21 2.728-4.427 2.652-7.19l-.071-2.59 3.181-3.065 1.982-12.913 8.38-19.18 4.596-6.24z" fill="#403715"/><path fill="#837644" d="M268.763 201.187l16.561-11.932-2.163 6.604-15.532 11.366zm13.46-2.66l-7.45 11.67-12.601 11.7v6.652l12.499-13.181z"/><path fill="#7E765A" d="M288.87 171.244l8.577 11.685 3.878-3.776v-11.89z"/><path d="M291.376 189.141l4.8 7.747-.764 15.95-11.246 27.511v5.605l5.328 5.117 4.657-2.411-5.336-6.429 11.78-28.676.536-16.954s-2.974-5.945-4.954-7.46c-1.981-1.515-4.801 0-4.801 0z" fill="#FFEFB1"/><path d="M288.955 242.259l5.49 5.557 3.194-3.186 9.544-26.874c.924-2.602 1.446-6.949 1.169-9.679l-.747-7.36c-.112-1.099-1.032-2.33-2.047-2.744l-4.305-1.76-.175 17.66-12.123 28.386z" fill="#AB9B5F"/><path d="M292.736 192.999c.418 3.554-.061 9.971-1.076 14.355l-1.023 4.42-5.06 11.84c-1.761 4.123-5.294 10.444-5.588 10.86l2.715 6.71 6.228-12.26 6.719-16.085.59-16.492-3.505-3.348z" fill="#5B5438"/><path fill="#D2C07C" d="M267.44 175.457l1.157 24.385-22.164 54.567-8.429 74.475h3.41l11.956-79.668 19.444-53.726-2.736-21.427z"/><path d="M295.158 195.32l-4.279-7.546h-4.635l-22.211 69.804 20.628-12.63-3.21-10.664 10.072-24.75s1.133-5.123 1.337-7.616c.204-2.492 0-8.742 0-8.742l2.298 2.144z" fill="#81764A"/><path d="M202.891 208.917c33.94.526 53.553 1.002 84.495 10.542" stroke="#E7D3A7"/><path d="M202.148 209.545c53.37 0 35.978 9.47 84.157 31.096" stroke="#E7D2A3"/><path d="M154.794 143.801c-.983.02-2.635.334-3.675.695l-2.36.819c-1.047.363-2.564 1.265-3.373 1.998l-.603.548c-.41.371-.998 1.047-1.31 1.502l-1.398 2.037c-1.028 2.29-1.153 6.282-.508 8.224 0 2.606 3.731 6.25 4.826 6.699l-3.707-1.521c2.048.84 5.342 2.261 7.345 3.168l-1.776-.804c2.01.91 5.423 1.837 7.61 2.069l2.626.278 5.462.153.574-10.042-4.027 4.012a99.657 99.657 0 00-1.396 1.425l-.658.688c-.76.795-2.24 1.217-3.307.941l-1.42-.367-.7-.165c-1.618-.38-3.716-1.771-4.69-3.113l.023.033a23.206 23.206 0 00-1.248-1.546l.662.739c-.669-.746-1.326-2.24-1.468-3.338l.015.112c-.213-1.643-.015-4.274.436-5.86l-.161.566c.152-.535.557-1.308.913-1.736l.718-.863c.706-.85 2.044-2.005 2.987-2.58l.18-.109c1.416-.862 3.792-1.008 5.3-.33l6.102 2.75s-.597-1.315-1.193-1.968c-.596-.653-1.577-1.444-1.577-1.444a36.04 36.04 0 00-3.202-2.372l-.346-.222c-.926-.594-2.566-1.057-3.455-1.039l1.78-.037z" fill="url(#g)"/><path d="M223.66 168.586c-.982.02-2.666.217-3.738.435l-.31.063c-2.166.44-5.053 2.195-6.437 3.904l.365-.45c-.35.43-.889 1.155-1.2 1.61l-1.4 2.037c-1.027 2.29-1.63 6.37-1.437 8.257-.717 2.398 2.528 5.602 5.756 6.665l-3.796-1.25c2.097.69 5.395 2.065 7.358 3.065l-1.646-.839c1.967 1.002 5.313 2.185 7.475 2.643l2.497.528 11.218-.133a1.837 1.837 0 001.838-2.012l-.395-4.585c-.19-2.206-1.11-5.604-2.065-7.604l-.308-.646s-1.521-4.157-2.388-5.484c-.867-1.328-4.707-3.731-4.707-3.731l-1.59 17.07c-.052.552-.298.589-.536.111l.443.887c-.448-.896-1.674-1.873-2.723-2.178l-1.443-.42-.518-.02c-1.655-.064-3.129-1.443-3.296-3.106l.06.587c-.056-.555-.536-.923-1.081-.82-1.084.205-1.775-.5-1.54-1.59l-.383 1.775c.35-1.623-.273-3.92-1.405-5.142l.08.088a1.164 1.164 0 01-.04-1.501l.717-.864c.707-.85 2.044-2.004 2.987-2.579l.18-.11c1.416-.862 3.912-1.581 5.564-1.605l5.51-.08s.078.654-.518.001c-.258-.279-1.266-.911-2.251-1.413l.985.502c-1.964-1-5.342-2.007-5.882-2.066l1.983.217c-1.095-.12-2.872-.199-3.762-.18l1.78-.037z" fill="url(#h)" transform="scale(-1 1) rotate(-27 0 1118.305)"/><circle stroke="#232323" fill="#242424" cx="154.978" cy="157" r="10"/><circle stroke="#FFF" fill="#FFF" cx="142.5" cy="157.5" r="1"/><circle stroke="#FFF" fill="#FFF" cx="158.5" cy="152.5" r="2.5"/><circle stroke="#232323" fill="#242424" cx="225" cy="180" r="10"/><circle stroke="#FFF" fill="#FFF" cx="222.5" cy="174.5" r="2.5"/><path fill="#F8ABAB" d="M163.53 194.25l10.588 4.06-5.155 1.88-1.434-.502z"/><path stroke="#6B5252" d="M163.216 194.443l3.628 5.306 1.676.79 5.683-1.992"/><path d="M231.017 154.622c15.673 0 27.691-11.887 42.346-16.889m-33.297 25.533c11.588 0 20.79-4.992 32.11-7.966m-32.11 4.779c13.452 0 24.95-2.868 38.524-2.868m-29.841 11.396c16.304 0 27.188-8.777 43.622-9.56" stroke="#D8C293"/><path d="M151.487 128.847l1.758 5.263" stroke="#979797"/><path d="M146.484 129.402l4.772 10.204m-8.874-10.046l4.186 8.425m-8.195-4.835l1.34 7.022m-4.89 20.594l-6.197-8.963m.914 11.32l-3.476-11.738" stroke-opacity=".479" stroke="#95836E" stroke-width=".5"/><path d="M143.149 137.34c0-11.221-1.632-13.163-9.878-21.448m19.796 19.383c0-14.425-3.176-22.644-17.189-27.066" stroke="#D8C293"/><path d="M219.728 169.85l-3.56 1.748c-1.481.728-3.648 2.247-4.844 3.398l.636-.612c-1.991 1.916-4.582 5.489-5.786 7.976l-2.033 4.2c1.52 1.73 5.094 4.436 7.729 5.903l5.252 1.298-3.866-2.91-3.53-1.908a37.354 37.354 0 01-3.383-2.12l-.75-.542 2.407-4.23 2.936-4.367 4.087-3.74 4.705-4.094z" fill-opacity=".744" fill="#422A19"/><path d="M237.295 172.108s5.391 4.056 8.218 5.358c2.827 1.3 3.423 0 3.423 0s-1.26 3.399-2.245 4.719c-.536.718-1.53 2.951-2.838 4.244l-3.489 3.45 2.13-5.895c.75-2.078.512-5.177.512-5.177l-2.642-3.746-3.069-2.953z" fill="#3E3E3E"/><path fill="#383535" d="M165.136 158.413l1.177 13.864-11.828-2.391 9.67.39zm-26.166-1.845s-.697-3.013-.308-6.516c.39-3.504 1.516-6.938 1.67-8.291.318-2.778 0-4.19 0-4.19s1.562 2.075 2.737 2.558c1.174.484 9.926 2.656 9.926 2.656l-6.109-1.024-3.817 1.654s-2.49 3.931-3.193 6.063c-.705 2.131-.907 7.09-.907 7.09z"/><path d="M210.042 160.497l-11.42 1.532a2.07 2.07 0 00-1.77 2.261l1.678 16.17 11.512-19.963z" fill-opacity=".591" fill="#603E1F"/><path d="M258.876 171.212l4.192 21.332c.51 2.595.547 6.81.084 9.407l-4.276 23.994 7.769-20.075 1.813-6.356-.704-21.669c-.018-.554-.284-1.381-.585-1.833l-.14-.211c-1.466-2.2-4.796-4.22-7.411-4.507l-.742-.082z" fill-opacity=".801" fill="#AFA071"/><path d="M246.629 192.249c12.018 0 5.564 1.348 18.64-6.612m-18.508-2.98c10.721 0 4.648.857 17.814-4.605m-18.3-3.57h14.32m-11.557 13.417c9.403 0 5.353 1.095 12.383-2.243m-13.918-5.431c4.201-.67 8.403-1.34 12.604-2.008m-13.917 19.572c9.362-.516 13.365.142 19.468-6.613m-49.406 36.616l5.2 7.478m10.468-14.882c8.97 0 2.39-.697 16.3 11.324m-13.24-13.463l13.983 9.724m-2.883-13.664c8.331 0 3.398-.722 14.205 4.681m-18.368-15.825c20.96 0 14.878 4.288 22.244-1.917" stroke-opacity=".479" stroke="#95836E" stroke-width=".5"/><path fill-opacity=".451" fill="#A37B57" d="M176.407 147.107l23.395 7.592-14.332 24.536-9.063-2.508z"/><path fill="#413C29" d="M304.077 121.116l6.33 15.088 2.153 14.449-.469-14.75-.71-5.98-.803-3.683 12.801 13.153-7.744-10.83-3.696-3.14z"/><path d="M214.696 192.299l3.153.752c2.23.532 5.888 1.09 8.172 1.248l-.457-.032c2.284.157 5.835-.458 7.938-1.375l4.033-1.76 5.227-4.15-1.529 1.821c-1.475 1.76-4.308 4.073-6.32 5.165l2.258-1.226c-2.015 1.094-5.497 2.137-7.782 2.331l-1.684.144c-2.284.194-5.942-.067-7.793-.495l-5.216-2.423z" fill="#4C4C4C"/><path d="M217.283 170.933l1.407-.687c1.576-.77 4.26-1.547 6.005-1.739l.037-.004c1.74-.19 4.533-.035 6.25.352l1.531.344c1.711.385 4.182 1.615 5.524 2.753l3.333 2.824-10.62-5.202-5.938-.467-7.529 1.826z" fill="#373737"/><path d="M184.393 238.073l12.982.554 21.591-.342 16.825-1.082-2.693 6.215-3.005 3.124c-1.151 1.198-3.124 3.003-4.43 4.05l-1.46 1.173-5.107 1.366c-2.102.814-6.817.621-9.972-.273l-6.502-1.723-7.77-3.79-3.672-3.177a293.98 293.98 0 01-6.787-6.095z" fill="#222"/><path d="M186.263 238.465H218.9l-6.428 2.85c-.887.394-2.405.696-3.372.675l-15.064-.325c-.975-.022-2.467-.407-3.328-.861l-4.445-2.34z" fill="#967D59"/><path d="M185.083 238.093l8.142 7.08 4.202 2.696c2.321 1.489 6.336 3.348 8.981 4.156l2.667.815 2.444.474c2.168.42 5.657.267 7.77-.335l1.824-.521 1.304-.523c2.562-1.025 6.072-3.569 7.851-5.693l1.24-1.482 4.113-7.362 2.266-.462-1.791 2.977-3.895 5.678-2.202 2.771c-1.032 1.299-3.105 2.879-4.622 3.527l-3.284 1.402-.98.339c-3.13 1.08-8.351 1.721-11.64 1.433l-.398-.035-5.583-2.436-5.281-2.647-5.772-3.404c-3.077-2.086-8.349-5.232-11.766-7.023l-4.927-2.582 9.337 1.157z" fill="#88805F"/><path d="M182.89 239.045s-6.105-1.734-9.166-2.715c-3.06-.982-7.488-2.628-7.488-2.628l12.55 11.488 11.983 7.604 12.011 5.63 15.732 1.979 8.63-4.83 8.91-10.854 4.05-8.102-2.266.414c-2.897 4.506-7.12 10.548-7.12 10.548l-1.137 1.102c-1.346 1.28-4.885 3.43-7.22 4.491-1.928.918-8.414 1.662-8.694 1.662l-1.732-.192c-1.652-.184-4.265-.731-5.853-1.228l2.862.895c-2.677-.837-7.235-2.765-9.567-3.985l-2.499-1.332c-1.463-.78-3.716-2.216-5.054-3.223l-8.933-6.724z" fill="#37332A"/><path d="M171.305 236.443l2.573 2.179c4.64 3.93 12.625 9.644 17.837 12.765l10.831 6.484v5.24l-16.597-7.234a159.776 159.776 0 00-7.421-2.972l-10.205-3.731c-4.67-1.709-9.767-6.909-11.378-11.6l-5.232-15.242 8.448 6.802a41.976 41.976 0 003.255 2.327l7.889 4.982z" fill="#1E1E1E"/><path fill="#6A6A6A" d="M202.152 258.13l16.327.67v4.563l-16.327-.625z"/><path d="M218.394 259.555l1.29-.924c4.486-3.217 11.697-8.517 13.95-10.214l-5.828 4.39c3.219-2.425 8.155-8.725 11.03-14.083l1.242-2.316h1.792l3.716-.218-10.422 15.887-6.34 6.787-10.43 4v-3.31z" fill="#1E1E1E"/><path d="M140.135 220.19l3.88 6.729.458 1.045c1.107 2.53 3.577 6.184 5.503 8.147l1.791 1.824 8.952 2.54-9.694-20.653-1.439-4.575-9.45-10.986v15.928z" fill="#69614A"/><path d="M140.856 206.105l-15.752-23.235-2.109 9.132c-.994 4.304-.918 11.272.163 15.54l1.793 7.079c.815 3.214 3.138 7.929 5.192 10.535l7.636 9.685 24.928 18.19 10.283 5.637s10.988 5.121 16.536 7.48c5.548 2.359 15.561 6.166 15.561 6.166 4.68 0 14.192-1.051 21.258-2.35l8.869-1.632 2.23-1.328c3.319-1.979 7.148-6.5 8.558-10.11l8.839-22.644-10.466 2.157-11.793 18.02-14.365 8.257h-16.113l-13.563-5.86-18.194-9.58-6.169-5.049c-2.134-1.747-6.1-3.163-8.872-3.163h3.878c-3.312 0-7.792-2.006-9.994-4.467l2.847 3.181c-2.581-2.884-6.207-7.95-8.108-11.329l.853 1.517c-2.168-3.855-3.926-10.555-3.926-14.98v-6.849z" fill="#191919"/><path d="M203.475 211.469c27.287 5.693 42.188 31.768 66.212 43.817" stroke="#E2CEA2"/><path d="M197.393 212.34c23.28.92 30.423 23.703 46.494 37.718" stroke="#E3CEA0"/><path d="M124.88 183.931l-1.803 7.955-.321 3.224c-.383 3.847.047 10.008.961 13.757l.102.42c.786 3.223 2.623 8.23 4.116 11.206l1.657 3.304 7.509 8.62c1.812 2.08 5.086 5.093 7.305 6.723l19.857 14.588 14.937 7.759 9.467 4.37c4.515 2.084 12.183 4.246 17.109 4.826l9.64 1.135-.636 11.193-2.712-.224-24.452-9.092-20.592-9.49-19.172-11.418-15.057-13.043c-1.25-1.084-3.02-3.069-3.956-4.439l-5.119-7.493c-2.178-3.188-4.482-8.862-5.148-12.678l-1.07-6.13c-.188-1.083-.22-2.841-.067-3.942l1.819-13.173 5.626-7.958z" fill="url(#i)"/><path d="M123.843 186.039l-4.513 5.293-2.513 7.962-.376 4.845c-.158 2.042.301 5.255 1.027 7.18l2.27 6.015 3.173-5.614-.53-6.613.385-8.222.812-6.09.265-4.756z" fill="#4C3E1D"/><path fill-opacity=".816" fill="#4F4222" d="M174.867 260.868l5.038 6.33 35.357 14.008v-9.426l-8.429-1.23-8.38-1.607-10.5-4.157-13.287-5.413z"/><path d="M218.7 270.275l12.892 7.314 13.453-9.379 1.567-12.99-6.942 9.758-3.018 1.865c-.941.582-2.59 1.184-3.68 1.343l-14.272 2.09z" fill="#40351B"/><path fill="#7A683A" d="M230.618 277.616v5.316l13.65-7.474.819-7.528z"/><path fill="#BAA05F" d="M218.855 270.452l12.371 6.848-.36 5.991z"/><path d="M118.935 163.563s-1.668 5.338-2.374 8.047c-.705 2.71-1.71 7.64-1.71 7.64l-2.71 12.465 5.891 4.831 7.518-13.254-.126-.194c-2.02-3.104-4.26-8.571-4.995-12.19l-1.494-7.345z" fill="#362F16"/><path d="M146.67 185.049c-10.323-6.904-31.364-29.94-31.364-29.94-3.77-4.029-10.523-9.815-15.024-13.003 0 0-.105.153-2.803-2.174" stroke="#ECD9AF"/><path d="M148.403 190.656c-21.357 0-43.394-28.58-62.948-37.819m60.467 36.981c-45.884-22.663-22.474-13.955-70.026-26.665" stroke="#FFEBC1"/><path fill="#918855" d="M112.35 191.476l-3.83 14.7-5.098 47.687 18.323-18.413-3.752-18.255-1.081-11.285 1.519-10.053z"/><path d="M113.64 185.728l-7.66 26.838s-1.6 15.788-2.09 23.677c-.49 7.89-.53 18.49-.53 18.49l3.756-30.4 1.888-17.56 4.636-21.045z" fill="#352520"/><path d="M143.858 191.764c-10.266.076-20.365 2.29-30.63 2.366-10.267.076-19.231-1.995-28.763-1.924" stroke="#FFEBC1"/><path fill="#8D2727" d="M120.1 233.077l7.306 9.56 5.052 6.255 3.043 4.364 17.932 14.939 13.285 7.125 7.287-8.185-13.2-6.979-11.554-6.9-12.489-10.619-8.196-8.098-4.398-6.42z"/><path d="M138.88 244.347l1.51 12.672 14.178 12.009 12.354 6.552 6.985-8.551c-7.394-3.59-19.155-10.471-26.253-15.359l-.238-.164-8.535-7.16z" fill="#6D1A1A"/><path d="M182.983 271.416s3.187 1.57 4.894 2.287c1.707.718 22.351 8.24 22.351 8.24l-3.97 3.124c-1.735 1.364-4.869 2.01-7.006 1.441l-4.344-1.156a3292.949 3292.949 0 01-14.775-3.974l-3.735-1.016 6.585-8.946z" fill="#8D2727"/><path d="M191.028 284.117l12.395-4.801 10.744 3.7-6.262 2.386c-1.906.726-5.108 1.315-7.146 1.315h.154a8.391 8.391 0 01-1.977-.283l-7.908-2.317z" fill-opacity=".874" fill="#621414"/><path fill="#201515" d="M219.043 281.575l-12.084 3.317.973 2.277 17.483-.821z"/><path d="M207.005 284.861L205 286c-.961.546-2.217 1.747-2.803 2.68l-1.343 2.138c-1.174 1.87-1.702 5.117-1.175 7.27l.242.986 8.168-11.996-1.084-2.217z" fill="#7A1C1C"/><path d="M224.157 286.216l-16.234.78-9.03 13.281 15.696-6.917a188.45 188.45 0 003.634-1.657l4.745-2.237 1.189-3.25z" fill="#601111"/><path d="M218.314 281.366l8.794-2.23 3.607 3.507 13.513-7.43-.557 4.943s-8.682 3.736-12.956 5.103c-4.275 1.366-5.797.89-5.797.89l-6.604-4.783z" fill="#282828"/><path fill="#7A1C1C" d="M224.077 286.138l-2.689 7.123 6.65-.715 2.26-7.357z"/><path fill="#5F1A1A" d="M220.469 290.624l-22.2 12.137 7.052 6.035 6.23-5.557z"/><path fill="#7A1C1C" d="M220.96 290.475l-6.38.39-19.134 11.252 3.252.745z"/><path fill="#9F3636" d="M195.501 301.99l3.33.85 6.53 5.875-2.506-.466z"/><path fill="#681919" d="M225.455 292.786l-1.657 5.004.459 14.536 18.075-15.332-10.46-7.989 10.263 3.485 1.456-12.45-13.387 5.135-2.358 7.315z"/><path fill="#531818" d="M233.28 287.463l7.379-2.485-3.17 3.267z"/><path fill="#191919" d="M214.296 271.403l.212 11.723 12.646-3.915-8.124-9.081z"/><path fill="#1E1E1E" d="M121.692 235.017l-4.019 3.456-2.662 21.43 12.12 14.211 1.2-30.87z"/><path d="M116.473 207.227l3.854 25.831 3.805-4.847s-3.775-9.923-5.597-14.913c-1.821-4.99-2.062-6.071-2.062-6.071z" fill="#6A633B"/><path fill="#B9A869" d="M117.81 238.38l-10.766 11.922 8.179 9.704z"/><path d="M128.154 243.08l-1.708 32.795 19.03 16.115 26.917 13.104 33.695 14.732 3.106.66 3.367-18.261-7.185 6.287s-2.287-.219-2.447-.334c-.16-.115-6.918-5.953-6.918-5.953l4.048-2.809c-1.243-3.72 1.325-10.112 4.736-13.333l-4.736.633-23.094-6.352-2.595.902-2.739-.597-3.641-2.932-.677-2.402-10.925-5.325-9.11-7.304-8.05-6.5-11.074-13.127z" fill="#796E44"/><path fill="#BDAD6E" d="M130.05 248.387l16.571 20.2 13.603 7.856-.284 4.154 12.427 6.44-4.215 15.936-23.377-10.061-17.998-16.725z"/><path fill="#897C4E" d="M107.104 250.296l-.878 4.335 25.534 31.754 5.384 1.613 4.757 8.932L207.898 324l1.15-3.807-63.453-27.028-18.58-17.067v-2.22z"/><path fill="#322D1E" d="M155.299 302.001l-16.237 30.037 7.794 1.973 1.057-3.356 21.509-3.864.688 1.681 5.094-1.243v-1.737l3.794-1.064.743 1.049 3.67-.68v-2.536l3.59-1.23.689 2.41 9.416-4.66z"/><path d="M162.026 307.103l-.49 3.236-2.414 1.776c-.892.656-1.677 2.073-1.753 3.18l-.05.709.047.222c.456 2.159 2.236 5.002 3.987 6.359l1.808 1.4 2.222.63c2.652.752 6.99.936 9.719.404l-2.843.554c3.795-.74 9.445-3.125 12.623-5.331l2.563-1.78-.365-1.657-25.054-9.702z" fill="#60573B"/><path fill="#8D815D" d="M147.919 330.548l21.57-3.828 2.523 4.21-16.428 2.625-8.746.466z"/><path d="M173.777 267.052l-6.176 6.85c-1.48 1.642-1.137 3.866.775 4.97l4.41 2.548c1.436.83 3.353.395 4.291-.986l6.014-8.852-9.314-4.53z" fill="#BAA05F"/><path d="M175.09 267.71l-6.785 10.142s1.383 1.168 2.14 1.625c.756.457 2.963 1.81 2.963 1.81l7.904-10.394-6.222-3.182z" fill-opacity=".671" fill="#7E6D41"/><path fill="#8D815D" d="M170.32 328.337l4.651-1.187.18-1.667 4.02-1.198.593 1.198 3.592-.713v-2.595l3.661-1.164.518 1.774.471.454 9.01-4.482 2.145 1.073-9.803 5.224-5.436 1.092-3.1 1.164-1.956 1.877-3.559-.319-4.024 1.011z"/><path fill="#322D1E" d="M170.554 328.905h7.964l2.608-1.861 3.598-1.232 4.633-.875 9.97-5.453 6.258 3.108-5.817-1.435-2.12 5.887-6.79 1.861-8.518 3.054-12.75 3.215z"/><path d="M146.721 333.835l-.783 1.331c-1.12 1.904-1.037 4.936.192 6.78l3.397 5.102 24.97-2.423-.2-4.845 2.913-.822 2.966 2.34 4.803-2.002-.878-2.222 4.156-.92 2.382 3.142 2.754-2.647s1.142-.43 1.142-.495-1.142-2.319-1.142-2.319l5.254-3.93h9.41l7.65-6.952-5.066-10.61-2.583 10.817-8.294-2.275-2.553 5.627-6.632 1.537-2.009-2.175-4.556.744.726 4.065-2.495.798-3.18-2.44-4.768.412.584 3.452-2.754.639-.186-2.636-14.373 2.16-10.847.767z" fill="#60573B"/><path fill="#8C7E51" d="M209.632 311.998l12.3-13.831 3.771 7.973-10.136 10.803z"/><path fill="#322D1E" d="M174.288 345.35h34.102l-.256-15.603h-9.857l-5.722 3.258 1.104 2.975-3.368 2.76-2.092-2.685-4.114.767.296 2.484-4.115 1.098-3.624-1.92-2.643 1.27z"/><path fill="#5D5336" d="M174.737 345.284l33.226-.204.041-15.551 1.3-.97.78 18.539-35.499-.12z"/><path fill="#272316" d="M139.228 331.871l-10.02 7.271 8.461 4.691 10.034-.424-2.29-4.267 1.53-5.167z"/><path d="M221.685 310.26l2.753-4.043.447 25.535 1.644 5.278 10.022-8.871 3.58 1.16-14.698 10.805-1.695-5.821c-.308-1.056-.618-2.806-.693-3.914l-1.36-20.128z" fill="#5D5336"/><path d="M224.216 307.858v19.944c0 2.214.65 5.679 1.447 7.728l.779 2.001 12.007-8.862 1.941-20.12-8.117 8.486-8.057-9.177z" fill="#322D1E"/><path fill="#665A38" d="M227.827 306.562l13.722-8.992-1.199 11.512-4.99 5.353z"/><path fill="#443D26" d="M227.889 306.628l-2.421 2.72 7.02 8.247 3.16-3.246z"/><path fill="#191919" d="M222.864 289.471l-2.838 1.29-8.737 12.61-1.482 8.779 12.033-13.904 2.833 6.234-.45-6.849 1.321-4.903-3.864.33z"/><path fill="#3C341D" d="M231.572 288.833l10.511 8.05v-4.967z"/><path d="M221.78 309.291l-6.23 7.322s-4.491-3.607-4.481-3.533c.01.073 4.08 9.568 4.08 9.568l-6.158 5.866 1.018 18.622-1.577.95 8.037 7.692-2.517 12.329-7.629 7.89-5.541 22.606 6.786 9.466 8.82-.66v-35.197l3.328-2.507 12.412 24.582 6.336-7.068-9.935-24.545 5.175-5.065.49-14.871h2.195l2.424-6.265-3.757-.745 2.164-4.735-11.428 8.471-2.54-7.6-1.472-22.573z" fill="#212121"/><path fill="#121212" d="M220.728 371.363l-2.355 2.284 10.764 26.027 3.11-5.535z"/><path fill="#424242" d="M214.457 368.496l-9.283 8.542-5.13 21.914 2.118 1.172 4.585-22.165zm2.526 5.739s-.837-2.034-.975 2.568 0 30.036 0 30.036l-8.655 1.165 9.565 1.734.065-35.503z"/><path fill="url(#j)" d="M238.358 328.686l-3.486 7.097 3.486.842-1.956 6.028-2.293-.26-.327 8.069 18.235 1.524.525-7.007h-3.317l1.937-7.598h2.58l2.882-7.635z"/><path fill="url(#k)" d="M93.04 269.857l-.824 19.513h1.365l.905-12.292-.15 14.492 2.498-.108.629-14.67.46 15.767 4.674.113 1.905-21.803z"/><path d="M98.648 226.34l-4.142 1.228c-3.2.95-8.147 3.055-11.05 4.704l-5.77 3.279 17.151 2.868 3.81-12.08z" fill="#863F0A"/><path fill="#3E3E3E" d="M94.26 237.727l-16.523-2.345-10.622 6.76-11.54 9.196-12.988 17.595-8.328 14.803-16.033 32.94 14.515 42.692 52.364-45.67.863-10.786 5.814-25.269 3.033-21.481-14.197 9.832-1.572-2.509z"/><circle fill="#6E6E6E" cx="77.5" cy="260.5" r="12.5"/><path fill="#7E7244" d="M98.167 228.51l-18.426 34.418.783 3.432 14.786-10.068z"/><path fill="#CAB874" d="M97.647 230.19l-18.663 33.278 1.467 2.637z"/><path d="M89.219 245.137l-11.63-1.656-.593.066c-3.847.425-9.59 2.479-12.83 4.589l1.185-.772c-2.312 1.506-5.446 4.577-7.003 6.864l-2.828 4.152c-1.244 1.826-2.74 5.034-3.342 7.163l-.388 1.374c-.752 2.66-.869 7-.262 9.689l.652 2.89 1.125 2.228c1.743 3.454 5.494 8.34 8.375 10.91l-.602-.537c2.063 1.84 5.904 3.908 8.576 4.615l4.406 1.168 15.159.791 6.355-42.675-5.322 3.278-.39 5.19-.481 1.034c-1.167 2.505-4.24 5.238-6.865 6.104l-.163.054-1.931.385c-3.793.755-9.407-.48-12.523-2.746l-1.27-.924-.991-2.796c-.922-2.603-.917-6.82.014-9.428L65 257.97c.742-2.08 2.786-4.821 4.579-6.133l-.184.135c1.786-1.307 5.025-2.413 7.235-2.47l-1.442.037c2.761-.07 7.038.79 9.551 1.924l.289.13 4.19-6.456z" fill="url(#l)"/><path d="M82.97 250.416l-2.35-.354c-2.187-.33-5.693-.139-7.836.427l.523-.138c-1.073.284-2.683 1.02-3.598 1.648l-1.279.876-1.078 1.367c-1.028 1.304-2.062 3.695-2.306 5.319l.445-2.957c-.298 1.978-.304 5.357-.036 7.378h0" stroke-opacity=".391" stroke="#030303" stroke-width="2"/><path fill="url(#m)" d="M92.878 274.61l-4.614 16.068-2.89 12.235-.85 10.464.505.771 12.35 2.126 1.644-9.278-5.568-7.487.614-10.573h-1.786z"/><path d="M106.728 253.24s-1.853 1.935-2.119 3.627c-.266 1.691 0 9.848 0 9.848l-1.218 14.404-.054.71c-.294 3.856-1.403 9.994-2.475 13.705l-6.298 21.798-5.506 14.945h-4.182l3.226 11.404 23.43 33.566 38.957-26.331-20.393-11.552 9.63-7.838 16.086-29.21-13.947-5.24-5.075-9.684-4.373-.644-25.69-33.509z" fill="#D4C8A1"/><path d="M117.55 274l-3.567 44.77 10.41-5.823-4.443 27.028s14.546 1.085 18.561-3.707c4.016-4.79 16.987-33.946 16.987-33.946l-13.532-5.34-5.258-10.164-4.061-.449-15.098-19.02V274z" fill-opacity=".272" fill="#4E3103"/><path d="M118.57 277.358c0 35.103.423 35.052-16.078 62.78m20.848-48.014c0 26.92 4.845 31.98-10.47 48.195m-6.31-52.638c0 13.462 3.798 39.518-7.854 51.187m17.605 1.358v21.976m5.519-22.766c0 19.111-2.904 12.092 3.366 22.539m0-22.106c5.213 10.842 1.954 6.243 9.305 14.117m-4.617-60.782c0 10.219 5.94 21.033 12.713 28.378m-16.981-25.794c0 13.137 2.763 20.597 9.68 31.697" stroke="#C3B381"/><path d="M105.17 387.48c-2.333-1.486-2.461-4.08-.302-5.78l20.327-16.01 18.65-11.99c3.256-2.094 9.014-4.045 12.87-4.36l8.076-.66L188 378.73l-20.715 15.91-4.461-2.753-17.136 17.341 2.391 1.973-7.047 7.057 1.4-7.057-37.26-23.722z" fill="#6F450D"/><path d="M106.58 388.031l24.761-21.71 20.872-12.167 13.748-3.883-1.289-2.955-9.36 1.62c-2.721.47-6.965 1.797-9.46 2.954l4.533-2.102c-2.654 1.23-2.34 1.13-2.34 1.13l-2.466 1.099c1.362-.607-5.33 3.633-14.873 9.556 0 0 .995-.816-2.902 1.908-3.898 2.723-6.762 5.391-6.762 5.391l-17.47 14.032s-.31.71-.37 1.057 0 1.07 0 1.07.102.378.37.768c.266.39.807.938 1.158 1.25.655.581 1.85.982 1.85.982z" fill="#936426"/><path fill="#472C08" d="M174.986 364.276l-24.545 34.066 30.026-27.772z"/><path fill-opacity=".542" fill="#472C08" d="M128.394 372.009l33.362-1.979-12.724 15.738z"/><path fill="#8A550F" d="M130.865 366.756l38.636-2.495-18.508 30.014-4.608-5.563 15.58-19.065-32.437 1.795z"/><path fill="#57360B" d="M113.66 392.703l5.091-7.726 23.85 15.403-5.057 6.44z"/><path d="M93.793 291.154l-.506 8.35 4.815 6.17 3.937-13.195-3.919.123-.457-19.282s-.58 5.492-.684 8.239c-.103 2.747-.25 9.595-.25 9.595h-2.203V276.46s-1.1 8.23-1.239 12.267c-.138 4.038.506 2.427.506 2.427z" fill="#5B5B5B"/><path fill="#8A8A8A" d="M32.492 288.103l.51-1.558 38.893 27.7z"/><path fill="#2B2B2B" d="M32.781 288.758l26.048 16.8-3.206.439z"/><path fill="#F4AD58" d="M32.604 288.011l17.374 14.332-1.423 1.11-2.29-.517-15.3-13.447z"/><path fill="#A8581D" d="M31.312 290.084l-7.69 14.82 22.711-1.5z"/><circle fill-opacity=".325" fill="#FFF" cx="32" cy="293" r="1"/><circle fill-opacity=".325" fill="#FFF" cx="34" cy="295" r="1"/><circle fill-opacity=".325" fill="#FFF" cx="36" cy="297" r="1"/><circle fill-opacity=".325" fill="#FFF" cx="39" cy="299" r="1"/><circle fill-opacity=".325" fill="#FFF" cx="42" cy="301" r="1"/><path d="M158.05 418.473l-.168.913c-.403 2.176.394 5.335 1.774 7.05l3.32 4.124.1 5.107 5.046 10.734-1.26 5.008 10.603 27.754 13.95 6.395 16.338-2.2 14.469-10.508 8.106-21.44-.968-5.7-9.353-21.903-11.166-13.96-4.302-6.549-6.227-7.965-6.896-1.321-14.504 9.286-15.4 16.644-3.461-1.469z" fill="#81603B"/><path d="M171.112 412.127l2.18 1.43c2.309 1.514 4.18 4.976 4.18 7.738v.957l-5.02.974c-2.708.525-6.187 2.786-7.77 5.046l-1.7 2.429-4.594-5.8c-.683-.861-1.085-2.44-.897-3.535l.508-2.951 1.782.711 1.685.338 9.646-7.337z" fill="#553D22"/><path d="M177.993 472.316l4.15.262c3.863.244 9.768-1.013 13.195-2.81l9.719-5.098-4.928 9.846 15.974-6.336 6.29-8.97c1.904-2.714 2.716-7.499 1.812-10.694l-7.782-27.51c2.164 1.354 5.352 5.733 7.123 9.786l4.573 10.468c2.212 5.063 2.47 13.377.576 18.569l-1.726 4.73c-1.705 4.673-6.475 10.64-10.661 13.334l-5.507 3.542c-1.86 1.197-5.135 2.455-7.322 2.81l-7.76 1.265c-2.185.356-5.612-.048-7.652-.9l-7.476-3.12c-.513-.214-1.014-.836-1.114-1.362l-1.484-7.812z" fill-opacity=".494" fill="#553D22"/><path d="M217.267 421.524l10.005 30.272-2.796 18.045 2.796-5.816 1.311-3.71 1.006-2.86c1.2-3.412.749-8.74.458-9.263l-1.464-6.585-5.163-11.774-6.153-8.31z" fill-opacity=".504" fill="#3A2916"/><path fill-opacity=".215" fill="#B0895D" d="M196.799 409.885l-21.238 19.78 1.482 18.788 11.948 13.31 17.6 1.286 9.572-13.713-4.215-18.8z"/><path fill="#A59974" d="M264.366 263.69l-8.247 68.555 7.267-5.594h12.467z"/><path fill="#66604C" d="M261.144 292.897l-5.458 39.672 8.701-4.59 8.82-1.793z"/><path d="M259.519 320.026l2.952 4.219m-2.329-9.201c3.04 6.513.934 3.596 6.458 8.647m-5.294-14.507c6.695 2.368 2.646 11.43 8.749 16.542m-8.386-24.324c4.421 10.29 1.453 6.474 7.584 12.363m-5.955-19.827c1.317 9.738-.284 4.835 5.65 14.405m-5.022-22.309c.277 4.94 3.637 7.046 3.819 12.305m-2.953-19.024l1.673 7.572" stroke="#918661"/><path d="M256.21 331.952l3.276-2.075c2.801-1.776 7.75-3.425 11.06-3.684l2.703-.212 12.26.98 3.264.81c3.68.913 8.619 4.033 11.019 6.952l1.105 1.345-1.912 3.636-2.523-2.88c-2.185-2.493-6.58-5.11-9.806-5.84l-2.926-.663c-3.699-.838-9.755-1.275-13.53-.976l.632-.05c-2.756.22-6.908 1.558-9.264 2.986l-4.667 2.827-.69-3.156z" fill="#553D1C"/><path d="M255.963 331.352l-2.18 5.938h-2.75l-1.976 7.853h3.417l-.473 6.623-20.64-1.707v9.255l2.124 9.685 8.568 9.88 3.926-7.989 6.68-3.515 8.457-4.353h18.157l10.085 2.268 3.873-3.302s3.103-6.66 3.972-10.222c.87-3.562 2.056-14.476 2.056-14.476l-4.054-3.237-5.847-3.105-5.424-1.118-6.664-.726-6.24-.392-4.855.934-9.025 4.654-1.187-2.948z" fill="#412E15"/><path fill="#6D6445" d="M272.363 309.454l3.154 16.223 9.553 1.272 7.251 1.884 2.228 1.226 3.422 2.449 2.7 3.378-1.292 1.102-.072 1.778 15.45-4.62-7.14-10.88-9.097-5.718-9.626-3.923z"/><path d="M273.54 316.016l2.584.446c6.553 1.13 16.828 4.156 21.267 6.043l-.919-.39c.507.215 1.272.67 1.697 1.006l9.146 7.23 3.475 4.915-11.923 4.827s-.065-2.2.335-3.042c.4-.842 1.398-1.138 1.398-1.138l-2.96-3.23-5.873-3.006-6.255-2.254-10.202-.946-1.77-10.46z" fill="#484333"/><path d="M289.46 364.429l-2.621-.724c-4.794-1.324-12.69-2.073-17.65-1.672l-4.766.386-4.04.68c-4.36.735-10.478 3.803-13.674 6.862l-2.246 2.15-2.758 6.434 2.758 8.565.351-.499c2.225-3.162 6.82-7.146 10.276-8.905l1.608-.819.373-.16c4.06-1.754 10.925-2.944 15.33-2.66l.744.049 14.302.816 2.013-10.503z" fill="url(#n)"/><path fill-opacity=".425" fill="#2D251A" d="M255 343.38l26.171-1.38-9.98 10.983z"/><path fill="#4D3413" d="M257.049 339.741L287.358 338l-14.52 20.946-3.615-3.883 12.222-13.304L256 343.012z"/><path fill-opacity=".593" fill="#1A1212" d="M232.106 351.077l-.541 9.058.749 5.851 2.362 4.794 6.349 7.599 3.929 8.337 4.658-4.875-8.984-30.414z"/><path d="M244.344 386.428s2.101-2.183 3.044-3.12c.942-.938 3.804-3.417 3.804-3.417s1.918-1.653 3.06-2.272c1.14-.62 3.43-1.252 3.43-1.252s2.216-.78 3.368-1.122c1.151-.342 4.261-1.143 4.261-1.143s2.434-.465 3.648-.554c1.214-.09 3.867 0 3.867 0s2.268-.099 3.443 0c1.174.098 11.116 1.223 11.116 1.223l-1.186 1.844-9.93-.248-10.958.248-9.69 4.139-10.834 7.568-.443-1.894z" fill="#553D1C"/><path d="M252.2 382.228c-2.403 2.29-3.924 6.807-3.402 10.069l.188 1.171-9.883 14.613c-1.545 2.286-3.35 6.315-4.025 8.981l-1.126 4.444c-.678 2.675.896 5.575 3.495 6.47l1.55.534 1.495 18.103.302 1.748c.658 3.805 4.048 8.155 7.6 9.729l6.756 2.992 4.008 1.142c4.782 1.363 12.378.9 16.956-1.028l6.002-2.528 9.317-10.232c1.859-2.04 3.972-5.847 4.722-8.509l-.38 1.35c1.798-6.38 1.5-16.64-.66-22.898l-.8-2.317-4.356-16.482-.374-8.732c2.992-1.29 3.393-4.718.883-7.67l-4.01-4.718-5.51-2.459-13.823-.358-7.767 1.742-4.282 2.101-2.877 2.742z" fill="#553C20"/><path d="M250.739 390.494l10.565-10.52 18.019 1.757 5.711 6.832-6.442 8.808 11.47 2.116-.484-8.507.185-.07c2.58-.996 3.503-3.71 2.056-6.067l-.366-.596-3.776-6.314c-.57-.953-1.924-1.773-3.02-1.832l-3.885-.21s-3.88-.466-5.868-.502c-1.988-.036-7.74.257-7.74.257s-1.941.046-2.912.244c-.97.199-5.101 1.392-5.101 1.392l-4.005 1.907-3.89 3.405-1.53 3.287 1.013 4.613z" fill="#49351F"/><path fill-opacity=".337" fill="#785C3E" d="M260.607 384.032l-.622 12.776-9.086 12.696-.359 8.918-.374 8.574 6.334 1.508h5.93v6.443l7.592 10.69 7.345-1.727 5.213 11.018 7.578-8.886-.265-45.609-10.724-3.456 6.662-9.524-6.398-5.915-18.875-1.837z"/><path d="M291.15 404.043l-.982 43.164-7.364 7.592-11.7-2.317c-3.787-.75-9.225-3.425-12.134-5.964l-19.897-17.368.822 10.543.5 7.55c.183 2.758 2.021 6.477 4.087 8.29l3.225 2.831 9.54 3.828 6.7.86c2.195.282 5.717.089 7.847-.456 0 0 1.137-.202 3.52-1.035 2.384-.833 4.353-1.55 4.353-1.55 2.077-.748 5.256-2.343 7.1-3.564l6.365-4.21c.98-1.994 2.58-6.641 3.572-10.376l-1.24 4.67c.85-3.204 1.715-8.49 1.93-11.783l.407-6.267-1.354-10.491-5.298-13.947z" fill="#47321A"/><path d="M368.132 319.923l26.328-5.09 24.626-1.557c4.405-.279 11.548-.325 15.966-.103l25.082 1.259c4.413.221 11.48 1.217 15.781 2.223l32.124 7.513 29.113 12.702 23.108 12.15 20.617 4.896-9.632 9.97-4.28 29.272-9.05 24.485c-.956 2.589-3.37 6.214-5.384 8.092l-13.754 12.823c-6.06 5.649-17.177 12.792-24.834 15.956l-36.022 14.884-45.563 13.281 5.289-40.22-3.248-38.83-19.957-40.831-23.712-28.18-11.108-9.452-11.49-5.243z" fill="#AE5B4B"/><ellipse stroke-opacity=".281" stroke="#4E1212" stroke-width="3" fill="#5B805A" transform="rotate(7 414.209 321.101)" cx="414.209" cy="321.101" rx="17.5" ry="6"/><ellipse fill-opacity=".693" fill="#7F3E31" cx="399" cy="333.5" rx="17" ry="10.5"/><path d="M442.687 427.853l33.724-14.635 17.9-6.898c14.947-5.76 37.222-18.503 49.759-28.468l2.383-1.894c6.052-4.811 8.642-14.543 5.787-21.73l-5.067-12.753 15.215 7.347 17.826 5.495-8.784 9.368-5.44 29.59s-3.114 10.978-5.108 16.354c-1.993 5.376-2.59 6.976-2.59 6.976-2.308 6.212-8.29 14.7-13.373 18.971l-7.36 6.185c-4.652 3.907-12.98 8.932-18.603 11.224l-40.431 16.48-43.324 12.562 7.486-54.174z" fill-opacity=".747" fill="#955346"/><path d="M368.153 319.497l-23.699 4.079-45.987 15.861s-.437 7.605-3.258 15.591c-2.82 7.986-6.047 10.296-6.047 10.296l-3.054 10.893 5.578 11.298-2.524 3.422s-.248 4.97 0 7.31c.249 2.34 3.997 9.877 3.997 9.877l15.586 27.533 5.266.733 6.814 4.352 29.16 41.038 6.266 6.137 11.135 6.446 13.393 1.814 11.873.573 37.952-8.283 5.94-60.914-6.934-29.307-30.43-51.46-19.23-22.424-11.797-4.865z" fill="#96A5A2"/><ellipse fill="#6B6A6A" cx="375" cy="334.5" rx="7" ry="4.5"/><path d="M367.651 319.563s-14.694 1.837-21.87 3.822c-7.175 1.984-44.478 13.892-44.478 13.892-2.1.669-3.906 2.992-4.05 5.198 0 0-.29 6.357-1.003 9.16-.713 2.803-4.845 12.045-4.845 12.045l7.673 12.231 6.101 13.203 16.089-28.81 68.034-24.056-9.146-12.192-12.505-4.493z" fill-opacity=".686" fill="#606967"/><ellipse fill-opacity=".329" fill="#5A5A5A" cx="414.5" cy="391.5" rx="8.5" ry="6.5"/><ellipse fill-opacity=".329" fill="#5A5A5A" cx="423.5" cy="432.5" rx="8.5" ry="6.5"/><path d="M291.999 361.064s-2.765 3.186-3.6 5.097c-.834 1.911-2.776 9.508-2.776 9.508l6.376 12.28-2.977 3.137s.144 6.01.841 9.6c.697 3.592 2.997 8.25 2.997 8.25l14.854 27.191 7.601 1.52 5.305 3.87 13.313 18.392 13.546 19.946 10.201 9.444 10.717 5.645 22.819 1.857 38.298-8.123 1.321-18.585-47.437 13.106-13.177-9.68-6.36-.316 14.867-17.47-24.74 6.154.881-9.568-32.57-23.885-13.863-12.514-3.244-1.86c-2.876-1.649-5.933-5.572-6.825-8.76l1.617 5.774c-1.035-3.695-1.07-9.715-.073-13.461l.499-1.877 6.018-4.048-14.43-30.624z" fill-opacity=".754" fill="#56615E"/><ellipse fill-opacity=".067" fill="#FFFFE8" cx="341.5" cy="406.5" rx="19.5" ry="23.5"/><path fill="#AFB8B6" d="M357.14 450.045l16.916-26.832 53.491-22.473 3.423 14.437-50.797 17.824-21.374 23.904z"/><path fill-opacity=".345" fill="#717E7C" d="M359.227 456.895l20.924-24.098 50.9-17.11 3.436 12.496-44.354 13.99-15.553 13.26z"/><path d="M322.303 392.13c-1.476-1.638-4.46-3.001-6.68-3.043l.279.005c-2.763-.053-7.005.894-9.493 2.125l-.538.266-2.528 3.517c-.646.898-1.21 2.52-1.258 3.624l-.244 5.53.14 2.038c.076 1.1.777 2.605 1.58 3.376l2.65 2.542c2.195.887 6.444.558 9.496-.738l.772-.328c3.803-1.138 5.952-4.196 5.952-4.196l.537-1.192c1.361-3.025 2.375-8.157 2.306-10.227l.134 3.997c-.074-2.207-1.331-5.326-2.807-6.965l-.298-.33zm71.646-32.522c-3.084-3.02-9.638-4-12.623-2.917l-.202.127c-2.339 1.47-4.96 4.769-5.86 7.385l.542-1.576c-.36 1.044-.316 2.723.094 3.745l.311.775 2.335 3.005 1.141.783c2.274 1.56 6.297 3.336 8.981 3.965l-2.013-.472c2.686.63 7.02.544 9.68-.192l.6-.166 1.725-4.268-.258-1.599c-.44-2.728-2.38-6.521-4.332-8.473l-.121-.122z" fill="#B3A150"/><ellipse fill="#CCBA6C" cx="314.5" cy="399" rx="5.5" ry="5"/><ellipse fill="#C3AF58" cx="386.5" cy="365" rx="5.5" ry="5"/><path d="M381.349 325.227l17.443 21.983 12.102 19.41 10.46 18.467 7.422 16.35c2.053 4.522 4.488 12.146 5.438 17.025l1.85 9.51-5.302 59.788 2.264.314 6.392-56.161-3.61-28.415-15.757-32.97-18.18-25.171-20.522-20.13z" fill="#4D4D4D"/><path fill="#231F14" d="M137.053 343.32h10.48l2.01 3.499 24.869-2.47.95 2.47h34.686l7.056 9.422-3.08 12.328-8.668 8.923-3.177 13.576-3.209.603-8.476-14.18-2.63 1.532-22.095-28.754-1.197-2.938-14.642 3.36z"/><path fill-opacity=".415" fill="#5A4222" d="M175.556 359.36l29.588-.143 2.18 9.205-13.17 12.743-3.105-4.558-3.198 1.765z"/><path fill="#15120A" d="M231.384 357.237l-3.017 5.248 9.734 24.691-4.528 5.34 11.164-1.556v-3.784l-2.878-8.787-6.509-7.223-2.545-5.808zm-10.529 14.66l-.976-2.495-3.595 2.695.43 20.279 9.663.087-7.52-18.428z"/><path fill="#513A18" d="M216.78 392.292h9.647l1.583 4.384-11.23.334zm17.53-.574l10.367-1.595 3.757 3.174-17.169 2.241s.505-.924.866-1.377c.361-.453 2.18-2.443 2.18-2.443z"/><path d="M107.661 370.804s-6.376 1.16-9.528 1.947c-3.152.786-1.011.266-1.011.266-2.61.881-6.587 2.839-8.885 4.374l-6.883 4.6-2.54 4.031c-2.06 3.268-3.895 9.055-4.1 12.916l-.353 6.678.17.723c.886 3.765 3.298 9.453 5.392 12.709l4.438 6.902 17.821 2.615 21.643 2.89 39.394 5.4v-5.972l-3.508-5.52-8.684.587-9.224-9.017.867-6.135-38.71-24.474c-.982-1.257-.378-3.402 1.335-4.78l6.237-5.017-3.87-5.723z" fill="#C8BC94"/><path d="M150.082 434.873s-17.787-1.89-26.668-3.423c-8.882-1.535-24.405-5.4-24.405-5.4l16.22-12.897-8.55-16.923 4.57-4.848 31.607 19.214-1.03 5.453 9.263 10.088-1.007 8.736z" fill-opacity=".763" fill="#9E9576"/><path d="M90.15 407.711c12.841 8.889 4.46 4.028 26.56 11.804M97.53 403.52c13.372 8.21 6.424 4.989 20.765 9.833m-15.993-20.061c15.714 13.788 5.332 5.87 33.26 20.689m-53.559-21.024c0 16.862-2.468 9.26 7.282 22.845m-.829-26.739c.417 12.287 4.715 13.415 4.715 13.415m.119-17.488c0 7.116 3.045 8.588 3.045 8.588m2.625-14.868c0 11.152 1.791 12.762 1.791 12.762m20.546 31.375l23.01 3.76m-17.345.866l27.634 2.09m-29.2-13.848l18.502 7.163" stroke="#B2A375"/><path fill="#342E29" d="M171.264 542.051l-8.014-13.313 9.168 10.965 4.532 2.452-.738 2.838z"/><path d="M176.08 543.279l-.159 1.568.462.647c.643.901 2.059 1.572 3.156 1.5l-.037.002c2.758-.184 6.874-1.55 9.195-3.053l8.86-5.738c2.32-1.502 4.72-4.906 5.356-7.589l.47-1.98-3.777 2.075-3.757.792-6.77-13.103 3.086 13.103-2.592 5.698-3.285.374-3.871-1.377-7.036-16.529 4.444 19.492-3.415 2.658-.33 1.46z" fill="#342E29"/><path d="M156.539 486.162l12.946 12.625-.556 8.838-12.4 22.918c-1.048 1.938-1.397 5.224-.776 7.349l.595 2.035c.62 2.12 2.518 4.957 4.244 6.338l2.527 2.022s1.788.916 2.762 1.141c.975.225.124.027.124.027 2.194.23 4.675-1.23 5.544-3.265l-.494 1.157c.868-2.033.62-5.195-.56-7.07l-7.259-11.545 8.582 10.604c1.391 1.72 4.281 2.828 6.003 2.549l-1.966.318c1.086-.176 2.663-.873 3.537-1.567l-.778.618c1.298-1.031 1.979-3.168 1.527-4.75l-4.835-16.938 4.946 13.117c.779 2.066 2.853 4.805 4.624 6.11l.124.092c.886.653 2.403.777 3.381.28l2.098-1.067c.496-.252.955-.901 1.026-1.45l.668-5.192-2.776-11.934 4.592 10.411c.668 1.514 2.555 2.639 4.204 2.512l1.572-.12 1.362-1.036c2.2-1.673 4.198-5.262 4.462-8.007l.02-.212c.318-3.3-.862-8.24-2.643-11.044l-4.722-7.438-6.303-19.033-16.994-5.65-18.408 6.257z" fill="#4D3928"/><path fill="#392A1D" d="M159.5 485.713l12.138 10.17.612 6.002 20.578-12.997-1.016-3.29-15.007-7.013z"/><path d="M162.445 538.755c-2.996-7.519-2.339-2.904 2.328-13.79m1.834 4.779c.743-17.812-.816-9.462 4.139-25.145m-.194 26.044v-16.408m9.363 10.618v-25.47m6.574 24.118V506.14m8.397 10.52c-1.005-16.432 1.458-7.044-14.092-25.48m3.572 12.546l-11.293-13.79m1.351 21.887c-.427-10.544.518-4.893-3.764-16.77m13.513-6.155l7.817 9.822" stroke="#383434"/><path fill-opacity=".454" fill="#D9CDA8" d="M167.593 548.385l-9.783-10.458 2.088-1.569zm-.606-19.537l1.979-1.312 7.411 13.281zm14.405-7.36l2.745-1.046 4.811 14.773zm12.267-2.448h4.17l1.608 11.848z"/><path d="M162.255 434.282l-1.915 2.293-70.315-10.945h-5.441c-4.974 0-12.58 1.877-16.971 4.185l-6.72 3.53-12.668 9.272-35.182 6.64 38.28 15.488 6.873 17.428-24.997 20.376 37.411.232 13.149 7.147c2.425 1.318 6.634 2.421 9.392 2.464l15.766.241 11.442-2.845c3.215-.8 7.715-3.343 10.056-5.686l16.693-16.704 30.695-7.888-10.19-27.503.697-5.53-6.055-12.195z" fill="#776758"/><path d="M105.095 428.792l51.884 20.17 5.927 20.002-17.686 11.082s-9.192 13.54-15.206 19.057c-6.015 5.518-20.078 13.313-20.078 13.313s12.017-2.021 17.276-5.558c5.259-3.538 15.389-12.281 15.389-12.281 3.79-3.205 10.694-7.05 15.421-8.588l19.969-6.498-10.241-27.739.48-5.381-3.85-8.032-1.731-3.613-2.337 1.888-55.217-7.822z" fill="#584A3D"/><path fill="#96826F" d="M98.028 439.082l23.19 11.372-.777 28.75 8.371-19.73-.574-11.675-24.757-10.9z"/><path fill="#B8A594" d="M40.478 448.653l16.96 7.467 6.663 25.257-12.02 15.724 20.607-15.264-6.865-27.298z"/><path d="M73.825 444.704v4.278l9.94 32.164c.815 2.636 3.315 6.044 5.589 7.615l-.072-.05c2.272 1.57 6.343 2.71 9.114 2.544l4.471-.268c2.762-.165 6.398-2.041 8.13-4.203l3.457-4.313-12.074-29.588-9.725-8.18h-18.83z" fill="#5B805A"/><path d="M73.244 445.265l-1.169-5.406 6.636-1.23c3.26-.605 8.57-.837 11.878-.516l2.837.274 13.451 7.122c1.956 1.036 4.175 3.55 4.957 5.621l6.954 18.41c1.172 3.103.747 7.919-.964 10.776l-5.598 9.353h-3.369l5.125-6.575-12.074-30.943-8.704-7.05-19.96.164z" fill="#5A4D42"/><path fill="#976C43" d="M23.069 447.444l-9.367 1.576 35.192 15.022zm28.847 39.79l-17.702 15.042 12.443.608z"/><path d="M221.364 427.007l12.72-1.73 5.004 3.42 1.923 17.089v4.159l1.772 3.228 3.315 3.604 3.691 2.018.736.807-25.173 8.737.193-.42c2.537-5.52 4.329-14.903 4-20.986l-.007-.125-2.785-7.896-3.47-8.369-1.919-3.536z" fill="#645D56"/><path d="M229.776 448.791l3.716 6.897c1.05 1.95 3.69 3.563 5.893 3.604l11.199.205-27.638 10.454.492-1.088c2.41-5.327 5.244-14.294 6.333-20.042l.005-.03zm63.155-40.209l3.545 10.764-.813 27.46 20.22-9.046-7.76-1.805z" fill="#3D3935"/><path fill="url(#o)" d="M20.366 331.018l-18.814 1.29 1.521 9.841 6.275 5.241-3.27.476-5.47 1.711v3.187l3.176 2.962h16.084l10.157 3.226z"/><path fill="#895E0F" d="M20.233 330.995l9.782 29.239 5.91-1.325v-8.818z"/><path fill="#65450A" d="M18.386 324.895l8.996 12.084-.748-11.127 4.123 2.678 5.283 21.955-16.63-20.395z"/><path fill="#6D3912" d="M18.483 322.047l-.1 3.044 9.356 12.326-.988-11.525z"/><path fill="url(#p)" d="M24.734 17.997l22.65-16.884 1.148-.765 7.962 12.772-5.114 2.758-13.865 9.596z" transform="translate(142 377)"/><path d="M167.384 394.263l22.26-16.859c.438-.332.997-.203 1.244.28l.356.697-22.683 16.511-1.177-.629z" fill="#77563C"/><path fill="url(#q)" d="M3.449 32.426l17.405-17.685L39.29 26.226 18.656 43.25z" transform="translate(142 377)"/><path fill="#403326" d="M149.04 409.887l14.803-14.07 13.164 7.686-16.645 13.487z"/><path fill="#7D664D" d="M149.386 409.647l14.409-14.078 1.608 1.081-14.752 14.078zm-1.679 1.442l-5.532 5.522 1.06 1.536 6.598-5.831z"/><path fill="url(#r)" d="M7.738 34.906l-7.02 6.481 8.343 7.565L15.903 41z" transform="translate(142 377)"/><path fill="#936E50" d="M178.67 401.549l19.593-11.673.111 1.605-17.936 11.424z"/><path d="M38.232 350.16l-3.306 8.458v8.33l-.003.072c-.136 2.759 1.125 6.76 2.817 8.936l.106.136c1.284 2.24 4.97 4.503 8.24 5.054l23.756 4.004 1.11 2.645 6.216 2.66 4.07-8.18 10.962-7.102 5.577-2.086 9.739-2.204L89.42 344.54c-.314-.457-.568-1.285-.568-1.835v-6.824c0-2.759-2.215-5.364-4.925-5.816l-5.283-.88-11.69 2.042-7.284 2.748-7.455.614c-2.2.182-5.679.917-7.76 1.64l-1.77.614-4.453 13.319z" fill="#4A2C08"/><path d="M59.861 334.135l11.376 19.268 16.776-10.286.725-7.036c.283-2.745-1.684-5.393-4.4-5.915L78.266 329l-8.895 2.051-9.51 3.085z" fill-opacity=".551" fill="#674113"/><circle fill-opacity=".146" fill="#F6F6F6" cx="41.5" cy="353.5" r="1.5"/><circle fill-opacity=".146" fill="#F6F6F6" cx="40.5" cy="357.5" r="1.5"/><circle fill-opacity=".146" fill="#F6F6F6" cx="39.5" cy="362.5" r="1.5"/><circle fill-opacity=".146" fill="#F6F6F6" cx="39.5" cy="366.5" r="1.5"/><circle fill-opacity=".146" fill="#F6F6F6" cx="40.5" cy="370.5" r="1.5"/><circle fill-opacity=".146" fill="#F6F6F6" cx="42.5" cy="375.5" r="1.5"/><circle fill-opacity=".146" fill="#F6F6F6" cx="46.5" cy="378.5" r="1.5"/><path fill-opacity=".551" fill="#674113" d="M89.912 346.082l.833 25.928-7.8 8.361 9.314-5.821 14.59-4.42z"/><path d="M20.301 313.997l-3.421.54-.98 3.283 1.213 4.811h1.597l6.726 3.397c2.954 1.492 8.033 2.636 11.34 2.554l8.738-.215.926-3.545H35.603c-4.03 0-10.04-1.767-13.421-3.949l-3.096-1.996c1.007-1.271 1.215-4.88 1.215-4.88z" fill="#5A616A"/><path d="M20.217 313.975l-3.382.48-.98 3.226 2.345 1.284s.463.856 1.114 0c.651-.855 1.232-2.432 1.232-2.432l-.329-2.558z" fill="#1E1E1E"/><path fill="#332727" d="M50.84 303.626l-28.768 1.559 4.703 2.67 26.69-.994z"/><path d="M22.14 305.094l-.306.472c-1.127 1.731-1.704 4.772-1.288 6.798l1.594 7.765 5.145 2.095-2.933-12.267 2.53-2.151-4.742-2.712z" fill="#614E2A"/><path fill="#171414" d="M54.044 307.21l-28.02 1.12-1.897 1.403 3.477 12.464 13.43 1.676 2.094-9.458h12.05zm-23.919 20.564l6.56 24.098 6.07-14.61 3.416-1.692-2.362-6.489h-4.485z"/><path fill="#2E2A1E" d="M55.345 314.723l-11.65-.503-2.296 9.857 4.672 1.025-.242 2.81-2.157 1.256 1.508 5.687 12.498-1.118v-3.815l2.094-1.394v-6.935l-3.656-.241z"/><circle fill-opacity=".307" fill="#BDBDBD" cx="28" cy="314" r="1"/><circle fill-opacity=".307" fill="#BDBDBD" cx="28" cy="317" r="1"/><circle fill-opacity=".307" fill="#BDBDBD" cx="29" cy="321" r="1"/><circle fill-opacity=".307" fill="#BDBDBD" cx="33" cy="332" r="1"/><circle fill-opacity=".307" fill="#BDBDBD" cx="34" cy="336" r="1"/><circle fill-opacity=".307" fill="#BDBDBD" cx="35" cy="340" r="1"/><circle fill-opacity=".307" fill="#BDBDBD" cx="36" cy="343" r="1"/><path fill="#3B1F0B" d="M54.44 305.942l.744 10.068 17.207-1.338-13.721-8.84z"/><path stroke="#D2B262" fill="#EDD187" d="M55.541 315.308l28.072-1.207 11.64 2.388-6.237 16.052-8.22-3.717-4.294.371-8.962 1.386-6.535 3.264h-3.477l.437-4.063 1.909-1.653.198-6.972-4.098-.066z"/><g transform="translate(151 202.133)"><path d="M.007.531l15.92 1.403 4.468 4.187 17.262 4.773-2.921 4.554c-.895 1.395-2.943 2.706-4.594 2.931l-7.305.996-.078.018c-3.773.853-9.013-.706-11.709-3.488l-.681-.703L.007.532z" fill="#000"/><path d="M12.967 2.49l-.934 1.026c-1.486 1.633-2.748 4.746-2.82 6.955l.078-2.392c-.072 2.208 1.023 5.374 2.44 7.066l2.509 2.998 8 .593 10.938-1.638s1.248-.838 1.6-1.33c.353-.493 2.757-4.84 2.757-4.84L27.8 8.04l-7.158-1.953-4.53-4.033-3.144.436z" fill-opacity=".697" fill="#5E2018"/><ellipse fill-opacity=".18" fill="#AB5858" transform="rotate(56 19.265 12.253)" cx="19.265" cy="12.253" rx="4" ry="7"/><path fill="#000" d="M12.204 16.505l-.157-4.163 1.747 4.469zm7.863 1.605l-.274-2.614 1.174 2.614zm7.19-.44l-.273-3.24 1.89 3.472z"/><path d="M9.067 13.263l3.438 2.755c1.51 1.21 4.3 2.254 6.235 2.332l3.8.152 10.555-1.462s-.437.433-1.066.767c-.628.333-.858.29-1.17.403a18.32 18.32 0 01-1.648.504c-1.86.523-4.933 1.097-6.85 1.281l-2.853.275-2.168-.56c-1.876-.486-4.543-1.962-5.939-3.29 0 0-.75-.695-.956-.93-.206-.236-1.378-2.227-1.378-2.227z" fill="#7A2D2D"/><path fill="#EEEBEB" d="M10.448.486l3.018.467-1.18 3.862zM26.26 6.65h1.877l-1.217 4.344z"/></g></g><g fill="#333"><text transform="rotate(-3 3811.904 -10209.31)" font-family="GiddyupStd, Giddyup Std" font-size="36"><tspan x="3.095" y="43.044">Mai Nguyen</tspan></text><text transform="rotate(-3 3848.052 -10015.99)" font-family="SFProText-Regular, SF Pro Text" font-size="18"><tspan x="35.966" y="78.902">10/08/2018</tspan></text></g></g></svg>