<svg width="1304" height="1306" xmlns="http://www.w3.org/2000/svg"><defs><linearGradient x1="50%" y1="0%" x2="50%" y2="68.27%" id="a"><stop stop-color="#576382" offset="0%"/><stop stop-color="#616675" offset="100%"/></linearGradient><linearGradient x1="50%" y1="0%" x2="50%" y2="100%" id="b"><stop stop-color="#CA9867" offset="0%"/><stop stop-color="#CA9867" offset="100%"/></linearGradient><linearGradient x1="50%" y1="0%" x2="50%" y2="100%" id="c"><stop stop-color="#FFF" offset="0%"/><stop stop-color="#8A8989" offset="100%"/></linearGradient><linearGradient x1="50%" y1="0%" x2="50%" y2="100%" id="d"><stop stop-color="#5C9AB9" offset="0%"/><stop stop-color="#6FA5C0" offset="100%"/></linearGradient><linearGradient x1="50%" y1="0%" x2="50%" y2="100%" id="e"><stop stop-color="#7DAEC6" offset="0%"/><stop stop-color="#9AC9E0" offset="100%"/></linearGradient><linearGradient x1="50%" y1="0%" x2="50%" y2="100%" id="f"><stop stop-color="#5C9AB9" offset="0%"/><stop stop-color="#C6D6FE" offset="100%"/></linearGradient><linearGradient x1="50%" y1="0%" x2="50%" y2="100%" id="g"><stop stop-color="#C5E3FF" offset="0%"/><stop stop-color="#9EC2F6" offset="100%"/></linearGradient><linearGradient x1="50%" y1="0%" x2="50%" y2="100%" id="h"><stop stop-color="#434343" offset="0%"/><stop stop-color="#191616" offset="100%"/></linearGradient></defs><g fill="none" fill-rule="evenodd"><g transform="translate(1)"><path fill="url(#a)" d="M3 0h1300v1300H3z"/><path d="M549.376 317.151l-149.723 48.513-45.239 51.96-14.467 91.019 45.02 84.542 66.148 34.124c12.758 6.58 33.927 7.634 47.283 2.352l32.404-12.817 39.361-20.643s3.984-17.443 9.375-33.153c5.391-15.71 23.94-75.249 23.94-75.249l-23.94-146.69-30.162-23.958z" fill="url(#b)"/><path d="M412.15 368.01l11.986-10.172 31.148-5.05c4.906-.797 12.602-3.006 17.18-4.933l73.62-30.98c2.544-1.07 5.97-.154 7.64 2.032l13.764 18.015c1.676 2.192 3.781 6.085 4.7 8.687l11.8 33.413c2.024 5.73 3.486 15.305 3.265 21.372l-.303 8.342-22.037-59.762c-2.484-6.736-9.466-15.212-15.612-18.943l2.633 1.598c-2.361-1.433-6.335-1.698-8.856-.602l-51.44 22.375c-9.626 4.187-25.88 8.539-36.303 9.719l-43.186 4.89z" fill-opacity=".687" fill="#9A642E"/><path d="M343.816 488.754s21.098 34.943 34.537 51.373 29.523 45.392 29.523 45.392l19.921 17.385c5.827 5.086 16.768 8.433 24.44 7.477l77.597-9.67c7.128-.889 14.524-7.199 16.565-14.092 0 0 9.477-33.816 18.679-54.59 9.202-20.776 35.294-72.544 35.294-72.544l.577 1.575c2.66 7.255 3.797 19.325 2.498 26.935 0 0-6.238 39.944-13.825 64.534-7.588 24.59-20.356 42.89-20.356 42.89-4.086 6.563-12.295 15.783-18.348 20.602L530.2 632.516c-4.75 3.782-13.45 7.683-19.442 8.715l-21.977 3.783c-13.607 2.343-33.242-2.911-44.022-11.544 0 0-18.093-16.148-31.788-21.358-13.695-5.21-17.584-2.314-17.584-2.314-15.95 1.278-31.744-10.34-35.28-25.97l-15.41-68.109c-1.828-8.079-2.014-21.212-.882-26.965z"/><path d="M2.777 341.24l71.74 106.363 44.026 209.995-18.089-25.806c-4.119-5.875-12.434-13.655-18.382-17.673 0 0-2.234-.584-2.916-2.866-.681-2.282-37.9-147.007-37.9-147.007-7.292-28.344-21.096-73.709-30.827-101.304L2.777 341.24z" fill="#75A1C2"/><path d="M.64 633.251l93.049-10.23s5.746 6.804 8.292 10.23c2.545 3.427 15.587 21.912 15.587 21.912L1.404 667.526.64 633.251z" fill="#7DB4D0"/><path stroke-opacity=".468" stroke="#82BEDD" fill="#B9E1F5" d="M1.645 338.223L.999 632.928l92.045-9.861-12.826-9.963L37.52 440z"/><path stroke-opacity=".381" stroke="#7CB5D2" stroke-width="3" fill-opacity=".527" fill="#F1F1F1" d="M1.476 576.62l7.715-8.45 29.573 16.254L2.06 594.39z"/><path stroke-opacity=".63" stroke="#7CB5D2" stroke-width="3" fill-opacity=".527" fill="#F1F1F1" d="M1.598 612.903l55.43-8.465 10.225 18.967 6.12 34.592"/><path d="M73.315 443.583l64.228-6.74 59.03 171.214 18.87 73.125-10.42 71.848-50.2 2.175.417-.419c3.115-3.13 3.564-8.587 1.004-12.185l-31.681-44.525-122.06 11.09-.443-42.772L117.907 655 73.315 443.583z" fill="#9DCFE9"/><path fill="#75A1C2" d="M137.378 436.924l48.228 68.155 28.869 86.668 24.458 97.287-25.158 84.513-9.217-19.677 9.917-71.996-19.093-76.638-37.224-108.74z"/><path fill="#6C818C" d="M154.92 755.113l50.145-2.272 8.444 19.07-72.374 7.448z"/><path fill-opacity=".307" fill="#79B2CF" d="M93.556 504.468l51.974-40.717 1.715 4.74-50.396 38.05z"/><path d="M1.622 708.842l.725 9.414 118.295-14.274 27.067 47.146-13.528 22.354 6.404 6.954 18-30.39v-.434c0-1.657-.457-4.267-.728-5.018l-33.25-46.793L1.622 708.842z" fill="#FDFAF5"/><path fill="#E9DBAC" d="M2.369 718.547l-.173 26.144 114.116-14.361 18.134 41.348 13.495-20.54-27.85-47.18z"/><path fill="#D7CA9B" d="M120.445 703.795l-4.52 26.539 18.315 43.12 13.612-22.332z"/><path fill="#FEFBEC" d="M2.228 744.57l.202 61.004 103.058-12.712 10.432-62.543z"/><path d="M1.814 667.186l115.716-12.354-44.442-211.256 2.374 1.901c8.187 6.56 16.304 20.262 18.128 30.598l9.305 52.745c3.935 22.3 11.201 58.28 16.228 80.351l-1.777-7.804c3.433 15.075 7.084 39.802 8.154 55.222l-.163-2.354c.267 3.857-2.63 7.34-6.464 7.778L2.344 675.322v-8.136h-.53z" fill-opacity=".489" fill="#F2F2F2"/><path d="M112.183 567.621l58.153-32.705 32.184 94.782 11.9 51.625-90.5 17.4-121.627 9.23.852-32.26 116.355-14.59a4.966 4.966 0 004.307-5.581l-11.624-87.901z" fill-opacity=".559" fill="#D5EEFF"/><path fill-opacity=".307" fill="#79B2CF" d="M115.605 592.385l57.014-54.741 3.072 8.214-58.634 54.175zm83.296 33.351L133.84 703.14l2.9 4.763 64.85-75.359z"/><path fill="#BDB082" d="M2.086 804.456l103.238-11.741 15.624 19.192L2.086 829.208z"/><path fill="#CCCAC1" d="M105.301 792.673l15.589 19.3 20.327-32.618-6.714-6.097-18.606-43.006z"/><path fill="#75A4BC" d="M221.034 618.24l42.933.642 43.048 29.415-52.379-.98-32.176-23.027z"/><path d="M222.513 624.347l32.094 22.843-3.942 36.52c-.474 4.39 2.016 10.084 5.57 12.724l4.678 3.475 52.633 34.48-24.737-9.69c-3.597-1.409-8.99-4.461-12.056-6.826l-10.97-8.46c-4.37-3.371-11.25-9.096-15.354-12.776l-2.404-2.156c-2.057-1.845-3.415-5.555-3.03-8.299l5.518-39.382-26.9-18.108-1.1-4.345z" fill="#EDE7E7"/><path d="M223.907 629.39l14.9 60.5-7.114 21.574 65.698 44.21 31.443-13.886-25.323-12.296-13.439-5.262-9.436-4.997-17.2-11.566-7.127-6.351c-4.124-3.676-9.635-10.57-10.744-12.574l4.746-41.825-26.404-17.527z" fill="#87BBD6"/><path fill="#59879F" d="M223.657 628.664l14.896 61.488-6.91 21.298 8.279 5.677 1.7-20.695 3.795-7 5.145-42.573z"/><path d="M306.8 648.348l-52.275-1.196-3.833 34.856c-.181 1.649-.083 4.312.215 5.93l.076.411c.213 2.575 3.247 6.42 3.247 6.42l5.102-42.554 46.838-.414 4.733.9-4.104-4.353z" fill="#4889AB"/><path d="M259.335 651.558l-5.127 43.154 3.622 2.96 9.75-37.243c.558-2.136 2.8-3.906 5.009-3.952l32.063-.672 6.427.386-.687-3.657s-2.59-1.19-4.032-1.198c-1.441-.008-47.025.222-47.025.222z" fill="#3B3B3B"/><path d="M281.215 655.938l-3.707 13.333 40.365 30.182 8.817-31.827-15.67-11.559s-4.574-.353-6.937-.353c-2.364 0-22.868.224-22.868.224z" fill="#C2C2C2"/><path d="M281.25 655.941l-10.815.573-3.014 3.153-9.69 38.094s25.077 17.607 37.904 26.048c12.827 8.441 17.786 10.6 17.786 10.6l28.957-1.88 4.963-8.72-20.722-56.224-8.59 31.511-40.252-30.575 3.474-12.58z" fill="#F2F2F2"/><path fill="#858585" d="M318.008 699.048l3.966 6.608 8.004 2.321 7.607 1.975L340 703.8l-13.362-36.306z"/><path fill="#7A7878" d="M321.078 704.133l1.035 30.212 20.34-1.466 5.818-9.046-8.277-20.115-2.45 5.644z"/><path fill="#604B4B" d="M2.064 829.14v54.407l56.262 9.989 61.727-81.551z"/><path fill="#715959" d="M58.092 892.616l15.657 123.42-19.194 20.302-52.913-21.147.938-132.602z"/><path fill="#423636" d="M58.062 892.588l14.171 124.658 21.438-21.594 67.253 46.906 46.97-56.677 20.695-38.135 14.891-52.8 42.051-27.19-14.732-20.264-17.264 3.569-24.046-35.463 6.423-20.341-22.706-23.346-71.762 7.4-20.98 32.03z"/><path fill="#7DADC5" d="M223.595 739.349l9.223-2.76 48.61 36.752-19.976 10.385-40.89-33.99z"/><path fill="#DDD" d="M220.548 749.667l-1.457 4.83 41.301 32.172 1.221-3.029z"/><path fill="#638596" d="M219.095 754.495l-4.462 14.649 40.51 40.247 5.243-22.729-34.44-26.83z"/><path fill="#352E2E" d="M341.783 700.26l39.622 12.964 55.208 4.454-18.495 19.3-6.4-2.76-41.908-.7-11.436-1.556v-15.646l-14.266-1.488-6.073-16.249z"/><path fill="#B3B3B3" d="M355.157 678.608l35.897 2.538-9.822 32.154-33.784-11.239z"/><path fill="#DDD" d="M391.062 681.144l76.89 3.915-30.131 32.774-56.694-4.501z"/><path d="M213.033 772.276l22.712 23.142-6.443 20.186 23.855 35.823 17.687-3.849-13.179-16.912c-2.719-3.488-4.408-9.87-3.775-14.242l1.095-7.563-40.295-39.946-1.657 3.361z" fill="#5D4444"/><path d="M372.909 733.11c-8.288 0-20.956 3.103-28.308 6.936L266.067 781c-1.961 1.022-4.002 3.584-4.557 5.716l-7.832 30.072c-.834 3.203.018 8 1.907 10.722l27.82 40.07 5.362 24.969 26.341 3.178-.997 9.956c-.33 3.302 2.048 6.42 5.314 6.963l119.33 19.856c6.537 1.088 16.31-1.014 21.819-4.687l88.93-59.292 22.444-19.423c8.769-7.588 8.904-20.046.307-27.822l-17.335-15.68c-3.683-3.331-10.17-8.026-14.496-10.491l-30.25-17.236c-9.596-5.467-25.338-14.005-35.156-19.067l-22.161-11.427-16.153-6.653c-10.209-4.205-27.434-7.614-38.486-7.614h-25.31z" fill="#9DCFE9"/><path d="M326.263 901.313l45.668-23.955 27.46-11.99c12.151-5.305 32.66-10.982 45.805-12.68l21.127-2.73c9.315-1.203 24.478-1.82 33.847-1.378l.92.044c9.377.443 24.497 2.046 33.743 3.576l21.52 3.563" stroke-opacity=".12" stroke="#617CAB" stroke-width="6"/><path d="M409.23 1121.046l-30.99 28.79c-3.236 3.005-4.38 8.701-2.551 12.726l32.742 72.099a7.519 7.519 0 001.086 1.64l47.176 51.469 39.55-25.574-53.54-52.75-34.288-70.908.816-17.492z" fill="#D7B362"/><path d="M409.068 1121.282l-1.232 14.08c-.144 1.653.33 4.205 1.056 5.692l35.39 72.531 52.688 49.424-9.418-54.755-40.925-61.499-37.559-25.473z" fill="#BA984B"/><path d="M282.96 772.532l62.718 1.27-.124 36.234-89.598 8.974c-1.643.164-2.696-1.023-2.355-2.631l5.713-26.983c.915-4.317 4.972-9.182 9.055-10.861l14.592-6.003z" fill="#9DCFE9"/><path fill="#B5DFF6" d="M345.887 773.695h18.272l-.855 38.342-18.255-1.48z"/><path d="M364.28 773.797l173.489 19.941c7.793 2.226 20.803 13.558 29.053 25.303l-3.722-5.299c3.172 4.515 5.96 12.646 6.229 18.156l.047.972-205.919-21.023.824-38.05z" fill="#CDEEFF"/><path d="M254.025 819.47s59.245-4.067 88.748-5.654c29.502-1.587 16.362 0 16.362 0l-16.362 78.04-17.67 8.43-10.259-5.134-26.4-2.317-4.974-24.922a6.402 6.402 0 00-.73-1.828l-7.676-12.113a880.013 880.013 0 00-9.81-15.071l-6.496-9.714c-1.225-1.832-3.072-4.9-3.867-6.374l-.866-3.343z" fill-opacity=".542" fill="#80ADC5"/><path d="M282.319 772.415l60.19-31.331c4.412-2.297 11.93-5.016 16.785-6.072l2.197-.477c4.314-.939 11.389-1.7 15.804-1.7h19.581c6.077 0 15.824 1.024 21.759 2.284l-5.768-1.224c9.73 2.065 25.034 6.906 34.17 10.808l4.655 1.987-46.77 4.826c-5.491.566-12.406 4.761-15.447 9.375l-9.772 14.822-7.112-.44c-8.273-.511-21.695-1.098-29.968-1.31l-60.304-1.548z" fill-opacity=".659" fill="#69AACC"/><ellipse fill="#86BFDC" cx="431.5" cy="763" rx="36.5" ry="11"/><ellipse fill-opacity=".705" fill="#D7F1FE" cx="430" cy="767" rx="17" ry="5"/><path fill="#74B1D0" d="M255.052 817.961l90.294-8.111 224.034 22.952v3.917l-223.732-23.365-90.2 7.528z"/><path fill="#13191D" d="M297.468 755.555l31.521-13.463-14.91-7.681 28.05-1.87 5.672-9.18-3.664-8.702 14.58 1.397.221 15.233 14.69 1.143-13.314 2.233-10.494 3.432-68.978 35.11-3.126-.935L299.785 758z"/><path d="M419.223 734.779l42.79-44.758c3.817-3.992 10.9-9.275 15.813-11.794l23.082-11.838c8.845-4.536 23.733-10.551 33.236-13.43l13.257-4.015c9.51-2.88 25.183-6.496 34.998-8.074l-4.728.76c8.176-1.315 20.209 1.6 26.887 6.516l34.836 25.651 43.49 35.118 60.408 43.103 60.945 67.908 2.902 29.67 17.983 29.184-2.957 10.474-23.418-14.02-24.43 6.228-37.864-1.512-50.344-11.115-52.641-19.239-60.829-6.98-4.675-24.383-27.223-24.191-121.518-59.263z" fill="#7AB3D0"/><path fill="#6396B1" d="M442.64 716.187l55.642 13.444 42.698 20.68 49.5 29.83 52.226 32.096 53.892 23.364 52.968 12.866 15.219 6.337 18.303.603 22.593-12.648 2.404 10.052-32.507 13.984-45.126-11.799-42.042-10.27-58.973-24.64L577.7 796.05l-63.508-40.864-83.317-26.659z"/><path fill-opacity=".246" fill="#DCF3FF" d="M527.724 733.397l91.393 20.652 63.27-47.312 39.54 62.49 14.43 45.195 1.66 29.855-57.61-15.709-63.769-30.136z"/><path fill-opacity=".591" fill="#DCF3FF" d="M518.632 739.115l99.703 36.141 32.427 25.823 87.766 30.785.317 13.043-43.71-8.498-53.844-23.71-43.077-27.466z"/><path fill-opacity=".434" fill="#DCF3FF" d="M569.256 821.387l74.886 7.27 40.908 15.017-4.134 2.252-37.267-11.539-71.706-4.25z"/><path d="M449.524 929.333l71.852-44.059c9.416-5.774 23.574-16.6 31.603-24.165l19.704-18.564 14.088 1.275-39.35 43.526c-2.591 2.866-7.016 7.305-9.864 9.897l-30.657 27.9-31.734 28.962-25.642-24.772z" fill="#EDBD75"/><path fill-opacity=".336" fill="#D79B41" d="M449.898 929.044l38.57-20.627 10.4 12.316 5.446 5.752-29.367 27.653z"/><path d="M683.961 709.783l52.588 14.545c2.662.736 6.453 2.855 8.472 4.737l29.728 27.707-43.07-11.501-47.718-35.488z" fill="#858B97"/><path fill="#AEB3BD" d="M774.854 756.517l12.042 44.254-53.784-56.156z"/><path d="M585.992 844.503l-30.244 32.593c-9.767 10.526-26.247 26.94-36.82 36.669l-43.503 40.037 5.18 8.29 110.699-106.465 39.65 2.348 1.89-9.992-46.852-3.48z" fill="#727272"/><path fill="#969696" d="M586.317 843.841l4.4 11.29 42.073 2.995 1.487-9.953z"/><path d="M632.631 856.743l40.46 21.678c7.298 3.91 19.64 9.039 27.57 11.456l18.178 5.54c10.563 3.218 28.082 5.722 39.123 5.59l-3.29.04c8.832-.105 22.26-3.665 29.983-7.947l18.721-10.379-21.418-3.306-7.859 1.89-37.481-2.576-50.328-10.846-52.434-19.03-1.225 7.89z" fill="#EDBD75"/><path d="M632.607 856.62l-42.503-1.4-109.16 106.968 114.609 115.57 55.822 75.584 93.272-233.155-33.577-10.263c-9.506-2.906-23.55-10.233-31.38-16.374l-47.083-36.93z" fill="#6FA5C0"/><path stroke="#617CAB" stroke-width="3" d="M512.54 994.429l14.743-10.723 51.58 46.705-3.955 24.438z"/><path d="M744.249 919.307l-94.751 237.85 137.337-126.66 29.43-92.025c3.03-9.47 3.428-24.935.888-34.555l-2.06-7.804-33.135 19.627c-3.325 1.97-9.146 3.567-13.015 3.567H744.25z" fill="#6998AF"/><path stroke="#617CAB" stroke-width="3" d="M747.239 1060.558l2.324-17.784 38.576-30.246 2.91-1.874-6.075 18.12-36.703 34.406z"/><path d="M632.346 856.644l48.16 24.229c2.466 1.24 6.575 2.973 9.2 3.877l19.773 6.814c6.79 2.339 18.086 4.731 25.248 5.344l16.08 1.377c6.05.518 15.781-.048 21.74-1.264l-10.787 2.202c9.262-1.891 23.914-7.168 32.705-11.776l8.259-4.329 13.232 12.681-31.273 19.664-8.81 2.949c-4.19 1.402-11.164 2.333-15.577 2.08l-15.563-.894-26.505-7.457-1.358-.39c-7.963-2.291-20.272-7.432-27.508-11.492l3.565 2c-7.23-4.056-18.231-11.67-24.573-17.004l-5.35-4.5-30.658-24.111z" fill="#A1C2D2"/><path fill-opacity=".623" fill="#80B0C8" d="M699.159 906.646l-28.93 197.992 74.84-185.395z"/><path fill-opacity=".719" fill="#98C2D7" d="M483.404 960.335l106.764-106.27 42.813 2.725-3.698 9.239-35.46-4.98-106.019 106.14z"/><path fill="#121111" d="M360.658 918.177l36.247 119.955 59.44 70.359-21.298-77.632 1.857-100.645z"/><path d="M434.299 930.128v101.762s14.778 59.612 22.752 87.642c7.975 28.03 4.43 1.034 4.43 1.034l10.072-15.551 42.492 52.926 38.638-29.268 64.015 48.553 27.203 12.355 28.035-19.46 33.244-31.546 7.36 20.532 46.887-107.608-107.05 102.868-58.433-78.886L450.5 928.77c-3.504 1.702-16.202 1.358-16.202 1.358z" fill="#1E1E1E"/><path fill="#726039" d="M458.208 1276.797l-42.8-49.347 23.785-19.876 44.426 49.523-40.719-34.922-13.939 10.746z"/><path d="M428.715 1232.909l9.466 14.278 19.96 28.934 23.69-20.538-1.404-1.192c-11.18-9.496-29.066-25.17-37.29-32.603l-14.422 11.12z" fill-opacity=".657" fill="#AD8D44"/><path d="M425.146 1232.308l27.9 38.544-24.21-37.62 14.306-11.53s16.549 15.165 23.054 20.789c6.505 5.624-21.102-24.173-21.102-24.173l-19.948 13.99z" fill="#5F4831"/><path fill="#433C4E" d="M283.516 867.257l-41.375 26.227-16.495 55.208-19.416 39.237-44.884 53.27 30.55 32.519 54.991-82.676 16.006-59.557 33.81-38-8.103-.81z"/><path fill-opacity=".597" fill="#7A7483" d="M275.04 878.852l-30.048 20.718-27.148 82.879-43.704 53.641 55.66-56.102 25.475-46.318 32.418-36.345z"/><path d="M191.577 1072.688l13.636-20.174c.93-1.376 2.586-1.493 3.695-.27l20.328 22.435 25.985 25.258c5.541 5.387 13.412 15.034 17.575 21.54l23.41 36.589 41.112 81.503c.996 1.974.637 2.227-.82.544l-144.92-167.425z" fill="#332E3D"/><path fill="#4A4457" d="M206.882 1050.582l38.606-60.543 81.902 125.126-30.611 43-28.35-41.13-27.517-31.518-20.43-20.31z"/><path fill-opacity=".945" fill="#574F67" d="M190.94 1074.381l7.723 7.775 11.907-14.75 82.582 95.505 4.425-4.718-37.93-53.203-52.945-55.04z"/><path fill="#6F6A79" d="M212.241 1049.19l9.01 4.297 26.008-43.046 69.391 112.545 6.992-7.613-77.578-124.177z"/><path fill="#4A4457" d="M246.02 989.946l15.667-58.387 23.188-24.789 67.504 146.29-24.222 63.91z"/><path fill="#6F6A79" d="M260.647 943.025l10.017 2.696 16.41-18.832 58.53 132.029 3.901-8.358-63.972-142.472-22.38 23.173z"/><path fill="#332E3D" d="M212.326 1052.068l84.161 102.886 3.481-3.233-53.482-71.604zm33.698-60.815l81.13 123.916 3.026-15.517-72.026-116.269z"/><path d="M285.094 905.839l68.052 144.707 52.062-9.265-44.633-123.446-43.334-6.785c-1.95 0-3.096-3.553-2.95-4.736l1.238-10.953-19.233-2.056-11.202 12.534z" fill="#625B6E"/><path fill="#332E3D" d="M284.366 906.263l17.875.655 58.835 141.232-8.9 6.258z"/><path d="M286.044 1168.675l40.393-51.824 23.11-57.528c1.647-4.098 6.384-8.567 10.558-9.974l34.643-11.685c4.184-1.411 9.698.323 12.318 3.878l55.368 75.116-12.772 24.583 9.012 23.61-12.134-18.074-37.385-25.57-33.24 33.718.38 7.262 32.85 73.42 45.366 49.014-22.451 21.397-36.8-29.274-30.92 22.091h-26.115l-11.788-52.138-4.65-33.123-35.743-44.9z" fill="#352F41"/><path d="M293.035 1176.886l36.92-52.957 27.994-58.843 3.822-4.85c3.08-3.908 9.536-7.835 14.423-8.771l9.007-1.726c4.337-.831 10.012 1.342 12.682 4.86l56.887 74.969 8.773-11.749-57.454-76.778c-2.314-3.091-7.158-4.62-10.844-3.407l-38.134 12.546c-2.623.863-5.566 3.641-6.576 6.215l-23.78 60.585-40.602 52.224 6.882 7.682z" fill="#5F5570"/><path d="M391.333 1038.736l66.625 86.811 5.883-7.891-55.158-74.997c-2.29-3.114-7.278-5.638-11.148-5.638h-.045l-6.157 1.715z" fill="#201B27"/><path fill="#26212F" d="M293.884 1177.21l25.2-33.42 14.635 29.65 5.443 93.442-5.365-26.277-12.29-29.27z"/><path fill="#2E273A" d="M348.657 1090.006l31.335 57.512 29.362-28.552 38.154 27.754 9.097 14.45-6.84-21.36 5.747-11.515-61.457-76.726-17.696-.305-14.876 9.032z"/><path fill="#4C4658" d="M341.299 1263.056l51.668-48.471 4.956 6.933-55.679 49.387z"/><path fill="#1B1A1A" d="M340.258 1259.906l51.92-47.317.584 3.333-52.509 47.386z"/><path d="M458.733 1164.724l-9.085-17.992c-1.245-2.465-1.101-6.38.327-8.755l15.841-26.343-3.23 22.918-1.74 3.05c-2.332 4.085-3.817 11.177-3.318 15.848l1.205 11.274z" fill="#45616F"/><path d="M472.15 1104.713l-2.372 1.817c-2.104 1.611-4.089 5.054-4.432 7.675l-2.798 21.343 7.72-.257 1.882-30.578z" fill="#E3E0E0"/><path fill="#69AACC" d="M469.571 1134.737l42.37 39.603 2.14-17.719-42.008-51.781z"/><path fill-opacity=".548" fill="#2E4A58" d="M480.987 1119.053l29.977 40.347-.257 13.335 6.083-1.122.514-15.399z"/><path fill="#5992B0" d="M516.39 1155.386l33.409-23.973-3.98 22.424-29.43 18.54z"/><path fill="#B0AFAF" d="M552.897 1128.576l-3.472 3.515-4.365 22.194 9.03.236 2.64-23.392z"/><path d="M556.91 1130.9l49.841 38.69c6.111 4.744 16.924 10.832 24.143 13.593l13.546 5.182 4.138 22.191-94.855-55.598 3.187-24.058z" fill="#629FBF"/><path d="M644.316 1188.303l2.463-1.435c10.496-6.113 26.17-17.817 35.02-26.15l23.429-22.062 7.453 20.502-65.704 49.637-2.66-20.492z" fill="#517C92"/><path fill="#6C7376" d="M646.081 1207.243l-18.195 92.607 15.04-.556 14.3-22.399 11.749 15.014 17.008-21.188-2.103-19.22 19.69-33.677 8.336-19.69 18.542-23.738 4.86-15.568 5.096-9.833-1.633-6.553-22.061 25.81-4.075-9.424z"/><path d="M485.936 1209.121l-23.49-35.112c-3.378-5.05-6.116-14.065-6.116-20.149v-7.82l2.05-5.608c1.137-3.115 4.725-5.394 8.035-5.087l.28.026c2.204.204 5.313 1.572 6.945 3.057l37.098 33.733c1.222 1.11 3.328 1.28 4.724.365l27.775-18.215c2.773-1.819 7.335-1.928 10.196-.24l93.335 55.05-19.131 91.24-54.941-.34-24.438-16.539h-5.731l-41.027 20.163-20.308-20.36-7.296-7.317 22.276-13.927-10.236-52.92z" fill="#93C1D9"/><path d="M486.411 1199.071l-19.097-39.3c-1.209-2.486-2.297-6.741-2.432-9.496l-.36-7.374 22.997 24.891c4.495 4.866 13.485 9.298 20.081 9.899l27.238 2.483 42.146 9.247 20.486 15.336c6.632 4.965 11.955 15.705 11.89 23.987l-.26 33.028-4.55 37.745-30.334.83-27.414-18.172-45.401 21.593-26.292-27.114 24.885-16.924-6.728-45.275" fill-opacity=".151" fill="#588DA9"/><path d="M782.124 879.413l16.571-4.326 23.814 13.045 5.75.501-3.469 45.475-6.571 15.338 1.973 42.286-3.058 6.359-11.795-5.986-14.39 24.235 13.67-45.65 9.266-27.285.255-.901c1.653-5.847 3.483-15.488 4.087-21.535l.16-1.606c.439-4.398-.136-11.424-1.282-15.688l-2.44-9.08-12.011-11.506-20.53-3.676z" fill="#2C2323"/><path d="M804.175 821.63l3.516 29.356 17.212 27.808-2.465 9.552 5.265.464-2.8 45.355-6.698 15.165-2.414 63.05 45.772-70.526 9.904-19.236c2.783-5.403 3.189-14.357.918-19.974l-2.244-5.55-4.982-18.3-14.078-20.133-5.395-10.879c-2.207-4.45-7.89-9.102-12.685-10.387l-11.321-3.033s-9.613-5.37-13.99-8.553c-4.376-3.184-3.515-4.18-3.515-4.18z" fill="#797979"/><path fill="#A7A7A7" d="M827.914 889.432l-2.37 44.52-8.031 15.274 3.906 24.749 5.916-30.018 5.54-12.391.723-33.76z"/><path fill="silver" d="M804.992 824.337l1.838 26.886 19.701 27.598-3.388 8.225 48.702 16.8-8.036-25.431-14.408-21.888-2.482-9.547-14.357-10.085-9.964-1.251z"/><path fill-opacity=".587" fill="#DAD5D5" d="M818.522 836.733l22.59 44.157 22.895-2.173z"/><path d="M827.825 889.115l40.07 13.01c5.928 0 7.128 11.256 6.318 13.784 0 0-10.381 24.444-17.574 35.343-7.193 10.9-34.966 44.273-34.966 44.273l1.734-26.384 3.683-26.032 5.953-12.002 1.024-33.143-6.242-8.85z" fill-opacity=".376" fill="#515151"/><path fill="#27272A" d="M804.982 991.495l-14.349 25.777-4.375 12.385-29.56 27.193-27.988 63.662 7.398 7.679 37.21-51.783 4.265-17.948 36.495-62.06z"/><path d="M813.713 995.674l-37.096 62.703-3.7 18.121-26.137 36.615-9.64 15 2.648 20.056 25.929-21.746 10.286-12.02s7.226-8.556 10.199-13.46c2.973-4.904 11.575-22.453 11.575-22.453l19.355-57.365 3.456-21.062-6.875-4.39z" fill="#604B4B"/><path d="M751.475 1106.204l-15.73 21.986 4.053 20.222s.587.832.75.678c.163-.153 16.217-15.9 16.217-15.9l-5.29-26.986z" fill="#382D2D"/><path d="M819.36 999.788l16.89-22.663 48.61 55.108-31.39 47.936-56.378 38.116c-5.494 3.714-8.035 11.744-5.676 17.935l-1.317-3.457c1.376 3.612 5.57 5.965 9.367 5.254l26.8-5.013-9.96 15.1c-4.26 6.459-13.93 12.494-21.598 13.48l-10.013 1.288-22.843-8.218v-13.867l-4.076-8.933 6.85-6.168c7.39-6.655 16.98-19.266 21.415-28.158l6.286-12.604c2.464-4.942 6.014-13.139 7.938-18.334l10.916-29.473c3.837-10.359 7.54-27.689 8.18-37.329z" fill="#1A0D05"/><path fill="#36271D" d="M856.608 949.57l48.483 50.155-41.074 64.48 60.368-65.924-55.228-54.67z"/><path fill="#1E0D0D" d="M856.26 948.174l-25.552 36.251 52.478 49.966 22.463-34.745z"/><path d="M762.13 1137.188l92.867-65.814 68.293-73.547-54.33-53.2-14.414 7.165s14.547-24.243 18.713-34.517c4.167-10.273 4.157-7.48 4.157-7.48l55.947 64.95 6.629 24.873-22.941 74.518-23.448 41.214-16.977 29.185-27.642 16.545-18.936 5.939h-26.57l-18.578-3.245-21.756-6.511-1.013-20.075z" fill="#1C1010"/><path d="M739.52 725.898l18.932-16.305 11.47 2.534 12.442 12.426 48.74 2.684 2.737 67.474 32.923 38.405v38.316l63.828 77.382 14.848 13.2 32.935 68.362-34.76 7.357 15.304 56.464 3.465 56.382-57.069-25.934 14.686-24.262-1.481-25.535-30.826 36.49-4.969 19.643 54.994-138.513-64.49-75.757c.707-4.3.04-11.143-1.493-15.299l-8.8-23.85-13.853-21.46-.113-.435c-1.392-5.348-6.134-12.323-10.6-15.585l2.564 1.873c-4.016-2.933-11.283-5.617-16.242-5.995l-1.804-.138-18.083-12.193-1.657-4.994-17.808-18.413-11.153-43.814-34.667-30.51z" fill="#1A0D05"/><path d="M764.18 1157.53l22.947 6.297c11.784-1.376 44.802-.379 44.802-.379l36.86-19.77 14.905-15.187c6.77-12.833 34.634-57.926 34.634-57.926l2.185 30.713-13.532 22.455 55.914 26.18-8.279 119.32-10.915 19.03-6.727 5.07-39.599-13.45 7.578-8.435-5.948-2.12-23.981 13.206-49.609-.974-21.769-38.725-47.746-33.838 8.28-51.467z" fill="#97AAB4"/><path d="M762.81 1157.155l14.908 4.526c5.815 1.766 15.399 2.448 21.41 1.523l-10.88 1.674c11.137-1.714 40.836-1.498 47.53-.978l-11.962-.93c6.607.514 16.551-1.88 22.197-5.338l18.98-11.624c1.887-1.155 4.766-3.258 6.442-4.707l2.834-2.45c6.265-5.418 14.395-15.795 18.156-23.175l11.056-21.692 2.698-2.82c6.87-7.185 12.44-4.947 12.44 4.995v6.308L903 1126.992l-13.248 20.817-19.821 13.245c-4.13 2.76-11.03 6.905-15.407 9.255l-3.033 1.629c-4.38 2.351-11.939 4.651-16.884 5.136l-23.133 2.268c-6.043.592-15.728-.041-21.656-1.42l-28.167-6.554 1.16-14.213z" fill="#B7CCE5"/><path fill-opacity=".319" fill="#372222" d="M761.938 1172.484l-6.128 36.778 35.046 24.075 6.176-47.007z"/><path fill-opacity=".691" fill="#666" d="M805.88 1244.441l51.982 31.549 6.547 6.006-39.372.803z"/><path fill-opacity=".771" fill="#4C4343" d="M891.861 1147.542l39.052 100.229 17.448-3.472 2.274-66.887-3.4 104.686 7.866-12.052 7.837-120.21-56.378-26.24z"/><path fill-opacity=".453" fill="#494343" d="M898.542 1269.41l49.322-19.152v32.088l-4.404 6.368-6.605 4.746-39.927-13.17 8.218-8.737z"/><path fill="#381B01" d="M962.113 1148.147L954.1 1269.38l-16.829 23.202-39.752-12.71 7.857-8.366-6.306-2.482-24.902 12.604-25.95-1.448-3.117 19.243 112.575.777 16.638-30.82 41.96-45.525.6-43.523-7.641-31.928z"/><path d="M983.149 1148.596l5.643-6.187c2.974-3.26 8.822-6.897 13.074-8.125l7.438-2.148c5.832-1.685 14.352.107 19.011 3.986l7.14 5.943c2.12 1.765 4.689 5.264 5.737 7.814l11.064 26.91 6.524 39.06 3.664 29.905-27.784 34.42-39.188 21.008h-16.52l19.454-39.424 25.303-36.954c2.81-4.103 4.343-11.386 3.426-16.272l-10.895-58.014-12.359-1.156c-7.153-.669-18.769-.878-20.732-.766z" fill="#291808"/><path fill="#CDBBBB" d="M957.382 1300.226l25.125.673 22.656-48.935-31.357 17.685z"/><path fill="#7B5959" d="M1062.277 1245.54l-28.28 34.007-38.414 21.475h24.948l56.08-51.027z"/><path fill="#493333" d="M1020.27 1301.094l80.129-1.345-16.838-50.89h-8.713z"/><path d="M943.228 1037.601l23.039 11.546c9.383 4.703 25.197 10.736 35.33 13.477l57.179 15.47 45.316 6.517 14.996 4.8-22.498-20.245-42.217-2.118-17.117-42.008 12.53-24-18.381 2.216-21.578 3.664-5.253-9.256 1.945-10.34-16.454-9.788-4.384 3.731-24.784-32.519-13.142-13.048-23.883 8.461 19.356 17.69 34.097 66.94-34.097 8.81z" fill="#2A1616"/><path d="M757.778 1131.935l-25.055 24.89-2.767 16.98-18.043 24.232-9.99 22.813-18.255 30.088 1.511 21.497 16.699 1.7v-17.053l5.073-7.351c4.392-6.364 12.58-15.757 18.277-20.967l-3.86 3.53c6.112-5.59 15.443-15.226 20.828-21.503l6.652-7.756-1.094 24.769s7.397-8.904 9.266-15.25c1.87-6.345 3.729-28.85 3.729-28.85l3.4-43.269-6.371-8.5z" fill="#D7B362"/><path fill="#A38540" d="M685.733 1253.218l15.928 2.066-.443 18.454-15.712-1.534z"/><path fill="#D7B362" d="M702.37 1273.897l45.948-53.769-.113 6.62z"/><path d="M757.87 1131.896l-25.454 24.913-2.864 16.7 26.131 25.604s4.612-9.297 5.405-14.693c.792-5.397 3.182-43.776 3.182-43.776l-6.4-8.748z" fill="#BA984B"/><path fill="#726039" d="M701.536 1257.45l7.788-13.586 39.99-41.095-.947 17.87-46.83 54.057z"/><path fill="#5F4831" d="M729.924 1225.12l10.536-10.838-1.392 4.319 7.459 2.76-39.49 41.393 26.615-33.782z"/><path d="M866.042 837.445l1.054 34.872 23.458-4.685 17.266-47.064c-.855-2.483-3.788-4.495-6.545-4.495h-1.733l-33.5 21.372z" fill="#D7B362"/><path d="M867.49 872.224l58.558 71.215c2.103 2.557 5.97 3.037 8.637 1.073l7.352-5.417c2.667-1.965 6.289-5.81 8.097-8.6l5.278-8.148 15.86-26.665-63.997-75.434-16.639 47.275-23.147 4.701z" fill="#BA984B"/><path d="M956.383 919.396l1.765 13.208c.512 3.827 4.063 6.763 7.908 6.559l16.975-.902c3.856-.205 7.9-3.375 9.026-7.055l8.688-28.407c1.454-4.754.082-11.725-3.071-15.58l-67.819-82.91c-4.194-5.127-12.577-7.274-18.726-4.792l-7.059 2.848-2.994 1.612c-4.866 2.619-11.274 8.478-14.314 13.09l-2.083 3.16 3.915 4.773 10.898-8.66 1.933-.029c2.764-.042 5.554 2.094 6.231 4.772l.043.166 63.266 74.509-14.582 23.638z" fill="#BA9749"/><path d="M957.392 917.845l-13.142 18.948 15.339 12.098 4.036-3.095 24.128-4.109 2.95-7.532s-4.79 2.995-7.374 3.6c-2.585.606-11.396.797-11.396.797l-6.943.303c-2.694-1.139-6.095-5.41-6.095-5.41-.83-4.43-1.503-14.98-1.503-15.6z" fill="#53341B"/><path fill="#C8A65A" d="M891.993 866.06l56.527 62.796 23.145-33.092-65.46-73.832z"/><path fill="#180C0C" d="M989.412 977.531l13.064-11.767 26.584-18.413-12.552 25.027-11.65 18.27z"/><path fill="#262A2E" d="M231.885 711.96l-8.272 28.054 9.226-3.412 46.008 35.183 20.796-13.692z"/><path fill="#30404C" d="M237.238 724.794l46.563 36.128-46.944-32.879z"/><path fill-opacity=".232" fill="#D8D8D8" d="M237.917 725.102l46.038 34.486 2.997.391.906-1.568-30.339-23.227-17.439-10.907z"/><path fill="#7B858F" d="M1036.867 1023.446l20.432-28.859 27.016-67.022 21.346 61.272 3.415 26.97-3.734 40.364-8.087 12.78-43.378-1.85z"/><path fill="url(#c)" d="M1036.8 1023.677l22.029 1.013 12.976 33.41 32.158 1.865-8.066 9.657-41.747-2.037z"/><path fill="#F9F9F9" d="M1036.793 1023.679l4.727-7.193 17.872 1.123-.624 7.134z"/><path fill-opacity=".476" fill="#D4AF5B" d="M987.906 894.947l-10.403 36.823 8.555.644 9.307-36.358z"/><path fill-opacity=".476" fill="#D4AF5B" d="M962.147 919.63l.987 5.39 2.618 2.605 12.25.11-.656 3.797 8.937.684v-2.455l4.003.767-1.276 4.372-5.402 2.824-17.673 1.645-5.389-3.908-2.63-14.492z"/><path fill-opacity=".685" fill="#D0B26F" d="M918.662 802.915l69.95 82.354-18.343 3.161 3.076 5.121 23.057-4.593-72.275-88.588z"/><path fill="#947837" d="M915.318 802.099l-14.211 9.752 48.101 57.674-41.933-55.983 8.985-5.317z"/><path fill="#2B4A79" d="M711.777 1159.08l17.147-38.726 7.672 8.15 2.217 13.989-21.742 26.433z"/><path fill="#D7B362" d="M369.308 1299.255l18.636-13.763 10.042 15.218z"/><path fill="#DEC897" d="M362.269 1299.414l32.992-22.627v10.364l7.91 12.702-5.86.508-9.535-14.63-18.075 13.83z"/><path fill="#726039" d="M394.923 1276.27v11.033l8.293 12.61h21.422z"/><path fill="#DEC897" d="M712.74 1263.092l37.495-38.193 7.123-15.786 49.045 35.578 19.406 38.152-5.569 17.133-99.153 1.036-1.845-32.485z"/><path fill="#4E3D2D" d="M692.724 1273.253l9.175.861 10.177-11.804 7.45 6.469 1.504 31.763-26.087-.487z"/><path fill="#553535" d="M1008.924 1149.535l2.691 14.038 4.14 17.02.36 41.896-42.234 47.411 31.718-17.822 17.044-24.908 4.574-8.234 1.552-5.869-3.974-22.633-8.086-40.154z"/><path stroke="#646464" d="M1075.48 984.343l-4.361 11.379 26.29 53.7 6.364-4.024 1.517 4.025"/><path fill="#FFF" d="M1042.917 1015.176l37.895-68.119-21.178 69.95z"/><path fill="#6A6A6A" d="M1059.18 1025.422l13.224-2.316 10.56 25.963 25.418-27.688-2.057 25.391-2.445 13.374-32.033-2.335z"/><path fill="#C0913B" d="M1112.892 1054.517l.685-64.127-26.857-90.894-3.084-38.937 16.372 36.956 16.952 56.691 7.07 54.93 5.08 62.22z"/><path fill="#A0781E" d="M1096.129 1069.394l22.42 20.189 9.89-9.906-24.34-21.88z"/><path d="M251.251 614.899l-1.41-42.83c-.254-7.726 1.189-20.037 3.221-27.488l47.083-172.63 5.88-14.84c4.68-11.811 13.795-30.202 20.358-41.074l-7.385 12.234c9.132-15.127 27.732-36.313 41.56-47.332l4.755-3.79c9.068-7.225 25.27-16.247 36.19-20.15l-.55.196c16.64-5.949 44.42-11.697 62.063-12.84l-3.944.255c14.324-.928 37.124 1.544 50.917 5.52l-.131-.038c11.142 3.211 26.867 12.406 35.136 20.551l-4.397-4.33c10.233 10.078 17.623 29.861 17.352 33.343 11.837 0 28.334 8.244 36.845 18.41l5.921 7.073c10.99 13.128 20.884 37.616 22.097 54.69l3.171 44.65c2.544 35.808 10.987 93.23 16.746 118.855l7.864 57.213v86.73l-17.112-16.66-42.397-22.33 4.13-80.306-11.907 46.918-39.053 17.582 8.777-20.095c12.157-27.835 28.068-74.272 35.535-103.715l2.536-9.996c3.938-15.527 5.677-41.012 3.884-56.93l-3.082-27.356c-1.112-9.874-4.665-25.485-7.936-34.871l-7.697-22.084c-4.179-11.99-15.223-28.594-24.664-37.083l-1.929-1.734-80.015 31.908c-10.258 4.09-27.513 6.874-38.542 6.219l8.282.492c-7.72-.459-18.7 3.298-24.516 8.385l-29.422 25.728-12.418 8.279c-5.518 3.679-11.287 11.866-12.889 18.31l-14.7 59.112c-3.066 12.33-1.163 31.635 4.256 43.13l36.711 77.87c4.005 8.495 3.379 21.936-1.401 30.025l-28.86 48.834-7.974 26.154S333.038 681.352 325.713 672c-7.325-9.352-15.034-16.335-15.034-16.335l-46.135-35.987-13.293-4.78z" fill="#291308"/><path d="M367.204 560.345l-10.037 100.48-1.792 15.335 36.988 3.987 78.172 5.433 23.527-21.181c7.386-6.65 20.707-15.39 29.745-19.518l4.004-1.829c10.551-4.819 28.51-8.725 40.1-8.725h24.136v-48.106l-7.882-10.72v-15.156h-9.61l-23.752 30.649c-5.762 7.222-18.014 18.65-25.595 24.226l3.215-2.365c-1.776 1.306-4.817 3.184-6.773 4.184l-6.041 3.088c-7.873 4.025-21.373 8.162-30.135 9.239l1.148-.141c-7.13.875-18.573.204-25.54-1.495l-17.853-4.355-4.152-2.132a13670.175 13670.175 0 00-38.677-19.765l7.542 3.77c-4.166-2.082-13.446-11.651-20.729-21.374l10.313 13.768c-6.956-9.287-19.584-23.112-23.79-28.2 0 0 2.681 4.551 0 0-2.68-4.553-6.532-9.097-6.532-9.097z" fill="#2B2222"/><path fill="#7D7D7D" d="M833.567 794.308l33.63 43.377 20.744-14.26-22.096-25.75z"/><path d="M333.301 545.59c-8.286 0-13.904 6.63-12.55 14.8l.918 5.53c.814 4.907-2.235 10.457-6.812 12.399l2.935-1.245c-4.576 1.94-7.939 7.533-7.512 12.485l5.8 67.28 19.44 17.923c2.44 2.25 6.875 3.003 9.917 1.678l-3.759 1.637c8.104-3.528 14.108-13.53 13.41-22.343l-8.083-102.16c-.35-4.409-4.216-7.983-8.64-7.983h-5.064z" fill="#BE8637"/><path d="M339.2 546c-8.283 0-16.298 6.589-16.633 8.286l-1.643 21.054c-.386 4.952-.542 12.987-.347 17.962l1.99 50.875s3.659 10.214 6.278 13.106c2.62 2.891 5.851 3.849 5.851 3.849 3.014 1.357 7.847 1.211 10.78-.318l-5.324 2.775c6.682-3.483 11.655-13.017 11.109-21.286l-5.838-88.322c-.291-4.408-4.108-7.981-8.528-7.981h2.305z" fill-opacity=".646" fill="#A1712D"/><path d="M590.848 567.454l1.98 84.358 39.679 20.106s-6.938-28.106-8.035-38.707c-1.098-10.602-2.954-67.462-2.954-67.462-8.603-5.95-22.77-4.826-30.67 1.705z" fill="#BE8637"/><path d="M608.52 562c-7.313 0-14.512 5.787-14.683 6.566l-1.287 14.83c-.43 4.948-.603 12.983-.387 17.952l1.674 38.45s3.227 8.094 5.538 10.385c2.31 2.292 4.434 2.715 4.434 2.715 3.059 1.26 7.973 1.143 10.968-.26l-5.43 2.543c5.894-2.76 10.235-10.92 9.7-18.2l-4.929-67c-.324-4.408-4.171-7.981-8.592-7.981h2.994z" fill-opacity=".646" fill="#A1712D"/><path d="M360.926 285.238l24.077-8.183-13.2 22.749c-1.385 2.385-.597 3.148 1.754 1.708l23.204-14.217-2.244 12.318h3.346c2.762 0 3.485 1.634 1.6 3.668l-12.02 12.969c-1.5 1.618-1.082 2.2.938 1.3l34.095-15.2.03.713c.215 4.963 4.247 10.18 8.99 11.647l6.289 1.943c5.808 1.796 12.42-1.288 14.772-6.902l1.42-3.391c1.707-4.074-.454-7.907-4.822-8.56l-12.797-1.917c-7.101-1.063-18.632-1.161-24.174-.429l1.957-5.007c1.81-4.632 2.523-12.344 1.591-17.219l-.019-.1s-5.986 1.32-8.72 2.65c-2.736 1.33-10.472 6.677-10.472 6.677l10.471-18.677-2.034.292c-10.934 1.57-26.937 8.241-35.742 14.9l-8.29 6.268z" fill-opacity=".223" fill="#D5B6A7"/><path fill-opacity=".304" fill="#D5B6A7" d="M434.402 320.347l-19.641 20.009 21.865-13.531-17.771 17.64 23.397-11.633-9.88 15.166 14.916-9.38-4.933 11.646 22.351-20.792h-13.385l3.873-8.098-12 4.83 7.303-9.41z"/><path fill-opacity=".587" fill="#573728" d="M263.77 513.496l25.268-94.211 1.427 19.483 18.057-52.74v23.01l27.707-31.562.714 15.21 21.71-12.326-17.806 33.605-12.822-16.323-16.017 21.743-11.644 36.417-15.576-5.669-4.955 59.18z"/><path d="M324.78 412.48l-6.15 33.604 7.67 33.252-4.13 7.654c-2.885 5.347-2.512 13.79.84 18.869l12.919 19.575c3.955 5.993 1.558 12.414-5.36 14.345l-5.578 1.556-.703-23.899 6.231-23.52c1.415-5.337-.517-12.928-4.306-16.945l-6.892-7.306c-5.303-5.623-5.617-15.006-.684-20.977l5.747-6.955a6.925 6.925 0 00-.98-9.81l-1.047-.848c-5.149-4.174-5.411-11.233-.57-15.781l2.994-2.814z" fill="#462C1E"/><path d="M648.996 641.444s12.636-10.778 19.24-14.3c6.605-3.521 21.714-9.772 21.714-9.772s10.699-6.153 16.473-8.117c5.775-1.964 19.097-3.977 19.097-3.977s15.029-2.721 19.7-2.428c4.672.293 15.74.118 15.74.118 8.836-.065 18.799 6.476 22.252 14.608l3.49 8.218c3.454 8.133 3.151 21.181-.678 29.149l-25.195 52.426-20.273 19.28-57.282-17.08-33.164-23.247-1.114-44.878z" fill="#281D1D"/><path d="M650.76 632.01s17.1-10.273 26.236-15.323c9.135-5.05 11.86-6.34 11.86-6.34 9.805-5.087 26.498-11.17 37.265-13.584l-1.87.42c6.462-1.45 17.073-2.624 23.7-2.624h2.19c8.285 0 20.79 3.42 27.913 7.626l-.569-.336c5.233 3.09 11.935 9.853 14.977 15.116l-1.131-1.958c4.144 7.17 6.864 19.662 6.074 27.912l-.637 6.652c-.578 6.044-3.168 15.389-5.782 20.869l-20.012 41.95-13.315-2.485 25.102-54.285c2.319-5.014 3.492-13.503 2.605-18.958 0 0-.719-4.76-1.254-7.16-.536-2.4-1.18-4.633-1.18-4.633-2.83-10.675-14.06-19.857-25.092-20.509l-5.581-.33c-7.166-.422-18.701.304-25.746 1.66 0 0-10.915 1.911-16.476 3.601s-5.677 2.09-5.677 2.09c-11.694 4.933-30.008 14.22-40.902 20.74l-13.977 8.367 1.278-8.478z" fill="#5F4F68"/><path fill="#A391AC" d="M762.052 708.733l30.066-48.84-4.236 16.274L770.28 712.3z"/><path d="M770.078 713.295l10.832 18.698 21.474-40.417c5.437-10.234 9.766-27.92 9.668-39.516l-.132-15.662-15.257-10.285.036 12.404c.02 7.18-2.27 18.347-5.11 24.929l-21.511 49.849z" fill="#221F25"/><path d="M746.501 594.691s2.886-3.906 5.407-5.4c2.52-1.496 7.116-2.027 7.116-2.027l19.285-3.914c11.906-2.417 30.909-1.267 42.426 2.562l10.16 3.378-.473.614c-6.4 8.316-9.119 23.205-8.918 23.867l-1.74-5.741c.96 3.17 3.184 8.003 4.97 10.8l-1.416-2.218c3.862 6.05 7.763 16.72 8.713 23.832l.145 1.08c1.024 7.664-.709 19.597-3.872 26.656l-21.005 46.874v3.54l1.021 2.382 15.725-1.428.509 3.213-40.74 3.594 18.874-38.118c2.942-5.94 6.149-16.056 7.166-22.609l-.128.822c1.102-7.097 1.995-18.67 1.995-25.855v-4.33l-14.633-5.26-8.999-16.99c-3.616-6.828-12.561-14.106-20.026-16.156 0 0-1.42-.656-9.039-2.17-7.619-1.513-12.523-.998-12.523-.998z" fill="#483562"/><path d="M833.185 589.474c-4.417 0-9.403 3.294-11.136 7.356l-1.509 3.535c-1.733 4.062-1.53 10.558.451 14.505l6.909 13.761c2.726 5.43 4.565 14.742 3.918 20.779 0 0 .116 5.756-3.013 14.854-3.13 9.098-22.428 51.119-22.428 51.119l17.52-6.523 18.495-35.647c4.322-8.33 11.048-21.976 15.025-30.482l7.21-15.42c3.276-7.006.928-16.457-5.253-21.116l-12.141-9.15-.032-.049c-2.73-4.154-8.967-7.522-13.94-7.522h-.076z" fill="#766C89"/><path fill-opacity=".389" fill="#E6E1E1" d="M806.063 715.945l-.147 2.98 1.825 2.373 17.495-2.947-1.072-9.234z"/><path d="M503.562 403.61l10.592 6.795 30.288-9.484s7.52-2.187 11.27-2.01c3.75.178 3.711.74 3.711.74 3.063 1.238 7.386 4.198 9.662 6.618l15.071 16.022-1.327-4.34c-1.615-5.278-5.603-13.144-8.902-17.56l-1.067-1.429c-1.322-1.77-3.762-4.36-5.45-5.785l1.838 1.551c-4.638-3.915-13.3-6.578-19.335-5.947l-2.96.31c-4.941.515-12.698 2.414-17.318 4.236l-26.073 10.284zm-42.716-.385l-31.725-9.48c-5.519-1.649-14.65-3.24-20.39-3.552l-3.89-.213c-5.742-.313-13.934 2.474-18.3 6.228l-16.969 14.588 18.602-7.835c5.307-2.236 14.143-2.987 19.746-1.675l39.952 9.352 12.974-7.413z" fill="#3B1900"/><path fill="#9485A4" d="M784.2 725.306v5.594l41.655-3.594-.99-4.635z"/><path d="M837.135 606.344c-.748 2.066-.943 5.476-.435 7.623l4.726 19.971c.89 3.758 4.266 5.132 7.528 3.079l.676-.426c1.406-.885 2.212-2.899 1.798-4.508l-5.77-22.401c-.689-2.675-3.449-5.206-6.2-5.203 0 0 .606-.656-1.063.359-1.669 1.014-1.26 1.506-1.26 1.506zm6.259 50.533c-1.083-.214-2.237.463-2.579 1.52l-15.62 48.304 12-22.812 6.191-11.63c1.558-2.926 2.896-7.988 2.988-11.3l.013-.476c.046-1.656-1.24-3.26-2.862-3.58l-.13-.026z" fill="#534967"/><path d="M822.755 614.322c-.541-2.697 1.25-5 4.012-5.147l-2.827.15c3.31-.175 7.037 2.154 8.328 5.212l2.264 5.361c1.7 4.026 2.166 10.722 1.045 14.933l-.243.916-8.477-14.127s-2.597-4.373-3.64-6.231c-1.042-1.859-.462-1.067-.462-1.067zm-84.664-19.6l9.466-7.053c3.102-2.31 8.676-4.872 12.444-5.718l10.662-2.397c4.586-1.031 12.12-1.867 16.814-1.867h-.294c4.7 0 12.295.443 16.962 1.003 0 0 4.273.468 6.185.816 1.912.35 15.454 3.418 15.454 3.418 3.235.73 5.219 3.93 4.708 6.015-4.243-.105-10.922-2.213-13.065-3.552l-5.243-1.14s-4.902-.42-7.308-.762c-2.405-.34-13.055-.973-13.055-.973s-7.484.492-11.09.973c-3.605.481-8.626 1.658-8.626 1.658l-14.1 2.198c-3.273.51-7.657 2.99-9.775 5.518l-1.263 1.508-8.876.355z" fill-opacity=".389" fill="#E6E1E1"/><path fill="#D8BB85" d="M1106.439 1045.77l-2.462 12.334 24.204 21.7 1.101-8.83-16.266-16.423.505-8.083z"/><path fill="#806636" d="M1084.62 929.16l20.47 59.258 3.477 26.408-2.468 33.295 7.531-1.762.247-57.59-25.096-82.395z"/><path fill="#522222" d="M1080.324 801.123l18.76 92.82-1.065-70.636z"/><path d="M1097.501 823.835l1.424 71.723 16.637 55.988 1.56-142.512-2.629 2.897c-3.64 4.01-10.597 9.049-15.546 11.258l-1.446.646z" fill="#E8BC6B"/><path d="M1075.897 753.222l4.086 47.731 18.093 23.119s7.074-3.388 10.219-5.82c3.144-2.434 9.048-9.09 9.048-9.09s-.225-15.409-1.456-23.092c-1.23-7.684-3.803-9.745-3.803-9.745l-36.187-23.103z" fill="#F0CB87"/><path d="M1075.956 753.23l11.197 30.294 30.13 26.358s-.062-14.833-1.012-21.936c-.95-7.104-3.432-11.304-3.432-11.304l-36.883-23.411z" fill="#BA9B64"/><path fill="#D4B988" d="M1080.385 801.244l3.373 60.362 16.033 35.067z"/><path d="M1075.95 753.782l-11.455 126.195-25.708 59.292-1.982.799c-3.071 1.237-6.672 4.687-8.057 7.693 0 0-7.68 17.207-14.039 27.783-6.358 10.577-10.216 13.935-10.216 13.935l-1.092 3.517c-.82 2.638-.18 6.591 1.432 8.836l2.243 3.122c1.286 1.79 4.09 2.957 6.28 2.605l37.648-6.062 33.693-73.01s4.726-14.167 4.225-22.346c-.298-4.867-4.389-58.25-8.014-100.398-3.626-42.148-4.958-51.961-4.958-51.961z" fill="#945E1B"/><path d="M1035.72 946.623c0-2.239-1.988-3.02-4.435-1.748l1.507-.784c-1.472.766-3.31 2.556-4.109 4.007l-16.95 30.776-6.706 9.715s-.315 2.652 0 3.75c.315 1.097 0 0 0 0 1.12 1.827 3.719 2.744 5.49 2.156 0 0 0-.005 0 0 .001.004.136-.084.586-.39 1.116-.759 0 0 0 0 2.303-2.231 5.698-7.288 7.58-11.287l17.037-36.195z" fill="#D8D8D8"/><path fill="#543D3D" d="M1047.065 945.884l-13.24 26.566 13.79-12.602z"/><path d="M1047.912 955.505s4.477.293 6.704 0c2.227-.294 7.632-1.888 7.632-1.888l-7.725 16.331c-1.182 2.5-4.175 3.593-6.677 2.445l-8.487-3.894 8.553-8.496v-4.498z" fill="#D8D8D8"/><path fill="#695151" d="M1038.92 968.71l-4.898 4.317-.855 6.644 18.382-4.849z"/><path d="M1083.57 867.664l-.675 31.49-.245.026c-3.671.372-9.491 1.607-12.437 2.573h0" stroke="#664112"/><path fill="#543D3D" d="M1071.064 901.69l.17 3.997 11.073-2.836.813-3.527z"/><path d="M1003.502 999.226h11.663c4.403 0 11.409-.955 15.662-2.136l18.292-5.082 1.552 9.577-37.656 6.308c-2.183.365-4.743-.953-5.873-2.839 0 0 .73.838-.275-.354s-3.365-5.474-3.365-5.474z" fill="#613E13"/><path d="M959.656 947.58l26.11 33.856 17.183-15.031-19.452-25.238s-11.586.86-16.941 2.3c-5.355 1.44-6.9 4.112-6.9 4.112z" fill="#5F5C5C"/><path d="M983.255 940.79l19.453 25.758 24.727-17.2c2.443-3.588 8.009-8.334 11.451-10.096l25.968-60.105 10.515-61.054c1.406-8.162 2.19-21.49 1.752-29.75l-1.58-29.819c-.38-7.17-4.416-17.455-9.006-22.962l-3.566-4.277-38.649 117.111c-2.078 6.3-7.096 7.191-11.207 1.992l-68.77-86.97c-1.711-2.162-2.549-6.09-1.876-8.754l13.713-54.288 6.323-61.622-4.467-53.195-26.851-27.897.537 18.494c.192 6.625-.606 17.283-1.78 23.795l-2.682 14.862c-1.667 9.24-5.06 24.06-7.617 33.1 0 0-7.104 26.075-11.488 37.513-4.383 11.437-25.758 55.313-25.758 55.313l-17.727 57 20.721 22.958 5.449-8.33 2-1.788c3.709-3.316 10.438-7.546 15.023-9.443l3.426-1.418c4.085-1.69 10.291-.953 13.863 1.648l.477.348 71.763 85.763c1.419 1.696 2.836 4.842 3.166 7.03l-.147-.973c.577 3.823.051 9.897-1.172 13.56l-10.505 31.473-5.48 2.223z" fill="url(#d)"/><path fill="#6D4A1E" d="M1049.187 992.7l34.454-87.854 5.46 3.824-10.632 34.061-28.544 58.067z"/><path d="M1003.764 899.23l51.161-3.886M1035.1 823h37.607m-222.67-134.004l49.97 9.719s7.374 37.027 10.222 55.779c2.849 18.751 4.687 42.369 4.687 42.369" stroke-opacity=".359" stroke="#555252" stroke-width="4"/><path d="M650.03 620.437l32.923-21.018c12.57-8.024 34.002-18.943 47.897-24.399l15.156-5.95c7.195-2.825 19.236-5.957 26.904-6.997l17.146-2.326c9.302-1.261 24.302-.766 33.495 1.105l8.388 1.706c3.791.772 9.09 3.613 11.829 6.339l8.933 8.893c3.134 3.12 6.154 9.203 6.744 13.579l2.715 20.137-15.94-19.821c-4.846-6.026-14.812-12.578-22.269-14.637l-12.605-3.481c-4.79-1.323-12.693-2.012-17.625-1.525 0 0-13.301 1.204-19.477 2.268-6.175 1.064-13.632 4.224-13.632 4.224-7.236 2.709-18.717 7.704-25.631 11.15l-41.862 20.864-42.777 22.035-.312-12.146z" fill="#401D1D"/><path d="M705.32 602.603l38.622-19.368 13.366-5.047a36.152 36.152 0 013.807-1.156l15.559-3.616 12.303-1.317c4.944-.53 12.943-.398 17.871.294l8.763 1.23 8.651 2.516c2.65.77 6.774 2.44 9.218 3.734l-4.03-2.133c7.81 4.133 18.288 13.335 23.39 20.536l7.1 10.018-17.79-15.012-11.732-3.865c.27-3.032-2.63-5.82-6.481-6.23l-4.61-.49-19.172-3.558c-3.798-.705-10.006-1.19-13.872-1.085l1.399-.038c-3.862.106-10.028 1.002-13.76 1.983 0 0-7.43 2.038-11.119 2.698-3.69.661-1.226.181-1.226.181-4.956.198-12.042 2.984-15.81 6.21l-7.143 6.117-33.305 7.398z" fill="#765252"/><path d="M650.496 607.541s31.837-19.133 47.894-26.717 62.843-26.29 62.843-26.29c6.146-2.473 16.466-5.13 23.043-5.931l8.24-1.005c8.775-1.07 23.05-1.938 31.884-1.938h12.15c7.735 0 18.604 4.255 24.286 9.515l9.504 8.797c3.65 3.378 6.805 10.145 7.046 15.116l.897 18.446c.43 8.83-1.526 22.774-4.362 31.134L837.739 735.3s-8.875-4.737-12.362-8.2c-3.487-3.465-1.73-5.799-1.73-5.799v-12.65s16.193-28.658 22.97-45.053c6.777-16.395 12.526-40.202 12.526-40.202 1.801-6.945 1.922-18.237.27-25.22l-1.515-6.405c-1.145-4.839-5.167-11.344-8.997-14.51 0 0-5.93-5.045-9.061-7.171-3.13-2.126-4.695-2.717-4.695-2.717-5.395-2.786-14.673-5.45-20.74-5.925 0 0-10.85-.993-16.042-.895-5.191.099-17.752 1.777-17.752 1.777-4.384.549-11.336 2.142-15.506 3.568 0 0-36.575 12.158-57.533 22.036-20.959 9.878-57.076 32.965-57.076 32.965V607.54z" fill="#A991AF"/><path d="M851.076 550.862c-.802-.752-2.275-.989-3.28-.535l1.827-.826c-3.587 1.621-3.697 5.17-.245 7.925l10.86 8.671c1.297 1.035 3.287.923 4.46-.265l-2.112 2.14c1.794-1.817 1.62-4.815-.4-6.706l-11.11-10.404z" fill="#D8D8D8"/><path d="M738.268 594.89l8.097-6.372c2.605-2.05 7.347-4.29 10.57-4.999l18.74-4.12c2.156-.474 5.69-.967 7.892-1.1l-.945.057c4.592-.28 12.02-.054 16.586.502l22.925 2.795c1.641.2 4.028 1.196 5.332 2.226l.615.486c3.035 2.397 2.43 5.006 2.145 5.068 0 0-8.738-2.903-13.109-4.056-4.37-1.153-4.702-1.112-4.702-1.112-4.507-.931-11.883-1.686-16.486-1.686h-4.037c-4.598 0-12.005.622-16.544 1.389l-16.047 2.71c-4.538.768-10.118 4.598-12.11 7.96l-8.922.252z" fill-opacity=".117" fill="#DCDCDC"/><path d="M1030.414 544.931l5.835 41.801c1.375 9.848-1.002 25.098-5.306 34.054L969.249 749.17c-1.676 3.489-.992 8.695 1.523 11.62l60.44 70.328 40.06-119.955c7-20.958 10.31-55.694 7.394-77.597l-1.091-8.195c-1.53-11.492-7.398-28.992-13.103-39.081l-7.021-12.416-27.037-28.943z" fill="#7FA9BD"/><path d="M1033.48 549.969c-.296-2.743-2.717-5.451-5.424-6.054l-38.086-8.475c-15.096-3.359-39.861-5.918-55.323-5.716l-29.419.384 52.763 56.193 3.783 53.344-5.9 59.97-2.122 8.666-11.243 45.897c-.79 3.221.242 7.934 2.3 10.522l68.735 86.422c3.437 4.322 7.95 3.698 10.084-1.398l8.105-19.369-58.588-67.537c-3.255-3.751-4.165-10.427-2.03-14.915l59.644-125.396c4.743-9.973 7.63-26.958 6.448-37.935l-3.728-34.603z" fill="url(#e)"/><path d="M959.715 783.035l22.529-18.033c4.74-3.794 11.778-3.127 15.727 1.5l20.653 24.202c3.225 3.78 5.151 10.81 4.3 15.716l-2.464 14.204-16.53 15.951m-3.376-86.921l23.578 34.674-.73-32.862z" stroke-opacity=".412" stroke="#606060" stroke-width="3"/><path fill="#5E4747" d="M938.798 563.943l29.168 6.35-9.182 16.817z"/><path fill-opacity=".433" fill="#EDEDED" d="M924.164 542.888l51.234 12.456-7.122 15.324-30.52-6.805z"/><path d="M833.838 794.4l31.204 3.624 20.83-63.296 24.015-48.2 16.716-64.064c2.231-8.549 4.547-22.625 5.158-31.443 0 0 .363-4.651.434-6.958.07-2.308.992-19.457.992-19.457.235-4.411-2.127-10.485-5.292-13.582l-21.711-21.251c-5.13-5.022-15.084-9.624-22.237-10.28l-12.272-1.126c-9.352-.858-24.348.17-33.49 2.295l-56.65 13.168c-6.997 1.626-17.815 5.651-24.184 9.002l-97.026 51.049 96.692-48.183c9.89-4.928 26.787-10.03 37.749-11.397l2.313-.288c11.505-1.434 30.18-1.518 41.695-.19l3.437.397c6.037.697 14.04 5.075 17.883 9.786l8.59 10.532c3.143 3.853 6.03 10.99 6.45 15.94l1.69 19.984c1.026 12.109-1.467 31.196-5.58 42.624 0 0-10.813 30.375-22.876 62.445s-17.221 31.811-17.221 31.811l2.69 67.057z" fill="url(#f)"/><path d="M753.475 547.037l29.676-3.2c8.233-.887 21.62-1.435 29.898-1.225l28.699.732c3.31.084 7.81 2.119 10.06 4.55l23 24.876c.552-4.31-.872-10.864-3.193-14.623 0 0-1.703-2.868-2.789-4.354-1.085-1.486-4.545-7.888-4.545-7.888l-6.492-5.28c-4.713-3.834-13.463-7.062-19.527-7.21l-29.044-.71-11.206.852c-7.714.588-19.772 3.421-26.932 6.33l-17.605 7.15z" fill-opacity=".034" fill="#EDECEC"/><path d="M853.23 689.319l48.355 16.045m-21.668-82.434l43.6 4.404" stroke-opacity=".688" stroke="#737070" stroke-width="3"/><path d="M880.73 571.182l47.27-7.245" stroke-opacity=".375" stroke="#737070" stroke-width="3"/><path d="M650.297 600.533l60.548-32.024 43.489-21.645 37.417-5.645 23.03-.073 26.301 1.582s2.647.404 3.99.818c1.342.414 4.899 1.925 4.899 1.925l4.87 5.952-7.68-2.72c-4.686-1.659-12.52-2.901-17.477-2.775l-19.8.503-16.316 2.386c-9.84 1.439-25.492 5.076-34.953 8.12l-15.604 5.02-52.76 23.186-39.613 22.57-.341-7.18z" fill="#4A4682"/><path fill="url(#g)" d="M2.492 1013.948l52.51 21.91-52.197 57.65z"/><path fill="#FFFCBD" d="M93.435 993.751l-91.373 98.93v206.462l336.734.815-14.971-83.24-157.519-171.774z"/><path fill="#EEEB9D" d="M145.006 1039.932l-44.738 46.381 47.538 6.02-54.721 43.772 129.485 163.279 84.003-1.662 13.684-56.163z"/><path fill="#FFFED9" d="M100.416 1294.944l49.81-37.532 35.336 37.653zm-99.248-91.351l41.689 32.308-39.467-49.688z"/><path fill-opacity=".503" fill="#2C2525" d="M423.74 451.919l-13.121 25.07 21.309-16.852-6.222-1.518 5.039-8.019z"/><g transform="translate(356 400)"><path d="M66.378 30.588c-4.12-2.768-11.46-5.493-16.395-6.087l-5.594-.673c-5.484-.66-14.2.127-19.474 1.76L.2 33.243 23.62 44.1c-.524-2.902 1.233-6.81 3.938-8.74l-.112.08c4.61-3.29 12.927-5.797 18.595-5.6l4.251.148c5.522.192 13.848 2.63 18.626 5.413 0 0 8.874 5.44 13.675 7.271 4.802 1.831-16.216-12.084-16.216-12.084z" fill-opacity=".817" fill="#1D1A1A"/><path d="M82.04 48.53c4.342-.804 4.79-3.292 1-5.557L71.676 36.18c-2.368-1.415-6.449-3.164-9.11-3.905L56.901 30.7c-2.664-.741-7.06-1.191-9.816-1.004l-2.242.152c-3.857.26-9.884 1.662-13.464 3.131l.447-.183c-2.557 1.05-5.94 3.715-7.553 5.952l-.291.404c-1.292 1.79-1.16 4.596.29 6.26l.136.156c.725.832 2.142 1.842 3.171 2.258l2.976 1.203c5.12 2.07 13.748 3.72 19.273 3.684l3.005-.02c3.864-.024 10.073-.615 13.877-1.32l15.33-2.841z" fill="#D8D8D8"/><ellipse fill-opacity=".852" fill="#230F06" cx="52" cy="41" rx="17" ry="12"/><g transform="translate(41 30)"><ellipse stroke="#242323" fill="url(#h)" cx="10.961" cy="11.146" rx="10.961" ry="10.522"/><ellipse stroke="#FFF" fill="#EFEEEE" cx="11.593" cy="6.261" rx="4.074" ry="2.391"/></g><path d="M22.947 41.728c1.74 3.359 6.34 6.772 10.273 7.625l9.932 2.151s6.14.988 8.573.925c2.433-.063 7.611-.925 7.611-.925s8.164-1.298 12.432-2.014c4.267-.715 12.326-2.557 12.326-2.557-1.939 2.525-6.7 5.215-10.657 6.012l-11.3 2.28c-3.947.795-10.403 1.248-14.418 1.01l-12.182-.72-6.48-2.308c-3.795-1.351-6.598-5.695-6.26-9.705l.15-1.774z" fill="#5B4B3E"/><path d="M107.778 25.333l-3.464-3.392c-6.313-6.182-18.39-12.874-26.981-14.948L52.696 1.045c-4.832-1.167-12.592-.898-17.33.599l-7.677 2.425-1.623.724C20.516 7.27 13.503 13.508 10.4 18.734L2.66 31.768l20.542-5.684 13.813-3.75c2.271-2.569 7.248-4.854 11.095-5.103l.533-.034c7.169-.463 18.03 2.063 24.25 5.636l4.35 2.5 12.096 6.435 11.124 8.448 7.315-14.883z" fill-opacity=".345" fill="#87592B"/><path d="M37.777 22.685c2.478-2.601 8.044-5.18 10.571-5.515l-6.083.805c3.36-.444 10.563-.805 16.085-.805H48.348c6.644 0 17.418 2.2 20.596 3.496l13.373 6.677 7.793 5.36-4.123 11.385-13.679-9.765-8.97-5.429c-4.746-2.027-13.456-4.397-19.472-5.298l-6.09-.91z" fill-opacity=".293" fill="#DAAA7B"/></g><g transform="matrix(-1 0 0 1 593 398)"><path d="M66.378 32.588c-4.12-2.768-11.46-5.493-16.395-6.087l-5.594-.673c-5.484-.66-14.2.127-19.474 1.76L.2 35.243 23.62 46.1c-.524-2.902 1.233-6.81 3.938-8.74l-.112.08c4.61-3.29 12.927-5.797 18.595-5.6l4.251.148c5.522.192 13.848 2.63 18.626 5.413 0 0 8.874 5.44 13.675 7.271 4.802 1.831-16.216-12.084-16.216-12.084z" fill="#1D1A1A"/><path d="M82.04 50.53c4.342-.804 4.79-3.292 1-5.557L71.676 38.18c-2.368-1.415-6.449-3.164-9.11-3.905L56.901 32.7c-2.664-.741-7.06-1.191-9.816-1.004l-2.242.152c-3.857.26-9.884 1.662-13.464 3.131l.447-.183c-2.557 1.05-5.94 3.715-7.553 5.952l-.291.404c-1.292 1.79-1.16 4.596.29 6.26l.136.156c.725.832 2.142 1.842 3.171 2.258l2.976 1.203c5.12 2.07 13.748 3.72 19.273 3.684l3.005-.02c3.864-.024 10.073-.615 13.877-1.32l15.33-2.841z" fill="#D8D8D8"/><ellipse fill-opacity=".852" fill="#230F06" cx="52" cy="43" rx="17" ry="12"/><g transform="translate(41 32)"><ellipse stroke="#242323" fill="url(#h)" cx="10.961" cy="11.146" rx="10.961" ry="10.522"/><ellipse stroke="#FFF" fill="#EFEEEE" cx="4.593" cy="12.261" rx="4.074" ry="2.391"/></g><path d="M22.947 43.728c1.74 3.359 6.34 6.772 10.273 7.625l9.932 2.151s6.14.988 8.573.925c2.433-.063 7.611-.925 7.611-.925s8.164-1.298 12.432-2.014c4.267-.715 12.105-1.68 12.105-1.68-1.817 2.04-6.48 4.338-10.436 5.135l-11.3 2.28c-3.947.795-10.403 1.248-14.418 1.01l-12.182-.72-6.48-2.308c-3.795-1.351-6.598-5.695-6.26-9.705l.15-1.774z" fill="#715137"/><path d="M92.884 19.682C90.926 18 82.606 14.195 74.3 11.182L46.703 1.176C42.026-.521 34.873.32 30.729 3.052L26.166 6.06l-3.772 3.317c-4.558 4.01-11.07 11.302-14.545 16.29l-6.692 9.602 22.045-7.185 13.813-3.75c2.271-2.569 7.248-4.854 11.095-5.103l.533-.034c7.169-.463 18.03 2.063 24.25 5.636l4.35 2.5 12.096 6.435v1.5l3.545-15.586z" fill-opacity=".37" fill="#714C27"/><path d="M37.777 24.685c2.478-2.601 8.044-5.18 10.571-5.515l-6.083.805c3.36-.444 10.563-.805 16.085-.805H48.348c6.644 0 17.418 2.2 20.596 3.496l13.373 6.677 7.793 5.36-4.123 11.385-13.679-9.765-8.97-5.429c-4.746-2.027-13.456-4.397-19.472-5.298l-6.09-.91z" fill-opacity=".287" fill="#DAAA7B"/></g><path d="M495.455 435.73c.499-4.386-1.277-10.784-3.972-14.296l-.457-.595c-1.684-2.195-5.275-3.676-7.998-3.311l-7.664 1.026c-5.175 5.646-8.84 16.468-8.189 24.167l.158 1.86-1.46 20.795-15.32 34.53.015-.006c10.51-4.903 26.425-14.681 33.256-20.043h6.668c1.661 0 4.103.789 5.444 1.756l-2.436-1.756c10.54 7.6 19.083 17.661 19.083 17.661l-14.746-25.099-1.44-4.394c-1.893-5.772-2.871-15.337-2.184-21.374l1.242-10.92z" fill-opacity=".232" fill="#D8AD82"/><path d="M493.827 423.566l12.887 37.608c1.611 4.702 5.67 11.45 9.075 15.084l-3.569-3.808c3.778 4.03 6.238 11.732 5.495 17.213l-1.843 13.585-4.152-8.534-11.53-18.638-4.055-6.9-1.649-12.052 1.306-22.045-1.965-11.513z" fill-opacity=".653" fill="#A87644"/><path d="M494.68 480.135h-11.491l-32.322 19.776s-.674 7.105.814 9.866c1.489 2.761 6.759 4.18 6.759 4.18s17.725-2.64 26.452-2.497c8.727.143 25.715 3.35 25.715 3.35s3.602-3.296 4.765-5.033c1.164-1.736.994-7.423.994-7.423l-21.687-22.219z" fill-opacity=".066" fill="#754E27"/><ellipse fill-opacity=".215" fill="#2D2828" transform="rotate(-17 470.26 504.641)" cx="470.26" cy="504.641" rx="5.835" ry="4.129"/><ellipse fill-opacity=".215" fill="#2D2828" transform="scale(-1 1) rotate(-17 0 3855.5)" cx="500.787" cy="504.655" rx="5.835" ry="4.129"/><path d="M435.966 562.919l24.006-21.697c3.277-2.961 9.505-5.715 13.885-6.149l-.67.067c4.393-.435 10.535 1.688 12.625 3.69l4.478-2.015c3.019-1.36 8.053-1.737 11.24-.844l-1.684-.472c4.252 1.192 10.05 4.86 12.947 8.192l16.723 19.228-24.384-8.494-4.036-1.329-14.526 2.09-15.63-2.877-34.974 10.61z" fill="#A95159"/><path d="M444.278 560.098l8.914 5.938c4.768 3.176 13.284 5.868 19.004 6.013l25.99.66c5.728.145 14.17-2.411 18.853-5.706l8.262-5.814-23.223-8.113-17.167 1.601-13.972-2.71-26.661 8.131z" fill="#B45860"/><ellipse fill-opacity=".481" fill="#FAA" cx="472" cy="558.5" rx="7" ry="2.5"/><path d="M378.715 443.563l1.514 1.36c1.976 1.776 5.594 3.973 8.082 4.908l.502.188c2.487.935 6.634 2.056 9.247 2.502l.559.096c2.619.447 6.9.68 9.543.52l9.207-.556" stroke-opacity=".599" stroke="#715137" stroke-width="1.5"/><path d="M570.654 443l-1.514 1.36c-1.976 1.776-5.594 3.973-8.082 4.908l-.501.188c-2.488.935-6.635 2.056-9.248 2.502l-.559.096c-2.619.447-6.9.68-9.543.52l-9.207-.555" stroke-opacity=".599" stroke="#333" stroke-width="1.5"/><ellipse fill="#FFF" cx="549" cy="447.5" rx="2" ry="1.5"/></g><path d="M404.584 453.062l-8.639 13.753c-2.058 3.276-4.898 8.833-6.347 12.423l-5.316 13.165c-2.555 4.963-8.836 12.74-8.836 12.74l2.992-2.669c-1.653 1.474-4.503 1.696-6.241.576l3.249 2.093c-1.795-1.156-2.216-3.563-.948-5.367l-2.301 3.274c1.423-2.025 4.943-10.906 5.435-12.408-.109-4.266-3.514-6.39-6.075-5.36-2.161 1.852-4.386 6.456-4.967 10.275l-.205 1.346-.141.72c-.64 3.25.023 8.298 1.484 11.283l-1.423-2.907c1.215 2.48 4.282 5.31 6.848 6.318l-4.09-1.607c4.624 1.817 10.857.108 13.91-3.8l-2.485 3.181c3.058-3.916 6.828-10.904 8.46-15.596 0 0 3.916-12.134 8.552-21.747 4.636-9.614 13.12-20.748 13.12-20.748l-6.036 1.062z" fill="#2C2525"/><g fill="#333"><text transform="rotate(-3 22489.647 -20802.464)" font-family="GiddyupStd, Giddyup Std" font-size="36"><tspan x="3.095" y="43.044">Mai Nguyen</tspan></text><text transform="rotate(-3 22517.871 -20610.047)" font-family="SFProText-Regular, SF Pro Text" font-size="18"><tspan x="35.966" y="78.902">12/10/2018</tspan></text></g></g></svg>